<?xml version="1.0" encoding="UTF-8"?>
<svg id="Calque_1" xmlns="http://www.w3.org/2000/svg" version="1.1" viewBox="0 0 2732 2500">
  <!-- Generator: Adobe Illustrator 29.5.1, SVG Export Plug-In . SVG Version: 2.1.0 Build 141)  -->
  <path d="M1077.72,594.06c33.54,6.28,81.71-4.53,113.03,1.92,7.26,1.49,14.5,9.53,21.45,12.55,24.14,10.47,45.12,17.3,69.35,30.65,12.21,6.73,23.25,16.1,36,22.07,3.97.36,22.98-18.17,27.98-21.4,6.44-4.16,49.25-27.1,54.16-27.87,6.81-1.07,37.09,2.39,45.31,3.74,9.54,1.58,32.01,6.39,40.58,9.42,26.85,9.49,28.05,21.84,45.59,36.41,7,5.82,18.72,10.11,27.06,16.94,15.76,12.9,26.03,31.33,41.27,44.73,14.67-6.73,28.5-15.66,43.32-22.09,22.97-9.96,36.49-11.57,59.83-16.17,10.17-2.01,26.45-8.99,34.75-9.27s20.97,3.38,29.75,3.93c20.05,1.25,20.14-3.36,41.77,6.18,26.28,11.58,20.63,15.44,35.29,34.71,9.97,13.11,24.98,20.92,34.45,35.55,18.69,28.89,37.24,61.4,39.51,96.48,3.04,47-5.1,106.67-20.51,151.42-4.08,11.83-14.52,22.38-20.49,33.51-7.15,13.34-11.63,32.02-20.09,43.91-19.63,27.58-56.73,63.18-72.49,91.51-6.42,11.55-7.03,24.07-12.62,35.38-5.27,10.64-14.3,18.79-18.71,31.29-21.36,60.5-29.12,127.78-41.64,190.36-2.51,12.54-9.31,26.56-10.89,39.11s.69,25.2-.73,37.27-7.41,25.66-9.54,38.46c-6.07,36.45-9.4,77.7-16.76,113.24-3.03,14.61-11.97,27.63-16.07,41.93-9.48,33.05-20.9,68.22-37.07,98.93-16.56,31.45-43.08,55.27-74.97,71.03-14.65,7.24-62.27,25.75-77.24,28.76-9.94,2-19.62-.25-29.09.91-31.82,3.91-56.86,8.13-90.1,6.04-21-1.32-45.38-8.33-65.96-10.04-30.57-2.54-61.06-3.13-91.49-8.51-7.26-1.28-15.22-6.38-22.65-7.35-10.66-1.4-21.63.7-32.93-1.07-52.74-8.26-119.77-39.6-165.81-66.19-7.24-4.18-15.56-5.42-23.09-10.91-9.6-7.02-18.69-21.11-27.96-30.04-13.87-13.38-29.28-23.61-41.87-40.13-31.04-40.7-33.55-68.7-49.13-114.87-2.74-8.12-8.16-15.15-10.64-23.36-12.61-41.66,4.69-109.61,15.53-151.67,23.97-92.96,61.99-181.11,95.1-270.9,10.55-28.6,24.75-60.37,34.07-87.93,18.57-54.93,45.33-141.15,49.86-198.14,3.34-42.03-11.61-50.02-19.49-84.44-18.27-79.79-12.72-186.82,85.04-205.99ZM1134.21,603.53c12.46,13.93,32.6,18.16,46.66,28.34,15.42,11.17,28.01,28.98,45.54,38.46,6.63,3.59,13.41,4.49,20.85,9.15,9.42,5.9,14.5,14.78,23.92,20.07l36.07-30.03c-9.87-6.63-21.36-8.17-31.67-14.35s-17.29-16.55-28-22c-23.22-11.8-38.15-12.6-60.48-19.52-5.32-1.65-15.93-10.12-19.88-10.12h-33ZM1685.52,1102.84c6.58-7.73,9.59-19.6,15.02-27.99,27.47-42.47,62.47-74.32,90.93-115.07,34.54-49.45,55.11-91.38,58.82-153.17,2.24-37.3-10.82-90.82-46.23-109.94-27.48-14.84-40.03-7.89-66.88-5.18-10.2,1.03-21.32-1.21-31.5.5-7.56,1.28-16.62,7.21-24.59,9.41-30.84,8.55-49.24,13.33-77.56,30.44-6.1,3.69-10.33,10.58-17.98,14.02-22.25,10-42.72,3.26-57-15.69-22.89-30.37-58.68-83.44-92.97-101.02-16.73-8.58-23.91-2.06-40.88,1.86-4.22.98-8.8.03-13.01.99-30.45,6.92-57.12,44.53-79.65,62.35-4.87,3.85-30.05,16.13-35.11,16.66-13.86,1.44-37.55-23.65-47.75-31.44-15.87-12.12-32.22-23.68-47.9-36.1-5.54-4.39-10.58-12.23-16.35-15.65-10.67-6.33-52.85-17.56-65.63-18.37-22.63-1.43-29.83-1.13-47.11,13.06-41.63,34.19-46.92,71.12-45.96,122.05.79,41.91,13.76,65.9,22.45,103.52,8.22,35.61-2.8,90.92-11.39,127.53-6.44,27.42-19.95,53.17-21.05,81.93,28.51-24.15,57.06-45.22,96.8-39.82,6.88.93,12.49,3.79,17.16,8.84,19.84,21.47,14.22,62.43,16.04,89.96,2.5,37.83,5.26,67.88,13.43,104.57,1.92,8.61,1.58,18.39,3.45,26.55,3.58,15.58,23.8,60.08,34.23,71.77,4.26,4.78,32.69,24.48,40.23,29.77,28.14,19.75,51.81,3.85,70.61-18.7,43.61-52.31,80.62-144.75,137.79-182.21,10.8-7.07,15.7-9.34,28.34-3.84,23.54,10.26,20.6,31.81,27.84,52.16,12.06,33.92,23.42,70.61,48.99,97.01,3.16,3.26,21.77,17.73,25.2,18.96,2.52.9,3,.56,5.28-.49,5.46-2.51,38.4-36.03,43.64-42.53,38.56-47.85,42.68-108.59,77.32-154.68,4.29-5.71,9.77-8.28,12.96-12.03ZM1588.21,729.5c.82-3.03-.81-3.31-1.97-5-4.9-7.15-20.84-21.12-28-28-27.92-26.83-60.12-58.61-97.97-70.03-3.36-1.01-6.58-1.26-10.05-.92l21.05,17.92c31.51,24.9,50.95,70.34,83.13,92.87,17.92,12.55,17.67-2.44,33.81-6.84ZM1646.39,1203.25c20.63,9.67,20.65,35.05,28.08,53.01,3.64,8.79,23.77,39.19,31.71,42.29,3.08,1.2,15.75,3.91,18.15,2.14,6.46-15.49,8.61-32.43,13.8-48.25,4.94-15.08,15.12-48.17,21.75-60.25,18.75-34.17,45.93-62.42,67.99-94.01,7.75-11.11,11.63-25,18.68-35.32,7.98-11.69,17.4-16.95,24.02-31.98,13.07-29.64,28.67-70.86,33.4-102.6,6.96-46.67,3.21-95.61-16.79-138.72-6.42-13.85-21.15-25.27-29.98-38.02-1.95,10.01,2.53,20.78,3.09,30.91,2.38,43.23-3.73,74.26-17.55,114.62-10.7,31.25-39.8,71.26-60.59,97.41-4.09,5.14-9.95,8.84-13.64,14.35,10.9,18.01,11.66,39.43,17.55,59.45l-6.87,1.29c-3.23-16.63-5.47-35.92-12.53-51.47-.66-1.45-2.41-5.42-4.45-3.59-7.67,8.25-12.61,20.42-19.12,28.9-27,35.13-52.11,60.74-73.2,100.8-10.09,19.17-18.84,37.69-23.48,59.06ZM1612.19,1263.53c-9.31,8.93-16.18,20.58-24.95,30.03-5.88,6.33-33.79,32.75-40.3,33.48-6.93.78-20.93-10.38-25.77-15.47-29.28-30.78-43.72-69.58-54.65-109.35-2.13-7.77-20.9-47.33-26.38-49.77-14.45-6.42-47.49,31.54-55.88,42.12-24.02,30.29-46.14,62.71-66.91,95.09-16.31,25.43-43.05,78.15-78.09,80.01-16.47.87-50.62-11.65-62.07-24.13-58.05-63.23-67.06-140.77-69.06-222.94-.64-26.47,5.64-72.12-18.06-89.94-17.72-13.32-34.05-6.47-53.25.47-31.46,11.37-53.93,27.53-67.57,58.43-22.21,50.27-38.05,107.25-57,159-31.02,84.7-70.13,170.37-83.48,260.52-3.33,22.46-6.81,57.11.48,78.41,12.99,37.9,51.84,80.76,81.93,106.07,9.48,7.98,75.16,34.97,88.51,37.49,44.13,8.34,88.23,16.78,133.56,20.44,59.26,4.79,118.77,3.61,178.05,1.94,27.81-.78,55.43-5.82,83.01-8.82,19.93-2.16,48.85-13.38,64.86-25.15,61.03-44.86,62.82-92.52,79.65-160.35s31.46-133.34,47.57-200.43c4.78-19.9,8.14-39.48,12.74-59.26,3.01-12.91,11.65-24.45,13.07-37.9ZM1722.21,1313.54c-56.1,2.87-48.67-56.85-66.89-90.12-2.4-4.38-9.3-15.01-14.05-9.84-3.23,3.51-18.02,48.18-20.06,55.94-8.59,32.58-15.77,65.32-23.97,98.03s-12.49,56.11-17.91,88.09c-1.87,11.02-9.1,22.6-12.12,33.88-18.99,70.89-27.22,200.83-95.6,242.4-68.67,41.75-166.67,41.89-244.31,39.53-75.49-2.29-182.18-3.6-251.64-30.36-27.6-10.63-54.89-28.78-80.16-43.84-6.23-3.71-37.17-31.09-41.27-36.73-3.28-4.51-5.91-9.2-6.03-14.98-4.41.29-.9,9.1-.08,11.09,3.03,7.31,9.65,13.67,13.18,20.82,3.76,7.61,5.07,16.05,8.54,23.46,5.73,12.25,46.22,57.85,57.39,66.61,7.37,5.77,19.21,9.67,26.87,15.13,7.22,5.15,14.31,14.16,22.3,19.7,30.35,21.04,103.48,44.93,140.51,55.49,32.33,9.22,50.91,11.58,84.28,13.72,28.24,1.82,51.15,7.47,78.23,11.77,28.72,4.55,68.71,7.19,97.72,8.28,42.03,1.59,71.25-3.9,111.06-15.1,42.17-11.87,86.86-32.48,112.9-69.1,29.95-42.14,54.84-128.49,66.53-179.47,8.98-39.15,10.7-81.47,14.84-121.16,1.59-15.22,9.21-30.88,11.52-46.48,5.46-37.01,11.64-72.35,18.83-109.17,2.51-12.85,7.46-24.68,9.41-37.58Z"/>
  <path d="M1574.22,1087.52l1.95-7.03c13.1-3.39,29.29-7.3,42-12,6.63-2.45,26.45-15.59,32.04-12.08s3.74,11.5-.93,15.2c-4.83,3.83-72.34,18.64-75.06,15.91Z"/>
  <path d="M1086.23,975.53c-6.27-7.4,33.34-27.93,37.81-31.17,8.52-6.15,23.56-22.4,32.26-25.83,5.76-2.27,10.04,2.27,9.01,7.18-1.84,8.7-33.11,21.02-41.7,26.21-12.43,7.51-22.3,19.45-37.38,23.6Z"/>
  <path d="M1240.23,1143.53c-.63-4.83,2.56-8.26,5.17-11.81,4.1-5.59,17.63-20.55,22.77-25.23,6-5.47,14.95-9.88,21.96-14.11,4.96.69,7.25,3.72,4.21,8.22-1.95,2.89-16.08,14.52-20.1,17.96-2.99,2.56-32.67,26.62-34,24.97Z"/>
  <path d="M1092.22,753.54c5.67-5.31,15.5,18.31,16.96,22.02,3.66,9.32,4.89,18.97,8.08,27.92,1.65,4.62,17.21,28.04,7.93,30.03-7.02,1.51-10.29-21.69-12.01-25.95-7.2-17.8-16.66-34.88-20.95-54.03Z"/>
  <path d="M1740.17,793.55c6.43,14.49-20.47,22.23-31.41,29.52-9.63,6.41-17.76,18.05-30.53,20.45-5.57-5.77,24.26-21.78,26.99-23.99,5.19-4.22,29.08-30.24,34.96-25.97Z"/>
  <path d="M1378.19,819.53c-2.28,9.94-12.47,23.36-19.15,31.83-9.55,12.11-22.69,23.29-31.83,36.13l-4.47-4.94,55.45-63.02Z"/>
  <path d="M1512.23,1005.52l-22-91.99c4.87,2.05,7.47,9.22,8.98,14,5.13,16.29,8.35,35.36,11.93,52.07.94,4.37,7,21.78,6.85,22.97-.21,1.68-3.71,3.64-5.76,2.95Z"/>
</svg>