<?xml version="1.0" encoding="UTF-8"?>
<svg id="Calque_1" data-name="Calque 1" xmlns="http://www.w3.org/2000/svg" viewBox="0 0 1605 1605">
  <path d="M824.66,261.59c-2.58,3.71,14.52,14.85,17.64,16.76,12.1,7.43,7.97,4.09,19.8,4.1,16.65.01,18.56,3.34,31.78,9.28,11.73,5.27,17.87,5.08,27.09,15.89,12.68,14.86,22.5,41.18,27.85,60.14,1.07,3.79,1.68,7.71,1.85,11.64l21.59,7.9,35.24,5.23c-1.8-6.97-2.4-13.16-1.91-20.41.12-1.75,1.73-4.16,1.62-5.11-.06-.52-5.08-4.8-6.71-7.97-9.96-19.43-6.32-41.37,2.51-60.5,3.59-7.78,11.63-12.12,16.48-18.51,11.23-14.77,19.93-25.54,37.06-34.92,4.77-2.61,8.67-3.4,13.42-5.57,4.72-9.69-.17-45.89,5.72-51.77,2.1-2.1,20.06-2.25,22.2.81,2.38,3.41,2.68,25.08,2.54,30.44-.09,3.44-2.14,6.61.04,10.49,3.71-.19,6.78-2.5,10.58-2.87,24.01-2.34,48.21,32.74,51.23,53.51.24,1.64-.12,7.06.17,7.34.17.16,2.8-.02,4.5.98,11.55,6.79,12.28,24.53,11.33,36.45-.16,2-2.02,5.84-1.74,7.02.22.91,3.41,2.5,4.7,4.23,8.36,11.23,11.17,32.89,7.4,46.11-1.56,5.48-13.79,25.96-17.73,30.26-7.47,8.17-28.47,18.2-38.98,21.99-5.06,1.83-10.35,2.56-15.5,4,.43,1.69,4.29,2.34,5.79,2.69,8.22,1.94,16.87,1.84,25.19,3.79,7.4,1.74,15.49,6.28,22.74,7.24,5.85.77,10.14-1.12,15.47-.49,3.2.38,17.26,4.04,18.82,6.17,2.77,3.77-.67,5.42-.8,7.86-.28,5.16,1.33,18.91,1.74,25.21,1.25,19.01,3.96,42.03,1.85,60.89-.7,6.28-3.48,13.18-3.85,19.14-.9,14.52-.24,27.43-2.29,42.71-2.9,21.68-6,43.45-8.81,65.19-.79,6.11-5.49,12.71-7.06,18.93-1.69,6.68-1.5,13.56-3.59,20.41-2.6,8.56-23.95,40.99-30.74,47.24-3.62,3.33-9.55,5.87-13.5,9.49-5.09,4.68-9.08,12.22-15.65,15.34-3.11,1.48-18.66,4.43-19.32,5.17,3.13,14.98,7.68,29.77,10.72,44.77,4.35,21.42,9.29,47.72,15.32,68.67,1.81,6.3,5.47,11.56,6.69,18.31,1.42,7.84.82,16.06,2.74,24.26,1.77,7.55,6.28,14.56,8.04,21.95,1.43,6.01.81,11.67,1.72,17.28,2.19,13.55,10.53,33.34,10.63,46.36.07,9.47-3.2,8.3-11,9.99l-10.68,29.1c-20.73,50.16-41.73,100.24-60.96,151-2.55,6.74-8.02,12.42-10.67,19.32-2.22,5.78-2.7,12.34-5.02,17.98-4.83,11.74-11.78,24.48-17,36.99-17.27,41.46-34.88,83.26-51.95,125.02-.86,2.1-6.5,10.4-6.48,11.5.04,1.64,1.52,1.07,2.63.67,8.86-3.2,17.19-9.88,25.55-12.46,5.2-1.6,21.92-5.18,27.25-5.72,6.55-.67,31.84,5.42,39.51,7.48,14.72,3.95,25.51,18.41,32.78,31.2,11.35,19.96,4.15,46.1-7.41,64.15-9.82-3.02-20.22,3.26-29.89,3.26-5.81,0-12.07-2.75-17.95-3.12-10.55-.65-24.14,1.83-34.97,2.07-9,.2-16.67-2.74-26.07-2.08-18.01,1.27-39.74,4.51-57.91,3.02-5.27-.43-11.77-3.08-16.96-3.01-4.78.06-11.09,2.6-16.06,3.01-10.41.87-24.21.86-34.91,1.06-10.1.19-18.12-3.11-27.03-3.11-10.44,0-20.2,3.67-32.02,3.1-6.37-.3-15.08-3-20.84-2.93-6.65.08-14.89,3.98-22.09,3.98-4.33,0-9.08-2.03-13.05-2.12-13.33-.3-26.47.01-39.96-.93-2.22-.15-4.27-.87-6.46-1.05l28.99-476.99c3.71,1.98,1.03,6.84.99,9.51-.63,44.64-3.52,88.88-5.98,133-.95,17.08-.45,34.08-.99,50.93-.14,4.52-2.6,10.29-3.01,15.07-1.43,16.59-.2,35.16-.97,52.03-.45,9.67-1.61,19.38-1.99,28.92-.52,12.84-1.69,25.41-2,38-.23,9.09-1.55,16.72-2.03,25.06-.68,11.76-.73,23.71-1.01,35.48,6.81-.84,14.7-2.32,21.53-2.04,4.8.2,9.39,2.2,13.93,2.12,6.44-.11,15-3.17,21.99-3.17,7.31,0,16.13,3.18,22.99,3.18,6.01,0,12.87-2.94,18.96-3.14,5.36-.17,10.31,1.8,15.13,1.95,5.27.16,11.75-1.18,17.86-.89,1.96.09,6.41,2.13,7.62.4,1.73-6.32,4.73-12.16,6.21-18.58,1.61-7.01,1.5-14.11,3.14-20.86,2.01-8.26,7.77-15.12,10.25-22.74,1.8-5.55,1.98-11.76,3.56-17.44,3.78-13.59,10.38-29.53,13.26-42.73,1.42-6.51,1.06-13.06,3.16-19.83,2.45-7.87,7.69-14.41,9.98-23.01,2.06-7.72,1.98-15.83,3.74-23.26,1.76-7.47,6.53-13.89,8.84-21.15,3.26-10.23,5.15-22.12,8.43-32.56,13.93-44.4,28.44-89.04,41.29-133.68.56-1.96,4.76-10.75,3.94-11.55-11.1,3.39-21.8-2.44-32.52-2.05-6.87.25-14.99,3.06-21.93,3.12-17.58.15-34.63-1.69-52-3.05-10.19-.8-25.6,1.74-37,2.03-6.89.17-15.61,1.09-21.9.99-6.87-.11-15.58-3.84-22.09-4.07-6.06-.21-14.5,2.65-20.94,3.02-9.21.52-19.01-.67-27.92-3.04l-1.54,2.04c.03-.51.13-1.45-.19-1.73-2.44-2.13-18.76,2.83-23.31,2.83-4.58,0-9.47-2-13.96-2.14-13.1-.41-23.75-.71-36.99-1.97-1.72-.16-6.23-.82-7.5-1.5-8.77-4.66,5.73-24.99,7.7-31.26,1.8-5.7,2.05-12.23,3.78-18.22,2.32-8.04,18.7-52.62,15.48-57-6.22,4.59-14.29,7.74-20.5,11.98-4.81,3.28-7.74,7.51-12.14,10.85-8.98,6.83-22.73,11.87-31.35,18.63-12.67,9.93-25,26.33-35.52,39.46-4.31,5.38-8.6,6.73-13.32,10.67-7.92,6.62-20.54,19.43-30.81,21.18-37.26,6.35-3.82-44.6,3.74-57.75-8.26,1.13-11,6.99-15.97,11.51-11.61,10.57-43.05,33.09-57.3,38.67-7.46,2.92-31.65,8.16-31.7-4.67-.02-5.8,12.99-23.12,17.49-27.54,7.53-7.38,18.19-11.24,25.51-18.96-18.06,4.02-33.37,12.72-52.48,13.98-10.57.7-24.82,1.34-20.79-13.81,2.18-8.22,17.3-20.86,25.03-23.95,8.45-3.38,19.59-8.71,27.72-11.26,5.75-1.8,11.77-2.23,17.51-3.98-.07-1.55-4.5-2-5.49-1.99-6.31.1-13.33,2.67-19.99,2-5.67-.57-12.65-4-19.1-4.88-9.9-1.35-18.09-.75-28.06-4.92-7.27-3.04-12.05-10.38-7.3-17.7,5.35-8.24,17.15-6.2,25.37-7.61s15.46-4.62,23.6-3.89l-12.3-7.18c-14.62-3.38-29.02-6.2-29.29-24.47-.3-20.42,16.86-15.91,29.99-17.44,5.72-.67,11.73-3.53,18.11-3.88,8.15-.44,16.41,2.19,23.97,2.07,4.6-.08,9.43-2.72,14.01-3.07,6.5-.49,13.54,1.64,20.48-.02-1.61-4.71-8.13-7.44-7.5-12.98,4.36,1.69,6.16,6.33,8.96,9.03,8.16,7.89,17.85,16.08,25.04,24.95,4.1,5.05,6.49,11.6,10.51,16.49,4.42,5.39,11.53,9.88,16.48,15.51,6.23,7.08,9.97,15.61,15.5,22.49,5.1,6.34,13.04,11.06,18.48,17.51,3.43,4.07,6.03,9.26,9.51,13.48,2.62,3.18,6.85,5.54,8,9.51.82.59,4.6-2.22,5.46-2.99,6.36-5.67,14.61-13.55,21.55-18.43,4.81-3.38,10.85-4.44,15.84-8.15,4.45-3.31,8.26-8.74,12.61-12.38,4.61-3.86,13.16-7.58,16.41-10.58,7.77-7.15,8.19-30.49,11.32-40.67,1.85-6.03,5.67-10.53,7.75-16.25,3.92-10.76,5.94-24.18,9.69-35.3,5.11-15.15,8.51-25.65,12.76-41.23,5.8-21.26,14.19-41.64,20.35-62.64,1.01-3.46,8.1-22.06,7.12-23.37-10.78,5.65-20.81,14.2-31.3,20.17-6.39,3.64-12.95,4.97-18.98,8.01-6.92,3.48-13.58,10.9-20.74,15.25-8.22,4.99-18.83,11.18-27.23,15.75-6.9,3.75-14.47,5.17-20.96,9.03-13.32,7.92-28.14,20.46-42.35,27.63-5.46,2.75-11.67,3.59-17.33,6.66-6.43,3.47-11.52,9.16-18.29,12.7-5.23,2.74-12.23,4.17-17.03,6.96-2.95,1.71-6.3,5.93-9.3,7.7-6.75,3.98-16.7,7.76-24.03,10.96-1.19.52-2.15,1.92-2.81,2.19-1.93.79-1.94-2.06-1.35-2.86.2-.28,2.75-.78,3.82-1.66,11.69-9.68,20.41-13.03,32.96-20.03,4.97-2.77,9.73-8.12,14.75-11.24,6.5-4.04,13.95-5.87,20.21-9.78,13.48-8.4,26.3-19.05,41.04-26.94,5.94-3.17,12.99-4.6,18.35-7.64,6.14-3.48,12.47-10.45,19.34-14.65,15.53-9.49,32.51-16,47.6-24.37,5.58-3.09,10.4-8.97,16.36-12.63,9.42-5.77,21.04-10.07,30.61-15.37,8.58-4.75,7.8-5.86,17.89-9.01,4.83-1.51,7.87-5.28,13.99-7.09,17.16-5.08,34.71-6.21,43.3-24.67,1.15-2.48,1.87-5.02,2.39-7.7-2.95-13.22-1.66-34-8.51-45.27-1.37-2.25-2.89-4.37-4.93-6.07l-17.96,28c-4.91,6-19.71,17.63-26.94,20.04-5,1.67-30.79,8.09-34.89,7.89-6.55-.32-26.08-13.68-30.14-18.91-7.29-9.38-10.92-26.68-9.23-38.29.49-3.39,2.69-7.92,3.51-11.49,1.26-5.54,1.01-11.39,4.24-16.71-4.22-2.75-9.11-2.43-13.91-5.11-8.87-4.95-18.88-18.54-19.13-28.92-.3-12.72.82-32.41,6.18-43.88,6.58-14.09,21.13-35.05,32.85-45.13,2.23-1.92,14.44-8.94,14-10.97-4.05-1.38-18.75-18.16-21-17.09-4.87,6.21-6.79,14.19-11.55,20.48-4.32,5.71-11.09,13.1-15.99,19-8.9,10.74-35.48,26.89-49.12,28.84-12.2,1.75-40.91,3.17-51.92-1.57-3.66-1.58-6.93-5.11-11.31-6.68-12.27-4.38-24.41-8.91-32.22-20.76-23.51-35.66-33.25-83.03-11.92-122.42,24.43-45.11,68.75-78.75,122.58-74.34l30.06-3.92c.87-1.25.54-6.63.42-8.55-.91-14.25-4.06-30.06-4.96-44.02-.59-9.15,6.91-32.17,11.77-40.19,2.2-3.62,6.38-7.02,8.4-10.59,3.1-5.45,3.73-12.36,6.96-18.04,15.58-27.39,35.57-46.47,66.93-54.03,7.78-1.88,11.07-.17,17.34-.56,7.1-.44,18.28-3.09,24.93-2.02,5.79.93,14.38,8.85,20.34,11.64,8.88,4.17,15.66,4.18,23.72,11.27,6.34,5.58,27.46,38.16,29.95,46.03,3.08,9.73.07,15.35-.48,24.5-.54,8.95.57,16.2-1.71,25.29-6.18,24.63-14.11,33.64-31.31,50.67-6.15,6.09-10.15,13.55-19.91,15.58ZM846.6,287.56c-13.81-1.1-23.25-12.47-27.93-24.56.17-3.14,19.34-18.14,22.9-21.98,29.31-31.58,35.25-57.61,24.35-99.31-4.6-17.59-22.42-36.12-37.79-45.19-5.39-3.18-31.15-9.49-37.96-10.02-34.05-2.62-64.77,15.45-83.52,42.51-15.2,21.95-28.92,46.78-30.95,74.03-.9,12.09.08,24.84,1.01,36.98.59,7.7,6.55,20.06-3.75,22.28-3.99.86-14.97,2.18-18.91,2.17s-9.13-1.96-12.83-1.92c-5.5.06-20.52,2.24-26.97,3.01-29.77,3.54-43.52,13.95-64.45,33.51-29.92,27.97-41.64,58.69-37.99,99.96,1.54,17.41,6.26,22.4,13.52,36.47,6.22,12.07,8.4,22,22.07,28.91,10.03,5.07,18,7.9,28.35,11.63,10.25,3.69,8.54,5.57,21.53,5.54s24.57-.91,37.22-4.76c17.53-5.34,28.5-15.3,40.67-28.31,5.45-5.82,18.49-21.21,21.91-28.07,2.43-4.87.87-14.16,8.42-12.71l17.65,20.81,3.9,1.92c7.16-8.6,12.25-18.87,20.57-26.42-5.46-7.36-13.85-10.81-20.49-16.48-7.92-6.76-16.85-17.8-24.43-25.56-2.86-2.93-8.29-4.66-8.02-9.47,4.38,3.85,10.37,5.33,15.13,8.35,15.61,9.94,26.89,21.24,38.29,35.7.89,1.14,1.38,2.52,1.55,3.95l2.07-.62,9.8-15.08c.71-2.67-5.09-6.64-6.85-8.82-11.32-14-23.43-24.54-34.98-38-.8-.93-5.72-6.79-5.02-7.47,1.88-.43,2.37,1.06,3.49,1.99,10.06,8.38,19.36,19.25,28.83,27.65,6.31,5.59,15.93,8.42,21.16,16.33l1.45.02,15.99-17.49c-5-4.22-11.2-7.57-15.98-11.99s-8.28-10.73-12.48-14.51c-7.15-6.43-14.61-10.3-21.49-18.5-.94-1.12-2.42-1.63-1.99-3.5,4.89,3.58,11.25,6.91,15.92,10.56,3.09,2.42,5.55,6.04,8.58,8.41,10.2,7.99,21.43,13.46,28.96,25,3.8-8.1,9.41-12.43,16.47-17.48l-41.96-45.49c1.99.05,4.34,1.44,5.93,2.55,7.46,5.24,12.63,12.43,19.04,17.95,7.59,6.55,18.71,10.74,24.49,19.48,2.64-1.12,16.46-21.22,16.06-23.08-4.19-6.79-11.41-10.58-17.07-15.89l-19.46-26.01,9.91,6.57c3.53,4.52,9.21,7.2,13.1,10.89s14.81,21.14,19.92,19.05c2.68-1.09,14.7-13.63,13.04-15.52ZM1094.45,189.54c-2.89-.39-13.06,2.17-13.83,4.66.32,7.13-2.66,13.85-3.19,20.81-.79,10.33,1.75,20.58,1.02,31.02-.58,8.25-2.06,18.46-3.1,26.9-.58,4.75-2.97,9.35-1.87,14.61,3.47-1.97,19.94-3.94,20.86-6.64.42-1.22-1-17.2-.92-20.9.39-17.48,3.08-29.94,2.05-47.97-.43-7.48-.19-15.04-1.01-22.49ZM1108.45,359.55c.31.42,7.62-5.27,8.46-6.03,9.35-8.44,28.53-34.35,34.31-45.66,6.39-12.49,2.28-36.68-3.3-49.31-2.86-6.47-9.5-7.87-14.43-11.56-3.38-2.53-7.89-7.84-11.36-9.64-1.93-1-20.9-4.58-21.68-3.8l-2.99,47c10.32-4.28,30.46-3.35,30.87,11.59.1,3.58-3.3,16.4-5.06,19.75-3.21,6.1-10.82,11.55-15.76,16.28,4.79,9.49-.61,20.98.94,31.38ZM1070.25,290.34c1.92-3.31-1.78-15.08-1.82-19.35-.04-4.19,1.91-9.55,2.07-13.91.18-4.79-.71-8.88-1.05-13.55-4.29,1.53-8,4.22-11.7,6.78-13.29,9.16-16.62,13.87-26.75,25.23-3.93,4.4-9.47,7.64-13.48,12.51-6.74,8.17-17.8,26.74-18.89,37.1-1.08,10.38.33,37.79,13.6,40.14,2.07.37,15.21,2,16.61,1.93,3.2-.18,27.76-10.9,31.54-13.27,3.22-2.02,5.46-4.91,8.37-6.63,5.28-3.11,12.32-3.54,17.63-7.36,3.47-2.49,5.07-6.26,8.04-8.96,6.58-5.96,13.08-7.78,19.99-16,7.91-9.41,17.62-23.65,1.29-30.26-6.63,1.86-14.27-.16-20.7.85-8.18,1.29-26.5,14.43-33.61,19.37-4.73,3.29-10.22,4.78-14.84,8.15-5.19,3.79-9.94,9.48-15.07,13.41-.8-9.89,8.81-12.14,14.46-17.02,7.99-6.9,13.62-15.34,24.3-19.18ZM921.2,313.91c-1.17-1.2-26.45-17.78-28.07-18.41-4.66-1.81-9.63-1.13-13.81-2.18-2.75-.69-5.66-2.73-8.52-3.47-5.84-1.51-11.69-.73-17.18-3.29-.47,1.9-.74,4.14-1.61,5.9-2.78,5.56-10.62,19.04-14.41,23.57-4.74,5.67-13.09,9.75-18.47,15.51-6.9,7.38-12.4,18.36-19.48,25.51-4.22,4.26-9.84,7.75-14.5,12.49-7.44,7.57-14.26,18.58-21.43,25.56-3.31,3.22-7.25,4.78-10.55,8.44-5.76,6.39-9.96,16.27-16.47,22.53-.26,2.04.08,1.3,1.47,1.48,5.41.73,10.21-1.16,15-1.08,6.45.11,33.4,13.24,38.5,17.57,11.61,9.86,17.59,35.48,15.98,50.01-.54,4.85-9.56,22.8-12.58,27.42-2.13,3.26-13.6,16.18-16.5,18.49-5.13,4.09-12.26,5.37-18.67,6.32-16.81,2.49-23.58.58-39.53,9.45-2.71,1.51-6.97,4.81-8.53,7.47-9.19,15.69-15.79,42.92-6.96,59.68,1.54,2.93,10.83,14.19,13.44,15.56,6.35,3.33,14.75.71,21.9,1.08,7.6.4,12.33,3.07,20.46.56,17.47-5.39,32.34-20.02,41.78-35.2,3.7-5.95,5.34-13.12,8.89-19.07,2.87-4.81,8.53,4.11,10.1,6.42,7.01,10.31,14.42,25.23,14.21,37.87l-4.03,35.45c5.61-1.01,11.05-1.03,16.52-2.96s10.1-6.3,15.47-8.52c7.07-2.93,14.11-2.76,20.95-5.04,6.48-2.16,12.75-7.1,19.8-9.19,8.6-2.54,18.36-2.4,26.73-6.16,8.28,11.38,14.54,23.59,21.11,35.77,6.77-.04,12.25-4.71,18.11-6.62,13.3-4.33,27.77-7.37,41.44-9.53,6.52-1.03,12.23-4.79,18.75-5.75.66-2.29-2.13-2.83-3.8-3.67-13.3-6.7-20.94-4.51-32.16-17.84-8.28-9.85-16.66-21.56-23.84-32.15-7.52-11.09-9.35-24.55-8.15-37.81,1.26-13.87,10.26-21.8,16.81-33.19l-4.84-18.32-15.77,17.7c2.36,34.55-5.32,61.56-39.5,74.48-20.29,7.67-30.72-2.34-39.68-19.66-9.35-18.08-6.96-46.92-8.01-66.98-.27-5.11.42-10.3-.1-15.4-8.28-2.02-15.71-1.17-22.87-6.62-1.2-.92-6.39-6.1-6.82-7.18-2.1-5.2,3.82.08,4.61.39,13.33,5.39,21.99,5.06,35.19-.26,14.5-5.85,7.98-11.89,13.2-20.79,2.04-3.48,4.48-1.81,4.88,1.78.79,7.19-6.82,16.71-10.06,23.03l-9.99,8.99c4.74,3.89,9.2,10.5,14.05,13.95,5.28,3.76,23.37,12.94,29.43,13.55,15.41,1.54,43.53-6.41,49.04-22.99.04-9.84-6.26-22.17-6.51-31.66s15.05-10.85,21.91-13.84c12.34-5.38,31.25-14.06,39.49-24.49,5.99-7.58,6.39-10.31-.99-17.03-11.14-10.15-18.38-12.75-33.01-14.97-18.41-2.79-29.21-9.41-48.04-7.09-16.4,2.02-35.45-9.68-32.9-27.93,2.64,3.58,5,7.69,7.98,11.02,8.31,9.29,14.25,15.55,27.5,9.98-3.07-8.39-3.79-18.75-6.53-26.96-1.97-5.91-16.64-38.39-19.82-41.67ZM1168.09,294.85c-.41-.51-6.11-4.92-6.68-4.3-2.38,8.59-4.81,19.22-7.96,27.54-3.33,8.81-15.36,22.06-22.5,28.48-4.8,4.32-19.57,14.6-21.99,19.99-1.18,2.62-.15,5.64-.63,8.37-1.22,6.85-3.56,13.55-2.88,20.61.98,1.1,24.68-11.66,26.48-13,16.08-11.92,36.14-39.34,41.51-58.46,2.78-9.91,1.39-20.95-5.34-29.23ZM1101.44,491.54c-.13-1.88-1.14-3.54-1.09-5.48.25-11.09.48-24.83.13-35.96-.18-5.63-3.18-11.78-3.11-18.07.27-23.7,6.52-47.08,3.03-71.02l2.03-26.46-19.59,12.45c1.89,7.06-.76,13.97-.43,21.09.5,10.65,2.09,21.22,2.13,31.96.02,5.68-2.41,12.04-2.52,18-.34,17.21.91,34.77.47,52.04-.12,4.82-1.48,11.02-2.05,15.94,3.87.33,7.8.31,11.66,1.36s5.89,2.96,9.34,4.14ZM1103.45,437.54c5.61-2.08,11.74-2.45,17.43-4.05,4.95-1.39,14.51-4.22,18.95-6.04,5.37-2.21,32.73-24.23,36.01-28.97,2.57-3.72,11.6-29.16,11.47-33.34-.11-3.59-8.97-30.58-11.4-30.57-2.41,4.7-6.12,8.74-8.68,13.3s-3.55,9.32-6.98,14.01c-10.8,14.73-32.72,29.47-50.01,34.97-1.57.5-3.1.71-4.74.75l-2.04,39.95ZM1078.45,350.55c-.67-.77-6.56,3.84-7.99,4.49-15.34,7.03-31.18,15.01-48.47,16.49-2.87.25-5.81.31-8.48-1l-3.58,23.06c14.63,3.02,24.13,9.92,24.56,25.94,7.63.63,16.56,1.59,23.99,3.49,5.48,1.41,12.01,5.79,16.73,6.35,1.17.14,2,.36,2.79-.79l.45-78.04ZM1077.33,436.68c-6.63-2.46-13.76-1.64-20.4-4.09-7.24-2.67-13.69-8.99-22.43-9.05-.16,15.4-7.59,14.66-17.68,19.82-11.15,5.69-17.34,8.43-29.01,12.97-6.5,2.53-11.36,8.8-18.86,10.16l13.58,50.04c4.76-4.26,9.1-8.56,14.67-11.81,18.24-10.62,36.18-19.46,57.73-20.24,8.35-.3,15.27,3.47,23.52,3.04l-1.13-50.86ZM745.31,495.19c-6.4,7.25-20.89,16.99-29.61,8.85,2.98-2.52,5.6.45,9.93-1.05.81-.28,13.23-9.07,14.07-9.91,1.69-1.7,12.11-19.04,12.72-21.28l3.83-33.31c-.48-.62-11.32-3.7-13.08-3.95-2.21-.32-9.96-.92-12.05-.86-4,.12-13.64,12.37-16.91,15.9-6.97,7.52-18.26,18.71-23.95,27.04-2.92,4.27-13.47,37.1-13.62,42.43s4.95,22.67,8.05,27.01c1.15,1.61,18.5,15.96,19.74,16.28,5.48,1.39,8.07-7.06,12.74-10.78,5.61-4.48,26.77-10.69,34.24-11.74,4.16-.58,8.15.16,12.29-.7,3.27-.68,15.77-6.45,18.43-8.56,7.34-5.81,19.22-35.12,20.4-44.58,1.44-11.56-5.91-19.78-12.41-28.42-1.21,2.25.62,4.9.54,7.44-.26,7.71-9.37,29.74-14.02,36.05-5.86,7.94-24.69,19.73-34.99,15.99-.15-2.09,1.94-2.12,3.21-2.79,12.49-6.51,15.47-8.89,25.25-18.73,3.49-3.52,7.42-4.92,9.92-10.07,2.63-5.41,7.29-30,5.08-34.88-2.86-6.31-18.22-14.26-25.47-12.01.82,3.09,2.05,7.36,2.08,10.49.09,8.46-10.94,39.93-16.43,46.14ZM1202.38,465.55c-4.7.18-9.46-.47-14.02-1.47-6.81-1.49-15.57-6.35-21.69-7.29s-12.58-.12-19.47-1.52c-10.2-2.07-17.98-8.24-28.27-9.71-2.78-.4-5.75.29-8.75-.25-2.79-.5-4.15-2.45-6.72-2.76l-.02,50.29c.55,2.26,17.69,8.95,20.94,11.27,14.64,10.43,28.68,38.09,27.09,55.98-.29,3.21-1.7,5.49-1.96,8.04-2.79,27.57-1.84,39.04-21.55,60.43-9.46,10.27-13.63,8.96-25.18,13.81-11.83,4.97-21.62,16.52-36.29,11.18-.82,1.17,5.69,18.79,6.51,21.98,1.13,4.4.91,9.15,1.92,13.08,6.56,25.6,15.77,52.12,21.08,77.91,1.72,8.34,1.18,17.12,4.48,25.04,7.06-2.99,12.24-8.9,18.67-12.8,7.66-4.65,14.04-5.33,20.8-12.19,17.24-17.48,26.42-33.24,35.28-55.7,6.01-15.23,6.06-17.7,9.46-33.54,5.8-27.07,10.07-51.62,12.7-79.29,3.77-39.7,7.77-80.21,4.01-119.99l1-12.49ZM1079.24,492.79c-5.6-3.18-16.44.89-22.39,1.64-12.49,1.58-15.59,2.3-27.52,5.46-4.59,1.21-9.93,1.09-14.4,2.59-5.28,1.78-29.91,22.63-34.45,27.52-5.22,5.62-11.14,28.32-11.03,36.04.12,8.86,6.61,25.04,11.58,32.5.31-7.39-1.34-15.06-.51-22.5,1.17-10.4,12.8-20.01,19.98-27.05,4.78-4.68,2.26-4.34,4.07-10.89,2.12-7.66,10.28-12.83,15.95-18.04,5.21-4.79,7.04-9.29,15-11.99,7.05-2.39,23.63-1.48,31.36-.44,6.84.92,14.33,7.29,20.08,10.9,3.24-4.51,5.45-8.65,10.56-11.42s8.44-1.78,12.92-4.07c-8.6-4.54-19.18-3.03-28-6.97-2.56-1.14-2.62-2.96-3.2-3.28ZM919.33,526.78c-7.3-1.92-13.74-.32-20.8-3.68-7.96-3.79-11.35-13.87-18.93-18.55-.17,6.49-3.09,14.29-3.1,20.5,0,4.34,1.68,8.72,2.08,13.01,1.2,12.98,2.53,30.13,7.82,42.18,1.68,3.83,3.57,5.89,7.48,7.51,8.89,3.67,25.31,4.89,33.17-1.2,7.25-5.61,8.74-10.62,7.4-19.39-.62-4.04-13.37-39.11-15.12-40.37ZM1134.43,583.55c3.44-2.61,4.81-7.8,5.69-11.8,1.36-6.24,2.83-24.36,1.85-30.26-1.95-11.71-15.18-26.44-25.03-32.65-16.54,8.84-35.53,18.79-37.47,39.7,19.62-7.17,35.56,5.96,46.94,20.53,3.38,4.32,7.8,8.61,8.03,14.47ZM1085.45,521.56l-28.77-9.81c-19.25,2.64-38.26,9.84-47.25,28.22-.59,1.21-1.26,2.05-.92,3.57,9.26-3.16,17.78-3.49,25.89,2.59,3.1,2.32,12.81,13.23,16.37,12.3,1.09-.28,5-3.85,8.16-4.94,4.88-1.68,10.44-1.75,15.44-3.05-1.32-11.29,6.09-19.69,11.1-28.88ZM1030.49,593.54c1.74-12.97,7.7-20.85,15.91-30.36-8.94-13.6-39.83-14.11-49.9-2.85-3.88,4.34-10.05,23.01-10.08,28.72,0,2.2,2.12,14.94,3.07,16.01.75.85,17.35,10.76,19.32,11.66,6.03,2.75,31.53,9.38,38.12,9.85,10.61.76,48.2-9.4,57.82-15.21,5.97-3.61,8.68-8.84,13.66-13.33,1.31-1.19,14.66-10.56,14-11.47-6.57-2.58-5.35-11.25-11.64-15.87-4.41-3.24-22.88-11.9-28.38-13.6-9.49-2.94-14.47-3.4-23.24,1.65-10.76,6.2-24.2,15.73-30.71,26.27l-7.96,8.52ZM1144.41,581.55c-2.05-.43-2.32,1.02-3.19,2.3-6.11,9.05-8.36,20.56-18.3,27.69-4.4,3.15-9.85,4.01-14.53,6.46-11.81,6.18-20.46,11.83-34.09,14.89-9.85,2.21-14.4-.26-23.3-.4-7.18-.11-14.39,1.65-22.05,1.09-3.93-.29-7.52-2.46-11.45-1.54,1.6,1.57,3.68,3.34,5.67,4.33,6.2,3.05,29.06,6.47,36.81,7.17,9.35.84,28.47-2.4,37.44-5.52,15.69-5.45,41.49-31.7,46.22-47.75.91-3.08.99-5.56.77-8.72ZM971.39,1035.41c.81-3.3,2.76-6.85,3.42-10.08,5.27-25.69,2.2-52.22,2.64-78.29.1-6.19,2.67-13.62,3.11-19.95.92-13.4-.55-29.45-2-42.08-2.35-20.57-.04-42.95-2.05-62.95-.77-7.72-4.54-17.58-5.86-26.14-2.36-15.35-2.98-33.29-5.57-48.42-1.22-7.11-6.69-16.27-8.68-24.32-2.42-9.81-2.05-20.02-4.59-29.41-3.08-11.39-9.29-24.43-13.75-35.24-1.83-4.44-3.93-18.07-9.59-17.53s-21.21,10.23-27.92,13.03c-7.25,3.03-18.82,7.59-26.19,9.8-8.17,2.45-16.76,2.07-24.57,4.42-7.31,2.2-14.35,7.38-22.41,9.58-8.8,2.41-18.75,2.25-27.21,4.77-5.86,1.74-10.66,6.02-16,7.99-4.93,1.82-9.46,1.78-14.54,2.46-4.33,2.59-7.93,22.78-9.72,28.28-7.46,22.91-12.98,46.35-20.75,69.24-4.93,14.54-7.97,23.93-12.02,38.97-3.37,12.53-9.91,25.65-12.84,38.16-1.5,6.41-1.42,12.86-3.61,19.39-2.53,7.55-7.9,14.64-10.31,22.68-2.81,9.37-2.4,19.31-5.44,28.56-1.73,5.27-5.09,9.81-7.04,14.96-4.37,11.54-7.37,25.74-11.21,37.78-2.36,7.39-6.37,14.7-8.29,21.7-2.24,8.14-1.82,16.79-4.72,24.77,8.55,1.53,16.56-2.29,24.66-2.61,8.07-.31,21.06-.84,28.86-.43,7.09.38,13.79,3.37,20.96,3.09,8.7-.34,17.41-3.41,27.01-3.09,7.92.26,16.04,3.3,23.96,3.1,5.75-.14,11.42-2.58,16.97-3.04,16.98-1.42,38.1,1.62,54.97,2.97,10.21.81,19.37-3,28.97-3.07,11.21-.08,27.79.23,38.96,1.1,5.21.4,11.97,2.94,16.9,2.87,7.68-.1,16.97-4.64,25.45-3.03ZM1064.36,653.66c-9.91.84-19.93,1.1-28.85-4.12-.12,1.48-.74,2.69-2.05,3.46-3.74,2.2-14.5,2.56-20.22,4.78-4.63,1.8-8.46,5.46-12.94,7.05-5.07,1.8-23.41,6.74-28.54,7.45-5.66.78-11.54-.22-17.18,1.3.68,7.25.82,14.88,2.42,21.99,1.74,7.77,6.1,16.09,8.04,23.96s2.07,16.39,3.96,24.04c1.78,7.22,5.81,14.05,7.25,21.74,3.13,16.72,3,33.88,4.28,50.71.65,8.51,4.28,16.56,4.97,25.03,3,36.94,2.01,74.84,2.06,112.03.01,8.41.6,20.09,0,27.99-.47,6.13-3.27,11.52-3.93,17.07-1.44,12.23.56,25.84-3.11,38.39,7.32-1.13,15.62,1.16,22.48,1.09,8.32-.08,15.3-3.79,25.03-3.12,7.45.51,16.79,4.11,23.95,4.11,9.68,0,19.33-4.91,30.02-4.11,5.29.39,10.51,2.72,15.91,3.07,14.15.92,31.49-1.62,46.05-1.08,3.16.12,6.21,1.58,9.45,1.03-5.67-14.1-6.72-30.92-11.27-45.22-1.79-5.64-5.13-10.23-6.27-16.72s-.66-13.7-1.89-20.11c-1.79-9.29-7.33-17.91-9.27-26.72-1.26-5.71-.69-11.14-1.53-16.47-1.75-11-7.17-23.51-9.44-34.55-8.4-40.86-18.49-81.57-27.75-122.24-5.98-26.28-11.08-52.86-18.07-78.92l-3.56-22.94ZM442.85,1037.53c16.76,3.23,42.42-9.61,55.45-20.01,11.65-9.3,23.06-17.27,34.99-25.98,3.84-2.8,17.94-21.58,21.87-20.94,2.66,1.62,2.97,3.08,2.18,5.96s-7.78,15.06-9.73,18.31c-6.02,10.04-16.42,20.36-18.36,32.63-3.84,24.28,10.01,15.64,22.26,7.27,12.57-8.59,15.03-14.36,24.24-24.74,5.4-6.09,12.13-8.38,17.56-13.43s11.03-13.35,17.21-18.53c-4.92-8.73-13.26-14.57-19.16-22.6-4.24-5.77-7.12-13.09-11.6-18.39-4.51-5.33-11.07-9.44-15.94-15.05-6.69-7.72-11.65-19.06-18.03-25.96-2.63-2.85-7.83-5.62-10.52-8.47-3.28-3.47-5.32-8.43-8.05-11.95-3.96-5.09-8.49-9.53-12-14.97-4.68,2.39-9.03,1.43-13.79,1.98-9.71,1.14-16.57.16-24.98,1.01-5.91.59-12.78,3.39-19.11,3.88-11.48.88-19.2-2.8-30.74,1.24-10.16,3.56-18.56,10.16-7.64,19.19,12.25,10.12,33.26,15.54,48.83,19.13,5.64,1.3,21.79,2.15,25.58,5.4,3.35,2.89,1.34,4.33-2.03,5.06-11.48,2.48-22.45-1.14-33.98,0-4.66.46-9.12,2.68-13.96,3.02-15.08,1.06-19.08-6.19-34.86,4.13-1.16.76-7.59,5.58-6.66,6.83,8.43,3.59,16.4,4.6,25.2,6.29,13.88,2.67,14.71.96,27.1,1.11,5.48.07,10.81,3.06,16.16,3.6,5.62.57,19.46-1.85,22.8.19,2.33,1.42,2.29,3.3.74,5.39-5.97,8.08-39.74,13.61-50.72,19.25-4.95,2.54-21.86,12.91-25.77,16.21-2.19,1.84-6.03,4.85-4.06,8,3.34,1.94,8.17,4.9,12.06,5.03,7.64.25,35.2-6.93,42.98-10.01,6.1-2.41,11.15-7.62,17.91-10.08,5.99-2.18,13.3-3.18,19.52-4.96,1.41,6.79-3.44,5.79-6.93,8.56-5.59,4.44-10.67,9.93-16.72,14.27s-12.43,6.92-18.22,11.77c-10.04,8.43-16.87,19.01-21.09,31.39ZM1145.42,1047.56c-4.86.9-9.96-.96-14.45-1.05-10.11-.2-25.49-.75-35.06,0-5.68.45-11.52,3.11-16.96,3.12-7.14,0-15.42-3.65-22.95-4.12-13.17-.83-24.78,4.36-37.91,2.93-4.47-.48-9.29-2.77-14.07-2.94-7.93-.28-17.19,2.22-25.5,1.06.66,8.05-3.69,14.9-5.53,21.97-1.03,3.98-.96,8.45-1.93,12.07-10.27,38.16-22.58,75.85-31.82,114.16-2.67,11.08-8.66,23-11.23,33.76-1.51,6.31-1.31,12.53-2.98,19.02-2.11,8.21-7.35,15.15-9.76,23.23-2.82,9.43-2.51,19.55-5.22,28.78-1.6,5.47-5.14,9.94-6.98,15.02-4.89,13.56-7.83,30.64-12.23,44.76-1.43,4.59-4.23,8.52-5.56,13.44-2.02,7.46-1.45,14.94-2.96,22.04-2.77,13.08-14.57,26.65-13.75,41.73l20.37-2.9c14.39-1.13,32.75,3.68,46.08,3.69,3.33,0,7.42-1.72,10.95-1.82,11.37-.31,22.91-.32,34.08,1.75l.92-.66c2.02-5.08,3.13-10.75,5.32-15.74,10.15-23.17,20.63-46.33,30-69.99,3.1-7.82,5.09-15.98,7.97-23.02,1.93-4.71,6.23-8.81,8.39-13.61,7.89-17.54,13.15-36.9,20.32-54.67,2.56-6.35,7.46-11.52,9.96-18.03,2.23-5.8,2.75-12.21,5.02-17.97,1.9-4.8,5.35-8.3,7.36-12.64,10.97-23.73,19.92-49.57,30.25-73.73,11.45-26.78,23.93-53.13,35.04-79.94,1.31-3.16,3.65-6.33,4.79-9.69Z"/>
  <path d="M897.34,753.74c3.89-.51,10.83,1.62,14.74,2.79,24.91,7.46,31.41,26.93,25.17,51.22-4.27,16.62-26.68,28.7-42.65,23.27-3.79-1.29-15.96-8.33-19.04-10.95-14.54-12.36-12.31-35.71-1.97-50.02,4.87-6.74,8.95-6.14,14.36-9.63,3.46-2.23,3.18-5.86,9.39-6.69ZM925.21,771.89c-9.93-10.71-16.53-8.78-29.15-8.26-4.94.2-5.9-2.66-10.98.92-11.93,8.42-16.69,19.7-14.25,34.26.78,4.65,9.45,17.91,13.24,20.75,6.34,4.75,24.41,3.61,31.5.5s18.61-17.37,19.02-25.05c.27-5.15-5.91-19.37-9.39-23.12Z"/>
  <path d="M884.94,918.91c6.69-6.92,23.3-13.32,32.65-10.89,9.15,2.38,20.84,10.41,24.81,19.17,6.86,15.16,4.52,24.07-4.05,37.66-7.75,12.28-20.69,16.9-35.04,14.46-8.14-1.39-24.58-18.45-26.28-26.7s1.75-27.33,7.91-33.7ZM903.31,913.79c-6.85,1.76-17.24,12.21-20.57,18.42-3.97,7.41.25,22.08,4.64,29.03,5.2,8.22,22.37,10.68,31.23,8.87,4.28-.88,17.25-8.86,19.35-12.64,3.05-5.48,3.31-17.38,1.53-23.37-1.4-4.7-9.81-15.86-14.05-17.94-3.67-1.8-18.17-3.39-22.14-2.36Z"/>
  <path d="M844.91,443.24l-2.31-5.17,2.48-1.51c16.24,14.15,40.96,12.71,51.05-7.95,4.25-8.7.02-29.35-4.16-37.97-3.22-6.63-15.74-12.67-13.25-20.44l3.18-1.52c1.63.43,6.21,6.99,7.22,8.8,10.72,19.12,14.68,32.01,12.42,54.55-1.24,12.34-11.2,18.26-21.99,21.99-13.99,4.84-22.28-5.86-34.65-10.79Z"/>
  <path d="M894.86,612.28c-1.67-1.75-1.71-4.64,1.13-4.71,2.53-.06,9.31,3.43,13.18,3.87,4.23.48,8.73-.33,12.87.12,4.63.51,10.79,2.97,15.01,2.97,7.16,0,28.33-5.72,35.83-8.16,3.81-1.24,2.78,2.11,1.19,4.22-14.41,19.16-30.94,12.95-51.77,12.72l-27.43-11.03Z"/>
  <path d="M749.67,611.54c1.15,1.26,8.62-7.31,10.07-8.41,4.14-3.14,22.71-12.3,23.91-4.04.94,6.44-3.39,3.57-6.34,3.83-11.61,1.02-11.63,6.89-20.29,10.49-22.26,9.27-5.85-21.21-6.29-30.39-.36-7.49-3.8-7.14-10.31-6.21-8.58,1.22-14.8,9.5-18.3,16.73-.7,1.45.2,2.5-2.44,2,1.64-12.56,6.62-20.26,18.31-25.17,7.69-3.23,11.5-3.42,14.39,4.95,4.81,13.95.22,22.83-2.72,36.22Z"/>
  <path d="M1078.36,576.39c.4-.38-.42-2.25.73-2.89.66-.37,7.86-1.97,8.91-1.99,10.77-.25,14.11,12.16,9.29,20.39-7.61,12.99-45.21,22.01-40.6-.62,1.08-5.31,11.83-12.54,16.74-14.27,1.52-.54,4.47-.2,4.92-.63ZM1090.2,580.76c-2.8-2.89-17.95,3.67-21.09,5.93-8,5.79-1.29,12.83,6.58,11.66,5.26-.78,18.94-13.03,14.5-17.59Z"/>
</svg>