<?xml version="1.0" encoding="UTF-8"?>
<svg id="Calque_1" data-name="Calque 1" xmlns="http://www.w3.org/2000/svg" viewBox="0 0 1605 1605">
  <g>
    <path d="M1308.23,865.39c-5.37-.75-12.01,1.01-17.96.94-5.98-.06-14-1.9-20-2.07-5.86-.17-12.97,2.68-19.46.03l6.99-32.5c-.68-15.12,2.52-30,3.1-44.99.07-2.05-.18-3.68-1.09-5.49,12.45,3.48,24.46-8.5,8.78-14.29-17.99-6.65-46.71-2.52-66.27-3.73-5.77-.36-11.13-4.1-17.43-.38l-2.03-1.09c3.69-9.25.62-18.71.51-28.02-.14-10.74,1.19-23.68,1.44-34.99,1-44.75,5.04-91.22,1.98-136-.44-6.48-2.37-13.02-2.4-19.54-2.04-2.69-17.75.24-22.13.07-31.99-1.21-54.1-3.87-87.06-.13-2.47.28-7.18-1.1-10.39.11.07,13.1,3.17,26.44.94,39.44,1.84,25.41-1.02,50.65-.95,76.03.06,20.34-3.48,42.61-3.05,63.06.09,4.67,2.09,11.48,2.03,15.95-.1,7.79-4.48,16.59-2,24.5-7.06,1.92-13.89-1.12-20.5-1.08-8.79.06-19.49,2.26-28.04,2.15-5.68-.07-13.37-2.01-18.97-1.87-4.27.1-17.13,4.43-17.57,9.29-1.04,11.53,12.26,7.72,16.11,9.99.63.37,4.32,8.89,4.7,10.3,3.36,12.35,4.44,27.93,4.3,40.7l4.98,33.51c-3.19.85-6.74-1.04-9.49-.99-4,.08-8.68,2.1-13.01,2.09s-9.08-1.69-13.64-1.51c-3.95.15-15.27,1.76-19.15,2.62-4.88,1.09-7.91,8.55-6.52,13.1,1.5,4.9,11.55,2.99,12.67,6.33l1.14,23.37.83,40.63c-5.68.1-10.6.07-12.65-.24-6.18-.95-40.4,3.33-50.38,1.66-9.98-1.66-53.02,2.61-53.02,2.61-2.17.58-9.01-1.55-11.89-1.77-2.18-.16-3.95,1.39-6.62.71-1.25-.32-17.77-12.38-19.17-13.91-3.88-4.26-7.64-14.06-11.37-19.63-3.79-5.68-11.56-12.79-14.1-17.9s-6-18.47-7.47-24.53c-1.32-5.43-1.14-11.54-3.66-16.82,3.44-1.43,7.35-2.24,10.69-3.85,8-3.86,33.69-25.88,37.5-33.5,2.32-4.64,3.24-10.78,5.34-15.66,3.4-7.88,7.29-13.63,9.81-22.19,3.55-12.06,8.31-45.04,5.98-56.62-1.45-7.23-6.5-16.42-8.79-24.21-1.71-5.81-2.05-12.44-4.03-17.97-1.98-5.5-6.31-9.15-8.67-14.33-3.98-8.74-5.7-19.96-9.95-29.05-1.97-4.22-11.09-15.46-10.7-17.92,1.06-6.6,23.4-24.18,28.87-30.19,3.33-3.67,5.92-8.49,8.99-12.01,4.44-5.08,10.03-8.36,13.82-14.18,10.69-16.44,14.7-30.82,1.99-47.67-9.79-12.99-20.24-6.37-33.29-5.64-7.71.43-15.42-2.01-22.95-.95-4.38.61-8.94,3.97-13.33,4.67-3.28.53-6.68-.13-9.65.35s-11.64,3.95-13.49,2.77c-2.94-12.89-4.44-26.97-7.78-39.72-2.81-10.71-6.94-20.54-10-32-4.63-17.35-16.92-32.4-28.32-45.68-4.56-5.31-6.46-11.19-13.34-14.66-2.95-1.49-6.54-1.59-9.18-3.77-.02-9.2-5.25-19.38-9.33-27.72-12.64-25.86-24.97-36.03-46.15-53.85-10.98-9.23-15.82-8.16-28-13-9.34-3.71-15.74-9.52-26.53-10.47-26.01-2.31-45.08-1.93-70.99.97-4.43.5-9.23-.51-13.75.25-5.75.97-14.37,7.04-20.78,9.22-7.65,2.6-16.13,3.25-23.64,6.36-6.81,2.83-19.79,11.44-27.34,15.66-26.73,14.94-42.47,31.35-63.45,52.55-4.47,4.51-11.25,7.85-14.97,13.03-2.67,3.72-4.23,9.23-6.76,13.24-20.22,32.08-34.01,49.4-43.06,87.94-6.83,29.09-9.63,55.51-4.47,84.98,5.09,29.05,25.43,68.9,49.79,86.21,2.64,1.88,20.06,10.8,20.72,11.79.48.73.17,2.44.77,3.68.6,1.24,2.22,1.73,2.49,3.64.37,2.63-1.72,8.71-2.03,11.97-3.81,40.68-6.2,77.78-.88,118.86.83,6.37,3.28,12.96,3.86,19.14.67,7.13-.2,14.47,1.11,21.89,1.16,6.55,5.04,13.74,5.8,20.2.85,7.28-.51,15.39.23,22.77.77,7.64,4.94,15.15,5.77,22.23,1.37,11.67,1.57,23.56,3.1,35.9,8.76,70.61,21.44,141.67,39.51,210.49,1.45,5.56,3.72,11.05,5.48,16.53-15.87,31.8-29.84,64.71-46.82,96.14-2.26,4.19-5.97,7.84-8.05,11.95-5.96,11.74-5.92,22.47-13.68,35.32-.81,1.34-2.92,2.35-3.3,3.78-1.07,4.01,2.52,7.69,5.38,4.29.88-1.05,5.02-12.95,6.31-15.69,5.35-11.39,10.06-23.8,15.3-34.7,4.08-8.49,11.06-17.09,15.73-26.27,7.96-15.67,13.42-34.43,21.58-49.42,2.44-4.49,6.67-8.14,9.36-12.64,3.67-6.14,4.9-12.94,8.17-18.83,8.37-15.08,20.82-31.07,29.24-46.76,3.5-6.53,4.69-14.7,8.6-21.4,3.06-5.23,8.32-9.39,11.38-14.62,6.47-11.07,14.44-28.06,19.99-40.01,8.16-17.59,18.05-34.13,25.99-52.01,1.22-2.75,4.75-15.07,6.29-15.31,6.54.91,14.51-1.3,20.99-1.4,12.96-.19,26.02,1.24,39.04.03,3.97-.37,7.85-2.24,12-2.44,5.78-.27,12.16,1.66,18.05,1.49,5.89-.17,12.26-2.69,17.92-3.07,13.13-.87,28.99,1.18,43.08.07,5.25-.41,11.27-3.09,15.97-3.11,4.4-.02,10.51,2.1,14.98,2.15,17.85.22,37.58-4.43,55-3.85,14.46.49,26.8-2.3,40.01-2.31,5.69,0,10.7,2.49,17.04,2.13,6.24-.35,12.56-3.54,18.93-4.07,9.4-.79,17.67,2.46,26.06,2.08,6.66-.3,13.22-3.77,20.09-3.95,11.03-.29,22.7.85,33.88-.12,4.7-.4,10.57-2.95,15.02-2.97,4.39-.02,10.38,2.38,14.94,2.84l3.86.15c6.2-.11,11.63-1.9,17.69-4-.13,14.85-.62,29.68-.95,44.54-.24,11.28.97,19.68,1.04,29.94.04,5.77-1.82,12.23-2.12,17.98-.9,17.23-.2,37.07.04,55.26l.07,7.87c0,.64,0,1.28,0,1.91,0,16.18-.34,32.02-1.05,48.02-1.09,24.91,1.36,48.2-1,73-.45,4.8.7,9.79-.45,14.55-.71,1.01-15.03,3.94-17.11,3.97-4.84.07-10.68-2.14-15.96-2.11-11.75.08-26.44,2.6-38.01,2.13-5.3-.21-11.69-2.87-16.98-2.83-6.03.04-13.63,3.3-20.02,3.77-10.96.81-21.18-2.88-32.02-2.02-5.11.41-11.03,2.97-15.97,3.03-10.72.13-22.78-1.91-34.03-1.03-4.88.38-10.76,2.83-15.07,2.93-15.98.38-34.54-3.39-51.88-1.88-5.54.48-11.33,2.98-17,3.06-5.1.07-10.01-1.8-14.97-2.11-15.87-.98-31.55,1.73-47.06,3.02-8.47.71-16.16-1.82-23.98-1.78-9.29.04-18,3.5-27.98,2.78-11.97-.87-21.96-1.14-33.96-1.02-4.54.05-11.02,2.83-15.21,2.97s-8.55-1.73-13.35.07c-.86,6.43,12.32,3.75,17.49,4,9.82.49,22.53,2.1,32.01,2.07,5.05-.02,10.74-2.77,15.96-3.11,7.53-.49,15.71,2.08,23.02,2.11,7.33.03,14.93-2.96,21.98-3.14,5.53-.14,9.83,1.71,15,2.09,16.82,1.24,34.49-2.8,51-3.1,17.58-.32,36.55,2.65,55.02,1.04,4.44-.39,10.06-2.78,14.12-2.88,3.54-.09,8.07,1.8,11.86,1.93,13.42.45,26.89-2.2,39.03-2.03,5.37.07,11.54,3.08,17.01,3.08,7.2.01,15.42-3.74,22.95-4.12,9.38-.47,17.57,3.26,26.05,3.11,5.33-.09,9.96-2.57,15-3.06,12.87-1.26,27.82.64,41.03.03,7.64-.36,13.31-2.76,21.84-1.92,14.21,1.39,19.86,9.53,17.73-13.02,12.71-4.96,26.79-1.54,39.31-3.19,11.64-1.54,27.42-6.6,38.8-10.2,20.68-6.55,43.72-20.6,61.71-33.29,24.65-17.4,38.81-37.48,59.07-57.93,3.14-3.17,8.75-5.91,11.64-8.86,1.7-1.74,8.52-12.2,14.19-21.37l3.12-5.11c2.5-4.16,4.42-7.51,4.94-8.77,5.39-12.99,2.48-31.17-14.37-18.37-.84.64-8.26,9.29-7.54,4.47l19.33-37.68c2.46-9.33-3.24-14.57-2.84-16.88-8.9-6.88-40.28,24.22-40.28,24.22,0,0,11.64-15.92,17.11-21.62,5.47-5.7,7.37-19.49,9.74-24.71,2.38-5.23,2.14-10.22-2.38-14.97-4.51-4.75-12.36,1.66-21.15,5.47-8.79,3.8-27.33,25.43-27.33,25.43,0,0-13.31,12.59-15.92,14.26-2.61,1.66-12.36,14.26-21.39,18.3s-19.49,12.36-20.2,13.07c-.71.71-20.44,11.88-24.71,12.83s-3.33-1.9-3.56-5.47,12.83-11.64,25.9-22.1c13.07-10.46,28.75-42.06,28.75-42.06,0,0,7.37-17.58,7.6-27.09.24-9.5-9.03-7.37-17.35-9.5-8.32-2.14-20.2,8.79-27.33,10.46-7.13,1.66-19.72,13.54-29.23,15.21-9.5,1.66-27.09,8.55-27.09,8.55l-36.12.71-1.19-57.98s-11.68.6-22.37.87l-1.53-40.55,1.42-21.03c.43-.59,12.09-2.04,14.08-2.06,4.52-.04,9.41,1.9,13.95,2.12,6.77.32,13.08-1.67,20.03-1.03,6.66.62,10.83,1.56,18.01,1.91,28.16,1.37,56.7.91,85.04,1.13,10.55.09,22.87-1.3,32.99-1.1,4.26.08,9.07,2.04,12.86,1.95,10.97-.28,21.76-1.07,33.14-.85,23.69.45,47.87-.99,72-1.01,6.82-.01,12.22.9,17.96.95,2.8.03,8.66-2.31,11.28-.75l.02-.02c.75.45,1.94,4.1,5.06,3.91,1.04,1.59-5.25,32.14-5.83,37.37-.4,3.54.32,7.4-.03,10.97-2.26,22.71-4.86,45.25-7.11,67.89-.84,8.41-5.56,16.03-6.62,23.38-.52,3.61.16,7.21-.39,10.61-2.95,18.19-9.09,36.32-9.88,54.62-.7.67-12.25.8-14.37,1.13-13.26,2.05-21.15,3.82-35.12,3.88-2.57.01-5.26-.01-8-.05-.97,1.61-2.02,3.33-3.12,5.11,17.8-.78,35.61-1.91,53.25-4.93,3.87-.66,7.95,1.58,10.18-2.82,1.62-3.18,3.76-12.31,4.73-16.27,5.05-20.68,9.26-42.68,11.5-63.5.98-9.07,4.96-17.25,5.88-25.12,2.79-23.82,2.66-48.12,5.1-71.9,1.03-10.12.63-20.38,2.04-30.46,16.11,1.79,23.64-26.53,6.38-28.94ZM360.39,654.61c-.35,1.72.01,3.66-.09,5.41-.67.79-11.24-5.94-12.49-7-39.65-33.64-57.52-70.64-56.46-123.46.9-44.53,19.6-93.28,45.52-129.48,3.68-5.14,9.99-8.52,13.95-13.05,2.8-3.19,3.84-6.85,6.08-9.92,12.98-17.82,56.5-50.15,76.4-60.6,6.39-3.35,12.5-3.77,18.71-6.29,7.99-3.24,16.83-10.69,25.25-12.75,5.68-1.4,12.76-.72,18.32-1.68,4.49-.78,9.37-3.84,13.96-5.04,12.17-3.18,43.52-4.15,56.17-2.61,6.52.79,12.84,5.09,19.56,6.44,5.64,1.13,11.86.66,17.61,2.39,7.39,2.22,12.64,8.41,19.12,11.88,5.51,2.95,12.68,4.22,17.82,8.18,7.42,5.72,28.47,30.38,33.33,38.67,1.92,3.28,12.44,26.71,11.16,28.33h.01c-5.92-4.12-11.92-8.01-18.62-10.86-16.62-7.08-32.15-7.43-49.77-5.02-8.47,1.16-51.81,25.45-60.34,31.66-15.96,11.63-28.92,26.13-43.26,38.74-6.97,6.13-15.44,10.24-21.43,17.57-8.43,10.31-10.95,13.14-20.6,22.4-10.49,10.06-15.71,21.48-24,30-10.77,11.07-22.63,19.03-32.41,32.59-4.07,5.65-6.37,12.65-10.15,17.85-3.09,4.25-8.47,7.87-11.85,12.15-17.27,21.85-26.02,56.58-31.5,83.5ZM529.35,845.57c-10.79,9.99-29.56,21.07-41.93,30.07-2.81,2.03-4.84,5.39-7.75,7.25-7.26,4.63-15.08,2.83-22.74,4.26-11.4,2.13-17.65,7.57-29.64,2.43-3.64-1.56-24.27-12.96-25.98-15.02-8.7-10.49-11.98-31.95-6.39-44.42,5.82-12.97,12.71-21.05,25.89-26.11,9.64-3.7,18.42-8.45,27.24-11.76,24.5-9.2,50.21-15.75,72.97-30.03,10.15-6.37,25.85-29.16,28.02-40.98,5.34-29.13,5.41-56.52-3.42-85.02-1.06-3.4-3.23-6.24-4.27-9.63,10.91-4.75,20.97-5.84,28.79-16.24,9.17-12.19,19.19-31.85,20.9-47.1.59-5.21-.13-10.42.4-15.6.77-7.57,4.22-15.34,4.86-23.14,1.53-18.69-1.41-26.53-5.49-43.48-2.89-12-3.48-23.3-11.06-33.97l1.06-2.01c10.09.93,18.91,7.79,29.07,8,5.47.12,12.32-2,17.91-2.09,5.55-.09,9.83,1.72,15,2.1,24.97,1.84,45.99-5.03,68.81-13.26,2.49-.9,10.69-5.89,12.09-5.63,1.19.45,1.85,1.48,2.49,2.5,10.61,16.83,15.57,41.86,19.68,61.32,1.84,8.69,2.54,17.71,4.54,26.39-8.06,3.2-20.6,6.41-29.1,4.18-4.46-1.17-15.42-9.79-18.38-13.62-1.56-2.02-5.16-11.25-7.58-8.91-.17,2.97.79,5.76,2.16,8.33,1.87,3.52,11.92,17.07,14.9,19.1,10.53,7.18,40.46,10.22,42.94-7.44.53-.51,11.92,2.92,14.38,2.9,5.13-.05,19.12-2.21,24.99-3.02,6.58-.91,14.09-4.86,20.13-4.96,5.4-.09,20.2,2.06,25.51,3.56,15.95,4.51,14.65,15.09,9.46,28.5-1.47,3.78-13.42,22.35-16.23,25.77-6.53,7.94-23.3,19.32-31.79,28.21-4.35,4.56-11.36,12.41-9.8,18.84,2.34,9.66,9.1,20.08,12.81,29.21,1.85,4.54,9.7,24.15,9.48,27.43-.11,1.48-5.94,14.89-7.14,16.87-3.21,5.28-14.24,16.1-19.34,19.66-9.13,6.39-24.52,10.09-35.01,15.07-11-3.36-24.4-4.79-35.12-7.89-8.2-2.38-8.64-9.01-12.51-15.49-2.27-3.81-6.62-6.99-7.57-12.18,3.63-3.37,7.4-4.96,10.71-9.01,9.58-11.73,10.34-32.19,8.01-46.47-.8-.57-2.99.97-2.99,1.5,0,4.4.63,11.01,0,15h0c-.63,4.08-7.56,19.99-9.83,24.18-2.11,3.9-5.91,9.08-9.83,11.17-2.5,1.33-23.37,8.72-25.9,9.1-8.19,1.24-20.11-.15-28.43-.93l.05,3.94c6.52.32,11.97,4.64,18.47,5.06,3.61.23,15.34-.51,18.92-1.06,5.5-.85,12.77-7.41,17.06-10.92,5.88,11.82,7.64,19.89,18.49,28.49,17.76,14.08,33.36,11.84,54.5,9.48,10.33-1.16,30.19-13.24,36.33-21.67,5.32-7.31,7.58-17.44,12.19-25.32,2.34-.51,1.6.31,2.23,1.28,3.21,4.95,11.21,20.84,11.75,26.22.45,4.5-.39,9.27.03,13.97s2.44,9.78,2.88,14.12c1.27,12.38-6.83,48.79-13.46,59.33-2.49,3.96-7.28,7.53-9.87,11.13-5.1,7.09-6.61,15.7-13.65,21.35-23.11,18.54-48.55,20.17-77.37,21.63-15.65.79-16.67-3.22-28.48-5.6-11.81-2.38-24.55-1.1-35.38-7.62-6.59-3.96-12.87-8.38-19.6-12.4-2.35-1.4-10.15-9.3-11.99-6.31-.31,1.95-.37,4.02.43,5.88.38.88,11.87,12.25,13.47,13.53,9.26,7.44,23.01,7.66,34.27,11.73,6.2,2.24,11.57,7.1,18.74,6.77-1.96,4.08-7.19,1.1-10.51,1-25.02-.71-50.08,2.95-75.03,3.03-7.25.02-18.1-1.65-26.06-1.95-2.42-.09-7.13,2.81-7.42-1.58-.11-1.53.96-3.34,1.02-5.02.47-14.32-2.32-31.63-9.98-44.01-2.63-4.24-5.34-5.1-9.44-1.4-8.04,7.26-14.15,21.62-22.57,29.43ZM581.9,967.09c-1.57,2.24-5.75.15-7.9.32-4.71.36-9.62,2.23-14.18,2.61-6.94.57-14.47-.38-21.48.01l18.77-42.72c.39-16.48,14.33-28.39,15.25-43.74.23-3.91.05-7.75-1.03-11.53l18,1.99h.01s-7.44,93.06-7.44,93.06ZM647.34,954.52c.09,2.53,2.58,9.29.06,11.07-1,.71-20.48-.89-24.55-.55-4.77.4-10.93,2.91-15.06,3.02-3.85.11-8.84-1.85-12.95-2.1-2.21-.13-8.06,1.88-8.35-.39s2.59-10.6,2.82-14.05c.42-6.19-1.41-11.74-1.01-18.03.36-5.73,2.72-12.18,3.01-17.97.62-12.48-1.49-24.16.67-37.33.78-4.78,2.61-4.25,7.13-4.86h.01c8.28-1.12,14.16,1.86,21.73,1.78,9.03-.1,18.72-4.84,28.05-.15l-.53,35.61c-2.88,14.32-1.54,29.3-1.03,43.95ZM692.87,962c-10.63-.01-22.46.41-33.08,1.01-2.8.16-5.43.83-8,1.87-3.62-.62.6-17.18.62-20.34.07-13.13-.97-26.8-1.04-39.95-.05-9.86-.19-19.63-.93-29.44,8.66-1.49,17.53-1.37,26.28-2.21,2.66-.26,5.27-1.66,8.11-1.89,5.88-.47,11.58,1.78,17.5.98h0c.14,7.7.29,15.85,1,23.5,1.2,12.92,1.45,22.19,2,35,.45,10.68,3.14,21.06,4.99,31.51-6.22,2.13-11.7-.04-17.45-.04ZM715.34,960.03c.12-7.3-2.94-14.64-3.9-21.6-2.37-17.07-5.01-34.97-7-52-.56-4.78.21-9.94-.17-14.78,11.96-4.73,24.65-2.75,37.05-4.61h.01c.5,8.11.52,16.56,3.23,24.27,4.71,13.37,5.45,22.06,9.06,34.94,1.95,6.97,5.08,10.62,7.49,16.51,2.28,5.55,2.92,11.72,5.22,17.27h-50.99ZM814.32,957.04h-42.51c-1.92-5.74-5.91-10.42-7.79-16.2-4.34-13.39-5.05-28.69-12.19-41.81l-8.51-32.99c7.72-.67,15.78-.93,23-4l2.27,25.24c8.5,18.62,18.46,39.26,33.71,53.29l12.02,16.46h0ZM986.75,1014.99c4.23-2.84,8.51,1.15,13.01,1.09,16.73-.24,22.39-5.01,36.01-10.08,7.05-2.62,15.05-2.62,22.54-5.46s12.99-8.68,19.33-11.67c4.44-2.09,10.65-3.37,15.65-5.35,5.68-2.25,11.25-7.21,17.56-6.54,4.86.52,8.49,7.75,8.22,12.32-.2,3.31-7.04,20.54-8.95,24.05-14.06,25.77-27.3,31.41-46.33,50.67-4.86,4.92-12.23,12.13-8.5,19.55,2.89,2.94,15.71,1.27,19.4-.65,2.27-1.18,5.58-5.03,8.29-6.71,10.02-6.18,18.76-13.25,28.01-18.99,3.31-2.06,7.94-3.2,10.83-5.17,5.49-3.73,10.01-12,15.48-16.52,4.87-4.02,10.52-6.99,15.54-11.46,7.2-6.4,12.29-15.28,19-21,3.05-2.6,18.23-13.01,21.54-10.6,1.53,5.47.01,15.15-1.32,20.83-2.77,11.8-6.87,12.66-13.16,20.84-13.28,17.27-22.53,36.92-39.06,52.94-4.05,3.93-15,11.66-18.58,19.22l-1.14,4.85,8.64.05,4.17-6.04c17.34-18.05,31.78-39.44,49.86-57.14,3.49-3.42,19.26-17.59,23.02-17.61,7.2,2.44,3.9,15.7,1.33,20.95-5.32,10.84-17.77,28.6-24.99,39.01-3.96,5.71-8.19,11.18-12.5,16.59l-3.51,4.38.73-.04c-.2.01-.4.02-.61.04-.03,0-.07,0-.13,0-8.96,11.11-18.06,22.11-25.67,34.37-1.44,1.08-1,5.55-.05,6.22l-.02.02c3.93,2.75,6.27-5.25,7.91-7.39,2.41-3.14,6.05-4.67,8.52-7.48,7.09-8.08,13.74-17.34,20.62-26.4l3.65-4.74c5.42-6.95,11.04-13.64,17.18-19.4,4.47-4.19,11.86-8.19,17.89-5.33,1.88,2.96-2.79,10.89-4.33,13.88-1.89,3.67-3.63,6.57-5.34,9.05l-4.25,5.49c-3.28,3.81-6.82,7.17-11.44,12.43-7.12,8.12-10.83,13.58-19.03,21.97-25.91,26.51-43.92,42.67-76.15,61.85-30.69,18.26-40.06,22.03-75.69,27.31-11.43,1.69-22.76,5.2-34.51,3.77-1.17-7.35-2.51-14.95-2.15-22.43.88-18.09,2.28-35.64,2.08-54-.18-16.37-.29-32.54-.09-49.01,0-.29,0-.58,0-.87l.08-7.71c.13-13.86.24-27.36,1-41.33.84-15.6-2.98-31.19.39-46.61ZM1181.78,547.28h0c.27,6.13-.39,12.38.01,18.5.25,3.8,2.03,8.28,2.07,12.02.23,23.5-2.9,46.52-3.04,70.03-.15,25.2-2.3,50.36-2.09,76,.04,4.16,1.33,8.13,1.08,13-.44,8.49-3.5,17.42-2.03,26.46-10.77-1.31-21.21-.19-32.01,0l-2-217.01,38.01,1ZM1140.85,545.73c2.73,4.45.88,9.9,1.02,13.96.99,27.83-2.23,56.06-2.13,84.14.11,30.48-2.94,60.48.11,90.97l-3.08,28.49h.02s-.02,0-.02,0h0s-9.87-1.11-9.87-1.11c-4.6-13.71,1.96-27.68,2.51-40.56.98-23.1,1.17-46.89,1.42-69.79.21-20.01-.41-40.26-1.09-60-.55-15.93.39-32.32-4.95-47.53l16.06,1.43ZM1066.77,545.29c6.28-1.55,12.24.37,18.49-.02,9.49-.6,16.07-1.2,25.85-.61,3.78.23,7.64.95,11.5.8h.01c3.93,6.39,2.9,12.32,3.17,19.32,1.11,28.97-1.17,57.95-1.05,87.05.13,29.95-2.97,59.13-2.88,88.98l-2.08,22.48c-2.89-.4-5.62,1.09-8.44,1.04-4.8-.09-11.09-3.11-16.06-3.11-2.37.01-4.57,1.12-6.95,1.12-6.85,0-13.71-.1-20.55-.04.75-8.58-1.49-16.99-1.04-25.55,2.94-56.22,6.84-120.36,2.03-175.95-.44-5.02-3.15-10-2-15.51ZM985.22,777.35c-3.63-.44-3.89-2.43-5.06-5.55,3.87-8.87,16.27-4.42,24.1-4.42,3.28,0,6.13-1.13,8.97-1.12,50.8.2,101.28,3.92,152.09,3.08,17.8-.3,35.71-.17,53.96.05,16.11.19,33.08-.51,49.04,3.86,1.38.37,3.1.12,3.46,2.02,0,0,0,0,0,0h0s0,0,0,0c-4.23-.1-9.76,2.81-13.59,2.93-5.81.19-11.91-.07-17.87.13-65.68,2.23-131.11-.16-197.08-2-4.35-.12-9.76-2.12-13.96-2.12-14.1-.02-30.07,4.83-44.06,3.14ZM1004.64,807.91c-1.19-9.43-6.42-17.74-7.89-27.11l58.56-.55c29.65,1.65,59.19,3.7,88.91,4.09,23.56.31,46.72-1.65,70.01-2.09,14.84-.28,29.86.99,44.54-.95h-.01c-.04,1.55-.94,2.95-1,4.5-.86,24.15-5.42,43.71-9.72,67.28-.65,3.53-.49,7.56-1.33,11.17-7.73-.99-16.11,1.19-23.47,1.13-4.92-.04-10.15-2.24-14.97-2.16-4.86.08-9.43,2.24-15.04,2.14-12.25-.22-24.62-.92-37.01-1.02-21.64-.18-43.12-.39-65,0-18.21.32-36.39-.85-54.95-.04-2.82.12-5.59,1.81-8.1,1.9-5.11.19-11.78-3.2-17.42-1.9l-3.11-33.39c-2.93-7.62-2.05-15.47-3-23ZM1313.29,884.3c-3.2,5.36-25.38-.08-30.91.09-41.02,1.29-78.81,1.77-120.06.86-24.16-.54-47.82,1.34-72.09,1.07-8.1-.09-18.82-2.15-26.84-1.93-10.4.29-14.41.52-25.15-.12-19.23-1.15-40.95.37-60-.94-3.98-.27-6.8-2.12-10.96-2.12-3.43,0-7.01,1.83-9.64,1.56-3.06-.32-11.18-4.45-8.73-8.36h-.02c.42-.65,11.52-5.15,13.37-5.2,3.02-.09,5.8,1.14,8.95,1.14,11.49,0,22.72-.12,34.1-.08,30.73.1,61.8-.06,92.94.03,6.96.02,12.88,1.14,19.03,1.08,4.49-.04,9.92-2.08,14.03-2.11,5.28-.03,10.84,2.18,17,2.08,15.08-.24,30.92-2.16,45.95-2.13,4.34.01,9.13,2.46,14,2.51,6.9.08,13.97-1.36,21.96-1.39,18.35-.08,46.57-1.26,63.96,1.04,1.74.23,15.73,4.43,16.9,5.1,2.41,1.37,3.64,5.44,2.21,7.82Z"/>
    <path d="M1128.76,1111.21c-2.78-.01-5.66-.03-8.64-.05.04.99.26,1.95.71,2.89,2.1,4.32,5.24.98,7.93-2.85Z"/>
    <path d="M618.83,622.11c12.13-3.82,27.83-2,38.83-8.25,8.38-4.76,25.39-30.82,26.56-40.44,1.92-15.73-.16-31.3-5.87-45.9-.4-1.02-3.67-10.9-5.52-7.49-1.59,2.93,1.88,8.28,2.42,11.59,3.39,20.75,3.56,37.3-3.63,57.2-.85,2.35-1.99,5-3.64,6.87-4.05,4.58-29.4,18.08-35.39,19.1-11.27,1.93-30.12-5.8-42.01-6.53l-2.26,1.76h.02c9.52,4.84,19.71,9.73,30.49,12.09Z"/>
    <path d="M459.41,844.44c-5.68-4.24-8.35-11.81-14.04-14.96-5.06-2.8-10.63-2.97-16.29-2.19h-.01c-3.47.48-9.61,2.44-11.6,5.4-.74,1.1-1.59,1.89-.19,2.87,3.55,2.01,9.25-1.79,13.42-1.49,4.17.3,19.01,7.68,22.53,10.55,4.55,3.7,6.48,8.89,12.15,11.85,14.67,7.65,21.61-3.28,30.93-11.96,3.24-3.02,12.54-6.8,7.52-11.46-12.35,9.75-28.96,22.93-44.42,11.39Z"/>
  </g>
  <path d="M1124.93,410.55c.45,1.7-1.4-3.1,5.48-.3,1.28.52,2.09,1.8,2.07,3.18l-.5,33.4c-2.88,14.32-1.54,29.3-1.03,43.95.09,2.53.06,6.42.3,9.51.09,1.22-.25-.14-4.32.2"/>
  <path d="M1192.74,419.98c-.27,1.73-.02-3.4,5.13,1.95.96.99,1.18,2.49.6,3.74l-14,30.33c-8.44,11.92-13.29,26.16-18.77,39.75-.94,2.35-2.55,5.89-3.58,8.81-.41,1.16-.17-.23-4.03-1.57"/>
  <path d="M1061.65,422.01c1.03,1.42-2.42-2.39,5-2.25,1.38.03,2.59.92,3.07,2.22l11.54,31.34c2.46,14.4,9.1,27.89,14.84,41.38.99,2.33,2.37,5.97,3.7,8.76.53,1.11-.28-.04-3.96,1.74"/>
</svg>