<?xml version="1.0" encoding="UTF-8"?>
<svg id="Calque_1" data-name="Calque 1" xmlns="http://www.w3.org/2000/svg" viewBox="0 0 1605 1605">
  <g>
    <path d="M695,654.16c.89,5.93,3.65,10.75,4.73,16.77,5.72,32.12,9.91,74.92-5.85,104.6-6.26,11.79-11.71,10.88-22.85,16.19,1.8,3.95,2.74,8.28,4.79,12.12,3.05,5.7,11.49,18.2,17.17,20.83,12.11,5.61,20.28,5.14,29.01-5.01,2.35-2.73,1.69-6.49,7-5.51-1.36-4.95-6.26-19.51-.06-21.54,12.34-1.88,26.32-.49,38.45-2.55,5.21-.89,10.04-3.94,14.34-4.66,4.69-.79,10.18.03,15.02-.54l1.06.49,5.18,23.82c7.35-2.35,14.38-.28,21.45.04,4.82.22,10.27-.58,14.96.04,3.96.52,8.21,3.31,12.17,3.83,15.35,2.02,27.03.32,42.08,7.92,9.26,4.67,10.7,4.67,20.13,7.87,27.92,9.48,56.15,27.7,81.24,42.76,10.04,6.03,10.52,12.03,17.56,19.44,3.67,3.86,9.63,6.78,12.83,11.17,4.3,5.9,5.8,15.04,12.08,19.93,2.37.44,1.2-1.08,1.5-2.46,2.08-9.56,1.49-17.7,3.08-26.94.72-4.18,3.62-8.78,3.35-13.65,1.13-1.67,7.22-.7,9.82-1.18,9.36-1.71,21.72-10.89,28.28-17.72,3.25-3.39,4.9-8.13,7.95-12.05,5.28-6.81,14.11-12.57,18.51-18.49,17.56-23.63,27.14-41.3,51.94-59.06,3.15-2.25,6.1-7.07,9.14-8.86,27.94-16.48,51.68-18.21,83.13-12.28,16.69,3.14,28.22,6.47,41.31,17.69,4.86,4.16,24.75,33.49,27.35,39.65,5.24,12.46,11.84,27.55,15.88,40.12,2.32,7.24,6.99,33.45,13.95,36.05,6.66,2.49,13.4-.4,18.7.21,7.38.86,3.27,4.67,3.05,7.45-.18,2.23,1.44,5.51,1.54,8.05.72,19.38.38,42.04,2.03,60.97,1.59,18.27,2.69,33.36,3.04,52.05.38,20.33,3.12,41.22,3,62.01-.1,18.41.37,43.56,1.97,61.94.44,5.07,3.05,11.14,3.06,16.02.02,6.87-2.42,14.63-2.11,22.04s4.09,15.89,4.12,22.96c.02,4.4-2.16,10.58-2.17,15s1.89,10.55,2.07,15.01c.49,11.93.82,23.75-.45,35.53-1.79,2.72-25.75,4.3-30.02,3.95-13.62-1.13-18.84-.36-31.98.06-24.29.78-51.32-1.92-75.08-.08-5.68.44-11.52,3.11-16.97,3.12-6.49,0-13.23-3.23-20.01-3.16-5.03.05-11.11,2.08-15.98,2.16-9.08.14-20.97-1.39-29.94-1.11-5.06.16-10.58,3.01-16.04,3.1-6.59.11-13.44-3.24-20.01-3.15-8.49.1-15.07,4.01-24.9,2.98-13.85-1.45-21.18.28-34.05.14-3.91-.04-8.73-2.13-13.05-2.12-12.38.01-26.4,2.23-40.04,2.13-38.96-.28-77.74,1.3-116.96.16-3.7-.11-7.77,2.35-11.93-.3-1.14-.73-1.39-2.83-2.22-2.97-2.65-.45-13.28,4.47-16.93,4.99-16.07,2.3-34.72,4.34-50.88,4.13-6.99-.09-12.48.54-19.23-1.86-2.07-.74-8.77-5-9.83-4.91-.66.06-2.26,2.19-3.92,2.8-7.18,2.61-28.68,1.22-34.49-3.65-1.32-1.11-4.96-7.41-5.58-7.41-5.78,10.31-11.81,3.16-18.01,2.91-5.46-.22-12.49,1.64-19.02,1.11-29.09-2.37-58.63-2.72-87.95-2.11-14.55.3-28.81,1.14-43.02,1.08-3.77-.02-11.63-.51-14.91-.02-1.68.25-7.34,5.07-7.59,7-2.67-3.46-5.35-2.27-8.22-3.25-7.48-2.55-4.67-3.13-12.35-1.84-13.68,2.3-27.19,3.25-40.82,5.18-10.27,1.46-6.99,3.52-19.33,1.13-5.59-1.08-17.02,5.42-23.25,7.29-15.48,4.66-29.44,6.84-45.26,7.73-3.73.21-7.57,3.16-11.34,3.67-45.66,6.23-102.88-2.45-139.42-32.4-14.47-11.86-30.17-31.68-36.75-49.25-16.66-44.51-10.02-91.44,6.28-135.24,2.15-5.79,6.59-10.24,9.35-15.65,3.07-6.02,4.81-13.85,8.3-19.7,16.41-27.56,36.67-47.24,57.34-70.66,2.63-2.99,4.78-7.85,7.5-10.5,3.62-3.53,9.3-5.28,13.46-8.54,3.03-2.37,5.54-6.11,8.51-8.49,38.78-31.17,86.29-59.09,134.02-73.98,8.49-2.65,17.61-4.66,26.34-6.42l3.59-11.65c2-.87,4.29-.14,6.32-.68,7.77-2.05,22.07-6.95,29.35-7.7,4.46-.46,8.81,1.8,13.34.88,2.68-7.87-1.29-14.94-1.84-22.55-.14-1.9,1.03-3.84.98-5.89-.16-6.47-4.67-13.1-6.58-19.51-2.98-10.04-3.12-19.89-9.52-28.99-1.14-.79-4.7,11.46-5.44,13.04-1.99,4.25-9.23,13.09-10.1,15.9-1.54,4.96.05,12.07-1.5,18.5-4.67,19.34-23.38,41.11-42.16,47.84-16.55,5.94-28.88,6.98-46.17,4.61-8.61-1.18-13.98-7.05-21.2-10.8-2.29-1.18-4.68-.77-6.95-2.05-5.95-3.35-8.18-16.53-13.95-21.03-9.98,8.29-25.92,19.09-39.53,15.52-1.5-.39-25.46-14.66-26.62-15.88-1.49-1.56-8.16-11.29-9.16-13.34-3.35-6.78-3.7-16.28,4.33-7.33,6.27,6.99,5.93,11.97,17.09,13.91,9.21,1.59,15.86,1.85,24.09-2.7,13.34-7.38,24.82-20.43,30.1-34.9,1.04-2.85,4.91-26.49,5.25-30.75,1.22-15.46-1.23-36.88-1.08-52.98.08-8.84,1.81-17.65,1.05-26.56-11.4,2.29-17.11-5.48-25.31-10.19-6.11-3.51-14.63-6.31-19.68-11.32-2.97-2.94-5.44-8.62-8.52-11.48-4.61-4.28-10.82-5.47-16-11-21.47-22.88-31.55-47.52-38.19-77.81-4.83-22.05,4.98-54.23,15.16-74.24,3-5.89,7.62-8.71,11.37-13.63,4.26-5.58,5.71-11.89,9.76-17.24,9.24-12.24,24.46-25.8,35.96-36.04,2.95-2.63,4.25-6.23,8.12-8.88,11.17-7.67,36.74-21.69,49.33-26.67,4.78-1.89,31.38-9.95,35.61-10.38s28.72-.56,32.81-.02c13.42,1.76,45.46,17.85,57.5,25.49,6.22,3.95,10.18,11.03,16.17,15.83.98.79,7.19,5.31,7.65,5.43,7,1.93,15.28-15.22,18.86-19.76,4.52-5.74,10.48-11.3,14.83-17.17,18.11-24.38,35.51-59.07,69.34-63.66,20.61-2.8,34.49,10.31,40.74,28.74,4.29,12.65,3.49,24.27,1.23,37.22-4.97,28.54-20.86,60.87-30.53,89.47-2.15,6.36-6.42,9.37-9.39,14.61-2.75,4.85-8.84,15.64-10.7,20.29-3.01,7.52,5.02,17.28,7.91,24.88,3.37,8.85,5.88,18.43,8.77,27.23,1,3.06,3.01,14.12,4.61,15.39,3.93,1.88,8.69.48,13.02.98,2.69.31,4.82,1.84,8.07,1.99,4.57.21,8.89-2.06,12.77-1.82,4.53.27,26.49,5.27,31.02,6.98,9.87,3.73,18.04,19.01,13.61,29.17-7.1,16.29-26.01,34.44-42.21,41.78-5.03,2.28-11.23,3.86-16.68,4.83ZM581.01,460.14c6.8,2.68,13.3.29,19.7,2.81,4.62,1.82,16.03,7.25,20.21,9.78,6.77,4.1,10.74,11.81,18.45,14.29,5.52-1.08,14.79-34.09,17.43-40.58,11.63-28.62,33.7-70.49,23.51-102.1-.56-1.74-3-6.9-4.31-7.69-3.4-2.04-18.48.7-22.31,2.68-6.47,3.34-7.54,9.47-11.25,14.75-13.64,19.38-22.85,40.77-35.27,60.73-3.57,5.74-4.97,12.37-7.98,18.02-2.36,4.43-5.87,6.77-8.41,10.59-3.56,5.35-6.68,11.09-9.77,16.72ZM585.65,513.8c5.84-5.9,11.6-20.48,15.48-28.02,1.29-2.5,8.16-12.39,7.79-14.02-.24-1.09-1.9-1.72-2.9-2.12-7.62-3-19.33-3.67-27.39-6.26-1.25.24-13.95,17.13-16.11,19.79-2.55,3.14-6.55,5.79-8.95,9.05s-3.94,8.22-6.56,11.44c-3.94,4.83-9.15,6.08-13.04,9.96-2.7,2.7-3.77,6.33-5.97,9.03-4.44,5.45-10.63,10.47-14.49,15.51-.77,1-1.94,1.27-1.49,3,5.29-.99,11.48,1.06,16.33.93,4.54-.12,18.87-2.48,22.95-4.14,3.25-1.32,31.65-21.41,34.35-24.15ZM671,569.15c-1.45-5.92-2.98-11.92-4.73-17.76-6.68-22.39-15.38-47.81-32.77-64.23-5-4.72-16.95-7.92-21.99-13.99l-14.66,34.32c-11.78,9.55-18.14,23.35-32.16,29.84-3.32,1.54-7.04,2.1-10.36,3.64-5.12,2.37-10.13,7.37-15.91,8.09-3.55.45-15.82-1.28-19.83-1.99-2.39-.43-8.98-3.59-10.41-2.77-.48.28-2.29,4.25-2.21,5.29.11,1.44,4.41,7.72,5.34,10.77,10.85,35.85,8.74,74.85,2.58,111.18-3.07,18.12-8.24,30.95-19.88,45.12-5.53,6.73-16.48,7.64-24.22,9.78-2.86.79-5.4,2.96-8.51,3.48-6.63,1.11-12.45-2.06-20.08-.08-1.12.29-18.93,9.45-20.54,10.46-14.27,9-16.61,50.85-9.16,64.87,9.59,18.07,29.13,21.09,47.52,16.49,22.6-5.65,47.32-21.74,59.41-41.59,4.16-6.82,8.93-14.92,9.59-22.92,7.37-.8,8.05,12,10.51,17.99,6.48,15.76,11.63,32.26,13.36,49.64.5,5.02-.88,13.66.32,17.68.49,1.64,9.15,12.75,11.1,13.9,2.94,1.73,30.52,13.07,33.46,13.54,13.03,2.1,21.68,2.32,34.69,2.22,3.63-.03,7.39,1.54,12.05,1.04,13.06-1.4,55.66-28.19,64-38.99.77-1,1.94-1.27,1.49-3-12.23,4.68-19.35,1.19-27.02-8.48-4.97-6.26-4.84-10.74-7.47-17.53-1.63-4.21-6.01-7.26-4.51-13-6.19.11-11.34,4.18-17.6,4.9-5.47.62-9.33-.96-13.89-.97-5.04,0-8.88,2.53-14.74,1.83-10.74-1.29-17.99-5.07-25.78-12.24-2.55-2.35-13.36-11.59-5.59-11.41,6.5,7.47,19.4,16.24,29.21,17.79,3.42.54,13.74,1.48,16.92,1.13,4.57-.5,10.05-4.07,15.23-4.77,10.46-1.4,12.29,1.9,22.15-4.85,16.3-11.15,20.02-18.72,22.82-38.18,2.4-16.71-1.6-24.56-1.76-38.78-.06-4.98,1.56-10.12,1.03-15.94-.3-3.25-1.86-6.23-2-9.51-1.79-.39-1.97.52-2.83,1.66-2.56,3.37-4.24,9.58-7.5,13-6.03,6.31-21.99,17.16-30.59,18.9-19.61,3.99-38.54-9.04-47.24-25.88-2.81-5.43-2.38-10.01-4.79-15.27l-22.3,1.38-17.72-7.8c-.23-1.87,1.97-.69,3.02-.53,11.82,1.86,20.87,7.82,33.01,2.08,9.7-4.59,15.15-12.37,18.74-22.26,1.2-3.33.56-6.7,2.73-9.25,2.75,0,.32,11.99-.26,13.72-1.57,4.61-14.6,18.04-14.89,20.74,2.83,5.62,4.2,17.22,8.11,21.57.86.96,17.71,13.76,18.8,14.2,12.62,5.15,34.31-.4,44.77-8.73,3.45-2.75,15.97-18.47,16.77-22.25.42-1.98-2.61-18.65-2.71-22.9-.03-1.33.2-2.54.83-3.71.77-1.16,22.07-8.42,25.79-10.46,8.49-4.64,26.99-20.6,30.49-29.51,1.83-4.65,2.41-11.27,1.82-16.22s-3.86-6.84-8.01-8.99c-16.83-8.73-40.28-6.23-58.46-8.54-2.78-.35-8.66-3.26-11.22-3.63-5.74-.83-10.6,2.27-18.33-.82-2.63-1.05-17.06-14.76-18.65-17.35-1.77-2.89-5.29-12.12-1.37-14.14,4.12,19.55,18.68,26.24,37,29ZM494.71,710.85c3.28-3.02,9.41-19.05,10.6-23.89,8.94-36.23,10.64-74.21,6.57-111.18-.34-3.11-5.82-22.28-7.4-22.63-3.64,2.8-15.57,9.44-16.23,13.67-.24,1.54,1.43,3.92,1.68,5.92,5.76,47.09,1.41,91.19-11.63,136.21-.33,1.13-5.5,12.75-3.8,12.2,5.73-3.35,15.36-5.83,20.21-10.3ZM467.84,721.98c2.05-7.63,7.65-15.48,9.68-22.81,3.23-11.65,4.27-26.97,6.78-39.22,4.29-20.91,3.41-34.92,3.66-56.34.09-7.41,1.62-16.14.81-23.72-.29-2.75-2.19-5.69-1.78-8.74l-5.97,8.52c-10.38,6.42-17.11,17-25.05,26.02.89,4.11,3.15,7.55,4.31,11.68,4.09,14.56,5.94,47.23,2.02,61.58-1.95,7.15-9.21,30.24-12.47,35.53-1.08,1.76-8.53,8.97-6.83,10.66,8.5-1.31,16-3.91,24.83-3.16ZM416,855.15c-1.21-4.06-3.77-7.11-3.92-11.66-.31-9.25,3.11-14.18,8.86-20.7-3.16-4.34-9.05-7.8-11.49-12.58-1.68-3.29-8.55-21.6-8.39-24.42.23-3.97,2.89-10.06,3.69-14.39,2.67-14.48,1.42-21.21,11.74-33.26,5.5-6.42,10.35-10.64,19.03-11.97,4.03-10.31,15.09-23.7,18.21-33.79,8.33-27.01,6.01-49.91,1.38-76.82-.55-3.17,1.11-7.1-1.6-9.38-1.46.02-14.92,19.99-17.97,23.01-11.67,11.57-22.76,23.95-34.5,35.5-3.24,3.19-8.55,5.24-10.88,10.18l1.88,22.73c-2.99,15.73,2,30.5.95,46.03-.7,10.32-.58,18.14-.94,28.04-.84,23.37-19.28,38.41-33.71,54.31-9.32,5.45-19.63,7.59-30.34,5.17,4.03,7.3,10.25,5.12,16.49,6,4.2.6,8.81,2.4,13.01,2.04,6.31-.54,23.21-14.4,25.87-13.91,2.79,1.5,2.77,4.79,4.62,7.37,2.65,3.69,7.3,5.48,10.53,8.47,5.62,5.19,8.83,11.69,17.46,14.02ZM1257.68,779.47c-1.76-1.86-5.78-2.98-8.22-5.27-7.92-7.41-14.15-25.93-26.92-25.06-22.04,1.51-41.9,10.41-59.46,23.58-24.45,18.34-39.89,46.49-59.54,69.46-7.36,8.6-16.66,16.29-23.03,25.97l-10.49,6c6.15.5,10.8-3.17,16.96-4.52s11.05-.79,16.45-1.55c4.28-.6,16.08-11.71,19.58-15.42,23.57-24.89,43.69-55.41,76.33-69.67,9.86-4.31,10.57-3.23,20.12-3.79,4.07-.24,9.3-2.94,12.77-2.8,3.87.16,14.78,2.2,18.82,3.22,2.57.64,5.3,2.01,7.46,3.54,1.34-.63-.21-3.02-.83-3.68ZM1345,879.15c-1.69-4.77-4-9.11-5.49-14-7.11-23.42-13.07-45.75-25.67-67.33-6.87-11.76-22.05-31.02-34.14-36.86-14.34-6.91-30.5-7.41-45.68-11.81-.42,1.83.54,1.96,1.65,2.83,32.22,25.02,49.67,65.8,63.37,103.63,1.1,3.05,2.32,11.95,3.47,13.53,3.57,4.89,24.39,4.41,30.55,5.45,4.57.78,7.66,3.51,11.94,4.55ZM1297,867.15c-2.25-5.59-2.26-11.89-3.94-17.55-3.87-13.03-18.3-41.63-26.08-52.92-4.28-6.21-2.08-8.34-10.43-11.57-13.17-5.09-13.69-1.86-25.04-1.88-10.54-.02-13.93-2.07-25.28,1.64-6.3,2.06-27.07,13.72-32.18,17.82-3.3,2.64-10.65,10.86-15.06,14.94-9.23,8.53-17.23,19.18-25.95,28.05-6.13,6.24-13.15,11.47-19.02,17.98,9.63-.13,20.26-3.7,29.51-4.49,5.92-.51,11.76,1.01,16.88.88,4.44-.11,9.22-2.85,13.36-3.65,7.96-1.54,27.52-1.93,35.78-1.29,6.47.5,14.22,3.98,20.02,4.07,18.5.28,25.75,3.94,42.06,5.86,8.46,1,17.21-1.5,25.39,2.1ZM513,796.16c-1.97-.51-1.93.81-2.81,1.68-6.75,6.67-27.03,22.93-35.74,25.26-3.88,1.04-7.48.58-11.01,2-3.36,4.78,3.76,20.54,8,23.13s12.87-2.84,16.5-5.63c2.58-1.98,20.42-25,21.3-27.7,1.72-5.28,1.48-13.06,3.76-18.73ZM1033.01,1107.16c-.9-12.12,3.7-22.25,2.98-34.49-.97-16.51-.88-30.27.02-47,.22-3.98,2.07-9.13,2.07-13.01,0-6.15-2.84-14.22-3.13-20.95-.64-14.72,2.03-27.03,3.03-41.07,1.02-14.39.92-19.05-7.57-30.4-11.57-15.47-18.7-24.09-33.43-36.57-13.67-11.58-30.64-24.04-46.67-32.33-9.29-4.8-23.28-8.42-33.31-12.69-6.13-2.61-11.74-6.98-17.74-9.26-21.3-8.12-60.54-16.08-82.88-16.33-3.49-.04-7.54-1.73-11.39-.89,1.17,6.5,2.78,13.08,3.9,19.59,6.69,39.16,14.11,78.53,19.12,117.88,1.23,9.64,4.74,15.85,6.71,24.29,4.09,17.5,4.38,40.31,8.52,58.48,1.39,6.1,5.62,11.99,6.49,18.51,3.91,29.08,8.52,54.3,13.98,83.02,1.88,9.87,3.37,20.22,4.27,30.23l24.96,1.95c.08-2.87,1.18-5.54,1.13-8.45-.08-4.92-2.11-12.16-2.09-17,.02-4.25,1.93-10.77,2.04-15.05.12-5.02-2.71-10.96-.03-16.46l138.99-1.99ZM730,821.16l-10.53,8.95c-4.36,10.82-14.54,13-21.93,19.07-2.87,2.36-4.22,5.48-6.49,7.51-6.78,6.09-26.06,17.59-34.8,19.2-15.16,2.8-32.06,6.21-47.48,4-6.55-.94-11.72-5.29-17.79-7.21-8.53-2.71-15.94-2.33-23.9-8.1-1.5-1.09-8.85-9.72-10.06-8.43l16,106c3.31-.94,6.92-.63,10.24-1.26,5.25-1,11.3-4.23,16.41-4.37,7.65-.21,14.75,3.8,23.76,2.54,6.07-.85,12.61-5.74,19.35-6.65,5.22-.71,10.61.29,15.66-.34,10.71-1.35,24.38-5.76,35.33-7.67,5.4-.94,12.31-.49,17.51-1.49,5.89-1.13,12.6-5.62,18.48-6.52,4.76-.73,9.6.43,14.31-.69l-14.05-114.54ZM461,826.16c-6.9,1.69-12.07,4.55-19.54,4.04-4.25-.29-17.25-5.98-18.49-5.53-2.87,1.06-6.4,11.26-6.79,14.26-.56,4.31,6.34,16.07,10.59,17.96,9.65,4.29,31.85-.76,41.23-5.75-7.04-6.49-9.67-15.66-7-24.98ZM495,862.16c-11.83,2.97-23.79,6.08-35.29,10.2-34.76,12.47-68.53,31.36-97.35,53.65-11.34,8.77-25.82,16.6-36.39,26.61-3.41,3.23-5.66,8.82-8.92,12.08-7.63,7.61-16.39,13.06-24.55,22.45-35.12,40.39-70.26,99.32-72.42,153.52-.23,5.81-3.11,13.41-3.06,18.99.03,3.01,4.44,31.97,5.25,34.74,15.92,53.98,65.65,82.72,118.34,90.66,21.24,3.2,38.41-.4,58.9-.9,3.05-.07,5.85,1.54,9.94.93,2.97-.44,6.31-2.91,9.36-3.64,8.98-2.15,18.3-3.33,27.23-5.77,7.89-2.16,16.13-7.03,24.91-7.59-2.55-9.1,1.34-16.88,2.06-25.45,1.84-22.07.1-46.1,4.67-68.13l-.65-28.36c-5.92.9-11.81-1.31-17.53-1.04-11.85.56-24.47,3.13-37.03,3.09-32.1-.09-65.09,1.95-96.97,2.94-9.33.29-19.75.11-29.01-.98-1.5-.18-3.04-.81-1.47-2,2.4-.17,5.06.33,7.42-.09,14.57-2.58,29.28-2.99,44.04-3.96,6.01-.39,11.8,1.15,16.99,1.07,4.63-.07,10.23-2.94,15.05-3.1,14.75-.47,29.24-.07,44.02-.92,12.82-.73,26.89.67,39.02.01,5.17-.28,10.12-2.72,15.45-2.04l18-276.99ZM1327.01,885.14c-10.44-10.28-26-6.15-38.26-8.23-4.79-.81-10.8-4.38-16.49-5.51-8.79-1.75-19.65-1.94-28.49-3.51-5.63-1-12-4.18-17.24-4.75-6.64-.73-17.65.84-25.05,1.05-23.44.67-43.22.33-66.83,4.07-10.62,1.69-15.27,2.31-25.97,2.97-4.84.3-9.95,2.87-14.65,3.92.39,2.01,2.12,1.63,3.5,1.98,5.64,1.43,11.23.58,16.89,1.11,23.01,2.18,46.15,3.26,69.12,4.88,16.42,1.16,32.66,1.28,48.99,2.01,24.33,1.08,48.55,2.72,72.9,1.93,3.34-.11,8.42-2.43,12.37-2.65,2.86-.16,6.11,1.4,9.22.72ZM1367.01,888.16c-3.14.12-6.34-.24-9.48,0-20.47,1.62-29.08,4.19-45.02,16.98-9.28,7.45-17.73,17.98-23.68,28.32-7.56,13.12-14.67,26.28-22.79,39.21-3.63,5.77-12.96,18.98-17.48,23.52-1.29,1.29-29.59,16.53-31.81,17.19-5.77,1.71-34.55-.46-40.94-2.5-2.92-.93-21.12-12.37-24.28-14.72-13.19-9.79-23.13-35.31-27.2-50.8-2.61-9.92-2.44-23.17-4.97-32.03-.66-2.33-14.12-21.37-16.34-23.66-8.62-8.89-29.54-8.59-41-6.01,8.41,2.43,10.05,8.93,14.6,14.41,25.82,31.08,23.01,41.62,33.7,78.3,4.55,15.63,11.27,29.85,17.2,44.8,2.02,5.09,2.35,10.58,4.7,15.3,18.44,37.05,57.02,30.92,90.6,20.97,24.43-7.24,29.01-23.68,42.41-42.59,7.24-10.22,15.45-17.99,22.64-27.36,6.92-9.01,12.47-22.61,18.35-32.65,13.69-23.37,23.97-39.45,45.9-56.1,4.82-3.66,10.36-6.58,14.92-10.57ZM1032.96,1114.21c-1.46-1.42-25.94,1.22-30.49.98s-8.61-2.18-12.95-2.11c-14.86.25-33.03,1.96-48.02,3.06-12.73.94-27.32-1.6-40.11-1.06-1.56.07-2.87-.83-4.38-.92.86,3.91-1.1,7.96-1.09,11.5.01,7.76,1.95,17.05,2.07,25.99.23,16.38,1.7,33.31,1.06,50.06-.47,12.23-.9,22.55-1,34.9-.08,10.22-1.55,20.31-1.05,30.55,6.37,1.87,10.98-.56,16.52-1.01,8.85-.71,17.89,1.07,25.98,1.08,3.95,0,8.78-1.89,12.96-2.11,11.73-.61,26.14.22,38.04.03,7.94-.13,16.58.32,24.04.04,2.04-.08,16.52-2.27,17.02-2.97l.48-58.61c-.77-23.92-.28-50.11,1.84-74.08.47-5.29.01-10.16-.93-15.32ZM893,1168.16c-.72-.67-16.61,2.01-19.5,2.08-24.17.62-44.21,5.58-67.03,13.88-26.11,9.5-43.02,17.62-63.46,36.54-3.06,2.83-7.39,4.64-10.01,7.99-3.38,4.32-7.56,20.53-5.48,25.48.66,1.57,7.42,6.56,9.1,6.76,3.5.4,10.12-3.71,14.37-2.74-.15-9.51,2.73-19.15,6.83-27.67,2.48-5.15,11.99-17.9,16.16-21.84,9.11-8.61,37.14-17.89,49.76-20.24,1.75-.33,3.5-.33,5.25-.24.47,2.84-.58,1.67-2.31,2.13-21.48,5.72-44.57,11.31-58.69,30.36-3.91,5.27-12.4,24.09-12.46,30.37-.05,5.29,10.16,16.29,15.43,17.65,8.73,2.25,13.09-2.86,21.08-3.98,1.01-.7,1.6-10.8,2.44-13.56,3.85-12.82,31.79-31.17,43.82-37.18,7.32-3.65,15.08-5.17,23.18-5.82v2.02c-7.93-.42-15.1,5.84-21.81,9.17-3.39,1.68-7.86,2.09-11.04,3.96-2.12,1.25-24.51,19.2-25.48,20.52-4.11,5.59-12.9,23.08-2.41,26.08,21.63,6.2,41.89,1.62,63.29.79l26.86-5.64,2.09-96.9ZM568.01,1261.15c6.79-2.73,12.37-8.78,12.62-16.32.5-15.21-7.15-27.86-17.6-38.2-8.67-8.58-31.03-22.21-42.33-26.67-6.34-2.5-17.42-2.71-24.75-4.25-4.46-.93-8.03-3.56-12.95-2.56,1.63,8.72-3.36,17.44-3.99,25.51-.47,6.04,1.37,12.43,1.03,19.03-.72,13.89-2.68,26.2-3,41-.07,3.34-2.38,7.06-.12,10.05,2.03,2.69,9.22-.35,12.6-.57,15.67-1.04,33.27-.86,48.29-5.7,1.09-.35,4.96-2.13,5.2-3.02,1.7-8.47-4.33-14.54-10-19.81-9.34-8.68-19.77-14.78-31.29-19.71-2.37-1.01-6.51-.35-7.72-2.77,3.93.04,8.53,1.02,12.22,2.26,11.36,3.83,22.89,10.21,31.78,18.22s6.91,24.11,7.92,25.01c3.96,3.56,18.69,3.26,19.91-2.2-.39-12.05-3.51-27.53-11.82-36.81-6.87-7.67-27.68-16.96-37.75-19.25-3.08-.7-8.47.91-10.26-2.22,13.08.56,35.15,5.42,45.03,14.45,4.41,4.03,12.72,13.83,14.74,19.26,2.92,7.85,4.24,17.06,2.23,25.27Z"/>
    <path d="M563.01,618.16c11.03,5.06,18.78,6.42,30.86,3.35,8.7-2.22,18.93-13.91,21.87-22.13,4.67-13.04,4.58-23.06-.53-35.92-2.7-6.8-11.85-14.23-7.69-20.29,13.62,14.06,16.62,31.31,14.39,50.37-1.87,16-8.1,21.06-20.43,28.57-8.1,4.94-11.66,10.09-23.02,6.08-3.76-1.33-12.74-7.06-15.45-10.04Z"/>
    <path d="M463.18,785.99c3.5,1.77,7.1,3,11.09,1.92,5.1-2.84,31.57-19.66,35.66-16.69.67,1.54,1.31,4.51-.17,5.7-2,1.61-14.34,2.87-18.46,5.03s-6.74,6.75-11.91,9.09c-5.32,2.41-13.38,5.24-17.41-.37-5.1-7.1,5.8-31.55-7.56-33.48-9.32-1.35-14.08,9.68-22.42,11.95,2.87-9.9,13.05-15.45,22.76-16.8s13.18,9.08,12.14,17.22c-.5,3.89-5.64,13.32-3.74,16.42Z"/>
  </g>
  <path d="M1211.62,586.48c.45,1.7-1.4-3.1,5.48-.3,1.28.52,2.09,1.8,2.07,3.18l-.5,33.4c-2.88,14.32-1.54,29.3-1.03,43.95.09,2.53.06,6.42.3,9.51.09,1.22-.25-.14-4.32.2"/>
  <path d="M1279.43,595.91c-.27,1.73-.02-3.4,5.13,1.95.96.99,1.18,2.49.6,3.74l-14,30.33c-8.44,11.92-13.29,26.16-18.77,39.75-.94,2.35-2.55,5.89-3.58,8.81-.41,1.16-.17-.23-4.03-1.57"/>
  <path d="M1148.34,597.94c1.03,1.42-2.42-2.39,5-2.25,1.38.03,2.59.92,3.07,2.22l11.54,31.34c2.46,14.4,9.1,27.89,14.84,41.38.99,2.33,2.37,5.97,3.7,8.76.53,1.11-.28-.04-3.96,1.74"/>
</svg>