<?xml version="1.0" encoding="UTF-8"?>
<svg id="Calque_1" data-name="Calque 1" xmlns="http://www.w3.org/2000/svg" viewBox="0 0 1605 1605">
  <path d="M958.81,809.07c-.46-2.86.59-1.67,2.31-2.14,11.96-3.26,23.61-2.96,32.11,7.22,7.25,8.68,4.11,18.83,2.61,28.89,9.65-.66,16.84,17.83,15.76,25.27-.51,3.49-3.31,6.28-3.78,9.75,5.83-1.71,10.68.34,16.48-.01,4.73-.29,8.75-2.35,14.05-2.04,6.27.37,13.3,4.2,19.06,4.97,5.65.76,12.17-.57,17.83.17,4.49.59,8.44,3.59,12.36,4.64,10.44,2.82,21.58,3.61,31.58,8.42,7.21,3.46,5.69,5.15,10.13,9.87,3.76,3.99,10.65,9.41,13.35,13.65,3.44,5.42,7.26,22.49,7.88,29.11.99,10.46-9.75,39.45-14.24,50.21-3.42,8.18-12.64,22.1-14,29.96-.4,2.31,5.3,7.55,2.84,16.88l-19.33,37.68c-.72,4.82,6.7-3.83,7.54-4.47,16.85-12.8,19.76,5.38,14.37,18.37-1.77,4.26-19.36,32.3-22.25,35.25s-8.5,5.69-11.64,8.86c-20.26,20.45-34.42,40.53-59.07,57.93-17.99,12.69-41.03,26.74-61.71,33.29-11.38,3.6-27.16,8.66-38.8,10.2-12.52,1.65-26.6-1.77-39.31,3.19,2.13,22.55-3.52,14.41-17.73,13.02-8.53-.84-14.2,1.56-21.84,1.92-13.21.61-28.16-1.29-41.03-.03-5.04.49-9.67,2.97-15,3.06-8.48.15-16.67-3.58-26.05-3.11-7.53.38-15.75,4.13-22.95,4.12-5.47,0-11.64-3.01-17.01-3.08-12.14-.17-25.61,2.48-39.03,2.03-3.79-.13-8.32-2.02-11.86-1.93-4.06.1-9.68,2.49-14.12,2.88-18.47,1.61-37.44-1.36-55.02-1.04-16.51.3-34.18,4.34-51,3.1-5.17-.38-9.47-2.23-15-2.09-7.05.18-14.65,3.17-21.98,3.14-7.31-.03-15.49-2.6-23.02-2.11-5.22.34-10.91,3.09-15.96,3.11-9.48.03-22.19-1.58-32.01-2.07-5.17-.25-18.35,2.43-17.49-4,4.8-1.8,9.16.07,13.35-.07s10.67-2.92,15.21-2.97c12-.12,21.99.15,33.96,1.02,9.98.72,18.69-2.74,27.98-2.78,7.82-.04,15.51,2.49,23.98,1.78,15.51-1.29,31.19-4,47.06-3.02,4.96.31,9.87,2.18,14.97,2.11,5.67-.08,11.46-2.58,17-3.06,17.34-1.51,35.9,2.26,51.88,1.88,4.31-.1,10.19-2.55,15.07-2.93,11.25-.88,23.31,1.16,34.03,1.03,4.94-.06,10.86-2.62,15.97-3.03,10.84-.86,21.06,2.83,32.02,2.02,6.39-.47,13.99-3.73,20.02-3.77,5.29-.04,11.68,2.62,16.98,2.83,11.57.47,26.26-2.05,38.01-2.13,5.28-.03,11.12,2.18,15.96,2.11,2.08-.03,16.4-2.96,17.11-3.97,1.15-4.76,0-9.75.45-14.55,2.36-24.8-.09-48.09,1-73,.71-16,1.05-31.84,1.05-48.02,0-20.63-1.17-44.67-.11-65.04.3-5.75,2.16-12.21,2.12-17.98-.07-10.26-1.28-18.66-1.04-29.94.33-14.86.82-29.69.95-44.54-7.23,2.5-13.55,4.58-21.37,3.87-4.58-.41-10.67-2.88-15.12-2.86s-10.32,2.57-15.02,2.97c-11.18.97-22.85-.17-33.88.12-6.87.18-13.43,3.65-20.09,3.95-8.39.38-16.66-2.87-26.06-2.08-6.37.53-12.69,3.72-18.93,4.07-6.34.36-11.35-2.13-17.04-2.13-13.21.01-25.55,2.8-40.01,2.31-17.42-.58-37.15,4.07-55,3.85-4.47-.05-10.58-2.17-14.98-2.15-4.7.02-10.72,2.7-15.97,3.11-14.09,1.11-29.95-.94-43.08-.07-5.66.38-12.03,2.9-17.92,3.07s-12.27-1.76-18.05-1.49c-4.15.2-8.03,2.07-12,2.44-13.02,1.21-26.08-.22-39.04-.03-6.48.1-14.45,2.31-20.99,1.4-1.54.24-5.07,12.56-6.29,15.31-7.94,17.88-17.83,34.42-25.99,52.01-5.55,11.95-13.52,28.94-19.99,40.01-3.06,5.23-8.32,9.39-11.38,14.62-3.91,6.7-5.1,14.87-8.6,21.4-8.42,15.69-20.87,31.68-29.24,46.76-3.27,5.89-4.5,12.69-8.17,18.83-2.69,4.5-6.92,8.15-9.36,12.64-8.16,14.99-13.62,33.75-21.58,49.42-4.67,9.18-11.65,17.78-15.73,26.27-5.24,10.9-9.95,23.31-15.3,34.7-1.29,2.74-5.43,14.64-6.31,15.69-2.86,3.4-6.45-.28-5.38-4.29.38-1.43,2.49-2.44,3.3-3.78,7.76-12.85,7.72-23.58,13.68-35.32,2.08-4.11,5.79-7.76,8.05-11.95,16.98-31.43,30.95-64.34,46.82-96.14-1.76-5.48-4.03-10.97-5.48-16.53-18.07-68.82-30.75-139.88-39.51-210.49-1.53-12.34-1.73-24.23-3.1-35.9-.83-7.08-5-14.59-5.77-22.23-.74-7.38.62-15.49-.23-22.77-.76-6.46-4.64-13.65-5.8-20.2-1.31-7.42-.44-14.76-1.11-21.89-.58-6.18-3.03-12.77-3.86-19.14-5.32-41.08-2.93-78.18.88-118.86.31-3.26,2.4-9.34,2.03-11.97-.27-1.91-1.89-2.4-2.49-3.64s-.29-2.95-.77-3.68c-.66-.99-18.08-9.91-20.72-11.79-24.36-17.31-44.7-57.16-49.79-86.21-5.16-29.47-2.36-55.89,4.47-84.98,9.05-38.54,22.84-55.86,43.06-87.94,2.53-4.01,4.09-9.52,6.76-13.24,3.72-5.18,10.5-8.52,14.97-13.03,20.98-21.2,36.72-37.61,63.45-52.55,7.55-4.22,20.53-12.83,27.34-15.66,7.51-3.11,15.99-3.76,23.64-6.36,6.41-2.18,15.03-8.25,20.78-9.22,4.52-.76,9.32.25,13.75-.25,25.91-2.9,44.98-3.28,70.99-.97,10.79.95,17.19,6.76,26.53,10.47,12.18,4.84,17.02,3.77,28,13,21.18,17.82,33.51,27.99,46.15,53.85,4.08,8.34,9.31,18.52,9.33,27.72,2.64,2.18,6.23,2.28,9.18,3.77,6.88,3.47,8.78,9.35,13.34,14.66,11.4,13.28,23.69,28.33,28.32,45.68,3.06,11.46,7.19,21.29,10,32,3.34,12.75,4.84,26.83,7.78,39.72,1.85,1.18,10.52-2.29,13.49-2.77s6.37.18,9.65-.35c4.39-.7,8.95-4.06,13.33-4.67,7.53-1.06,15.24,1.38,22.95.95,13.05-.73,23.5-7.35,33.29,5.64,12.71,16.85,8.7,31.23-1.99,47.67-3.79,5.82-9.38,9.1-13.82,14.18-3.07,3.52-5.66,8.34-8.99,12.01-5.47,6.01-27.81,23.59-28.87,30.19-.39,2.46,8.73,13.7,10.7,17.92,4.25,9.09,5.97,20.31,9.95,29.05,2.36,5.18,6.69,8.83,8.67,14.33,1.98,5.53,2.32,12.16,4.03,17.97,2.29,7.79,7.34,16.98,8.79,24.21,2.33,11.58-2.43,44.56-5.98,56.62-2.52,8.56-6.41,14.31-9.81,22.19-2.1,4.88-3.02,11.02-5.34,15.66-3.81,7.62-29.5,29.64-37.5,33.5-3.34,1.61-7.25,2.42-10.69,3.85,2.52,5.28,2.34,11.39,3.66,16.82,1.47,6.06,4.93,19.42,7.47,24.53s10.31,12.22,14.1,17.9c3.73,5.57,7.49,15.37,11.37,19.63,1.4,1.53,17.92,13.59,19.17,13.91,2.67.68,4.44-.87,6.62-.71,2.88.22,9.72,2.35,11.89,1.77,3.05-.81,3.42-5.95,4.87-8.21,5.6-8.74,7.56-12.72,12.31-21.69,2.79-5.28,6.88-10.11,9.53-15.54l30.93-.5c-.73-9.49.83-19.04,1.13-28.37.56-17.83-1.13-37.52-.09-55.09.37-6.26,2.79-14.03,2.83-19.96.05-6.62-1.39-16.52-1.74-23.96-.78-16.63-3.75-32.63-5.03-49.06-.79-10.17.25-22.41,13.47-22.49,4.3-.03,23.48,9.69,27.45,12.57,8.89,6.46,20.33,36.32,21.81,47.19,1.37,10.14-1.9,19.48.27,29.24.87.89,18.09-12.52,20.76-13.73,11.93-5.44,21.05-6.26,33.72-7.28,3.91-.32,7.48-2.35,11.54-1.59,9.06,1.69,17.25,10.89,18.01,20.06,1.95,23.56-7.77,49.35-19.84,69.24-3.74,6.16-24.05,22.36-30.88,27.12-5.95,4.14-12.84,3.52-4.3,11.67l50.98-.48c1.06-9.79,14.01-13.38,19.98-20.53,7.04-8.45,11.62-21.39,15.54-31.46,1.39-3.56,4.86-8.09,5.42-11.58,1.92-11.97-5.2-22.79-12.43-31.44h-21.5ZM594.8,384.06c1.28-1.62-9.24-25.05-11.16-28.33-4.86-8.29-25.91-32.95-33.33-38.67-5.14-3.96-12.31-5.23-17.82-8.18-6.48-3.47-11.73-9.66-19.12-11.88-5.75-1.73-11.97-1.26-17.61-2.39-6.72-1.35-13.04-5.65-19.56-6.44-12.65-1.54-44-.57-56.17,2.61-4.59,1.2-9.47,4.26-13.96,5.04-5.56.96-12.64.28-18.32,1.68-8.42,2.06-17.26,9.51-25.25,12.75-6.21,2.52-12.32,2.94-18.71,6.29-19.9,10.45-63.42,42.78-76.4,60.6-2.24,3.07-3.28,6.73-6.08,9.92-3.96,4.53-10.27,7.91-13.95,13.05-25.92,36.2-44.62,84.95-45.52,129.48-1.06,52.82,16.81,89.82,56.46,123.46,1.25,1.06,11.82,7.79,12.49,7,.1-1.75-.26-3.69.09-5.41,5.48-26.92,14.23-61.65,31.5-83.5,3.38-4.28,8.76-7.9,11.85-12.15,3.78-5.2,6.08-12.2,10.15-17.85,9.78-13.56,21.64-21.52,32.41-32.59,8.29-8.52,13.51-19.94,24-30,9.65-9.26,12.17-12.09,20.6-22.4,5.99-7.33,14.46-11.44,21.43-17.57,14.34-12.61,27.3-27.11,43.26-38.74,8.53-6.21,51.87-30.5,60.34-31.66,17.62-2.41,33.15-2.06,49.77,5.02,6.7,2.85,12.7,6.74,18.62,10.87ZM623.81,659.57c.63-3.99,0-10.6,0-15,0-.53,2.19-2.07,2.99-1.5,2.33,14.28,1.57,34.74-8.01,46.47-3.31,4.05-7.08,5.64-10.71,9.01.95,5.19,5.3,8.37,7.57,12.18,3.87,6.48,4.31,13.11,12.51,15.49,10.72,3.1,24.12,4.53,35.12,7.89,10.49-4.98,25.88-8.68,35.01-15.07,5.1-3.56,16.13-14.38,19.34-19.66,1.2-1.98,7.03-15.39,7.14-16.87.22-3.28-7.63-22.89-9.48-27.43-3.71-9.13-10.47-19.55-12.81-29.21-1.56-6.43,5.45-14.28,9.8-18.84,8.49-8.89,25.26-20.27,31.79-28.21,2.81-3.42,14.76-21.99,16.23-25.77,5.19-13.41,6.49-23.99-9.46-28.5-5.31-1.5-20.11-3.65-25.51-3.56-6.04.1-13.55,4.05-20.13,4.96-5.87.81-19.86,2.97-24.99,3.02-2.46.02-13.85-3.41-14.38-2.9-2.48,17.66-32.41,14.62-42.94,7.44-2.98-2.03-13.03-15.58-14.9-19.1-1.37-2.57-2.33-5.36-2.16-8.33,2.42-2.34,6.02,6.89,7.58,8.91,2.96,3.83,13.92,12.45,18.38,13.62,8.5,2.23,21.04-.98,29.1-4.18-2-8.68-2.7-17.7-4.54-26.39-4.11-19.46-9.07-44.49-19.68-61.32-.64-1.02-1.3-2.05-2.49-2.5-1.4-.26-9.6,4.73-12.09,5.63-22.82,8.23-43.84,15.1-68.81,13.26-5.17-.38-9.45-2.19-15-2.1-5.59.09-12.44,2.21-17.91,2.09-10.16-.21-18.98-7.07-29.07-8l-1.06,2.01c7.58,10.67,8.17,21.97,11.06,33.97,4.08,16.95,7.02,24.79,5.49,43.48-.64,7.8-4.09,15.57-4.86,23.14-.53,5.18.19,10.39-.4,15.6-1.71,15.25-11.73,34.91-20.9,47.1-7.82,10.4-17.88,11.49-28.79,16.24,1.04,3.39,3.21,6.23,4.27,9.63,8.83,28.5,8.76,55.89,3.42,85.02-2.17,11.82-17.87,34.61-28.02,40.98-22.76,14.28-48.47,20.83-72.97,30.03-8.82,3.31-17.6,8.06-27.24,11.76-13.18,5.06-20.07,13.14-25.89,26.11-5.59,12.47-2.31,33.93,6.39,44.42,1.71,2.06,22.34,13.46,25.98,15.02,11.99,5.14,18.24-.3,29.64-2.43,7.66-1.43,15.48.37,22.74-4.26,2.91-1.86,4.94-5.22,7.75-7.25,12.37-9,31.14-20.08,41.93-30.07,8.42-7.81,14.53-22.17,22.57-29.43,4.1-3.7,6.81-2.84,9.44,1.4,7.66,12.38,10.45,29.69,9.98,44.01-.06,1.68-1.13,3.49-1.02,5.02.29,4.39,5,1.49,7.42,1.58,7.96.3,18.81,1.97,26.06,1.95,24.95-.08,50.01-3.74,75.03-3.03,3.32.1,8.55,3.08,10.51-1-7.17.33-12.54-4.53-18.74-6.77-11.26-4.07-25.01-4.29-34.27-11.73-1.6-1.28-13.09-12.65-13.47-13.53-.8-1.86-.74-3.93-.43-5.88,1.84-2.99,9.64,4.91,11.99,6.31,6.73,4.02,13.01,8.44,19.6,12.4,10.83,6.52,23.57,5.24,35.38,7.62s12.83,6.39,28.48,5.6c28.82-1.46,54.26-3.09,77.37-21.63,7.04-5.65,8.55-14.26,13.65-21.35,2.59-3.6,7.38-7.17,9.87-11.13,6.63-10.54,14.73-46.95,13.46-59.33-.44-4.34-2.46-9.42-2.88-14.12s.42-9.47-.03-13.97c-.54-5.38-8.54-21.27-11.75-26.22-.63-.97.11-1.79-2.23-1.28-4.61,7.88-6.87,18.01-12.19,25.32-6.14,8.43-26,20.51-36.33,21.67-21.14,2.36-36.74,4.6-54.5-9.48-10.85-8.6-12.61-16.67-18.49-28.49-4.29,3.51-11.56,10.07-17.06,10.92-3.58.55-15.31,1.29-18.92,1.06-6.5-.42-11.95-4.74-18.47-5.06l-.05-3.94c8.32.78,20.24,2.17,28.43.93,2.53-.38,23.4-7.77,25.9-9.1,3.92-2.09,7.72-7.27,9.83-11.17,2.27-4.19,9.2-20.1,9.83-24.17ZM861.07,829.81c-3.48-3.6,3.53-17.68,4.51-22.48,3.27-16.15-1.18-21.9-2.64-35.88-1.67-15.97-.2-19.78-9.89-34.11-9.49-14.02-19.53-22-37.65-18.39-1,.74-2.43,17.9-2.32,20.35.26,5.8,4.63,12.45,5.66,18.35,2.74,15.82.69,30.55.04,45.87-.4,9.44,1.82,19.13,1.02,29.03-.44,5.52-3.08,12.49-3.06,18.01.02,5.49,3.06,13.01,2.97,18.89-.1,6.73-2.02,18.87-3.01,26-.57,4.06-3.02,7.93-1.88,12.61,8.05-4.49,14.91.18,22.49.09,3.75-.04,8.21-1.81,12.02-2.07,15.45-1.05,31.02-1.12,46.48-2.03l-2.1-6.89c-6.98-1.22-14.24-.44-21.12-2.38-3.83-1.08-18.14-7.71-20.7-10.3-6.67-6.78-.21-21.73,4.49-28.36,2.79-3.94,22.95-18.59,28.1-21.9,5.62-3.61,32.3-16.79,37.69-15.08,2.61,1.37,2.23,6.32.22,8s-16.08,3.57-20.58,5.42c-5.26,2.16-23.24,12.29-27.04,15.96s-6.63,9.04-10.94,13.06c-5.19,4.83-18.26,10.32-6.95,18.93,2.15,1.63,19.12,9.37,21.42,9.62,4.87.54,13.97-3.39,19.28-4.81,2.05-.55,4.42.02,6.52-.48,12.21-2.93,16.43-15.94,23.76-24.24,2.72-3.08,6.65-5.35,8.83-8.17,6.13-7.93,15.76-37.79,15.01-47.73-1.32-17.59-7.95-20.47-24.37-23.61-18.54,6.45-39.64,7.58-55.29,20.19-.33,10.42,1.3,22.35-7.86,29.6l-3.09-1.06ZM1003.58,877.83c1.79-1.74,1.62-16.99,1.01-20.04-.41-2.03-7.98-14.86-9.77-12.72,0,1.74.17,3.54-.24,5.26-3.5,14.56-17.84,34.02-28.24,44.76-1.25,1.29-9.91,6.77-8.52,7.97,5.67.27,10.27-1.88,15.91-.06,4.63-12.25,17.32-22.27,29.86-25.17ZM724.81,957.06l-12.02-16.46c-15.25-14.03-25.21-34.67-33.71-53.29l-2.27-25.24c-7.22,3.07-15.28,3.33-23,4l8.51,32.99c7.14,13.12,7.85,28.42,12.19,41.81,1.88,5.78,5.87,10.46,7.79,16.2h42.51ZM651.81,867.07c-12.4,1.86-25.09-.12-37.05,4.61.38,4.84-.39,10,.17,14.78,1.99,17.03,4.63,34.93,7,52,.96,6.96,4.02,14.3,3.9,21.6h50.99c-2.3-5.55-2.94-11.72-5.22-17.27-2.41-5.89-5.54-9.54-7.49-16.51-3.61-12.88-4.35-21.57-9.06-34.94-2.71-7.71-2.73-16.16-3.23-24.27ZM612.82,872.06c-5.92.8-11.62-1.45-17.5-.98-2.84.23-5.45,1.63-8.11,1.89-8.75.84-17.62.72-26.28,2.21.74,9.81.88,19.58.93,29.44.07,13.15,1.11,26.82,1.04,39.95-.02,3.16-4.24,19.72-.62,20.34,2.57-1.04,5.2-1.71,8-1.87,10.62-.6,22.45-1.02,33.08-1.01,5.75,0,11.23,2.17,17.45.04-1.85-10.45-4.54-20.83-4.99-31.51-.55-12.81-.8-22.08-2-35-.71-7.65-.86-15.8-1-23.5ZM499.82,874.06l-18-1.99c1.08,3.78,1.26,7.62,1.03,11.53-.92,15.35-14.86,27.26-15.25,43.74l-18.77,42.72c7.01-.39,14.54.56,21.48-.01,4.56-.38,9.47-2.25,14.18-2.61,2.15-.17,6.33,1.92,7.9-.32l7.44-93.06ZM509.6,873.36c-4.52.61-6.35.08-7.13,4.86-2.16,13.17-.05,24.85-.67,37.33-.29,5.79-2.65,12.24-3.01,17.97-.4,6.29,1.43,11.84,1.01,18.03-.23,3.45-3.11,11.78-2.82,14.05s6.14.26,8.35.39c4.11.25,9.1,2.21,12.95,2.1,4.13-.11,10.29-2.62,15.06-3.02,4.07-.34,23.55,1.26,24.55.55,2.52-1.78.03-8.54-.06-11.07-.51-14.65-1.85-29.63,1.03-43.95l.53-35.61c-9.33-4.69-19.02.05-28.05.15-7.57.08-13.45-2.9-21.73-1.79ZM1079.82,996.06c2.57-1.97,4.84-4.15,7.69-5.8,3.53-2.04,11.02-3.87,12.54-6.46,7.69-19.06,12.87-38.76,18.48-58.52,2-7.04,6.01-13,4.87-21.25-5.21-1.92-9.89-5.1-15.14-6.91-13.08-4.5-23.39-4.03-35.72-6.28-10.85-1.98-12.96-5.68-27.27-5.82-12.12-.12-23.38-2.55-35.86-.85-5.31.72-18.82,3.18-22.06,6.94-7.94,9.21-10.67,22.96-16.7,32.3-2.28,3.53-6.22,6.49-8.39,10.61-8.22,15.61-16.28,36.15-23.59,52.41-3.06,6.82-9.1,11.31-10.85,18.64,7.7-2.53,21.4-2.51,27.44-9.05,2.96-3.2,4.38-10.73,6.37-14.63,7.52-14.78,14.67-26.9,22.98-41.02,3.83-6.5,4.78-14.24,10.87-19.13,19.25-15.44,39.12-7.65,60.11-1.46,3.95,1.16,7.96,3.2,11.78,4.22,8.24,2.22,28.78,2.43,30.38,12.62,3.67,23.28-14.85,37.78-17.93,59.44ZM970.81,909.07c-5.48,1-11.4-1.14-16.49-1.09-7.68.08-17.1,3.96-24.97,4.14-5.61.13-11.14-2.03-16.08-2.09-5.2-.06-12.56,1.92-17.91,2.08-19.74.56-41.18-2.03-60.94.07-3.73.4-8.38,2.69-12.1,2.69-5.65,0-11.49-1.7-18.96-1.75-6.29-.04-12.58-.05-18.86-.08-3.35,11.21-11.65,18.44-17.5,27.71-2.77,4.39-3.46,10.34-8.16,13.83,1.09,1.6,1.65,1.43,3.35,1.41,7.29-.06,16.01-4.63,23.11-4.96,5.98-.28,11.11,2.12,17.02,2.11,13.96-.01,29.42-1.93,44.01-2.07,12.58-.12,22.8-4.64,33.98-3.98,2.51.15,14.78,1.75,15.38,3.61,1.48,6.85-.18,13.23.09,19.92.34,8.6.97,14.91.99,23.9.02,5.63.87,10.98,1.04,16.56.88.91,23.36-2.93,24.76-4.26,1.22-5.63,5.91-8.81,8.46-13.04,9.78-16.25,14.84-39.45,24.6-56.4,1.85-3.21,4.83-5.94,6.72-9.28,3.19-5.63,5.66-13.06,8.46-19.03ZM1096.82,1038.06c4.08-3.38,8.02-6.99,12.07-10.41,2.02-1.71,5.22-2.69,6.84-4.16,7.06-6.4,17.74-34.26,21.55-44.45,4.23-11.32,10.81-29.42,7.01-40.97-2.1-6.38-7.59-9.8-10.7-15.3-1.55-2.74-4.38-12.77-6.31-13.7s-1.4,1.59-1.61,2.35c-1.88,6.96-1.12,11.54-2.12,17.9-2.67,17.04-11.55,32.4-15.24,49.76-.44,2.08-2.12,4.17-2.35,5.72-.3,1.99,4.32,12.79,4.72,16.86,1.38,13.93-10.14,23.83-13.88,36.39ZM1092.58,938.3c-1.13-1.12-8.4-2.74-10.75-3.75-12.4-5.36-14.05-4.14-26.28-6.72-19.96-4.21-34.14-20.59-54.63-2.16-11.03,9.92-12.32,18.18-18.93,30.07-6.24,11.21-10.54,19.13-16.29,30.71-.71,1.43-4.58,5.88-3.87,6.62,7.52-5.03,17.86-5.25,25.67-8.82,6.57-3,12.83-10.95,19.77-13.23,2.48-.81,12.53-2.2,14.95-1.93,8.83.98,10.87,10.2,10.64,17.52-.8,25.32-8.66,31.98-23.04,49.96-3.44,4.3-4.98,9.32-9.48,13.52-5.15,4.82-14.38,9.08-18.93,14.07-3.79,4.16-6.55,12.32-10.6,16.89,4.75.72,7.81-3.19,11.61-4.88,21.63-9.66,29.95-17.91,46.9-33.1s29.39-16.73,39.68-40.32c4.4-10.1,6.18-14.58,11.62-24.38,4.56-8.2,4.09-12.44,6.71-20.29,1.65-4.95,10.53-14.52,5.26-19.78ZM1050.91,1151.96c-.95-.67-1.39-5.14.05-6.22,12.28-19.8,28.47-36.31,41.68-55.34,7.22-10.41,19.67-28.17,24.99-39.01,2.57-5.25,5.87-18.51-1.33-20.95-3.76.02-19.53,14.19-23.02,17.61-18.08,17.7-32.52,39.09-49.86,57.14-2.44,2.54-8.67,15.95-12.1,8.89-4.56-9.41,13.53-21.66,19.01-26.97,16.53-16.02,25.78-35.67,39.06-52.94,6.29-8.18,10.39-9.04,13.16-20.84,1.33-5.68,2.85-15.36,1.32-20.83-3.31-2.41-18.49,8-21.54,10.6-6.71,5.72-11.8,14.6-19,21-5.02,4.47-10.67,7.44-15.54,11.46-5.47,4.52-9.99,12.79-15.48,16.52-2.89,1.97-7.52,3.11-10.83,5.17-9.25,5.74-17.99,12.81-28.01,18.99-2.71,1.68-6.02,5.53-8.29,6.71-3.69,1.92-16.51,3.59-19.4.65-3.73-7.42,3.64-14.63,8.5-19.55,19.03-19.26,32.27-24.9,46.33-50.67,1.91-3.51,8.75-20.74,8.95-24.05.27-4.57-3.36-11.8-8.22-12.32-6.31-.67-11.88,4.29-17.56,6.54-5,1.98-11.21,3.26-15.65,5.35-6.34,2.99-11.84,8.83-19.33,11.67s-15.49,2.84-22.54,5.46c-13.62,5.07-19.28,9.84-36.01,10.08-4.5.06-8.78-3.93-13.01-1.09-3.37,15.42.45,31.01-.39,46.61-.91,16.84-.88,32.98-1.09,49.91-.2,16.47-.09,32.64.09,49.01.2,18.36-1.2,35.91-2.08,54-.36,7.48.98,15.08,2.15,22.43,11.75,1.43,23.08-2.08,34.51-3.77,35.63-5.28,45-9.05,75.69-27.31,32.23-19.18,50.24-35.34,76.15-61.85,8.2-8.39,11.91-13.85,19.03-21.97,9.1-10.38,14.03-13.37,21.03-26.97,1.54-2.99,6.21-10.92,4.33-13.88-6.03-2.86-13.42,1.14-17.89,5.33-15.43,14.47-27.6,34.77-41.45,50.55-2.47,2.81-6.11,4.34-8.52,7.48-1.64,2.14-3.98,10.14-7.91,7.39Z"/>
  <path d="M1058.82,743.06c-7.14,1.03-11.6-3.95-17.32-6.19-6.39-2.51-22.42-9.18-28.2-9.8-13.8-1.47-21.25-2.32-33.22-10.78-3.68-2.6-6.34-6.67-10.37-8.63-4.93-2.39-10.05-2.47-15.57-5.43-13.23-7.12-26.32-18.29-40.28-24.72-7.2-5.49-2.63-19.8-.76-27.65,4.06-17.06,8.6-21.95,15.88-36.12,2.88-5.61,4.26-12.99,7.63-18.37,2.55-4.07,6.77-6.63,9.61-10.39,7.94-10.52,17.75-24.11,25.02-34.98,3.49-5.22,5.79-12.17,9.13-16.87,4.21-5.92,12.01-10.39,16.95-16.05,3.02-3.46,5.26-7.99,8.46-11.54,11.08-12.31,38.93-30.43,55.49-31.51,5.32-.35,17.62-.25,22.89.09,6.57.43,16.38,6.06,23.2,7.89,13.03,3.48,16.27,4.62,28.45,9.55,26.3,10.65,52.55,18.54,77.96,31.04,9.1,4.48,18.21,3.85,26.74,7.26,5.68,2.27,11.68,8.26,17.3,10.7,12.12,5.27,26.13,9.62,38.68,15.32,24.92,11.33,52.8,25.38,75.65,40.35,4.83,3.16,24.31,21.73,27.68,26.32,10.4,14.19,8.76,36.24,4.26,52.26-2.15,7.64-7.72,25.43-11.09,31.91-3.88,7.49-10.75,17.71-15.37,25.63-11.55,19.82-22.82,36.13-36.03,54.97-9.31,13.27-15.64,31.03-33.02,35.98-13.29,3.79-15.89-.16-27.72-3.79-14.8-4.54-28.79-10.33-43.57-15.43-12.18-4.2-22.97-12.9-33.76-17.24-5.1-2.05-11.03-2.4-16.38-4.62-7.83-3.24-13.27-10.07-20.63-13.37-6.1-2.73-25.42-9.53-31.9-11.09-8.83-2.12-9.38-.05-16.26,5.31-11.48,8.94-13.15,14.35-21.09,24.91-7.23,9.62-16.09,17.36-23.26,27.74-3.92,5.68-9.76,18.37-13.76,22.24-2.38,2.3-4.93,3.07-6.93.07-.17-7.12-.8-15.35-.49-22.49.21-4.64,2.04-10.28,2.06-14.99.07-13.61-2.16-22.08.06-36.88,1.03-6.92,3.75-13.55,3.87-20.64ZM1058.82,823.06c6.62-7.1,11.09-15.82,17.02-23.47,9.12-11.77,22.29-27.89,32.45-38.55,2.64-2.77,13.86-12.93,17.04-13.08,8.98,3.66,18.97,4.85,28.02,8.07,6.24,2.22,11.99,6.24,18.5,8.5,5.71,1.98,12.43,2.49,17.95,5.05s10.43,7.88,15.99,11.01c10.8,6.09,24.03,10.46,35.39,15.61,3.06,1.39,5.67,4.21,8.64,5.36,7.05,2.74,14.97,1.52,21.8,3.2,13.85,3.4,14.3,15.33,33.41,11.04,8.54-1.92,10.2-4.23,15.19-10.81,12.96-17.12,24.28-35.66,37.18-52.82,3.02-4.03,7.03-6.42,9.83-11.17,3.3-5.58,3.87-11.41,6.73-17.27,14.1-28.95,32.4-47.36,26.75-83.04-3.02-19.06-18.73-26.91-32.62-36.38-16.15-11.01-32.58-22.1-50.26-30.74-8.44-4.13-17.68-5.96-26.23-9.77-11.19-4.99-23.08-13.65-33.55-18.45-6.35-2.91-13.92-3.14-20.51-5.49-7.36-2.62-14.81-8.41-22.17-10.83-4.96-1.63-10.47-1.8-15.51-3.49-7.24-2.43-13.78-7.94-21.07-10.93-17.94-7.38-37.08-12.36-55.26-18.74-5.68-1.99-10.7-6.76-16.5-8.5-6.61-1.98-13.93-1.13-20.48-2.52-4.29-.91-9.54-4.37-13.36-4.72-12.71-1.15-46.86,15.53-56.85,23.98-12.08,10.21-18.32,23.03-27.55,34.45-4.11,5.08-10.76,8.43-14.41,13.59-10.5,14.81-20.88,32.88-30.74,48.26-3,4.67-7.99,8.73-10.65,13.35-3.63,6.32-4.21,13.87-6.98,20.02-1.83,4.05-5.42,7.15-6.91,12.09-1.24,4.11-4.16,24.17-3.32,27.55,6.49,4.02,13.94,4.88,20.7,8.5,25.33,13.58,49.13,35.21,78.27,41.73,4.71,1.06,9.94.38,14.88,2.12s8.9,7,13.27,8.73c2.86,1.14,19.82,4.21,20.79,5.71l-4.86,82.87Z"/>
  <path d="M498.81,610.05l2.26-1.76c11.89.73,30.74,8.46,42.01,6.53,5.99-1.02,31.34-14.52,35.39-19.1,1.65-1.87,2.79-4.52,3.64-6.87,7.19-19.9,7.02-36.45,3.63-57.2-.54-3.31-4.01-8.66-2.42-11.59,1.85-3.41,5.12,6.47,5.52,7.49,5.71,14.6,7.79,30.17,5.87,45.9-1.17,9.62-18.18,35.68-26.56,40.44-11,6.25-26.7,4.43-38.83,8.25-10.78-2.36-20.97-7.25-30.49-12.09Z"/>
  <path d="M339.57,827.32c5.66-.78,11.23-.61,16.29,2.19,5.69,3.15,8.36,10.72,14.04,14.96,15.46,11.54,32.07-1.64,44.42-11.39,5.02,4.66-4.28,8.44-7.52,11.46-9.32,8.68-16.26,19.61-30.93,11.96-5.67-2.96-7.6-8.15-12.15-11.85-3.52-2.87-18.36-10.25-22.53-10.55s-9.87,3.5-13.42,1.49c-1.4-.98-.55-1.77.19-2.87,1.99-2.96,8.13-4.92,11.6-5.4Z"/>
  <path d="M1237.52,578.35c2.8,2.52,6.31,10.28,10.78,12.68,1.31,3.45-8.92,11.32-11.55,13.47-20.21,16.53-42.31,30.94-63.02,46.98-9.63,7.46-18.82,15-27.93,23.07-9.86,8.73-19.19,18.19-28.44,27.56l-3.54.95,6.97-120.51c9.51,1.04,24.29-10.35,26.79,4.25,1.05,6.13-1.93,8.7-2.7,13.84-2.19,14.59-4.07,29.08-6.34,43.66-.47,3.05-2.06,5.74-2.69,8.32-.33,1.38.03,1.84,1.42,1.42,2.46-.74,12.55-10.14,15.58-12.42,10.33-7.79,19.97-15.9,30.02-23.98,13.48-10.84,28.07-20.31,41.81-31.19,3.1-2.46,9.2-11.37,12.81-8.12Z"/>
</svg>