<?xml version="1.0" encoding="UTF-8"?>
<svg id="Calque_1" data-name="Calque 1" xmlns="http://www.w3.org/2000/svg" viewBox="0 0 2732 2500">
  <path d="M1677.31,1688.2c-1.23,1.06-.46,11.93-5.46,13.53-14.95.31-30.9,3.65-45.65,4.35-7.99.38-15.64-2.44-21.85-2.02-7.57.51-17.34,7.06-26.21,7.94-36.47,3.61-84.12,2.05-122,2.01-80.8-.09-171.16-15.92-252.02-12-4.12.2-9.31-3.86-13.08-1.15-2.54,1.82-1.67,9.05-7.29,10.76-15.75-.81-32.33,3.98-47.63,4.55-6.2.23-11.68-2.59-17.92-2.28-8.49.42-16.78,6.82-24.19,7.97-7.83,1.21-22.09-.15-31.81.23-30.65,1.19-61.46,2.4-92.15,1.81-74.59-1.43-151.33-9.7-225.85-13.98-51.3-2.95-100.12,6.37-150.17,4.17-6.88-.3-36.13-2.19-38.96-5.04-3.68-3.72-1.86-45.24-1.87-54.13-.1-71.97,9.56-143.54,18.11-215.73,6.65-56.14,17.18-112.9,13.9-170.27-1-17.44-8.3-40.07-4.14-57.53.54-2.28,5.85-2.64,6.02-4.37.32-3.16-26.16-34.75-19.77-44.82,7.19-3.65,13.9,2.75,18.81,7.78.86-24.44-3.9-50.2-5.09-74.91-1.49-30.84,1.67-149.87-11.07-168.93-2.25-3.36-9.76-3.29-5.94-10.23,1.84-3.35,7.45-3.43,10.04-5.99s4.1-9.04,7.07-12.93c6.08-7.95,29.61-26.82,39.47-28.53,17.69-3.07,48.01,1.58,63.25,11.47l116.77-25.46c48.03-4.7,95.53-15.36,143.54-20.46,30.39-3.23,65.57-2.06,95.44-6.56,12.2-1.84,30.26-20.16,44.99-25.01,23.17-7.63,68.58-3.06,89.2,9.89,2.74,1.72,19.28,14.24,20.24,15.76,3.14,4.91,2,11.2,4.19,15.81,2.43,5.13,10.15,9.89,9.99,18.13,26.85-4.93,53.53-12.92,80.38-17.59,45.96-8,99.06-15.39,145.56-20.44,18.66-2.02,89.57-3.02,100.81-9.19,12.35-6.77,23.38-18.55,39.06-22.94,28.4-7.94,86.29.3,105.15,25.05,4.53,5.94,3.61,11.78,6.4,17.6,2.06,4.29,7.17,7.41,7.82,13.17l2.69.48c17.53-2.25,35.46-8.51,52.55-11.68,89.02-16.51,180.19-26.2,271.1-32.9,31.82-32.93,73.55-31.96,115.03-20.27,7.22,2.04,28.63,17.55,32.09,23.91,2.03,3.74,12.41,27.14,12.36,29.79-.1,4.63-3.19,7.24-3.51,10.2-.64,5.94,3.1,17.26,3.4,23.77.97,21.11-3.2,42.83-4.06,63.9-7.73,188.49,2,378.39-3.84,568.16-1.08,35.08-6.59,71.15-8.16,105.84-.68,15.07,3.2,68.02-3.02,76.98-1.59,2.29-2.95,3.86-5.94,4.06-20.96,2.62-47.67-.57-67.78,2.22-7.98,1.11-16.23,7.34-24.46,7.71-10.99.5-25.64,0-37.74.26-101.37,2.09-199.55-7.73-301.89-12.22-5.95-.26-43.19-1.18-44.89.28ZM2156.5,802.63c-3.23-2.64-34.32-15.38-38.85-16.14-5.6-.94-29.01-.98-35.57-.65-17.48.88-37.66,1.84-48.93,17.16,8.38,7.23,20.74-.25,30.89-1.07,21.88-1.76,63.6,3.37,85.11,9.04,6.14,1.62,11.01,5.16,16.95,7.05.02-3.44-7.24-13.46-9.6-15.39ZM1681.1,832c2.21-2.36-11.05-17.03-14.14-18.84-26.82-15.77-72.55-17.47-102.43-10.74-6.79,1.53-12.18,10.26-17.4,14.6,13.09,4.37,26.11-3.22,39-3.19,7.92.02,21.65,1.4,29.97,2.2,21.91,2.11,45.41,5.84,65,15.98ZM1193.11,839.99c2.16-2.09-9.58-15.31-12.14-16.84-3.27-1.94-36.31-14.9-39.09-15.08-6.85-.45-24.17-.22-31.75-.06-16.76.35-37.44,4.3-48.99,17.02-.98,4.74,4,2.99,7.03,3.04,21.92.32,40.82-4.69,65.92-2.03,19.6,2.08,40.86,6.57,59.02,13.96ZM2171.12,833.98c-7.68-9.61-27.66-14.93-39.55-17.43-22.14-4.65-36.4-2.33-57.34-2.47-111.01-.71-232.06,15.22-341.59,34.42-6.06,1.06-42.45,9.51-42.94,12.36l1.65,12.91c6.91,2.02,13.62,2.53,20.85,2.3,108.39-3.37,214.18-36.43,321.81-38.01,24.9-.37,56.5-6.85,82.02-8.15,17.51-.9,38.83-1.61,55.08,4.06ZM1683.12,845.98c-8.47-9.48-30.54-15.67-43.2-17.78-30.14-5.02-69.82-2.18-99.83-.24-99.99,6.47-199.02,16.45-297.47,34.53-12.72,2.34-26.53,7.52-39.52,9.52l2.01,15.99c30.08,3.05,59.3-2.21,89.03-5.99,17.09-2.18,32.85-5.92,48.2-7.8,92.38-11.36,184.5-27.6,277.71-30.31,20.55-.6,42.98-.84,63.08,2.08ZM1197.12,855.98c-5.81-8.17-22.21-12.6-32.02-14.96-28.22-6.8-41.12-3.07-66.98-3.03-7.52.01-18.23-4.25-25.91-4.06-86.52,2.11-179.07,18.33-264.29,31.87-59.3,9.42-137.71,20.7-193.3,42.72-2.12.84-5.96.58-5.49,3.46,21.65-2.4,43.35-5.53,65.01-7.96,51.14-5.74,102.68-5.82,153.81-12.19,8.12-1.01,18.17-6.6,26.33-7.67,104.94-13.69,211.98-32.15,317.84-29.97,9.13.19,15-3.55,24.99,1.79ZM2167.13,844.01c-31.01-7.04-63.1-2.95-94.49.52-8.28,3.36-35.28,42.21-40.33,51.67-27.75,52-48.16,112.34-74.8,165.2l-40.11,56.05c.45,14.45,7.26,27.74,9.51,41.77,1.02,6.36-.61,13.23.42,19.58,4.14,25.54,10.98,50.95,11.81,77.2l38.37-58.6c33.57-108.22,78.92-197.9,144.79-289.21,11.9-16.5,33.38-38.67,42.52-55.47,1.57-2.89,2.84-5.23,2.31-8.7ZM2063.12,846.02c-9.99.64-21-1.05-30.84.14-58.11,7.02-116.49,13.6-175.6,22.4-44.91,6.69-89.56,11.26-134.58,17.42-8.95,1.23-18.69-.61-27.81,3.79-4.81,32.26-3.85,64.88-5.08,97.31-.64,16.94-3.99,35.98-3.03,52.81,8.83,14.33,24.25,29.5,32.63,43.43,4.57,7.6,6.19,17.05,11.45,24.55,28.5,40.69,92.25,61.43,136.97,37.23,4.2-2.27,34.9-23.24,38-26,31.41-28.01,60.26-94.96,78.96-133.04,13.83-28.16,25.79-57.8,40.6-85.4,11.3-21.07,22.57-36.72,38.34-54.64ZM1683.12,858.02c-7.31.34-13.89-3.37-21.02-4-13.61-1.21-67.18-1.36-77.44,4.02-2.47,1.29-21.4,25.79-24.41,30.1-43.06,61.89-62.43,150.17-106.31,213.69-6.75,9.77-14.67,18.75-22.54,27.62.56,14.44,7.09,27.73,9.5,41.76.97,5.65-.48,11.79.45,17.55,4.25,26.34,10.53,52.36,11.78,79.24,6.91-9.11,15.6-19.82,21.62-29.36,35.77-56.65,49.26-126.94,80.05-185.95,12.18-23.34,25.57-45.26,37.43-68.57l90.88-126.1ZM1577.12,858.02c-16.92-3.95-32.22,4.4-46.98,6-10.84,1.17-26.43,1.15-38.02,1.58-64.41,2.4-134.74,21.24-200.03,28.37-14.81,1.62-75.18,2.42-82.97,9.03-5.95,5.05-3.45,31.56-4.02,39.98-1.73,25.63-4.29,50.68-5.95,76.05-.65,9.87.25,19.98.07,29.88,1.69,9.17,27.04,36.6,33.2,46.8,4.31,7.15,6.38,16.53,10.71,23.29,21.58,33.67,69.49,54.03,108.82,48.84,27.77-3.66,65.81-33.67,83.12-54.88,32.74-40.14,51.62-93.4,74.3-139.7,14.4-29.4,32.77-72.76,52.67-97.33,4.17-5.15,13.22-8.99,15.08-17.9ZM1677.11,1676.01c5.61.3,11.38-.52,16.99,0,47.96,4.51,96.54,6.08,144.02,8.37,67.53,3.26,140.99,11.52,207.84,3.46,17.54-2.12,27.08-.68,42.11-1.78,7.29-.53,16.11-4.96,24.28-5.83,7.62-.81,39.32,1.56,41.88-2.12,3.97-62.98,6.93-126,8.89-189.11,4.75-152.42.77-305.98,2.05-457.95.4-47.23,3.55-89.52,5.91-136.09.62-12.27-.39-24.71,0-36.98-17.12,18.64-30.36,41.16-45.15,61.83-36.6,51.16-74.6,103.37-97.79,162.21-20.24,51.37-36.87,114.06-67.43,160.57-12.58,19.14-21.89,15.23-19.36,42.15.94,9.98,5.95,20.08,5.93,30.25-.01,5.49-2.44,31.17-4.99,33.17-4.46,3.52-46.33,8.67-55.59,10.41-25.99,4.88-52.15,5.35-78.62,5.41-8.76.02-36.07,3.09-38.57-5.41l7.24-66.23c-13.94-10.16-29.84-22.77-41.7-35.32-17.13-18.13-28.24-41.48-47.93-57.05-1.37,8.12,1.29,17.09,1.23,24.66-.59,72.66.27,145.94-1.17,218.42-1.19,60.12-7.43,119.85-10.16,179.83-.8,17.61.77,35.48.07,53.09ZM1195.12,868.02c-8.11.38-17.55-6.01-24.97-6.05-3.75-.02-7.68,2.12-11.95,2.12-19.15-.02-38.41-1.4-57.18,2.8-3.22,1.12-12.91,12.66-15.85,16.15-44.14,52.32-66.22,140.29-99.66,200.34-10.43,18.73-26.94,39.01-40.06,56.07-.31,15.13,7.13,29.1,9.47,43.76,1.02,6.38-.61,13.2.42,19.58,4.02,24.93,10.45,49.63,11.81,75.2l22.03-30.94c37.89-67.61,53.28-142.9,91.61-210.39,31.43-55.35,70.24-103.35,107.18-154.82,1.55-2.16,8.76-12.06,7.17-13.82ZM1091.12,868.02c-18.32-4.35-36.71,5.44-52.98,6.12-27.43,1.15-42.58,1.05-70.53,5.35-71.62,11.01-142.29,20.15-213.51,28.49-10.8,1.26-30.43,5.89-38.04,6.12-7.72.24-16.16-2.67-25.91-2.07-21.57,1.34-45.46,8.11-67.01,10.95,2.22,3.05,4.74,6.39,6.06,9.94,7.52,20.07,21.91,45.69,34.25,63.75,6.21,9.08,15.85,13.36,22.49,21.51,6.07,7.44,9.21,17.21,14.73,25.27,20.13,29.41,36.75,52.34,54.76,83.24,14.3,24.53,52.68,47.77,80.91,51.09,55.51,6.55,106-38.25,132.38-83.18,26.72-45.5,46.75-97.6,70.68-145.32,7.58-15.1,16.36-34.83,25.33-48.67,7.78-12.01,18.91-20.49,26.39-32.59ZM1669.13,1692.01c2.84-61.09,5.88-121.94,7.91-183.09,5.11-154.04-.59-307.7,2.08-461.92.78-45.16,3.78-90.23,5.98-136.02.62-12.94-.39-26.05,0-38.98-18.21,19.42-31.72,42.36-47.15,63.83-36.63,50.99-73.11,102.61-96.36,161.64-19.88,50.46-37.01,113.84-67.2,158.8-3.66,5.45-17.72,19.27-18.87,23.12-4.27,14.21,5.53,33.15,5.74,47.58.07,4.96-2.52,32.67-4.12,34.04-17,5.51-35.1,6.45-52.54,9.46-32.28,5.57-57.6,6.3-90.48,5.35-12.27-.35-31.36,8.45-31.15-12.83.15-14.67,8.05-37.84,8.05-52.31,0-1.66.26-3.22-.8-4.68-14.95-12.89-30.73-25.42-44.12-39.98-15.92-17.31-26.64-39.17-44.95-54.03-.49,51.66.54,103.4.07,155.08-.61,66.37-1.12,134.98-4.11,201.9-.91,20.49-5.18,41.47-6.06,61.94-.84,19.61.78,39.48.09,59.08,12.43-3.25,24.81,1.23,37.01,1.98,71.38,4.39,142.75,5.77,213.64,8.78,40.39,1.71,75.44,6.59,116.17,1.07,6.72-.91,13.55-5.74,20.24-5.93,16.92-.49,26.5-.42,43.92-1.91,15.2-1.31,31.72-1.4,47.03-1.98ZM665.1,884.03c-13.9-3.73-18.56-9.98-34.09-7.11-22.82,4.21-39.14,13.67-51.89,33.07l85.98-25.95ZM1199.11,882.01c-4.62-1.17-3.29.9-4.57,2.52-32.91,41.97-64.16,87.09-91.89,132.01-17.88,28.96-34.02,55.84-46.5,87.5-20.24,51.36-36.87,114.06-67.43,160.57-3.72,5.66-18.56,20.67-19.19,22.81-5.07,17.09,5.49,34.55,5.75,49.61.06,3.59-2.45,29.61-3.14,31.01-1.41,2.85-5.98,4.26-8.93,5.07-42.36,11.76-89.92,13.49-133.04,12.79-10.26-.17-20.27,2.1-30.79-.16-8.12-11.62,8.45-62.89,4.85-69.71-15.58-13.5-32.31-26.68-46.15-42-23.81-26.35-53.81-66.27-71.03-96.97-37.85-67.47-71.86-139.05-101.44-210.65-1.23-2.97,1.22-5.44-4.49-4.39,3.91,20.72,2.86,42.05,4.03,62.95,2.19,39.19,6.32,78.48,7.95,118.05.56,13.68,5.02,48.15-17.96,32.98-2.32,3,28.09,42.75,31.67,49.31,2.27,4.17,12.97,30.71,12.23,33.52l-4.9,3.16c-12.7-10.92-17.88-26.16-26.05-40.04-1.52-2.59.36-5.04-4.96-3.94-.74,17.79,5,35.17,6.07,52.91,5.02,83.39-14.23,167.55-22.06,250.1-3.73,39.34-4.42,78.75-5.94,118.06-.36,9.21-5.99,58.94-1.91,62.74,5.7-.27,11.19,2.13,16.77,2.28,43.09,1.17,86.6-3.44,130.03-4.11,88.77-1.38,181.24,11.47,270.13,14.08,30.91.91,64.83,2.25,95.42-2.55,6.03-.95,11.83-5.12,18.53-5.59,8.47-.59,16.61,2.7,26.03,2.14,10.2-.6,21.39-5.17,31.96-6.04,11.33-.94,23.55.61,34.98-.02-1.33-25.12,2.22-50.03,3.57-75.02,9.39-173.89,10.31-355.86,6.5-530.06-.17-7.62-4.09-16.87-4.05-23.92.24-50.84,7.29-106.82,9.96-158.02.57-10.94-.36-22.04,0-32.97ZM807.09,1304l21.19-116.07c-16.17-5.89-50.6-19.59-62.05-32.04-15.4-16.76-25.34-41.55-37.82-60.18-24.96-37.23-52.39-69.7-79.25-104.75-15.31-19.99-21.9-47.75-33.93-70.1l-36.03,3.24,9.46,41.36c54.73,100.88,93.79,211.03,171.43,296.57,4.86,5.36,41.52,46.1,47.01,41.97ZM1801.13,1164.01c-5.55.4-10.39-1.62-15.36-3.66-38.34-15.72-52.28-31.81-74.32-65.68-7.34-11.27-10.33-26.45-22.3-34.67-1.26.93-4.2,26.82-4.18,31.03.09,18.97,1.07,42.82,2.07,62.05,1.19,22.86,4.01,37.4,18.08,55.92,11.61,15.27,43.44,49.64,57.97,62.03,1.96,1.67,15.11,11.65,16,10.97l22.03-117.98ZM1252.42,1256.69c7.63,8.14,13.2,17.68,21.75,25.25,3.32,2.94,16.84,14.66,19.92,10.04l20.88-112.75-1.79-2.29c-9.85-.81-17.51-5.57-26.11-9.9-31.93-16.06-29.9-17.14-49.08-44.92-3.9-5.65-10.68-11.03-14.56-17.44-6.72-11.11-10.02-26.03-22.29-34.69-1.27,17.06-2.32,33.92-2.12,51.09.28,23.08,4.91,48.36,2.44,71.38,12.99,26.29,31.65,43.63,50.96,64.21ZM1777.11,1354.01c7.15-1.56,14.37,2.21,20.92,2.06s12.96-3.96,20.08-4.21c23.53-.81,46.17-.92,69.4-2.3,5.36-.32,49.23-9.32,50.72-11.45,1.48-2.88,1.06-5.97.91-9.04-3.43-66.48-16.73-133.95-25.98-200.12-.42-2.97.06-4.98-3.04-6.92-7.18,6.39-12.98,17.67-21.09,22.87-11.69,7.5-51.13,20.62-65,21.12-7.52.27-13.59-2.26-20.91-2.03l-4.26,52.75c-6.44,31.24-10.89,62.33-16.29,93.71-2.51,14.6-8.48,27.28-5.47,43.56ZM1348.12,1178c-9.85.99-20.99-.72-31,0-.38,4.85.66,10.25-.02,14.99-6.23,43.82-12.83,87.65-20.53,131.47-2.36,13.45-8.62,25.31-5.18,40.27,3.1,9.47,35.7-.66,42.71-.7s15.71,4.38,24.01,4.15,16.05-5,24.22-5.95,16.04.72,23.57-.43c15.28-2.33,30.78-6.64,45.94-9.68,2.47-1.33,1.44-6.78,1.35-9.14-2.35-58.95-14.61-116.39-23.87-174.17-.74-4.62-1.16-31.53-2.22-32.78-11.17,3.28-13.89,16.63-24.58,22.4-9.83,5.31-43.99,18.54-54.41,19.59ZM967.01,1361.91c2.81-9.91-3.79-20.29-3.97-29-1.09-53.08-10.46-98.51-19.42-150.41-1.01-5.85-2.37-36.89-4.53-38.49-8.6,5.11-11.54,15.76-19.26,21.71-3.34,2.57-34.71,16.09-40.16,17.84-14.3,4.59-31.82,5.53-46.6,3.33-4.52,3.25-5.14,44.41-6.2,51.88-2.82,19.93-6.7,40.33-9.99,60.01-2.3,13.78-17.07,68.48-10.89,77.36,13.19,7,29.74-2.29,42.03-2.18,7.14.06,16.57,4.3,24,4.12,7.41-.18,15.27-5.02,22.26-5.9,7.7-.97,16.05.78,23.62-.38,16.41-2.51,32.66-7.52,49.11-9.88ZM611.1,1250c-4.6-10.01-9.73-20.35-14.9-30.08-1.51-2.84-4.13-8.8-7.06-9.91,2.09,14.72,11.22,29.96,21.96,39.99Z"/>
</svg>