<?xml version="1.0" encoding="UTF-8"?>
<svg id="Calque_1" data-name="Calque 1" xmlns="http://www.w3.org/2000/svg" viewBox="0 0 2732 2500">
  <path d="M1443.81,1685.81c-9.18,1.95-18.01-1.86-26.8-1.98-5.27-.08-16.46,5.75-18.72-1.12-1.89-5.73-.14-25.72-.31-33.69-.77-36.14.09-73.38.11-110.1.03-53.39.32-106.83,0-159.84-.06-9.08,1.55-48.05-2.06-52.11-2.08-2.34-12.65-5.64-17.02-8.98-9.56-7.33-20.24-20.31-32.02-29.98-23.02-18.89-14.12-14.05-7.98-38,4.42-17.26,5.89-33.96,14.99-49.99-7.12-.73-15.53-1.16-22.45-2.57-55.81-11.32-75.79-31.27-109.22-74.77-2.83-3.69-3.44-7.06-5.47-10.83-11.98-2.98-36.81,23.68-42.55,33.46-6.39,10.9-5.02,17.76-16.44,27.56-3.74,3.21-12.38,4.06-11.85,11.13,14.48-8.95,29.14-.05,42.76-.22,8.6-.11,19.55-4.77,28.31-5.85,7.95,4.07,34.8-.35,39.08,3.38,6.31,5.5,1.31,11.74,1.73,17.61,4.69,64.15-10.8,149.97-26.8,213.19-18.28,72.23-42.15,119.89-89.1,176.9-9.18,11.15-13.68,26.61-30.92,31.06-5.99-5.76,4.56-16.45,8.87-21.1,7.4-7.99,16.91-13.41,24.05-21.95,69.61-83.22,91.61-208.69,104.23-313.77,2.63-21.89,7.22-40.78,7.36-64.26.01-1.87-1.15-8.63-2.83-9.1l-278.77,8.11c-2.72,36.36-3.58,74.35-10.89,110.12-5.83,28.52-36.81,87.33-54.23,111.77-6.25,8.77-17.03,13.83-23.92,22.08-6.21,7.42-8.56,16.28-16.91,23.09-11.76,9.6-40.6,29.01-54.01,35.99-4.93,2.57-10.07,4.49-15.06,6.9-5.04-4.08-3.61-5.89.28-9.68,10.52-10.28,38.75-21.37,51.74-32.25,50.09-41.97,100.28-120.05,110.52-185.48l7.8-88.07c11.47-12.58,29.95.59,43.81-6.31l7.33-62.67c15.92-63.87,25.85-130.42,59.15-188.85,10.96-19.23,42.05-52.92,51.37-12.63,17.85-9.09,37.34-30.91,58.84-18.82,11.2,6.3,11.16,17.95,7.11,28.77-5.48,14.62-22.09,16.81-26.93,32.04,24.39,3.18,33.11-2.8,51.12,15.97,2.69,2.81,3.62,10.82,7.34,3.45,6.13-12.13,20.97-22.78,32.9-31.04,21.76-15.06,57.58-34.83,83.79-38.2,10.11-1.3,17.42,2.01,25.75,1.9,7.76-.1,17.99-3.78,26.81-2.36l4.3-235.7c6.36.28,29.42-5.45,33.11-.14l2.95,39.22c-.05,148.46.94,295.43,4.05,443.91-.16,164.9-2.14,331.03,1.96,495.92.1,4.17,1.07,28.11-.28,28.89ZM1049.97,1027.99c8.48-22.23,23.2-45.94,39-64.01,5.2-5.94,12.58-10.13,17.01-14.99,5.56-6.1,25.64-29.25,16.15-36.14-12.91-2.47-26.13,13.44-32.97,23.31-17.88,25.79-27.06,55.74-39.79,84.21l.61,7.61ZM1078.02,994c15.64-11.3,32.19-13.89,49.08-19.89,10.95-3.89,20.15-10.63,32.83-11.17,8.56-12.39,26.21-28.48,32.27-41.84,3.25-7.17-2.47-9.37-9.08-9.2-35.41.94-48.81,21.42-74.41,40.81l-30.69,41.29ZM1397.65,928.34c-9.77-4.72-19.66-7.21-30.64-6.32-41.66,3.39-85.55,22.37-118.89,47.1-4.5,3.34-18.94,15.88-17.84,21.59,3.9,4.79,8.35,9.13,11.41,14.59,2.75,4.91.3,12.01,6.28,10.7-.07-2.48.39-5.01,1.93-7.02,10.86-14.11,51.27-40.95,68.08-47.99,24.28-10.17,55.83-15.26,82-17l-2.34-15.65ZM1398.01,955.99c-42.27-2.33-84.75,14.92-119.85,37.17-13.45,8.53-32.22,21.99-34.15,38.83,40.48-2.49,35.78,31.92,20.19,57.34l.67,2.68c13.16,7.8,30.36,23.15,45.06,27.06,6.99,1.86,16.48,1.9,24.47,3.53,9.21,1.88,17.3,7.51,27.6,5.41,4.37-40.62,18.62-79.21,31-118,1.03-3.22,4.18-5.27,4.91-9.09,2.47-12.93-3.14-30.95.09-44.93ZM1203.98,1060c-21.18,13.78-15.65,31.76-44.34,38.63-37.11,8.88-46.97-42.51-27.63-67.62,4.58-5.95,21.96-19.93,29.16-20.92,16.28-2.24,41.71,22.08,56.35,29.45,27.37,7.3,16.76-35.14,7.3-45.35-3.27-3.53-31.73-18.8-36.26-19.74-31.23-6.46-88.87,13.33-112.57,34.52-42.72,38.21-45.35,104.97-55.51,158.49-1.17,6.18.84,12.66-2.47,18.51,8.99-.24,18.08.36,27.08.1,17.87-.52,35.91-1.65,53.83-2.16,5.89-.17,32.54,1.19,34.77-.23.47-.3,2.61-6.84,5.26-9.74,6.34-6.93,14.62-10.79,20.72-17.28,9.41-10.01,9.79-20.28,16.32-29.68,7.66-11.05,24.07-21.27,35.13-28.92l-7.13-38.06ZM1064.02,1012c4.38-2.6,9.3-8.79,9.96-14-4.77,2.65-9.86,8.24-9.96,14ZM1397.98,1316l-.98-304.02-24.53,87.49c-5.53,43.06-6.17,86.87-17.38,128.62-2.91,10.82-18.13,34.81-11.23,45.06,2.65,3.94,11.78,7.56,14.06,13.93,14.23,9.34,28.23,16.25,40.06,28.92ZM1205.56,1042.4c-8.64-3.97-13.21-13.99-23.01-15.94-4.29-.86-29.95-2.75-32.56-1.47-9.86,13.45-25.67,44.49-12.05,58.07,27.36,27.27,47.68-20.98,67.62-33.45v-7.21ZM1131.97,1053.99l6.01-15.98c-3.5,1.33-11.19,13.62-6.01,15.98ZM1244.01,1038.01c-2.14,2.37,6.82,34.03,10.98,38,5.61,5.34,11.3-1.84,12.57-7.42,3.76-16.55-7.08-29.8-23.55-30.57ZM1360,1136h-33c-5.78,0-51-23.07-57.05-28.95-17.22-16.71-32-38.19-31.97-63.05-7.96,6.72-14.81,5.37-24.2,7.16-3.73,19.87,5.87,49.7,19.2,64.86,4.72,5.37,10.93,8.63,15.01,12.99,15.65,16.73,42.91,51.48,65.43,56.57,11.72,2.65,27.94-1.61,40.57,2.42-1.06-18.06,8.85-33.64,6.01-52.01Z"/>
  <path d="M1519.4,1034.61c14.68,0,6.49,20.75,6.48,30.39-.03,22.36,2.14,45.37,2.21,68.08.13,44.82,1.15,90.59,1.52,135.92.43,52.92-.08,105.03.41,157.98.07,8.11,3.93,17.32-1.88,26.16-42.85,13.01-31.61-21.33-32.05-50.21-1.68-109.95-.65-220.33,1.64-329.66.08-4.01-2.09-8.77-1.87-14.28.63-16.11,6.78-24.36,23.54-24.37Z"/>
  <path d="M1925.99,1822.02v1.95s-5,1.97-5,1.97c-2.14-1.78-3.62-3.03-2.97-5.95l7.97,2.02Z"/>
</svg>