<?xml version="1.0" encoding="UTF-8"?>
<svg id="Calque_1" data-name="Calque 1" xmlns="http://www.w3.org/2000/svg" viewBox="0 0 1605 1605">
  <path d="M926.65,1168.49c-.36,8.79,2.14,17.34,2.08,26.09-.08,11.5-.27,24.4-1.05,35.95-.42,6.26-3,14.16-3.07,20.02-.06,4.66,1.84,10.19,2.13,14.95.86,14.36-2.63,30.68-2.09,45.09.27,7.1,2.47,13.49,2.08,20.99-.42,8.16-3.93,17.85-4.03,25.96-.09,7.27,3.25,17.16,3.09,23.99-.24,9.9-7.76,12.48-16.6,12.59-15.94.19-32.92-1.65-48.98-.07-5.61.55-12.59,3.96-18.01,3.98-7.19.03-16.48-4.31-24.02-4.97-11.69-1.03-22.65,2.95-34.02,2.02-6.09-.5-12.08-3.45-17.97-4.03-13.14-1.28-27.44,1.68-40.03,1.03-5.99-.31-13.27-3.11-18.96-3.11-9.56-.01-21.25,2.03-32.04,2.12-15.55.14-30.38-2.67-44.91-3.09-6.21-.18-11.21,1.71-17.01,2.09-9.15.6-27.94.59-37.08,0-6.71-.44-13.61-3.79-19.94-4.08-9.64-.44-20.12,2.8-31.07,2.1-5.56-.36-12.1-2.75-16.95-2.84-4.75-.09-11.18,2.35-16.17,2.4-3.51.04-7.53-1.47-10.84-1.6-8.06-.32-16.19-.22-24.21-.75-7.14-2.51-.71-20.6-.24-26.73.87-11.5-2.63-22.4-2.07-33.08.28-5.27,2.56-10.77,3.01-15.98,1.4-16.11-1.86-32.9,1.09-48.84-5.03-3.67-11.43-7.07-16.09-11.14-3.03-2.65-21.93-23.03-23.37-25.63-2.56-4.6-3.07-10.08-5.14-14.86-8.07-18.69-13.53-32.45-15.47-53.53-.7-7.58,2.66-29.41,4.09-37.89,2.87-16.95,21.02-39.35,27.08-55.92,4.21-11.51,5.15-41.75,3.71-54.08-2.17-18.59-11.01-38.2-12.88-58.12-1.07-11.37,4.24-21.03,13.48-27.5,16.14-11.3,29.69,10.63,31.38,24.63.4,3.3-.28,6.73.14,9.86,1.05,7.93,3.46,15.84,3,23.93l-3.45.64c-1.94-.54-2.2-20.95-2.81-24.32-.54-3-6.26-20.52-7.74-22.26-2.25-2.64-15.13-8.97-18.46-8.51-5.31.74-10.96,17.79-11.45,22.63-1.05,10.4,7.18,26.16,9.4,37.39,6.8,34.46,8.35,56.88-5.32,89.7-3.76,9.02-12.22,19.09-14.97,27.03-2.22,6.4-3.97,13.83-6.25,20.75-4.9,14.86-2.54,46.03,1.52,61.53,5.58,21.34,23.23,49.65,41.03,62.97,3.01,2.25,6.37,3.93,9.47,6.02,2.6-8.6-.93-17.89-1.03-26.46-.23-19.13,2.87-38.08,4.08-57,1.04-16.33-1.28-37.28-1.04-54.04.12-8.29,4.01-18.24,4.08-26.01.07-7.05-2.25-15.75-2.14-23.02.1-6.89,2.58-15.11,3.04-21.98,1.07-16.08-.52-33.08,1.03-49.97.5-5.43,2.96-10.75,1.99-16.51l3.98,1c-.03-1.29.27-2.52.8-3.69,7.08-15.67,11.36-31.02,16.47-47.55,6.18-20,11.1-39.99,17.02-59.98,5.92-19.99,13.64-36.94,20.21-55.79,1.71-4.9,1.89-11.01,4.49-16-8.94,2.25-16.14,9.03-24.3,12.19-4.01,1.55-8.42,1.77-12.37,3.63-4.9,2.31-8.8,7.59-13.61,10.39-7.71,4.47-17.84,7.34-25.63,12.37-5.21,3.37-8.18,8.1-12.75,11.25-3.72,2.57-8.21,3.64-12.03,5.97-9,5.48-11.65,14.43-19.28,20.72-9.04,7.45-11.9,9.48-20.38,18.12-7.22,7.36-17.57,15.81-24.16,23.34-4.45,5.09-6.84,12.56-11.08,17.92-2.69,3.4-6.34,5.45-8.81,8.19-15.72,17.44-37.8,70.05-39.64,93.36-.53,6.77.61,14.24.02,21.02-.79,9.13-4.8,17.3-3.97,27.01.4,4.71,2.66,10.07,2.97,15.02.36,5.79-1.13,10.54-1.03,16.02.21,11.81,4.32,31.43,8.34,42.68,2.96,8.27,21.83,38.02,28.23,43.77,2.06,1.85,4.8,2.93,7,5,5.29,4.99,14.63,17.63,20.46,19.54,10.33,3.38,21.72,4.53,32.27,6.73,8.51,1.78,16.9,5.15,25.75,4.75.24,2.96-3.08,3.74-5.47,4.02-24.01,2.76-50.87-7.3-70.43-20.61-7.9-5.38-12-14.73-18.12-21.88-3.84-4.49-10.22-9.04-13.41-13.59-7.57-10.8-16.4-41.23-18.45-54.55-3.14-20.46-1.98-36.75-2.07-56.93-.18-41.75,7.66-80.06,29.78-116.12,3.17-5.17,7.35-9.15,10.59-14.41,3.58-5.8,5.5-12.71,10.07-17.93,4.23-4.84,10.45-7.8,15.02-12.98,13.05-14.8,27.34-32.82,41.59-46.41,5.92-5.64,14.3-8.97,20.39-14.61,5.06-4.69,7.54-9.7,14.18-13.82,18.83-11.66,42.88-23.96,62.65-34.35,23.65-12.43,44.95-19.96,70.43-27.57,5.36-1.6,10.1-4.67,15.75-5.25,17.19-1.76,33.07-5.9,49.69-10.31,2.9-.77,8.59-2.36,11.29-2.51.7-.04,5.61.42,5.51,1.8-3.24-.02-6.3,1.13-9.27,2.23-22.6,8.39-46.32,13.36-69.52,20.48-5.75,1.76-11.01,4.44-17.14,5.86-4.06.93-7.79.37-12.28,1.72s-8.34,4.56-12.26,6.74c-1.31,6.34-4.97,12.14-6.82,18.18-10.12,32.92-20.23,66.45-27.97,100.03-.74,3.19-1.62,6.37-2.47,9.53-5.52,20.64-16.06,39.19-20.26,60.23,3.62-.04,6.86-2.07,10.5-2.07,14.4,0,26.45.93,41.01.09,9.73-.56,17.81,2.07,25.98,2.06,5.4,0,12.32-3.1,17.96-3.11,8.89-.02,20.9.55,30.03,1.05,21.54,1.18,43.16-1.14,65.05-.05,12.62.63,15.87,1.11,28.98.05,12.28-.99,26.61,2.18,38.87,1.88,7.59-.19,15.59-4.37,23.62-2.89l-1.02-39.49c-6.25-27.71-7.65-53.91-14.52-81.48-6.18-24.81-14.88-56.38-25.65-79.34-.99-2.1-1.56-4.31-1.91-6.59-14.39-.46-28.88,1.52-42.92-2.58-9.91-2.9-12.19-9-18.97-15.03-4.11-3.66-9.14-5.52-12.84-10.16s-11.44-24.45-10.06-29.71c1.75-6.68,4.55,8.18,4.84,8.93,1.81,4.71,22.17,28.08,26.74,31.26,10.76,7.46,19.79,8.85,32.77,9.23,13.4.39,15.72-1.85,27.3-4.79,7.17-1.82,11.81-.12,18.74-5.26,6.27-4.64,17.62-21.49,22.33-28.67,3.78-5.77,7.23-11.62,9.16-18.33l-23.45,2.04-15.84-.88c-4.25,3.82-7.25,8.66-11.78,12.26-3.84,3.05-25.04,16.7-28.94,18.06-8.58,3-24.14.6-28.54-8.42-4.52-9.26-.48-27.3,6.57-34.55,4.58-4.72,10.5-6.23,15.7-9.3,5.99-3.54,10.06-9.3,18.19-9.3l1.1-9.9c-.9-.64-11.14,2-13.5,1.98-8.74-.06-24.2-9.92-26.5-18.99,6.56.58,10.05,6.41,16.17,8.32,3.76,1.17,14.01,3.98,17.58,4.42,1.98.24,3.48.5,5.52.05,8.29-1.83,21.77-21.41,22.7-30.13l3.01-.67c-4.27,12.56-6.88,32.53-22.98,34.01-.21,8.4,4.7,20.92,10.14,27.33,1.11,1.31,1.56,1.93,3.13,2.87,3.26,1.96,30.06,7.66,34.33,7.68,3.25.01,19.93-5.67,21.85-7.93,2.6-6.04,5.51-11.91,7.99-18.01,2.94-7.23,2.56-18.53,13.58-16.53,15.37,2.8,26.84,12.02,43.5,11.61,4.98-.12,14.21-.48,18.87-1.13,13.04-1.83,8.73-18.02,4.42-26.23-4.55-8.66-10.75-13.29-15.64-20.36-3.26-4.71-5.41-11.4-9.2-15.8-3.49-4.04-9.59-6.33-12.63-9.87-1.67-1.94-2.16-5.43-2.39-5.63-.55-.5-7.92,2.48-13.99-2.49-5.69-4.66-10.58-21.64-9.95-29.02.32-3.74,3.66-12.03,4.01-5,.26,5.2-2.76,10.7,1.47,15.47,6.14-9.5,20.04-11.57,29.49-5.98,1.04-7.61,6.47-14.03,8.51-21,3.15-10.75,4.01-27.36,3.13-38.34-.46-5.71-14.01-29.41-18.2-34.59-1.08-1.34-17.4-13.79-18.68-14.32-4.21-1.72-12.32-.4-16.78.71-3.79.95-7.06,3.51-9.72,4.28-5.59,1.63-13.99,1.33-20.28,2.72-5.76,1.27-13.11,5.05-18.65,6.18-6.31,1.29-15.4.6-21.73,1.44-13.86,1.83-27.89,6.05-43,8-12.14,1.57-24.58,5.41-36.32,7.68-3.69.72-7.63-.37-11.26,1.24l23.02,25.46c11.75,15.48,8.48,50.25-1.2,65.85-13.56,21.87-45.7,31.5-68.84,20.2-7.92-3.87-16.13-7.98-24-12-5.22-2.67-10.84-7.92-16.43-9.57-4.8-1.41-17.85-2.25-23.09-1.99-17.34.86-36.23,16.76-44.63,31.36-13.51,23.48-7.09,54.89,18.49,66.85,13.13,6.14,27.91,6.09,42.16,4.8,13.2-1.19,18.43-9.99,28.19-16.81,2.59-1.81,13.34-8.65,15.61-8.03,5.89,1.6,13.29,25.8,14.27,31.81,1.64,10.01,4.65,27.13,5.32,36.67.7,10.04-2.15,34.41-1.86,44.61.37,2.32-3.83,3.47-4.01,1.99,1.82-10.67-3.22-33.69-3.97-43.73-.61-8.12,1.7-16.2.86-24.87-1.29-13.3-5.76-27.38-10.89-39.62-3.33,1.87-4.3,5.96-6.95,8.53-3.34,3.24-37.66,18.72-42.62,19.38-9.96,1.32-13.14-2.26-21.41-4.42-9.98-2.61-17.17-1.89-25.5-9.5-19.17-17.53-22.25-47.3-9.67-69.66,6.43-11.44,12.2-15.55,22.08-22.92,4.61-3.44,6.95-9.25,14.09-8.42-2.55-13.86-2.4-30.91,5.18-43.31,10.56-17.27,37.59-36.39,56.81-42.19,3.42-1.03,7.34-1.14,10.81-2.19,3.99-1.21,7.99-4.45,11.95-5.07,5.96-.93,12.84,1.84,18.74,2.79,2.85-.16-7.45-39.96-9.98-40-7.32,4.3-14.44,14.26-22.69,16.3-10.74,2.65-36.73,7.49-47.29,7.74-8.45.2-17.53.03-26.02.04-9.59,0-38.02-19.33-43.94-27.15-13.17-17.4-26.64-47.21-24.46-69.33,2.79-28.32,8.45-43.56,27.38-64.62,27.85-30.98,82.87-53.32,124.76-48.74,11.15,1.22,15.4,5.05,24.48,8.52,5.09,1.94,10.71,1.94,15.65,4.35,7.59,3.72,15.89,13.67,25.53,16.47l14.09,21.39c2-5.71,3.01-12.52,5.51-17.99,14.24-31.03,36.45-50.9,64.63-69.37,4.9-3.21,8.72-7.98,14.43-9.57,4.39-1.22,7.78-.56,11.71-1.29,2.99-.56,5.75-2.63,8.71-3.29,8.39-1.86,33.56-5.07,41.5-4.51,5.52.39,13.16,4.66,19.28,5.78,4.93.9,11.43.44,16.28,1.72,2.73.72,36.82,24.13,39.86,27.14,5.65,5.61,6.17,12.71,9.4,19.6,7.17,15.32,10.65,18.39,10.77,37.26.1,15.93-4.52,20.43-9.54,33.55-5.8,15.14-11.03,33.63-22.87,45.63l.04.1c-4.39,4.45-15.05,12.28-20.64,16.86-11.58,9.5-16.77,7.98-29.29,12.71-7.78,2.94-14.91,8.79-23.79,10.39,2.28,7.63-.41,14.81.08,22.87.33,5.42,2.45,11.22,2.14,16.86.61,1.99,7.29,3.53,9.78,5.22,22.21,15.08,36.59,49.27,29.77,75.64-1.81,7.02-4.65,17.27-6.93,24.07-3.37,10.08-10.27,19.17-13.64,29.01,3.82,4.4,6.31,10.58,10.32,14.75,3.46,3.59,8.53,5.87,11.95,10.05,3.53,4.32,10.87,17.72,14.43,23.57,9.54,15.7,11.32,27.45-4.34,39.34-11.38,8.64-17.09,3.46-29.28,1.28-4.2-.75-9.31-.61-13.47-1.53-4.5-1-21.4-9.49-23.75-8.31-7,9.83-8.02,21.82-13.13,32.94-3.63,7.91-9.41,14.7-13.06,21.94-3.44,6.84-4.31,14.59-9.32,20.68-2.54,3.09-6.14,4.82-8.51,7.98,4.18-1.13,8.91-1.29,13.03-2.46,13.73-3.87,27.07-7.96,40.43-12.57,7.52-2.6,15.43-4.56,23.03-6.97,1.05.08-.06,11.14,4,11.05,4.6-1.56,9.22-.75,13.89-1.16,13.61-1.21,27.14-1.04,41.13-1.87,10.91-.64,20.34,2.86,29.82,2.61,7.64-.2,14.27-2.84,23.21-2.66,21.11.43,37.49,2.4,58.92,1,9.08-.59,25.82-.48,35.08,0,6,.31,13.52,3.11,18.96,3.12,10.97.01,22.62-3.25,35.04-2.12,8.44.77,7.88,6.07,14.44-1.48,5.66-6.53,15.93-20.35,23.07-24.93,3.51-2.25,8.08-2.52,11.66-4.34,7.24-3.7,12.89-11.91,23.24-10.26,3.24-9.5.54-18.27,1.02-27.48.2-3.94,1.8-8.17,2.02-11.97.66-11.71.56-23.66.92-35.39-8.18-2.32-21.58-6.13-28.4-11.1-11.38-8.29-26.4-26.52-33.02-38.98-3.57-6.71-11.99-31.06-13.38-38.62-4.06-22.11-1.11-57.09,6.63-78.17,2.75-7.5,16.61-31.35,21.88-37.12,4.78-5.24,29.08-23.76,35.16-25.84,10.88-3.73,31.25-.06,43.49-2.02,15.28,7.18,34.51,17.31,45.16,30.84,3.47,4.41,5.57,9.7,8.75,14.25,4.77,6.82,10.4,10.43,12.98,19.02,9.09,30.39,12.7,70.92,1.87,101.16-2.78,7.75-15.75,35.05-20.59,40.41-4.24,4.69-35.85,27.45-41.16,28.83-2.73.71-10.93-.1-11.82,1.19l-2.43,71.05c5.37,1.65,10.42-.28,15.36.09,3.58.27,20.44,5.04,23.14,6.91,2.75,1.91,5.07,5.64,8.17,7.83,4.8,3.4,10.33,4.85,15.24,8.76,10.18,8.1,11.49,15.78,10.13,28.37,18.78,3.46,18.86,23.73,14.95,39.04,4.64,1.1,11.58,2.03,15,5.5,3.08,3.12,8.5,17.77,8.62,22.16.14,5.07-5.73,21.21-8.14,26.32-1.94,4.12-5.24,8.17-8.32,11.51,10.52,11.03,1.62,38.01-8.69,46.49-15.97,13.12-32.06,21.47-52.42,25.58-7.5,1.51-30.85.49-37.33-2.77-2.25-1.13-3.07-3.86-5.72-3.77-.05,2.11.2,4.27-.13,6.37-3.74,24.09-2.77,44.08-1.84,68.17.06,1.43-.25,4.86-1.77,5.45-6.59.78-14.15,1.71-20.79,1-8.69-.93-4.27-7.33-4.47-13.46-.22-6.86-3.26-16.39-4.05-24-.86-8.21-2.8-23.61-2.86-31.15-.07-8.78,4.67-18.53,1.89-27.39-13.42,8.47-27.52,4.62-41-1.49-5.64-2.56-6.03-7.9-6.98,4-.95,11.95-2.19,24.09-3.05,35.95-.36,4.94,1.12,10.83.83,14.8-.16,2.23-2.11,6.58-1.97,9.55-4.97,1.22-10.08,1.51-15.2,1.05-14.05-1.25-26.83-.38-41.29-.5-45.6-.37-91.36-1.85-136.88-2.34l-20.45-2.03c1.97,4.75,2.33,8.73.07,13.39-.07,1.03-1.89.77-2.49.52-4.82-1.99-6.67-27.32-8.05-32.95-1.51-6.17-5.13-12.49-7.03-18.97-7.19-24.53-11.18-50.33-16.82-75.18-7.26-31.99-10.04-59.07-13.79-91.21-.89-7.67-5.58-16.03-4.9-24.61-.94-.86-20.69,7.67-24.14,8.36-10.57,2.11-21.37,3.66-31.91,6.09-5.13,1.18-8.88,4.16-13.69,5.31-3.99.95-9.84.51-13.51,1.49-3.03.81-11.35,8.51-15.42,10.58-3.23,1.65-9.82,1.6-8.9,5.22,1.59,6.27,8.94,14.69,11.76,21.28,6.57,15.33,7.13,27.94,11.32,42.68,3.04,10.71,8.19,16.84,9.49,29.51,3.11,30.47,9.45,61.25,12,92,.59,7.06-1.12,14.46,1.21,21.3,5.41.78,10.78,2.42,16.33,2.24,8.04-.27,16.94-4.24,24.99-4.13,5.57.08,10.77,2.57,15.99,3.07,15.67,1.49,34.73-.74,51.03-.03,4.17.18,8.99,2.12,12.96,2.11,9.69-.01,18.07-5.02,29.99-4.06,5.09.41,10.29.61,10.55,6.51.45,9.86,1.05,22.2,1.06,31.97,0,6.64-3.12,14.67-3.18,21.01-.05,5.39,1.87,12.43,2.13,17.95.38,8.27-.89,16.33-1.05,24.55,5.09-.29,10.43.4,15.5-.01,13.1-1.06,28.74-4.08,41.99-2.97,4.83.4,8.69,2.22,14.04,2.03,6.21-.21,13.51-2.75,19.93-3.09,10.43-.56,20.05,2.74,30.08,2.07,5.64-.37,12.56-3.01,18.01-3.07,2.41-.03,15.97,1.89,16.95,3.03,3.47,4.02,1.44,8.57,1.45,12.46.01,5.49,1.01,27.82-.87,30.9-2.15,1.1-5.31,1.95-7.68,2.53-12.98,3.16-30.38,3.96-43.87,4.18-7.08.12-13.25-2.6-20-3.1-8.51-.62-16.62,1.62-25.02,1.02-6.39-.46-14.32-3.93-20.07-4.02-2.64-.04-5.03,1.16-7.9,1.07-10.55-.33-20.96-1.67-31.55-1.05M809.6,453.92c1.82-8.74-6.28-33.28-3.34-39.85.67-1.49,12.26-7.78,14.49-8.51,4.94-1.62,10.03-.9,14.71-2.29,2.63-.78,33.66-18.02,35.32-19.68,2.82-2.83,4.41-6.99,6.98-10.02,25.92-30.55,39.31-59.05,29.32-100.36-3.39-14-11.94-22.3-22.33-31.67-11.19-10.1-12.57-9.73-25.7-15.3-7.37-3.12-13.91-8.94-22.07-9.93-4.98-.6-8.16.93-12.7.75-5.37-.21-10.21-3.16-16.07-3.09-23.98.3-54.15,9.12-72.98,24.07-27.06,21.49-41.61,38.67-53.98,71.02-1.54,4.02-.82,8.93-4.04,11.97-2.46.58-8.37-14.72-10.49-17.49-10.28-13.41-48.17-31.68-64.74-34.26-47.51-7.41-102.47,17.11-133.27,52.54-6.41,7.37-18.66,36.61-19.6,46.21-2.61,26.64,18.92,74.19,43.56,86.55,3.35,1.68,33.9,11.57,36.49,11.49,2.87-.09,6.22-1.61,9.18-1.9,10.18-1.03,23.82-1.26,33.44-3.56,4.71-1.13,8.24-4.62,12.66-6.34s9.13-1.93,13.27-3.73c2.76-1.2,10.46-7.73,12.36-7.37s8.02,16.21,8.89,19.11c2.63,8.68,3.47,17.97,5.76,26.74l26.98-3.99-7-76.51,1.99-1.48,12.02,75.99c7.46-1.81,14.1-3.92,21.99-3l-4.93-76.58,1.92-1.42c.22,4.49,1.56,9.08,1.99,13.52,1.19,12.24,1.6,25.68,3.17,37.82,1.12,8.63,5.62,16.68,4.85,25.66,8.24-4.51,17.58-4.09,26.41-6.88,2.69-1.84-3.16-23.05-3.46-27.58-.62-9.48-.25-18.06-.94-28.05-.39-5.58,1.03-11.79-1-17l1.97-.48c3.15,8.4,2.06,17.12,3.13,25.38,1.05,8.09,4.24,15.89,4.87,24.13.58,7.62-.39,15.81,0,23.49,9.38,1.63,16.87-4.44,26.01-4,1.28-8.69-1.6-17.18-2.05-25.46-.51-9.48-.79-19.59-1-29-.14-6.23-.06-12.4,1.05-18.54l10,70.99c10.45-1.31,19.96-2.43,29.88-6.1l-2.89-62.89c2.64-.71,2.33,2.06,2.69,3.77,1.68,8.02.99,16.43,2.56,24.47,2.05,10.53,7.35,21.27,5.75,32.75l18.86-4.13.06.02ZM1170.91,621.81c14.22,1.47,19.81-.49,32.56-4.52,15.52-4.91,21.38-4.09,32.77-17.23,6.45-7.43,18.6-22.31,22.24-30.76,11.18-26.01,15.49-63.03,7.96-90.46-1.6-5.83-4.94-8.95-7.19-13.81-3.01-6.5-3.65-13.5-6.33-19.67-3.97-9.15-27.88-31.71-37.14-35.86-14.42-1.63-27.58-11.57-41.83-7.73-5.18,1.4-23.27,7.41-27.55,9.44-7.36,3.5-30.38,27.72-33.86,35.14-12.47,26.57-17.42,54.01-13.7,83.09,2.25,17.65,9.93,41.13,20.06,55.94,5.07,7.41,26.52,25.9,34.51,30.49,4.19,2.41,12.26,5.81,16.77,4.14l.74,1.79h-.01ZM547.74,533.06c1.53-1.75,5.72,6.93,6.59,7.9,4.1,4.51,26.97,11.95,33.01,11.99,2.93.02,35.16-8.6,37.76-10.02,2.12-1.16,14.1-15.99,16.09-18.91,1.33-1.94,1.58-4.3,2.68-6.32,1.2-2.21,4.2-3.04,3.91-6.08-.34-3.6-9.93-8.06-12.96-10.14-5.82-3.99-7.01-7.03-14.64-8.84-8.27-1.95-24.19-.49-32.45,1.93-7.16,2.09-14.52,8.08-21.64,11.36-5.46,2.51-12.29,3.18-16.85,7.15-2.93,2.56-5.29,7.14-7.99,10.01-9.21,9.75-13.14,12-18.69,25.31-4.75,11.4-4.43,16.43-2.82,28.67,6.4-1.42,12.57-3.76,19.26-2.75,3.82.58,7.94,3.31,11.69,4.3,13.82,3.64,27.31,7.42,40.42,13.58,6.32,2.97,14.62,10.75,22.03,9.86,1.71-.21,29.68-13.68,31.11-14.96,2.12-1.89,16.77-27.07,17.25-29.75.53-2.89.14-5.85.24-8.76l-1.99-.5c-8.02,11.94-12.57,21.14-26.03,27.48-15.06,7.09-25.8,8.96-41.96,2.99-2.6-.96-14.86-8.99-15-10.98-.25-3.64,4.99,1.94,5.65,2.33,6.54,3.91,23.81,4.02,31.82,4.18,5.34.1,7.2,1.94,13.5-.52,2.7-1.05,22.5-16.38,24.66-18.83,3.31-3.76,3.85-9.51,7.17-13.42l.02-2.47-10.34-23.74c-4.41,8.77-6.86,18.82-14.49,25.49-18.34,16.05-30.87,16.9-54.46,17.54-6.7.18-17.61-4.21-23.6-7.5-6.83-3.74-8.32-10.22-8.94-17.55v-.03ZM1194.73,630.06h-19.5c-.65,0-4.26-2.29-4.49-2l-2.5,140.01c5.21.35,14.87-8.12,16.42-12.58,3.55-10.24.93-21.88,1.03-31.88.19-21.43,5.18-40.93,5.06-62.03l3.98-31.52h0ZM708.72,680.05c-15.59,7.66-30.2,18.11-39.31,33.17l-.2,6.86c.89,1.54,5.12-1.18,6.22-1.83,5.88-3.49,11.76-6.91,17.63-10.37,7.1-4.18,13.8-9.12,21.2-12.82l-5.54-15.01h0ZM671.73,723.06c6.91,15.61,26.29,7.18,37.93,2.43l21.05-18.93-10.33-6.34c-5.05,6.54-11.98,9.17-19.29,12.7-9.64,4.66-18.71,8.35-29.36,10.15h0ZM1164.73,704.06c-7.39,3.49-16.41,5.68-22.91,10.58-3.31,2.5-5.92,6.33-9.07,8.93-10.06,8.26-20.74,15.9-30.32,24.75-.18,16.05-.5,32.09-.65,48.28-.22,23.39.96,46.49-.03,69.97-.47,11.05,2.21,21.42,2.09,32.39,4.89.15,10.97,3.88,15.5,4.01,2.99.08,6.02-1.19,9.9-.9,6.65.5,13.44,4.85,20.47,2.95l6.04-66.95c-21.79,7.38-36.41-18.06-24.83-36.34,1.98-3.12,10.81-14.93,13.19-17.31,2.93-2.93,18.7-12.62,19.45-15.04,1.16-3.72-.89-8-.9-11.81-.03-8.53.9-18.71,1.05-27.95.14-8.57,1.36-16.97,1.04-25.54l-.02-.02ZM1235.73,719.04c-10.44-7.67-23.02-10.14-34.94-14.54l-8.06-.45c1.77,15.47-4.31,30.77-.98,46,1.45,1.06,14.39-13.28,16.51-14.97,3.77-3,14.26-10.68,18.15-12.85,2.98-1.66,5.99-2.59,9.32-3.19h0ZM1235.46,722.29c-1.19.25-15.16,7.81-16.24,8.75-8.89,7.76-17.93,23.13-28.01,30.99-4.48,3.49-9.58,4.97-14,8-8.48,5.81-32.04,21.03-37.02,27.98-1.68,2.35-8.09,17.97-8.39,20.65-.51,4.63.86,8.81,5.46,10.37,6.36-1.08,13.94,1.4,19.84.95,5.24-.41,26.29-8.36,32.31-10.75,5.76-2.29,16.46-7.13,21.24-10.76,6.37-4.83,10.51-12.67,16.59-17.41,3.26-2.54,7.88-4.23,11.23-6.77,9.95-7.53,22.56-28.95,21.16-41.63-1.2-10.89-12.61-22.78-24.16-20.37h0ZM1098.72,750.06c-4.46,1.84-9.63.8-14.48,1.01-11.71.5-18.37-2.1-28.01-2.1-16.86,0-35.01,3.53-53.04,2.12-5.11-.4-11.39-3-15.96-3.02-5.43-.03-13.25,3.03-19,3.07-9.11.06-18.86.07-28.01,0-5.79-.05-11.57-2.57-16.99-3.07-9.48-.86-19.05,2.46-29.03,2.03-6.12-.26-13.37-2.8-19-3.06-5.17-.23-10.24,2.09-14.95,2.09-6.51,0-16.36-3.27-23.5-3.07,1.5,4.38.4,9.26,1.08,13.41,1.23,7.57,5.03,14.95,5.79,23.21.53,5.8-.44,11.89.39,17.61s4.93,11.64,6.45,17.55c4.52,17.58,5.54,35.16,8.53,52.47.98,5.68,5.05,13.08,6.69,19.31,4.76,18.15,7.08,37.73,11.37,55.63,1.63,6.81,5.63,12.8,6.73,19.77,7.43-.37,16.16-2.04,23.47-2.04,3.56,0,6.62,1.15,9.95,1.11,20.61-.29,40.79-1.06,61.01-1,11.4.03,21.67,1.73,32.04,2.03,13.34.38,30.58-2.71,45-2.05,5.32.24,12.23,2.92,17.06,3.01,6.71.13,14.27-4.22,21.44-1.03l5-215h-.03ZM1265.27,756.07c-2.65,5.24-3.77,10.9-7.1,15.93-2.57,3.88-7.63,7.92-10.42,11.58-4.64,6.11-9.36,15.05-15.01,19.99-6.6,5.77-14.33,6.79-21.33,10.67-5.13,2.84-8.87,8-14.3,10.7-8.75,4.35-21.03,6.32-30.41,9.59-2.68,6.9-1.1,10.12,5.04,13,17.85,8.38,33.78,5.89,51.26-1.7,8.13-3.53,17.95-15.8,24.71-22.29,14.91-14.32,15.43-10.69,23.53-31.47,4.34-11.13,6.89-11.76,4.25-25.28-1.12-5.73-4.65-9.19-10.22-10.72h0ZM1195.07,880.72c2.75,2.75,14.05,5.01,18.18,5.32,4.67.35,23.62-.35,27.76-1.21,3.68-.76,32.68-20.23,37.22-23.78,2.71-2.12,15.25-18.74,16.95-22.05,5.84-11.35,2.56-32.09-7.03-40.86-8.62-7.88-8.51-.34-11.98,3.85-7.17,8.65-11.49,15.57-18.02,23.98-9.41,12.12-18.61,14.26-29.74,22.26-6.85,4.92-11.68,12.41-21.26,13.74-5.48.76-10.47-1.47-15.27.24-.2,5.71-1.21,14.1,3.2,18.51h0ZM1158.73,997.06h18.5c3.53-4.25-.13-11.09-.54-16.46-1.55-20.74,3.54-42.32,2.87-63.07-.12-3.89-3.84-9.41-3.83-13.97,0-3.94,2.61-10.36,2.98-15.02.52-6.55-.98-12.16-1.07-17.98-.05-3.09,1.81-6.49,1.12-9.83-9.32-4.26-19.03-13.64-18.05-24.67l-3.03,1.68c.65,15.33-.9,30.56-1.01,45.87-.08,11.63-1.38,19.01-1.99,29.91-.52,9.25,2.34,16.43,3.02,25.06.91,11.48.77,23.62.97,34.94.14,7.84-.01,15.71.04,23.54h.02ZM1285.24,859.18c-5.58,3.25-9.16,8.9-14.03,12.85-17.86,14.49-42.46,23.72-65.74,19.78-4.48-.76-9.38-4.5-11.73-8.29-2.71-1.78-9.63,5.49-10.7,8.34-1.37,3.66-1.28,15.86.21,19.18s13.03,11.14,16.76,12.24c9.32,2.74,15.93-1.11,24.52-2.93,11.23-2.38,14.33-3.66,24.66-7.34,4.49-1.6,10.7-2.28,14.8-4.2,5.28-2.47,21.79-22.01,24.23-27.77,1.82-4.29,1.2-11.71.46-16.45-.35-2.23-1.6-4.14-3.44-5.43v.02ZM1189.72,880.03c-2.67-5.71-4.79-11.27-2.2-17.52l-3.78-1.45-2,25.99,7.98-7.03h0Z"/>
  <path d="M715.72,562.06c.68,4.92,2.92,13.95,5.24,18.27.69,1.28,7.69,9.95,8.76,8.73.21-9.2,5.48-17.21,14.22-20.28,13.43-4.72,22.91-5.09,32.77,6.28,1.76-7.06,2.47-15.42,7.51-20.98,3.35.02,0,12.14-.72,14.26-8.99,26.16-23.41,41.37-52.85,33.29-10.96-3.01-18.14-25.9-16.96-36.11.17-1.5.2-3.08,2.03-3.46h0Z"/>
  <path d="M573.56,651.22c2.13,10.89-6.55,5.29-13.28,4.79-10.25-.75-30,6.27-34.61-5.38-6.71-16.97,21.94-21,21.62-36.56-3.36-6.99-30.72-.77-37.55-.51,2.17-1.79,4.73-3.57,7.3-4.7,4.34-1.89,15.63-6.02,19.9-5.59,18.36,1.84,19.76,23.26,6.3,32.79-4.03,2.85-9.19,2.83-12.86,5.14-8.17,5.15,7.02,7.87,10.86,7.93,6.05.09,11.8-3.66,17.89-3.02,1.62.17,14.03,4.45,14.43,5.1h0Z"/>
  <path d="M431.72,1121.06c-1.43,7.45,1.03,14.65,1.9,21.6.37,2.97-.24,6.03.12,8.88,1.02,8.25,12.34,25.92,17.19,33.81,2.18,3.56,9.07,8.55,5.29,11.69-1.34.27-11.5-10.27-12.9-12.08-10.02-12.93-16.34-41.19-14.47-57.3.23-1.95.73-5.78,2.88-6.61h-.01Z"/>
  <path d="M446.73,1107.56c.3,3.28,1.52,10.2,2.81,13.19,1.93,4.44,10.63,11.87,10.21,15.77-.58,5.37-4.73,2.69-6.88-.1-5.33-6.92-11.44-28.01-9.05-36.76l2.91-7.59c.33,5.03-.46,10.54,0,15.5h0Z"/>
  <path d="M672.41,858.42c16.66.71,35.5,17.42,37.21,34.25,1.23,12.12-9.84,34.73-19.41,42.36-8.96,7.15-20.37,13.87-31.51,8.56-4.06-1.93-15.02-7.47-18.29-9.71-6.34-4.33-10.42-17.15-11.41-24.59-3.03-22.77,19.71-51.89,43.42-50.88h-.01ZM678.73,862.06c-7.66,1.37-19.24,2.22-25.94,6.55-2.87,1.85-16.45,19.42-17.38,22.62-3.59,12.41,1.44,32.6,12.39,40.26,7.28,5.1,20.53,6.4,28.61,2.74,5.47-2.48,23.2-18.8,24.64-24.36,4.21-16.21-1.34-43.41-19.8-46.07l-2.53-1.74h.01Z"/>
  <path d="M1195.73,431.05c-11.44-.29-23.47,2.12-33.98,6.53-4.41,1.85-22.92,20.51-25.23,24.77-4.42,8.15-12.54,34.12-13.71,43.29-1.66,12.98,4.18,45.93,9.73,58.11,1.62,3.55,11.08,14.6,14.17,17.83,3.44,3.6,12.9,11.69,17.58,12.42,5.54.86,19.05,3.03,23.99,3.09,10.15.12,14.72-7.11,21.54-12.44,2.98-2.33,7.17-3.78,9.81-6.19,3.01-2.74,6.93-11.81,9.08-12.97,2.57-1.38,4.46,2.36,3.84,4.81-.33,1.32-14.59,19.81-16.43,21.65-5.37,5.38-20.57,9.45-28.38,11.62-7.72,2.14-11.55,3.67-19.4.38-9.41-3.94-23.12-12.46-29.63-20.37-4.48-5.44-15.79-27.43-17.68-34.32-6.13-22.32-4.14-60.68,7.17-81.24,3.17-5.76,13.86-21.61,18.52-25.48,9.49-7.86,23.98-16.06,36.46-15.53,2.86.12,10.57,1.85,12.55,4.03h0Z"/>
</svg>