<?xml version="1.0" encoding="UTF-8"?>
<svg id="Calque_1" data-name="Calque 1" xmlns="http://www.w3.org/2000/svg" viewBox="0 0 2732 2500">
  <path d="M1823.83,1576.68c-30.46,10.44-60.78,23.12-91.06,33.96-163.18,58.45-308.81,143.46-468.46,210.54-14.06,5.91-60.93,27.04-71.67,20.71-1.93-1.14-4.49-10.33-8.41-14.27-81.05-81.51-171.02-156.94-253.1-238.37,4.21-19.21-4.24-38.01-4.99-55.15-5.99-137.95,4.77-284.07-25.02-419.13-4.42-20.04-8.84-50.52-10.65-71.04-.78-8.79-4.11-60.6-2.8-63.57,2.45-5.58,13.75-13.4,19.59-16.56,80.4-43.6,179.37-80.4,263.42-119.49,70.12-32.61,164.3-90.35,234-113.15,51.82-16.95,52.57,15.89,64.52,13.78,6.2-1.09,64.9-64.58,88.53-70.04,71.8-16.59,54.9,31.95,74.05,76.98,15.54,36.52,21.21,18.81,46.87,19.37,16.14.35,37.99-.72,51.04.08,38.21,2.36,70.51,12.24,90.97,46.93,34.34,58.22-17.71,115.75-67.34,144.01,30.58,28.45,61.49,53.34,94.24,79.24l1.65,124.48c-3.04,9.52-19.18,8-25.02,15.3-8.23,10.28-5.12,115.96-4.81,138.56.52,38.15,5.3,79.1,5.63,117.06.41,46.61-4.49,93.38-1.17,139.75ZM1252.9,816.85c45.61,38.05,69.13,94.47,109.75,137.68,28.68-67.79,51.79-138.54,99.46-196.46l-32.99-28.02-176.22,86.8ZM1563.07,782.3c-7.65-7.67-39.24-5.11-34.45,6.34.88,2.1,34.1,29.82,35.64,28.15.52-11.03,7.85-25.43-1.19-34.49ZM1681.71,918.99c-19.15.24-37.76-31.62-49.62-35.02-17.13-4.92-52.34,12.92-73.2,2.07l-1.94-58.99-49.09-33.62c-71.32,49.98-95.06,132.62-132.44,207.1,2.31,2.13,48.06-24.74,56.27-27.92,68.61-26.6,120.94-20.67,189.93-29.6,8.09-1.05,70.55-9.46,60.09-24.03ZM1092.08,964.85c34.39-3.88,81.29,0,117.42,0,.86,0,8.92,10.93,12.74,2.58-32.14-29.76-67.98-55.62-89.65-94.8l-234.87,112.53c-6.15,12.38,40.4,53.66,48.73,64.07,12.8,16,24.07,36.38,35.86,50.93,10.03,12.38,36.84,47.42,45.6,55.31,4.83,4.35,5.89,4.35,12.89,3.58l43.62-58.82c-3.2-15.61-120.78-4.03-106.33-75.45,7.07-34.94,83.36-56.46,114-59.92ZM1646.04,883.06c19.8,3.08,41.24,43.88,61.22,33.57,13.16-6.79,15.77-38.38,1.84-42.97l-60.53-.74-2.53,10.14ZM1839.99,1046.59c-27.49-1.38-79.68-74.63-99.67-76.71-17.8-1.85-36.94,16.14-52.04,19.38-31.85,6.82-73.57,7.03-105.58,11.84-56.74,8.53-113.48,23.42-171.52,19.93-.13,26.61,27.2,41,40.82,58.68,26.62,34.54,51.81,71.25,80.05,105.01,22.84-1.91,318.38-124.75,307.94-138.13ZM946.57,1169.06c19.69,13.98,69.97,73.05,86.74,94.49,41.12,52.55,72.88,120.35,122.52,165.87-2.13-22.35,4.51-49.98-2.72-71.26-1.79-5.27-54.15-91.14-58.19-94.97-14.83-14.09-48.7-13.01-66-46.28-11.88-22.85,1.22-36.41-3.17-47.65-2.39-6.12-59.47-77.48-69.13-89.41-19.07-23.53-42.09-45.31-61.06-69.07,9.91,28.9,4.17,78.36,11.26,103.56,1.28,4.55,31.73,41.34,39.74,54.71-5.58-3.96-18.92-6.91-25.48-15.31l11.27,182.73c85.11,67.27,156.97,150.42,243.89,215.46-1.49-5.12,5.17-10.88,5.17-12.75v-79.13c7.04,1.93,8.03,27.53,8.3,34.04.57,13.81.39,48.66-1.93,61.45-1.27,7.02-3.08,8.29,6.42,6.7,17.94-3.02,50.32-25.25,68.99-33.16,73.06-30.98,149.3-56.07,219.65-92.78l-2.64-104.02-11.09-.73c-48.77,23.89-103.76,35.08-153.41,56.05-25.97,10.97-134.77,74.06-151.73,72.73-9.77-19.03-28.07-30.32-40.97-46.53-52.34-65.77-134.12-174.16-176.45-244.74ZM1309.05,1031.27c-33.09-1.99-72.27-9.73-104.68-10.72-9.73-.3-18.46,3.65-26.37,3.68-24.51.09-61.74-11.09-68.59,24.85-.58,34.44,68.08,17.51,72.3,46.15,4.51,30.6-60.6,70.64-44.02,94.46,12.81,18.4,40.96,3,54.05-7.76,23.33-19.18,58.64-83.28,82.33-111.67,10.2-12.22,27.69-22.73,34.98-39ZM1104.84,1261c14.25,30.11,40.15,48.27,48.41,81.78l10.09,4.98,273.3-120.19c-29.89-60.21-75.13-111.69-114.83-165.64-10.29.02-95.47,131.88-114.81,150.57-25.46,24.6-65.23,55.92-102.17,48.49ZM1538.79,1202.24v79.13l109.91-30.48,186.27-89.42c4.15-24.18,9.9-61.54,10.33-86.76.13-7.9,1.09-8.95-7.66-7.6l-298.85,135.14ZM1814.48,1189.48l-240.26,100.11,8.04,104.17,232.22-102.18v-102.11ZM1446.89,1235.43c-32.68,15.86-65.32,32.26-98.66,46.85-44.46,19.44-94.58,35.6-138.21,55.79-6.6,3.06-42.31,20.57-44.09,22.28-9.79,9.4-5.65,67.96-.37,82.51,1.95,5.36-2.42,9.15,7.53,6.42,34.09-9.35,81.92-45.45,117.14-61.62,51.25-23.53,107.36-35.5,156.65-62.88v-89.34ZM1814.45,1403.93l-222.15,91.78c-5.47,49.49,3.69,98.87,2.66,148.18l217.28-76.3,2.21-163.66ZM1186.47,1817.41c-3.71-38.41,4.6-136.34-15.23-165.93-75.48-63.75-150.02-127.74-229.71-186.3-11.25,39.34,4.23,80.71,1.05,121.46l243.89,230.77ZM1482.6,1541.77l-288.63,122.3,2.78,168.66c39.49-2.48,71.51-28.62,106.09-44.47,61.4-28.14,125.51-51.24,182.41-88.17,8.97-24.11-1.62-50.89-2.16-73.54-.17-7.33,5.39-16.01,4.86-25.87-.99-18.24-9.69-38.6-5.36-58.91Z"/>
</svg>