<?xml version="1.0" encoding="UTF-8"?>
<svg id="Calque_1" data-name="Calque 1" xmlns="http://www.w3.org/2000/svg" viewBox="0 0 1605 1605">
  <path d="M1056.33,530.98c2.8,8.51-7.8,15.1-12.3,20.97-4.84,6.31-8.09,15.21-13.19,20.81s-13.02,10.01-18.37,16.63-8.24,14.77-13.05,20.95c-4.63,5.95-11.57,9.9-16.49,15.51-7.55,8.62-14.24,20.28-21.98,29.02-4.42,5-10.41,8.79-14.49,13.51-11.58,13.42-22.13,32.42-34.98,46.02s-22.22,25.08-34.03,38.97c-16.37,19.28-32.51,38.68-49.04,57.96-6.51,7.59-15.58,14.46-19.38,23.62l-3.57.43-42.33-35.37c-1.09.09-16.69,9.94-18.6,11.42-5.92,4.59-10.07,10.83-16.76,15.24-5.07,3.34-11.4,5.18-16.24,8.76-5.08,3.76-8.06,9.72-12.59,13.41-5.47,4.46-15.14,8.53-20.48,12.52-1.96,1.46-2.34,4.28-4.72,5.36-10.45,2.93-9.19-16.8-10.57-23.09-4.91-22.34-8.37-44.75-12.98-67.02-1.47-7.09-5.7-14.2-7.44-21.56-2.16-9.12-1.56-19.12-3.53-27.47-1-4.24-4.1-9.01-5.27-13.73-.95-3.83-1.52-14.82-2.77-16.73-.91-1.39-11.6-9.93-13.82-11.67-4.82-3.77-10.94-6.87-15.37-10.63s-7.67-8.73-12.61-12.39c-5.57-4.13-13.15-6.67-18.41-10.59-4.78-3.56-7.58-9.32-11.48-13.52-4.49-4.85-18.91-12.53-6.06-16.01,9.06-2.46,19.42-2.17,28.3-3.7,5-.86,10.8-5.02,15.3-5.7,3.5-.52,7.43.37,10.92-.08,13.97-1.78,27.5-6.24,41.25-8.75,23.74-4.33,47.25-6.46,70.53-11.47,22.38-4.81,45.47-8.71,68.11-12.89,40.93-7.56,82-15.57,123.13-22.87,28.28-5.02,56.72-10.23,85.28-15.72,12.31-2.37,22.22-3.94,34.6-5.4,8.45-1,16.25-7,25.5-4.78ZM1014.45,543.88c-13.6,1.49-27.69,3.64-41.22,6.27-9.83,1.91-18,3.36-28.04,4.96-4.94.79-9.56,4.01-15.37,4.63-11.19,1.2-18.6,2.14-29.6,4.4-58.5,12.05-118.41,23.3-177.18,32.82-8.42,1.36-16.36,1.76-24.04,2.96-3.46.54-7.69,3.69-12.32,4.68-24.09,5.12-49.67,7.38-73.47,12.53-5.89,1.28-13.07,5.31-18.42,5.67-3.95.26-6.87-1.25-11.6-.68-5.29.64-17.52,4.11-23.42,5.6-.77.19-3.3-.29-2.33,1.63,1.02,2.04,13.47,6.75,16.9,9.1,6.69,4.6,12.09,13.13,18.62,18.39,8.95,7.21,18.49,14.26,27.56,21.44,4.14,3.28,9.37,5.05,12.95,9.12l2.2.31c6.75-1,11.85-6.15,17.53-8.58,11.73-5.02,22.59-7.19,34.26-10.74,6.89-2.1,14.68-8.07,22.45-10.55,5.3-1.69,11.29-1.99,16.24-3.76,8.04-2.89,16.32-7.68,25.85-11.15,21.59-7.87,43.63-17.76,65.23-24.77,10.64-3.45,15.33-5.29,25.52-9.48,6.25-2.57,14.56-3.87,20.67-6.33,4.98-2.01,9.44-6.03,14.47-7.53,4.42-1.32,9.14-1.06,13.55-2.45,6.01-1.9,11.79-7.27,17.73-9.27,16.1-5.41,33.36-9.55,49.26-15.74,4.97-1.94,8.89-6.17,14.04-7.96,10.7-3.73,22.33-5.58,33.67-10.33,2.64-1.11,6.62-2.81,8.31-5.18ZM1041.45,544.88c-7.3-.56-12.33,5.87-18.77,8.72-11.17,4.94-21.44,10.25-32.61,15.39-16.23,7.46-32.16,14.97-48.3,22.7-14.58,6.98-28.57,13.73-42.96,21.04-7.82,3.97-17.9,6.66-25.59,10.41-5.31,2.59-9.6,7.54-15.07,9.93-6.31,2.75-13.53,3.13-20.05,5.95-7.55,3.27-13.58,10.26-20.96,13.04-16.55,6.23-29.57,12.19-45.7,19.3-4.13,1.82-9.1,2.44-13.37,4.63-5.17,2.65-9.62,7.95-14.57,10.43-6.18,3.1-13.95,3.4-20.73,6.27-13.08,5.54-32.91,14.9-45.34,21.66-12.01,6.54-1.68,8.08,4.49,13.55,3.6,3.19,6.88,7.55,10.62,10.38,7.27,5.51,16.54,7.51,24.24,12.76,7.23,4.92,12.25,12.28,18.76,17.24,13.7,10.45,29.06,18.08,41.95,31.05,5.45,5.48,9.47,13.58,15.48,18.52,1.82,1.5,15.73,10.12,16.84,9.9,5.14-6.24,9.58-13.05,14.66-19.34,6.16-7.62,11.88-15.42,17.99-23.01,3.67-4.56,9.38-8.48,12.95-13.05,9.63-12.3,17.46-26.4,28.51-38.49,9.84-10.77,13.03-14.17,21.7-26.3,11.21-15.67,25.75-28.27,37.79-42.21,4.92-5.7,7.92-13.7,13.05-19.95,6.9-8.38,16.85-17.06,23.41-25.59,4-5.2,6.44-12.22,10.59-17.41,4.82-6.04,12.56-10.4,17.62-15.88,7.19-7.78,10.8-18.3,17.38-26.12,5.08-6.05,12.19-8.78,15.97-15.52ZM995.44,558.88c-5.29.18-9.75,2.7-14,5.52-1.16.77-2.59-.25-1.98,2.47,3.08-2.18,6.91-2.74,10.23-4.26,1.53-.7,4.85-2.35,5.76-3.73ZM974.45,568.88c-10.38-1.52-17.6,4.31-26.01,7.48-12.74,4.79-25.22,10.56-37.71,15.29-6.03,2.28-12.64,2.12-18.57,4.43-4.77,1.86-9.08,6.31-14.16,7.84-22.34,6.78-40.8,14.03-62.28,22.72-20.28,8.21-41.15,14.48-61.55,22.45-10.34,4.04-17.61,5.45-27.29,8.71-5.27,1.77-11.37,6.66-17.16,8.84-6.71,2.53-14.97,3.17-21.28,5.72-4.2,1.69-8.12,5.6-12.72,7.28-7,2.56-15.97,5.41-23.24,7.76-5.5,1.77-12.4,1.3-17.61,5.44-1.37,1.92,5.48,19.79,6.32,23.78,2.6,12.39,6.72,23.57,9,35,1.33,6.65.9,13.9,2.52,20.48s6.04,12.89,7.47,19.53c1.94,8.95,1.46,19.12,4.26,28.25,2.24-.6,1.89-2.69,2.04-4.44.83-9.95-3.05-22.77-3.14-33.06-.06-7.14,2.18-16.88,2.17-24-.02-8.77-1.32-15.9-1.04-25.96.11-4.16-1.01-17.83.95-20.05,15.37-6.33,30.3-13.61,45.34-20.66,3.89-1.82,8.71-2.82,12.36-4.64,5.47-2.74,10.72-8.63,16.07-10.93,5.8-2.49,12.75-2.48,18.92-5.08,5.28-2.22,10.37-6.36,15.96-9.04,9.75-4.67,21.95-8.8,31.05-13.95,3.72-2.1,7.24-5.94,11.3-7.7,5.72-2.47,12.68-2.83,18.68-5.32,7.59-3.15,13.8-10.09,20.93-13.07,4.35-1.81,8.91-2,13.38-3.62,26.68-9.7,54.86-27.67,81.34-38.66,8.05-3.34,18-3.28,23.68-10.81ZM671.12,727.21c-.43-.38-2.56-1.48-2.66-1.34.59,7.53.86,14.98,1.04,22.55.34,14.41,3.37,24.95,3.99,37.91.44,9.13-2.29,18.3-2.09,27.07.32,13.66,7.29,28.57,5.04,42.9,3.07,2.4,3.03-1.33,4.48-2.42,13.11-9.92,25.43-20.51,38.07-30.98,8.04-6.66,17.74-9.84,25.4-15.6,4.45-3.35,8.08-8.81,13.05-11.93-2.91-2.98-6.75-4.3-9.99-6.99-5.77-4.79-9.74-11.94-15.51-16.49-6.46-5.08-15.31-8.31-22.39-13.61-6.09-4.56-11.58-11.28-17.75-15.25-3.85-2.48-9.83-4.06-13.28-6.72-3.05-2.35-4.88-6.9-7.38-9.1Z"/>
  <path d="M631.02,899.45c-14.79,21.73-25.69,40.51-33.3,66.21-6.46,21.81-8.17,39.62,1.53,60.91,2.12,4.66,16.89,21.69,21.17,24.83,3.84,2.83,20.7,8.24,26.22,9.78,16.04,4.45,32.78,3.57,49.32,4.68,12.62.85,16.91-4.34,27.24-5.72,19.13-2.56,35.34-5.19,54.06-10.94,5.85-1.8,9.53-6.2,14.66-8.34,5.84-2.44,11.85-2.12,18.2-4.8,24.35-10.28,51.02-26.67,72.8-41.2,12.84-8.57,26.08-16.07,38.44-25.56,13.45-10.32,23.43-20.14,35.09-31.91,13.69-13.82,15.84-5.06,3.01,6.01-6.24,5.38-12.7,10.59-19,16-36.48,31.35-75.65,55.8-119.01,76.99-4.6,2.25-10.13,3.39-15.04,5.96s-8.95,7.17-14.7,8.3c-18.21,3.56-36.79,10.02-55.07,14.93-4.61,1.24-8.94,4.32-13.96,5.04-6.56.95-11.63-1.21-17.73-.73-7.4.58-16.26,4.89-23.85,4.62-8.3-.3-34.29-4.84-42.51-7.28-6.92-2.05-32.24-17.82-36.68-23.32-20.53-25.48-18.21-71.74-3.5-99.55,9.61-18.16,20.19-35.91,32.61-52.39,1.77-2.35,9.81-11.42,11.92-12.08.75-.16.64.97.48,1.47-.98,3.03-9.9,14.42-12.41,18.1Z"/>
  <path d="M621.09,878.52c1.93-1.65,3.1-4.37,6.01-6.49.91-.66,9.39-5.94,9.32-2.66-2.93,2.99-3.85,7.28-6.58,10.4-6.61,7.6-21.06,19.19-26.24,26.76-4.18,6.11-7.04,15.4-10.97,22.03-1.92,3.25-5.22,6.03-7.03,8.97-5.24,8.49-6.91,21.53-10.7,31.3-1.05,2.69-5.69,15.87-8.27,7.32-1.05-3.48,5.64-22.72,7.63-26.96,11.23-23.97,26.79-53.49,46.83-70.67Z"/>
</svg>