<?xml version="1.0" encoding="UTF-8"?>
<svg id="Calque_1" data-name="Calque 1" xmlns="http://www.w3.org/2000/svg" viewBox="0 0 2732 2500">
  <path d="M1866.01,287.81c-1.59,10.57,1.77,20.83,2.09,30.91,2.88,91.37,2.18,184.11,1.99,276.18-.05,25.63-1.29,50.11-2.17,75.81-.5,14.72,4.37,27.22,4.26,40.1-.12,14.86-2.01,29.4-2.08,45.91-.49,127-3.29,253.4,1.71,380.31-3.31,235.9-4.34,472.86-3.99,709.79.15,101.5,2.48,205.53.28,307.92-.35,16.39.82,32.87-.98,49.19-3.11,4.42-40.99,6.41-48.08,5.85-26.34-2.09-35.05-.59-59.94.13-12.19.35-20.95-3.47-32.01-4.16-19.83-1.24-45.66,2.39-66.11,2.22-18.35-.15-33.89,2.03-49.97,2.02-11.02,0-23.24-5.49-34.01-5.76-14.44-.37-30.08,4.62-46.08,3.67-40.51-2.38-80.79-1.54-121.88-2.1-28.27-.38-49.47-.31-78.06,1.97-17.6,1.41-28.32-5.44-42.17-5.75-11.24-.25-26.08,1.71-39.71,1.71-22.34,0-47.83,4.25-68.08,4.24-12,0-25.48-6.49-37.99-6.33-10.54.13-24.29,6.14-34.01,6.14-8.62,0-20.62-5.22-30.01-5.55-31.9-1.12-65.9,1.77-97.91,1.67-36.77-.12-70.13-2.26-106.11-.12-23.48,1.39-46.88-3.12-69.93-4.05-14.66-.59-28.24,5.97-43.05-1.97,3.17-24.2-.05-48.45-.08-73.01-.12-110.89.58-222.39.16-334-.82-218.18,2.56-436.74-.18-656.01-.72-31.9,4.26-69.05,4.26-99.91,0-11.52-1.68-27.14-2.09-39.91-1.66-51.82.04-104.01.02-156.19-.03-60.86-.33-122.4-.18-183.99.12-48.35,1.58-97.85,0-145.84-1.84-55.98,5.25-118.08,2.17-172.17-.5-8.86-5.63-23.21-2.61-30.36,6.2-14.67,11.95-.82,15.44-.39,12.19,1.49,20.63-4.05,30.17-4.23,21.86-.42,46.04,3.23,67.99,2.15,8.77-.43,19.56-4.22,27.92-4.25,9.5-.02,22.21,4.51,31.98,4.33,18.79-.34,38.54-4.25,60.1-4.07,63.11.54,128.06-3.16,191.58-2.84,19.3.1,33.79-2.1,52.27-3.32,15.59-1.03,28.53,4.44,42.06,4.23,10.94-.17,22.45-5.93,33.96-6.27,13.52-.41,28.53,2.04,43.98,2.03,22-.02,44.51,2.25,66.07,2.24,12.31,0,24.42-8.1,37.02-6.15.5-14.96-.69-30.12-.09-45.09.81-20.13,1.63-39.45,2-60.01.28-15.8,3.54-43.3,1.73-57.97-.66-5.33-9.8-15.7,1.25-18.97,7.41-.09,39.77,38.19,48.05,46.07,5.4,5.14,12.17,8.45,18.11,13.89,36.55,33.49,70.1,71.4,106.91,105.09,5.8,5.3,17.29,15.22,24.89,15.1,18.89-.3,38.19,3.26,56.1,1.85,19.35-1.52,28.18-2.08,47.95-1.89,31.99.31,63.37-2.51,95.09-.09ZM1508,243.82v48h43l12.98-3.97c-13.21-4.45-20.83-17.32-31.03-25.98l-24.96-18.04ZM1861.99,297.82c-16.8,3.27-33.92,1.55-50.97,2.02-18.78.53-37.27,3.09-55.93,4.05-14.53.75-27.26-4.2-39.99-4.14-4.63.02-33.88,4.28-35.08,7.09l90.83,90.75c5.16,20.72,2.46,42.08,3.08,63.32,3.32,114.09,2.59,227.6,2,341.84-.24,47.16,1.65,93.76-.01,139.99-3.11,86.51,2.28,176.97,2.19,264.19-.1,95.05-4.46,191.95-2.26,285.9,2.37,101.39-.06,202.53.08,303.92.04,26.8-2.7,71.34,2.11,96.05,1.07,5.49,9.83,9.09,5.1,17.17-3.78,5.35-20.29-.37-26.13-.31-51.58.53-99.93,7.21-152.03,4.2-47.3-2.73-94.69-3.38-141.99-6.01-41.74-2.33-74.18-5.95-115.99-2.04-16.46,1.54-35.31-3.72-53.91-3.88-24.23-.21-49.98-1.17-74.04-.06-6.51.3-13.91,3.9-20.14,4.02-11.31.22-26.48-6.33-37.8-6.12-8.6.16-19.25,5.23-28.12,6.04-12.31,1.13-22.76-2.26-34.01-2.13-45.79.55-94.83,9.74-141.63,7.38-10.21-.52-21.3-5.23-30.37-5.4-9.75-.18-18.32,3.06-29.77,1.95-6.74-.66-27.25-4.39-29.76-10.32l6.09-1494.91c4.24-9.12,15.54-2.63,23.38-2.49,39.67.71,79.84-2.32,120.19-2.17,17.43.07,29.91-1.66,45.84-2.02,12.65-.28,25.84,4.15,38.03,4.27,12.73.13,24.05-4.56,38.14-4.24,34.24.78,69.66,4.17,103.9,4.22,12.86.02,24.63-4.73,38.08-4.2s24.85,5.15,40,4.14c9.51-.63,18.01-4.33,27.96-4.22,11.7.13,25.65,6.12,35.97,6.13,6.44,0,14.61-3.52,21.93-4.04,7.87-.56,55.06,2.1,57.08.08l2-88.02c-12.71,1.41-26.84-6.21-38.91-6.05-7.1.09-16.29,3.82-24.02,4.13-21.03.85-43.18-1.42-64.06-.06-6.74.44-13.02,3.99-20.03,4.14-11.22.24-23.94-5.5-35.65-5.38-10.5.11-21.82,4.63-32.26,5.28-17.83,1.12-40.89-2.23-60.17-2.16-40.86.15-80.87,3.68-121.84,4.22-11.76.15-23.52-4.65-33.97-4.2-20.69.9-46.28,5.95-68.11,6.24-9.25.12-18.33-4.05-27.93-4.28-11.86-.29-22.56,3.9-33.97,4.21-21.3.57-40.57-7.72-62.31,1.71l-64.57-3.57c-1.26,1.07-4.36,28.57-4.37,32.74-.02,6.59,2.23,12.22,2.24,17.95.13,75.87-2.73,151.6,0,226-2.17,251.44-3.19,502.45-2,752,.43,90.21-1.06,180.55-1.99,270-.62,59.82,0,119.01-.17,178-.33,112.71,1.31,226.36-.33,338.09-.3,20.24-5.53,41-1.57,61.02,10.78-2.65,22.68,2.28,32.97,2.14,7.18-.1,14.82-3.57,22.05-4.12,24.58-1.89,52.83,4.37,76.01,4.12,9.27-.1,19.09-4.12,27.95-4.29,31.27-.62,62.54,2.2,93.94,2.05,18.56-.09,38.76,2.47,56.06,2.24,10.39-.14,19.83-4.67,32.11-4.25,13.79.46,24.72,5.01,40.01,4.18,11.07-.6,20.58-4.54,31.96-4.2,34.64,1.05,70.77,6.73,105.92,6.27,10.99-.14,22.99-6.54,34.01-6.32,10.3.21,23.13,6.21,34.02,6.32,69.3.68,139.45-4.61,208.01-.19,17.6,1.13,31.36-4.31,45.96-4.14,8.07.1,17.55,3.88,25.93,4.24,35.99,1.55,72.95.93,108.11-2.05,18.26-1.55,33.27,4.49,50.03,4.08,12.27-.3,22.42-4.68,36.04-4.2,9.11.32,17.89,3.14,26.89,4.08.33-11.65-.38-23.41-.07-35.07.64-24.04-.05-47.57.18-71.82,1.01-107.38-.71-215.21-.19-322,.27-54.69,2.67-109.84-1.71-163.88,2.98-142.6,3.53-284.12,1.71-426.29-.18-14.2-2.12-29.07-2.08-41.92.11-30.48,3.02-66.91,4.25-97.91,1.03-26.18-2.23-57.33-2.18-83.99.08-42.65-.58-86.06,2.18-128.02,3.06-46.55-3.04-93.37,0-140,.45-6.82.2-15.14-.1-22.05-2.52-58.24-.1-117.62.2-176.02.17-33.35-.56-66.38-.09-100.09.26-18.42-.29-37.23-.18-55.82.06-11.44,2.84-21.73,2.09-33.1ZM1682,399.8c-7.28-15.91-28.03-21.78-40.04-32.94-7.51-6.97-12.54-17-20.9-25.1-13.28-12.85-30.85-22.5-43.09-36.92-6.26-3.33-12.66,1.3-18.96,1.13-7.81-.21-15.02-2.37-24.09-2.24-8.36.12-17.81,3.87-26.92,2.06l2,92.02,172.01,1.97ZM1418,1091.82h42v-167.99c-3.74-.32-7.05,1.95-10.76,1.8-66.25-2.75-131.7-.52-198.33,2.27-10.21.43-23.2,2.02-31.91,2.06-13.52.07-26.51-7.81-41.97-.11l-3.03-12.01c9.11,1.09,17.74,2.72,27.08,2.04,64.07-4.63,128.96-2.55,193.89-4.07,12.63-.29,25.15.41,38.11.09,9.04-.22,19.15-3.87,28.93-2.09v-7.98c-9.79,1.51-19.77-3.28-29.02-3.59-10.47-.35-25.33,3.68-35.96,3.74-29.31.17-58.77-2.66-88.05-2.3-10.4.13-18.65,4.61-30.04,4.25-15.12-.47-25.14-2.17-41.86-2.03-20.53.18-41.78-1.88-61.84,2.06-8.57-20.01-1.97-12.41,9.66-12.04,46.24,1.46,92.49-1.83,138.01-2.17,35.27-.27,78.18,2.29,112.16.14,9.09-.57,17.68-4.47,26.9-4.08l1.92-437.89c-9.02-.24-17.88-4.36-26.89-4.26-10.57.13-24.21,6.09-34.01,6.14-12.39.06-26.49-3.67-41.92-3.88-30.81-.42-59.96-1-90-.02-45.64,1.5-90.92-2.18-136.08-2.2-18.95-.01-29.38-.71-47.93-1.94-17.42-1.16-35.54,3.17-54.04,2.03-31.74-1.94-58.67.56-90.01.19-5.89-.07-23.75-6.09-26.8-3.94l-3.23,9.98-5.01.83c5.47,19.76-2.09,40.2,4.2,59.97-1.8,105.96,2.62,212.26,1.74,317.92-.19,23.02.32,46.09.07,69.09,36.42-1.34,72.71-3.93,109.09-4.09,21.01-.1,47.04,1.77,67.99.15,7.1-.55,13.91-3.98,20.02-4.14,3.03-.08,23.32,3.1,25.41,4.08,2.46,1.15,1.56,3.45,3.45,5-.04,2.03-24.19,6.72-27.16,6.78-7.29.15-15.55-3.98-23.8-3.97-37.31.07-74.6.42-111.9.11-20.9-.17-41.93.54-62.86.3-2.23,3.22-1.7,19.41.91,19.9,4.71,1.18,10.17-1.99,14.08-1.92,57.72.91,116.1-2.16,173.78-2.07,10.19.02,19.19-3.08,30.09-2.12,3.67.32,5.01-1.76,4.95,3.01-.16,13.45-24.16,4.7-33.03,4.81-54.58.65-107.87,1.45-162.01,2.01-8.25.08-17.9,4.07-27.01,2.17,4.64,15.57-1.24,28.29-2.07,42.92-1.07,19.13,2.1,42.6,2.17,61.98.36,101.54-2.29,203.39-.19,304.19.22,10.38,4.28,21.78,4.28,31.9,0,8.43-2.58,20.49-4.19,28.98l222.01-3.97c-2.21-13.24,3.6-26.34,4.07-38.93.3-8.01-2.29-15.32-1.97-21.8.42-8.7,6.64-21.08,7.69-30.49,5.45-49.16,6.93-98.89,12.23-147.77.91-8.39,5.63-55.69,8.46-58.54l41.54-4.46c.43-14.61.13-32.2,2.5-46.5,2.18-13.14,24.04-65.92,32.47-75.53,32.77-37.36,71.28-51.04,117.66-27.62,33.76,17.05,47.71,66.4,53.12,100.88,2.28,14.53,2.32,30.06,2.24,44.76ZM1727.99,451.84c-3.08-.56-6.2,1.76-8.98,1.61-21.04-1.12-47.43-4.06-68-3.78-10.56.14-23.7,6.5-33.94,6.23-7.87-.21-17.59-5.25-26.1-6.05-19.24-1.8-47.74,2.08-67.99,2.17-4.47.02-8.53-2.33-12.99-2.18-.12,15.66.09,31.38.07,47.07-.03,21.79-.33,43.93-.18,65.82.32,45.17-.4,89.53-.08,134.1.31,43.69,3.65,88.63,2.26,132.08-.29,9-4.24,17.81-4.23,25.91,0,10.78,6.19,23.72,6.23,34.91l43.82,1.99c4.63-17.93,2.23-45.79,27.44-34.24,16.3,7.47,15.24,18.07,14.64,34.35,12.4,3,26.07-3.87,37.02-3.99,10.37-.11,21.92,4.63,34.06,4.05,8.75-.42,17.08-4.24,25.93-4.25,9.48,0,19.43,4.08,28.99,4.18l2-439.99ZM1723.99,899.82c-1.12-1.18-22.72,4.12-27,4.17-9.12.11-19.07-4.11-27.97-4.3-9.98-.22-18.51,3.75-27.95,4.21-13.4.64-27.29-3.95-41.08-2.07l1.87,11.13c5.15,3.64,21.78-3.28,29.14-3.27,6.78,0,14.1,3.81,20.2,3.93,10.23.2,27.72-3.66,39.72-3.88,5.77-.11,31.13,2.49,32.8-.21l.27-9.7ZM1512,913.82h48l-.22-9.79c-16.21-5.9-31.44,1.97-47.79,1.81v7.98ZM1558,921.82h-45l-1.01,472.01c9,1.98,18.94-2.21,27.01-2.18,46.09.18,92.06.5,137.92.07,15.01-.14,30.07.32,45.06.08,3.4-11.19.07-20.86-.06-30.9-.6-44.66-1.94-91.47,0-136.16.36-8.34,4.24-17.97,4.23-25.92-.02-10.8-6.31-24.88-6.3-36,0-7.17,3.7-14.88,4.12-22.04,3.8-65.23.07-133.18-.12-197.93-.03-8.75,5.08-18.2-1.18-25.1l-122.65,2.09c-3.43,34.25-3.67,68.64-4.1,103.06-.51,41.48-.5,84.1,0,126,.1,8.02,3.09,14.29,1.9,23.76-2.5,19.89-10.2,28.73-30.91,27.29-19.79-1.37-11.04-24.81-10.82-37.05,1.17-66.34.36-132.67,1.82-198.01.13-5.97,1.88-41.27.1-43.08ZM1409.78,1091.61c.17-17.99-5.27-35.24-7.75-52.81-.88-6.25.67-13.28-.21-19.79-2.81-20.78-34.96-58.4-53.15-68.85-12.71-7.3-36.45-3.25-50.62.72-45.07,12.63-47.46,38.53-69.03,74.97l-15.03,71.98,17.91-.11c3.11-22.58,6.84-50.24,19.27-69.72,5.87-9.19,29.35-36.04,39.17-38.83,13.92-3.96,33.71-4.39,46.72,2.59,5.9,3.16,27.36,20.81,31.95,26.05,16.59,18.94,19.56,53.69,20.99,78.02l19.77-4.22ZM1381.99,1095.82c-5.72-25.68-8.56-56.28-25.11-77.87-6.36-8.31-35.49-18.33-45.88-18.29-8.21.03-35.54,9.59-41.03,15.69-1.69,1.88-25.24,40.98-26.07,43.37-3.73,10.69-2.5,26-7.9,37.08,7.19,1.04,13.9-2.23,20.99-2.15,8.18.09,20.1,4.26,28,4.16,9.04-.11,20.99-5.76,30.13-6.05,7.75-.25,16.96,2.09,25.99,2.15,13.52.08,26.5-4.17,40.88,1.91ZM1721.98,1399.84l-209.99,1.97.02,12c24.11-3.11,48.55.22,73.07.1,16.86-.08,38.75-4.08,53.71-3.87,7.96.11,16.98,4.05,26.24,3.93,8.97-.12,17.74-4.29,25.98-4.3,5.96,0,31.29,8.2,32.47,1.24l-1.5-11.07ZM1460.01,1403.82c-9.22,1.7-18.34-2.2-27.01-2.18-96.02.27-193.51,3.54-287.92,4.1-68.08.4-136.31-.02-204.08.08-6.82.01-14.43,4.74-22.09.5l-2.63,2.77c-.69,3.15-1.38,11.48,2.87,12.46,6.82-1.1,14.92-1.86,21.81-1.9,112.68-.54,226.72-3.13,340.12-3.92,34.49-.24,70.67-1.77,105.84-1.99,17.33-.11,34.85-.4,52.16,0,7.1.16,13.49,4.42,20.63-.21l.3-9.71ZM1722,1419.82c-9.91-.32-19.06,3.9-28.93,4.12-49.25,1.1-98.54-1.46-148.15-.2-10.26.26-19.73,4.45-30.91.08-5.07,13.94.08,27.73.15,40.97.31,57.98-2.21,115.81-.07,173.95.23,6.3-1.87,33.3-.27,35.7,11.88,8.91,26.27,14.11,38.83,21.74,25.94,15.77,59.89,40.23,86.71,53.29,7.81,3.8,15.72,4.25,23.32,8.68,9.96,5.79,19.31,18.3,29.91,24.09,8.01,4.37,17.18,5.8,25.39,9.59l4.02-372.01ZM1460.01,1423.81l-542,2.02,1.99,424,46.99-3.99c112.66,5.22,225.19,2.93,338.11,3.89,18.87.16,35.56-2.06,51.9-2.05,11.07,0,24.09,6.13,35.97,6.3,14.05.19,26.85-5.17,42.1-4.21,22.23,1.39,43.48,3.54,66,4.15,12.41.34,29.16,2.43,39.93,2.04,10.21-.37,21.81-6.32,31.99-6.28s21.34,5.72,31.93,6.22c22.36,1.05,49.65-2.68,72.2-2.2,4.07.09,7.02,1.99,10.87,2.11-7.18-5.86-15-15.78-22.12-20.85-18.43-13.13-46.74-25.01-66.92-39.08-8.44-5.88-13.79-13.74-21.08-18.92-8.59-6.11-21.34-9.72-30.52-15.48-10.06-6.31-19.35-17.41-28.69-23.31-16.68-10.55-37.34-19.36-53.67-32.33-15.83-12.57-4.89-31.38-4.85-48.97.15-63.81-2.97-128.25-2.24-192.11.07-6.13,4.59-38.44,2.09-40.93Z"/>
  <path d="M1442.6,792.4c3.03-2.57,5.79-1.7,9.25-.42.04,21.55-29.7,45.8-50.84,45.83-17.95.03-27.12-12.84-36.63-25.36-25.9-34.08-31.81-58.21-44.98-97.04-.71-2.1-.44-6.05-3.37-5.58.13,11.44-6.5,22.26-7.8,33.21-.86,7.22.6,14.79-.24,21.76-2.48,20.6-17.06,80.33-28.02,95.98-19.34,27.63-38.72,37.43-71.31,21.4-7.04-3.46-31.58-22.55-37.62-28.38-13.95-13.47-20.72-37.59-37-49.98l27.82,79.19c-5.54,44.91,12.78,80.65-28.89,112.76-31.23,24.07-41.42-4.92-70.95-11.93l42.83,50.15c16.63,25.69,26.2,39.91,23.41,71.08-.37,4.19,3.99,12.68-4.25,13.78-4.2-2.39.39-12.7-.07-17.77-1.34-14.73-25.11-58.52-34.26-71.92-12.1-17.72-44.36-39.29-59.72-58.28-3.71-4.59-10.18-11.78-.51-14.68,14.88-4.46,34.44,18.49,49.49,23.7,9.72,3.37,34.09,7.09,44.12,5.97,22.41-2.51,31.72-48.65,31.05-67.09-.41-11.26-9.06-56.83-12.54-67.51-11.71-35.92-31.61-71.9-41.75-108.44l2.05-6.13,7.8-.48c5.53,15.94,17.9,27.58,25.94,41.02,4.93,8.26,7.36,17.58,12.06,25.94,7.93,14.09,51.33,59.73,65.58,66.42,17.34,8.14,34.52,9.77,49.85-3.66l26.74-61.26c4.98-34.36,9.8-73.19,17.15-106.85,1.46-6.67,4.57-29.4,14.09-18.11,6.45,7.65,7.88,37.34,11.91,50.15,8.78,27.9,39.23,83.81,67.91,94.08,22.86,8.18,28.9-20.67,41.71-31.52Z"/>
</svg>