<?xml version="1.0" encoding="UTF-8"?>
<svg id="Calque_1" data-name="Calque 1" xmlns="http://www.w3.org/2000/svg" viewBox="0 0 2732 2500">
  <path d="M1866.35,2205.46c-16.03,2.33-32.33,5.54-48.65,4.25-26.07-2.06-35.37-.42-59.89.13-12.21.27-21.02-3.56-31.99-4.16-11.47-.62-22.34,2.14-34.16,2.15-93.74.08-186.96-2.57-281.66-2.1-26.56-3.15-53.41-.17-80,1.98-17.27,1.39-27.83-5.45-41.94-5.54-7.19-.04-16.77,3.69-23.99,3.75-18.99.14-42.83-3.92-61.93-2.15-7.54.7-13.91,4.27-21.99,4.13-11.33-.19-24.2-6.33-35.98-6.33s-25.15,6.2-35.97,6.15c-8.69-.04-20.57-5.23-29.99-5.56-31.22-1.1-64.51,1.77-95.84,1.67-36.03-.11-70.92-2.35-106.03-.12-23.53,1.49-46.79-2.66-69.85-4.03-14.75-.87-31.55,7.64-44.02-3.8-1.16-2.57,2.62-18.62,2.58-23.13-2.39-263.79-2.55-529.28-1.5-794.1,1.06-268.59-1.15-538.25,1.99-807.99-2.18-79,1.8-159.68.01-240.01-.17-7.86-6.24-25.77,1.89-30,6.19-3.22,7.38,3.43,11.4,4.69,10.43,3.27,21.95-3.46,31.59-3.58,21.18-.27,44.75,2.96,66.03,2.06,8.75-.37,19.52-4.22,27.89-4.24,9.5-.02,22.15,4.47,31.95,4.33,19.45-.28,39.95-4.27,62.06-4.07,41.04.37,82.06-2.53,123.91-2.17,39.41.34,78.6-.96,117.76-3.98,15.4-1.19,28.6,4.26,42.04,4.23,11.39-.03,24.18-5.91,35.92-6.27,13.49-.41,28.52,2.04,43.94,2.03,21.97-.02,44.5,2.28,66.02,2.24,9.39-.02,19.81-5.57,29.91-6.22,13.84-.89,25.37,4.11,38.02,4.22,44.39.38,90.83-4.1,136.01-4.24,17.66-.06,29.79-3.73,43.99-3.98,14.52-.26,29.25,5.35,45.83,4.03,20.09-1.59,29.48-2.08,49.91-1.88,12.49.12,90.47-3.47,94.14,1.79-.3,12.02,2.87,25.61,2.99,37.06.15,13.34-.14,26.69-.04,39.99.33,42.48.21,84.21-.17,126.19-.38,41.71-.21,83.56,0,125.98.62,118.84.17,238.06,0,358,0,4.32,2.16,8.32,2.16,12.01-.12,84.14-3.7,167.61-3.32,252.24.07,14.58,3.92,28.87,3.32,43.75-.37,9.22-4.2,21.05-4.25,29.92-.05,9.45,3.84,20.39,4.25,29.9.81,18.84-2.28,39.11-1.99,60.01.84,60.63.11,121.15-.18,182.18-.29,60.07-.14,121.08.18,181.99.5,95.83-.32,193,.01,290.01.1,28.07-.39,51.66-2.15,79.83-1.34,21.38,6.33,45.04-.22,66.8ZM1862.63,297.75c-17.44,3.36-35.23,1.45-52.93,2.01-18.13.57-35.86,3.03-53.9,4.05-15.15.85-27.28-4.22-40.06-4.23-12.13-.01-28.12,6.32-39.97,6.32-8.58,0-18.63-4.12-27.91-4.28-14.56-.25-31.67,4.19-46,4.28-34.89.2-73.41-3.85-108.02-2.23-10.66.5-21.98,6.02-31.91,6.22-11.04.22-23.02-6.35-33.87-6.21-7.1.09-16.27,3.82-24,4.13-21.14.86-42.95-1.32-64.01-.06-6.71.4-13.02,4-20.02,4.14-11.65.24-25.74-5.63-37.62-5.39-9.59.19-20.36,4.68-30.23,5.29-17.91,1.12-40.78-2.28-60.13-2.16-35.6.23-70.03,1.37-105.91,2.01-18.2.33-32.29-2.09-47.88-2.07-19.96.02-48.37,6.12-69.96,6.32-9.68.09-20.07-4.22-29.94-4.33-10.84-.12-21.15,3.96-31.91,4.25-21.77.59-41.82-7.46-64.27,1.69l-64.73-3.8-5.71,1875.73,1086.78,3.01c-4.41-19.29,1.67-38.22.21-57.8-2.79-37.54.29-71.76.01-110.01-.44-59.85.01-118.65.1-177.92.21-140.4-3.04-281.49-.1-422.09.49-23.21-1.09-42.82-2.17-65.83-1.51-32.41,2.06-72.74,2.18-105.99.44-119.14,1.13-237.35-.18-356.18-.19-17.05-2.73-36.2-1.99-52.02,1.77-37.97,2.44-75.36,2.16-113.98-.15-20.21,2.1-37.73,2.1-55.92,0-12.24-4.59-24.78-4.28-38.1,2.14-91.74,1.64-184.14,4.07-275.92.56-21.05-1.3-42.15,2.01-62.97Z"/>
  <path d="M1776.23,1909.24c-5.58,5.43-14.49.1-20.52.32-23.17.84-46.58,3.51-69.86,4.26-45.46,1.46-88.16,2.25-133.95-.12-57.97-2.99-117.56-10.61-175.82-12.05-16.16-.4-29.2,5.63-45.84,3.87-36.45-3.86-70.57-5.38-108.2-3.86-8.27.33-17.94,4.29-25.8,4.13-9.95-.2-23.41-6.24-33.98-6.12-9.24.11-20.84,5.2-30.1,6.04-11.78,1.07-21.59-2.21-31.95-2.16-14.35.08-33.22,5.95-48.01,6.18-25.24.39-50.82.35-75.81-.07-21.15-.36-41.32-1.95-62.07-1.95-9.21,0-41.81-1.32-46.03-10.02-.8-1.64-1.1-19.83-1.03-23.02,1.76-81.23-.37-164.63-.05-245.93.07-18.75-2.01-35.28-2.01-52.01,0-16.6,2.13-33.29,2.09-51.9-.16-65.45,2.13-130.69,2.17-196,.18-278.87-.71-559.31,3.17-838.43.28-20.24-2.04-41.62-1.06-61.46.45-9.24,1.88-21.65,3.68-30.33,10.94-1.25,21.91,1.09,33.2,1.2,36.62.35,74.45-2.25,111.91-2.16,16.49.04,31.23-2.28,45.95-2.04,12.26.19,25.35,4.52,37.97,4.24,11.54-.26,21.34-4.48,34-4.21,34.18.71,74.21,5.32,107.92,4.19,10.29-.35,19.36-4.21,29.89-4.22,14.09,0,26.78,4.82,42.07,4.21,10.72-.42,21.2-4.39,31.9-4.24,11.36.16,23.79,6.01,34.05,6.2,16.49.31,40.65-4.29,59.77-4.16,54.33.38,115.41-3.09,168.04.03,37.8,2.24,75.59,1.28,113.76,2.16,8.28.19,42.15-1.91,46.16,3.8-.07,10.84,2.52,22.67,2.96,33.03,3.28,77.78.59,157.27,2.02,236.17.44,24.37-2.06,48.39-2.25,71.89-.13,16.65,2.13,33.52,2.07,51.95-.12,39.2,1.12,77.4,2.18,115.99.44,16.07-1.89,34.51-2,52-.24,38.73-.06,77.45,0,116.17.21,148.08-.41,297.62-.19,445.84.05,40.73.3,81.45,0,122.17-.57,77.24-.16,156.27,2.22,233.83.11,3.56-.97,25-2.59,26.58ZM1726.72,451.74c-3.02.19-5.63,1.96-8.75,1.83-20.62-.85-45.88-4.2-66.17-4-10.71.11-24.12,6.4-33.89,6.22-9.14-.17-20.16-5.43-29.99-6.11-10.32-.72-18.64,2.07-27.95,2.15-19.21.17-41.52-3.15-60.14-2.15-8.76.47-17.05,4.25-25.9,4.23-11.77-.02-23.88-6.34-35.98-6.35-11.62,0-25.61,6.15-35.97,6.15-12.22,0-26.42-3.66-41.89-3.88-30.23-.41-58.53-1.28-87.94-.03-45.47,1.94-92.38-2.7-138-2.23-18.76.19-27.77-.71-45.86-1.91-45.87-3.05-97.95,2.71-143.95,2.23-6.98-.07-22.4-6.48-27.06-3.25-2.7,1.88-7.17,16.8-7.5,20.71-1.14,13.75,1.6,30.01,1.65,43.3.45,116.07,3.37,232.99,4,348,.08,15.03-.22,30.09-.09,45.09,36.4-1.93,72.62-3.25,109.01-4.1,21.99-.51,45.58,1.89,67.94.16,7.1-.55,13.87-3.97,20-4.13,8.08-.22,17.05,4.24,25.9,4.24,15.47,0,30.1-2.24,47.88-2.09,46.53.37,92.09-2.05,137.9-2.16,35.19-.08,75.83,1.8,110.09.15,7.73-.37,16.79-3.99,23.91-4.06,8.64-.08,20.74,4.16,29.96,4.17,15.43.01,30.11-2.25,47.89-2.1,33.75.29,67.23-3.5,100.11-4.14,7.87-.15,17.53,3.8,25.8,4.13,20.6.83,41.08-8.59,62.99-.08l2.02-439.99ZM1724.73,899.74c-1.07-1.13-24.38,4.18-28.96,4.16-8.69-.03-18.81-4.35-27.98-4.35-30.75,0-65.81,5.88-98.01,2.09-74.05,3.83-149.13,2.44-223.73,1.95-21.02-.14-44.28,3.94-63.95,4.29-10.56.18-20.07-4.45-30-4.31-35.53.47-68.28,4.01-103.86,2.1-23.29-1.25-53.55,2.22-77.92,2.16-30.67-.08-61.46-1.87-91.94-2.16-21.63-.21-43.38.73-65.05.06.39,4.23-.6,9.02-.09,13.11,1.56,12.51,9.54,4.69,17.08,4.89,45.12,1.21,94.6-.38,139.89-1.81,58.92-1.87,119.66-3.72,177.8-4.27,87.9-.82,176.45-3.88,263.81-3.83,53.37.03,106.08-2.41,157.97-4.08,6.82-.22,14.66.02,21.9-.09,5.53-.09,31.13,2.46,32.77-.21l.27-9.7ZM1418.96,1091.74h45.97l35.96,302.01,220.98-3.88,2.88-472.14-809.41,14.02,2,469.99c7.76-2.27,15.42.47,22.98.19,56.17-2.1,113.62-2.34,169.79-4.27,9.66-.33,19.43.4,29.07.09,2.21-20.54-.19-45.08,1.97-65.03,5.4-49.69,12.38-101.03,17.8-150.19,2.99-27.11,4.99-54.37,8.12-81.45.97-4.44,35.72-4.16,42.05-5.33.43-5.49-.72-11.61,0-17,4.22-31.29,12.04-59.55,25.61-88.37,6.31-13.4,38.31-45.95,51.84-50.12,43.96-13.56,83.4-.71,108.45,38.43,13.24,20.69,21.54,70.91,23.92,96.06.53,5.61-.28,11.38.02,16.98ZM1388.99,1095.74c16.25-2.29,21.07,1.43,19.95-16.98-3.18-52.21-11.49-95.61-57.26-126.69-12.73-8.64-26.81-6.69-41.43-4.11-9.8,1.73-40.1,12.63-46.99,18.97-4.77,4.39-32.15,52.72-34.27,59.71l-15.89,71.1,19.11-1.87c3.11-18.03,5.74-40.27,12.82-57.17,4.53-10.81,34.02-46.01,44.55-49.42,10.93-3.53,30.55-4.36,41.39-.49,10.26,3.66,37.77,26.96,43.69,36.28,11.01,17.32,14.83,50.43,14.32,70.68ZM1354.41,1014.35c-4.82-4.35-33.32-14.44-40.34-14.75-8.86-.39-33.78,7.92-40.88,13.25-2.78,2.09-26.65,39.44-28.21,43.77-3.92,10.86-4.57,27.39-7.87,39.1,7.29.26,13.54-2.26,21-2.13,8.47.14,19.63,4.42,27.86,4.22s20.83-5.93,30.19-6.14c7.51-.17,15.41,2.14,23.96,2.16,13.21.03,27-4.4,40.85,1.9,1.29-1.8-5.97-38.92-7.34-43.63-1.64-5.62-15.77-34.64-19.22-37.76ZM1722.75,1413.74l-.88-12.14c-2.19-3.19-55.27-2.01-64.16-1.95-43.58.28-88.26,1.53-131.74,1.99-127.48,1.34-256.2,3.07-381.72,4.01-68.29.51-135.97.37-203.84,0-6.16-.03-13.12,4.75-20.17.57-4.24.69-3.69,15.52-1.88,15.54,11.24-1.53,22.88-3.06,33.95-.03,209.68-6.71,420.78-7.5,631.62-7.91,17.07-.03,38.26-3.85,53.67-3.87,7.63,0,17.85,3.96,26.19,3.96,8.92,0,17.57-4.19,26-4.34,10.83-.19,21.74,5.78,32.97,4.16ZM1722.74,1419.73c-9.94-1.04-19.21,3.61-28.91,4.07-76.83,3.7-159.24-2.62-235.82-.15-152.18,3.53-304.42.3-455.85,4.17l-82.85-2.1,2.02,424.01,46.74-3.8c112.73,4.8,225.12,2.85,338.06,3.7,8.66.07,16.37,2.64,25.98,2.17,9.25-.45,17.22-4.41,25.88-4.23,10.91.23,23.86,6.18,35.95,6.31s23.86-5.16,36.02-5.02c9.77.11,18.86,4.68,27.96,5,16.09.55,37.78-2.46,53.97-2.12,7.77.16,18.12,4.08,25.99,4.16,11.48.12,23.29-6.1,33.98-6.32s22.65,5.69,33.89,6.22c26.57,1.25,58.79.1,86.01.12,8.16,0,16.38-3.66,24.97-2.2l6.01-434Z"/>
  <path d="M980.54,970.4c28.3-2.06,19.85,37.59,20.65,56.42,1.86,44.01,3.13,100.2-1.95,143.89-2.07,17.83-4.93,47.5-29.78,33.87-10.12-5.55-5.24-21.54-6.18-31.81-2.4-26.28-.21-27.8,2.01-52.04,3.77-41.15-1.6-88.9,2.05-129.95.85-9.5,1.74-19.53,13.21-20.37Z"/>
</svg>