<?xml version="1.0" encoding="UTF-8"?>
<svg id="Calque_1" data-name="Calque 1" xmlns="http://www.w3.org/2000/svg" viewBox="0 0 1605 1605">
  <path d="M1038.98,551.33c22.1,1.43,37.07,26.38,49.19,41.35,12.12,14.97-2.85,51.33-2.85,51.33l-21.39,23.52-60.57,300.83-25.65,125.85c-13.59.18-27.27-.15-40.9.1-11.93.22-23.99,1.68-35.91,2.09-8.27.28-15.71-2.79-23.16-2.94-7.18-.14-16.4,2.79-23.84,2.95-6.09.12-10.44-1.67-16.01-2.08-11.4-.84-25.98,1.05-38.08,1.08-20.84.05-45.66-2.69-65.99-1.08-5.32.42-11.11,3.01-15.97,3.11-6.69.14-14.95-4.14-22-4.16-8.91-.02-15.61,1.43-26,.99-3.32-.14-5.44,2.13-9.26.35s-4.92-15.63-6.51-20.49c-4.63-14.1-5.26-19.58-8.18-33.82-1.87-9.12-7.41-17.03-9.1-25.9-3.21-16.76-7.75-30.81-11.19-46.81-6.13-28.46-13.94-57.33-21.51-85.49-6.17-22.95-10.46-46.01-16-69-2.09-8.68-6.58-17.16-6.17-26.77-2.54-3.05-20.12-.81-25.12-.94s-17.4-.39-21.73-1.27c-7.23-1.47-13.89-10.13-16.2-16.8-9.78-28.24-9.54-49.96,4.3-76.65,4.69-9.04,16.67-18.58,26.37-21.63,8.62-2.71,17.65-1.69,25.27-7.73,9.59-7.6,2.68-10.72-.25-19.69-5.73-17.59,0-45.65,15.28-57.28,3.8-2.89,22.05-13.36,26.08-13.91,4.65-.63,22.73.34,27.92.9,4.15.45,8.44,3.48,11.21,3.81s7.55-1.36,11.25.17c.93-4.72,1.53-9.72,3.26-14.25,2.49-6.53,20-22.8,26.25-26.75,7.43-4.69,21.23-10.28,29.96-8.92,4.56.71,18.42,4.87,23.56,6.43,11.73,3.56,22.59,15.02,35.41,13.41,9.44-1.18,12.09-10.21,18.06-15.94,9.03-8.66,24.99-17.52,36.97-21.02,6.06-1.77,5.13.1,9.32.78,16.47,2.69,36.95,3.07,48.75,15.25,10.19,10.52,17.27,21.47,20.19,36.03,10.65,4.47,17.6-5.66,25.86-6.95,5.4-.85,12.26.43,17.92-.08,4.4-.39,8.99-2.44,13.12-2.88,3.22-.35,9.73.22,14.71-.5,11.59-1.68,23.35-1.48,34.97-.02,4.57.58,9.42,1.07,14.35,1.39ZM836.7,847.01c8.06,7.01,50.33,13.47,62.17,14.33,25.85,1.88,70.74-13.7,93.5-26.47,7.6-4.26,12.19-10.81,18.5-16.5,5.56-5,17.56-11.98,20.04-19.96,1.22-3.92,0-9,.68-13.32,1.41-9.05,8.98-18.56,7.53-28.99-1.71-12.32-15.11-35.32-23.77-44.24-2.95-3.04-8.49-5.29-11.91-8.09-5.59-4.58-14.86-14.72-4.37-19.2,22.32-9.55,47.18-10.2,65.76-27.24,7.05-6.47,17.28-18.88,18.42-28.58.92-7.82,1.63-21.24-1.39-28.39-2.69-6.36-21.77-26.68-27.83-30.17-22.63-13-59.62-14.2-85.15-11.82-9.42.88-16.63,6.46-24.25,7.75-4.81.81-10.03-.29-14.77.23-5.61.61-12.75,6.52-16.72-.27-2.46-4.22-3.77-13.58-6.6-19.4-6.42-13.2-8.83-10.33-19.11-16.89-16.62-10.61-13.99-13.21-36.57-12.45-4.05.14-10.63.68-14.99,1.02-13,1.01-23.32,15.12-32.58,22.42-2.57,2.03-6.86,4.1-9.85,6.15-7.19,4.93-9,10.56-19.63,6.46-23.44-9.03-36.58-26.85-64.42-17.51-4.57,1.53-24.49,13.21-27.44,16.56-3.39,3.84-12.5,16.79-12.65,21.46-.24,7.55,6.6,6.28,10.78,8.23s8.38,6.4,12.6,8.4c5.89,2.79,12.54,3.05,18.38,6.62,4.21,2.58,7.71,7.31,12.82,9.18,2.61-4,9.6-11.98,13.52-14.45,1.66-1.04,26.98-7.56,29.46-7.62,9.29-.24,14.96,5.16,19.91,12.17,3.55,5.04,7.51,11.53,6.6,17.9,3.55.68,5.83-7.58,7.51-7.99,7.07,3.04-3.64,13.32-7.03,15.98-15.1,11.79-21.29,5.13-36.47,1.51-11.98-2.85-18.65-2.59-30.34-8.66s-24.33-15.67-34.99-21.01c-6.73-3.37-15.15-3.97-20.2-10.81l-2.97,2.98c-3.07-7.06-2.8-3.35-6.89-4.01-15.38-2.48-28.6-2.55-44.14-1-6.82.68-11.6-1.47-17.99,3.01-4.18,2.93-18.59,23.13-20.89,28.11-3.11,6.76-.08,14.25,1.68,21.11,2.72,10.57,13.3,26.53.11,32.68-21.62,10.07-40.77,12.65-55.37,33.63-6.43,9.23-8.26,36.62-5.75,47.7,1.38,6.11,13.47,27.77,18.98,30.02,7.64,3.12,14.51-2.9,21.49-4,8.94-1.41,22.58,4.73,31.24,8.28,10.73,4.39,22.03,11.95,32.03,15.97,6.41,2.58,13.16,2.43,19.68,5.32,6.57,2.91,11.64,8.41,18.79,11.21,32.42,12.71,58.07,13.18,89.73-2.31,6.46-3.16,12.32-8.58,18.49-12.51,4.69-2.99,11.26-4.71,15.34-8.66,5.16-4.99,15.64-33.25,14.91-39.93-.37-3.45-4.19-7.68,1.52-9.59,11.91,15,3.33,35.72-8.13,48.47,1.98,4.62,2.28,10.13,3.93,14.74,4.62,12.95,20.29,23.87,30.25,32.75,3.12,2.78,6.19,7.4,8.82,9.68ZM1042.35,736.35l14-64c-16.3,11.28-32.2,16.2-51.99,18.01,5.07,4.72,7.89,12.11,12.46,17.03,3.44,3.7,8.85,6.23,12.51,10.49,4.3,4.99,6.85,12.23,10.73,17.22.64.82-.02,1.82,2.28,1.26ZM626.06,805.65c-6.57-3.92-14.29-5.21-21.37-8.12-5.85-2.41-13.09-7.34-18.85-9.16-1.27-.4-1.87,0-1.35,1.34l78.56,295.41,1.06,1.22c6.67,1.88,13.35-.84,20.25,0-2.46-7.85-1.75-16.18-3.27-24.22-1.66-8.75-6.84-17.16-8.49-25.51-1.06-5.35-.46-12.46-1.34-17.66-5.5-32.6-15.62-65.52-21.78-98.22-2.65-14.08-5.63-27.37-8.58-41.42-3.9-18.59-5.73-37.66-9.79-56.21-1.3-5.92-4-11.46-5.05-17.46ZM834.36,1087.36c.64-7.97-3.29-15.77-3.99-23.52-1.25-13.89,2.79-28.69-2.01-42.99-1.89-49.11-8.01-97.05-8.05-145.95,0-10.02-.44-20.09,1.06-29.99-10.4-12.31-23.12-21.31-30.56-36.52-1.68-3.43-1.86-7.02-3.96-10.02-7.77,11.95-21.57,15.86-34.38,20.1-.95,4.43,2.07,8.15,3.03,12.23,7.21,30.68,10.61,63.9,15.95,95.05,6.44,37.61,14.64,75.1,21.44,112.56,1.63,8.96,5.2,39.97,9.56,45.44.46.58.73,1.27,1.57,1.43l30.34,2.17ZM734.35,1087.35c-1.05-4.59-2.92-9.09-3.74-13.74-6-33.8-14.77-65.24-18.37-99.63-.79-7.57-4.89-15.3-5.8-22.2-4.13-31.52-7.73-63.29-12.18-94.82l-5.09-24.91c-1.01-2.76-14.89-5.06-18.6-6.4-3.02-1.09-5.43-3.13-8.69-4.31-10.51-3.81-21.36-4.15-30.51-10.98.5,8.45,4.81,15.78,6.53,23.96,7.12,33.85,14.66,67.57,21.74,101.26,5.68,27.01,10.48,58.96,17.78,85.22,1.15,4.14,3.75,8.16,4.69,12.31,1.75,7.65,1.06,16.66,2.51,24.49s5.94,15.69,8.29,23.71c.66,2.26-.26,6.13,2.09,6.93,4.01,1.36,16.02-3.95,21.86-3.97s11.57,2.9,17.49,3.08ZM1027.36,816.36l-14.67,13.82-37.14,22.86c-1.14,5.25-1.43,11.41-2.47,16.53-4.18,20.68-4.17,39.34-4.72,60.28-.16,6.04-2.26,13.78-2.99,20.01-4.48,38.05-8.08,76.66-9.97,115.03-.16,3.18-3.16,20.36-2.05,21.46l21.06.36,52.95-270.36ZM749.35,821.35c-.8-.72-16.83,7.87-19.71,8.78-6.93,2.21-20.52,3.7-27.82,3.25-3.88-.24-7.58-2.12-11.45-1.54,5.25,7.36,4.54,17.57,6.23,25.77,7.54,36.62,14.95,74.07,18.89,111.11.83,7.83,5.57,14.48,6.64,21.36.74,4.78-.14,9.81.36,14.64,1.53,14.74,7,35.71,10.15,50.85,2.39,11.47,8.22,20.56,9.73,31.78l53-1.01c-2.44-19.99-11.03-39.03-10.13-59.37-14.06-58.17-21.5-117.66-31.6-176.4-1.67-9.69-2.92-19.49-4.29-29.22ZM877.34,868.39l-25.98-6.54c-8.69-6.64-17.88-11.41-28-15.49l2,23.49c-2.74,20.63,2.01,41.8,3.99,62.01.69,7-.55,14.75.13,21.87.61,6.34,3.78,13.85,3.94,20.12.58,21.69-.18,44.25,1.94,66,.66,6.79,4.33,14.24,4.98,21.02.82,8.52-1.81,16.97-.99,25.49,14.28-3.49,28.55,2.03,42.53,1.03,5.48-.39,11.85-3.1,16.97-3.11,6.85-.01,14.26,6.3,15.41-3.53,1.03-8.76-2.62-21.22-1.95-30.93.81-11.67,2.38-23.16,3.08-34.92,2.6-44.13.95-88.5,6.85-132.15.63-4.64-.43-9.62,1.1-14.39-14.82-1.79-29.48,4.44-43.99,1,.18,5.95-.97,11.58-1.05,17.55-.21,14.97,1.05,30.74,1.08,45.91.05,22.52-2.07,44.8-2.08,67,0,19.84.75,37.29,0,57-.28,7.46,1.28,19.43.02,26.02-.32,1.68-1.22,2.52-2.49,3.52-2.56.54-3.04-5.21-3.11-6.66-.93-21.17-.91-42.89-.43-63.79.76-33.17,2.38-66.15,3-99,.24-12.76.24-25.64,1.25-38.04.16-1.9,2.14-9.95,1.77-10.46ZM919.36,1086.35h27c1.61-7.07.34-14.45,1.01-21.49s3.37-14.31,3.97-21.03c1.06-11.85.82-23.56,2-36,3.89-40.96,8-82.37,13-123,.43-3.47-.29-7.24.14-10.86.8-6.66,4.14-12.91,4.37-19.63-13.72,8.29-29.65,8.74-44.55,13.61,1.36,5.37-1.9,11.12-1.97,15.95-.31,23.23-.96,46.65-1.01,69.89-.03,13.2-.86,26.09-.97,39.06-.1,11.75-1.78,23.33-2.03,34.95-.22,10.42,1.83,20.78,1.02,31.02-.7,8.88-5.16,18.38-1.98,27.52Z"/>
  <path d="M924.11,774.61c5.54-.68,24.17,5.01,30.22,7.26,17.22,6.4,20.3,18.19,10.44,33.4-8.38,12.92-27.48,15.89-41.83,14-5.82-.77-11.32-4.57-16.8-6.19-12.75-3.78-22.09-2.11-31.64-14.36s6.71-27.26,18.6-29.12c5.43-.85,11.36.41,16.67-.33,4.57-.63,9.27-4.03,14.34-4.65Z"/>
  <path d="M643.11,653.59c3.82-.53,17.69.92,21.49,2.03,4.61,1.36,8.8,6.56,12.51,7.49,3.5.88,8.15.05,12.31.69,15.11,2.36,27.32,12.8,29.71,28.29,2.78,18.07-14.47,29.49-31.17,27.17-3.41-.47-23.78-9.88-27.96-12.04-5.92-3.06-25.32-18.68-27.8-24.2-4.92-10.97-3.41-27.47,10.92-29.44Z"/>
  <path d="M865.23,665.46l-1.88-.59c1.45-1.83,2.62-4.13,4.17-5.85,5.77-6.43,27.8-19.94,36.29-20.71s14.52-.7,21.87,4.21c17.57,11.73,21.97,27.3,4.14,41.81-8.65,7.04-10.6,4.65-19.96,6.04-13.64,2.02-20.89,5.85-34.78.75s-16.88-12.89-9.87-25.65Z"/>
</svg>