<?xml version="1.0" encoding="UTF-8"?>
<svg id="Calque_1" data-name="Calque 1" xmlns="http://www.w3.org/2000/svg" viewBox="0 0 2732 2500">
  <path d="M975.67,847.21c13.11-55.17,64.58-107.95,112.17-138.83,66.36-43.05,141.81-58.12,220.32-46.66,132.58,19.36,243.39,130.79,261.53,264.47,14.81,109.13-14.23,191.28-86.96,271.09-4.07,4.46-25.24,21.16-24.75,26.56l48,85.13c51.22-14.62,61.13,19.14,17.9,43.2l219.96,400.89c6.81,4.75,27.26-26.49,39.56-2.6,11.97,23.25-13.34,26.84-25.54,33.94-26.46,15.4-40.54,21.67-68.2,33.8-13.72,6.02-48.83,35.11-62.91,18.94-14.12-16.21,19.26-24.39,26.81-32.9l-217.87-399.03,222,396c9.75-3.19,15.62-12.45,23.31-17.67,4.5-3.05,20.95-8.01,20.46-13l-205.77-383.33,213,378.11,1.91,1.42c4.87-2.62,29.85-7.74,28.87-14.22l-219.76-396.46c-7.96,4.19-25.47,6.91-30.21,14.12l-1.46,2,5.61,11.02-6.01-10-2.77.17c-17,12.14-37.26,19.65-56.55,27.49-9.51,3.86-11.2,8.81-24.59,9.38-35.71,1.52-18.22-34.65,9.94-39.04-4.25,13.98-25.45,10.33-20.22,28.8,2.58,3.39,24.92-1.11,29.33-2.7,7.74-2.79,12.85-10.25,19.83-14.17,30.49-17.11,62.68-29.27,92.1-49.9,6.09-4.27,10.84-5.13,8.11-14.11-2.15-7.06-8.7-9.66-15.66-7.46-11.26,8.07-24.31,12.82-36.1,19.93-30.6,18.44-39.4,33.68-77.39,39.61,2.3-7.57-9.69-23.34-13.71-31.29-4.82-9.52-9.96-18.17-14.69-27.31-6.57-12.68-12.52-26.06-17.71-39.37-2.77-2.1-30.03,7.09-35,7.85-80.61,12.3-132.72,11.58-208.23-23.53-120-55.8-193.33-189.58-176.44-321.14,2.94-22.9,13.59-71.86,27.79-89.21-4,16.85-11.52,32.69-15.52,49.48-40.08,168.2,63.06,339.56,233.5,375.55,31.83,6.72,84.41,9.76,116.9,4.85,16.22-2.45,38-15.82,50.98-19.02,7.77-1.92,15.96-.44,24.15-3.85,19.26-8,65.56-41.78,81.8-56.2,172.37-153.03,106.55-460.65-120.36-515.25-19.06-4.59-32.43-13.35-56.45-15.14-115.37-8.59-214.35,40.74-283,130.59-12.15,15.9-19.78,34.07-32,49ZM1449.6,1227.24l-35.68,22.92,50.73,87.03c5.24-5.87,32.56-15.81,32.58-22.55.01-4.14-4.44-15.23-6.49-19.51-7.79-16.22-27.41-50.78-39.13-62.97-1.2-1.25-1.77-3.21-2.01-4.92ZM1419.96,1360.94c3.4,1.98,34.19-17.38,39.66-20.88l-48.93-88.83c-14.13,7.03-28.29,8.22-40.16,19.98l-.63,2.62,50.06,87.11ZM1771.23,1749.63c-13.56,1.48-40.38,21.79-53.45,28.69-24.71,13.05-50.67,22.17-73.14,38.86-3.43,2.55-14.14,12.71-12.97,16.99l8.08,2.18c29.95-15.13,59.15-31.93,89.16-46.91,8.02-4,18.21-5.91,25.83-10.17,3.28-1.84,22.41-16.37,23.46-18.54,3.7-7.72,1.78-12.06-6.96-11.11Z"/>
  <path d="M1255.25,715.8c52.1-1.39,119.13,29.32,159.36,61.46,103.82,82.96,129.16,239.75,58.31,352.2-22.54,35.78-37.9,49.04-71.13,72.87-7.46,5.35-12.34,14.13-21.06,18.94-26.03,14.35-64.88,26.93-94.31,31.69-68.35,11.05-144.04-6.72-199.71-47.8-11.44-8.44-42.97-34.8-51.04-44.96-13.71-17.24-46.01-75.71-51.53-96.47-25.58-96.21,2.9-207.48,75.5-275.54,58.28-54.64,116.35-70.27,195.61-72.39ZM1008.37,869.87c-56.3,102.68-18.84,249.41,71.47,320.17,59.56,46.67,148.41,67.87,222.36,50.69,41.42-9.62,93.51-38.45,123.57-68.43,93.85-93.59,107.56-246.58,21.85-350.03-51.82-62.55-115-90.46-194.93-97.07-99.36-8.22-198.76,61.6-244.31,144.68Z"/>
  <path d="M1237.66,1099.22l-6.17-1.19c-4.07-16.74-8.19-33.54-13.79-49.85-11.77-34.28-37.59-61.02-12.9-96.84,11.96-17.35,24.91-7.76,36.96-17.04,12.69-9.77,12.64-24.91,1.89-36.08-9.55-9.93-21.94-10.34-35.08-9.11-22.2,2.08-24.86,28.88-40.85,33.16-17.69,4.73-22.6-7.2-18.68-22.7,14.06-55.64,93.46-69.4,137.3-42.03,11.73,7.32,25.14,17.85,28.73,31.27,3.43,12.82,6.58,44.16.99,55.8-11.16,23.25-30.54,39.69-56.37,43.64-29.35,29.08-15.71,73.62-22.04,110.98Z"/>
  <path d="M1235.15,1111.67c20.94-3.35,40.11,14.87,36.03,36.07-1.6,8.32-13.92,29.53-22.98,31.16-14.3,2.56-31.08-15.11-36.22-26.99-7.7-17.78,4.32-37.21,23.18-40.23Z"/>
</svg>