<?xml version="1.0" encoding="UTF-8"?>
<svg id="Calque_1" data-name="Calque 1" xmlns="http://www.w3.org/2000/svg" viewBox="0 0 1605 1605">
  <path d="M526.72,785.3c5.17,4.27,4.44,15.35,5.54,20.94,2.16,10.95,8.2,22.06,8.79,33.7,8.17.09,16.21-1.61,24.44-.93,2.28.19,14.47,2.29,15.78,2.98,1.88.99,2.09,5.47,1.55,7.29-1.36,4.61-8.95,5.86-12.16,7.87-8.44,5.3-16.49,14.29-25.48,19.43-.45,8.42,4.76,13.91,7.32,20.41,2.24,5.67,7.66,21.54,8.09,26.97.4,5.14-3.83,7.79-8.11,4.04-7.01-6.15-10.98-16.68-16.51-23.49-3.08-3.79-7.46-6.49-11-10-1.89-1.88-4.78-7.55-7.46-7.54-1.02,0-15.44,9.15-17.43,10.6-11.48,8.4-20.97,22.94-37.15,21.98-1.39-.99-1.06-3.33-.74-4.84,1.92-9.13,12.77-28.77,18.8-36.23,2.04-2.52,6.15-3.37,6-7.48-7.93-4.95-33.36-11.42-36.47-20.06-1.01-2.8-1.12-4.16,2.02-4.91,4.72-1.13,13.69-3.42,18.03-3.97s21.34.89,23.45-.55l26.07-55.92c1.25-2.49,4.75-1.84,6.61-.31Z"/>
  <path d="M699.29,929.69c-3.15-5.54-9.04-9.91-12.71-14.77-6.32-8.4-9.82-20.21-18.12-27.91-.79-.2-11.3,9.25-12.46,10.51-2.85,3.11-5.16,7.82-8.04,10.96-2.65,2.89-19.6,22.09-22.96,18.53-.78-5.66,1.75-10.62,3.82-15.67,2.69-6.58,7.27-16.04,10.64-22.36,1.55-2.91,7.09-8.38,6.62-11.34-9.64-5.94-18.43-13.13-27.95-19.26-3.82-2.46-10.7-3.79-11.92-9.08-.76-3.29-.76-7.5,3.31-8.26,4.38-.82,13.99-.16,19.01-.07,2.39.04,4.58,1.06,6.96,1.13,2.99.09,5.99-1.65,9.49-.08.7-7.27,6.83-12.51,10.2-18.31s10.72-24.55,17.54-25.57c2.74-.41,6.09,3.98,7.46,6.18,3.11,4.99,9.03,17.96,11.29,23.71,1.5,3.8,1.79,7.86,3.46,11.57,4.2-1.63,7.71.48,11.5.45,1.66-.01,3.41-1.05,5.06-1.03,11.37.15,30.5.39,16.51,15.52l-29.85,25.06c.46,10.68,5.57,20.82,6.7,31.05.42,3.86.07,7.95.13,11.86.08,4.49,2.98,10.84-5.71,7.2Z"/>
  <path d="M844.14,842.86c6.57,3.86,32.51-4.43,36.36.13,4.38,5.19-3.02,11.2-7.17,13.85-4.41,2.81-9.56,3.07-14.03,4.97-1.92.82-13.13,6.91-13.36,7.9-.86,3.66,10.29,27.2,11.81,34.04.58,2.62,2.73,17.13,1.19,18.23-2.25.41-3.77-.78-5.45-1.97-2.17-1.54-9.88-10.39-12.02-12.98-7.06-8.55-12.68-18.58-19.99-26.99l-39.94,44.05c-9.36,4.14-2.23-15.42-.83-19.83,3.79-11.88,9.36-23.29,12.18-35.58l-27.24-14.84c-4.91-2.55-12.6-1.22-12.74-8.35-.07-3.69.84-5.03,4.51-5.51,4.52-.59,16.43-.48,21.1,0s12.11,4.66,16.79,1.97c2.16-1.24,8.61-13.76,10.82-17.25,1.82-2.87,4.74-4.92,6.65-8.35,2.76-4.94,7.2-23.95,13.62-23.37,6.87.62,8.66,16.83,10.27,21.83,2.99,9.25,7.74,17.88,7.42,28.08Z"/>
  <path d="M1022.69,841.71c-1.27,1.43-5.31,2.8-6.93,4.27-2.85,2.59-5.41,6.77-8.75,9.53-5.33,4.41-12.66,7.24-16.88,13.2-.26,1.02,4.12,12.77,5.01,14.64,3.18,6.68,7.76,10.27,10.88,18.12,1.66,4.17,10.36,30.1-.99,25.06-5.13-2.28-14.22-16.43-18.06-21.02-5.19-6.21-11.3-11.59-15.49-18.52-3.93,2.83-5.63,7.13-9.48,10.51s-8.7,5.41-12.49,8.51c-5.33,4.36-17.75,20.59-24.02,20.61-1.07,0-2.28-.87-3.05-1.62-1.86-3.01,3.98-11.18,5.3-14.75,5.12-13.76,8.11-24.26,17.22-36.5.76-1.02,2.2-1.25,2.99-2.26-7.17-4.16-13.22-10.77-19.65-15.33-7.43-5.27-25.08-9.64-18.33-21.68,1.42-.85,21.1.31,24.4.62,4.1.38,10.43,3.69,14.6,1.38.62-.34,8.12-9.98,8.85-11.15,5.4-8.69,9.71-21.78,17.62-29.37,7.78-7.46,6.1,6.92,6.64,10.43,1.65,10.65,5.39,21.41,6.85,32.18,1.08.86,8.07-2.31,10.54-2.58,4.03-.44,17.34-.66,20.98.03,3.23.61,4.4,3.23,2.22,5.68ZM978.99,804c-2.34-.5-1.6.31-2.23,1.29-2.94,4.55-4.97,10.2-8.35,14.63-2.13,2.79-5.26,4.91-7.39,7.61-3.55,4.48-6.07,9.84-10.04,14.04-9.78-1.93-18.23,2.38-27.99,1.45,1.96,3.96,4.5,6.06,8.08,8.41,5.96,3.91,25.29,9.13,25.89,16.15.51,5.94-4.38,4.04-6.86,7.04l-18.1,37.39c4.62-3.72,10.48-5.65,15-9.49,3.98-3.38,20.76-25.44,23.46-25.5,6.92-.14,13.19,17.34,17.01,22.01,1.02,1.24,2.39,2.34,3.61,3.39.86.74,8.41,6.1,8.91,5.58-1.99-6.56-4.12-13.38-6.81-19.68-1.44-3.36-11.07-19.49-10.93-20.65.18-1.51,1.75-3.92,2.83-5.09l29.91-20.57c-10.53.67-21.32,1.44-31.53-.98-3.98-11.9-2.51-24.8-4.48-37.03Z"/>
  <path d="M1099.9,878.11c-.85-.16-2.03-.34-2.74.08-.79.47-7.87,12.7-10.19,15.28-6.79,7.57-14.4,14.48-21.43,22.59-2.23,2.57-1.32,5.9-7.49,4.9-2.06-12.2,9.17-22.87,14.47-32.94,4.22-8.02,5.7-17.18,11.44-24.4-.36-2.08-13.6-7.9-16.29-9.77-3.49-2.42-14.57-13.58-14.58-17.33-.04-10.23,20.95-1.88,26.58-1.58,3.42.19,6.6-1.83,10.4-.35,6.39-10.7,5.53-24.55,9.66-35.36,5-13.09,10.47-2.25,13.01,5.55,3.08,9.48,1.04,19.4,5.67,28.32,2.76,2.2,5.78.17,8.27.28,7.64.32,21.49-.54,27.8.66,3.49.66,5.29,4.87,1.79,6.74-7.73,4.11-7.67,5.46-13.79,10.2-4.45,3.45-17.17,10.48-18.28,15.77-.58,2.77,6.14,15.89,7.3,20.27,1.61,6.11,1.64,12,2.96,18.04,1.15,5.24,4.48,7.82,3.49,14.38-1.91,12.59-17-6.05-19.92-9.95-7.06-9.4-11.56-21.47-18.12-31.37ZM1145,841h-16.5c-.76,0-13.54-5.4-13.97-6.03-2.17-10.01-7.83-18.63-9.03-28.98-5.61,10.52-7.54,22.41-10.7,33.8-8.88,2.03-19.3-.87-28.8.22,4.26,4.31,8.73,10.36,13.5,13.99,8.2,6.23,15.45,4.16,8.68,17.68-4.84,9.67-14.96,16.84-15.17,29.32l24.5-32.99c7.33-6.3,10.88,13.91,12.47,17.51,3.27,7.41,13.71,14.97,19.01,21.48-2.18-5.98-5.04-10.55-6.52-16.97-1.01-4.37-4.28-22.12-3.27-25.35.62-1.99,6.85-5.34,8.82-7.17,5.83-5.43,10.43-11.78,16.99-16.51Z"/>
</svg>