<?xml version="1.0" encoding="UTF-8"?>
<svg id="Calque_1" data-name="Calque 1" xmlns="http://www.w3.org/2000/svg" viewBox="0 0 1605 1605">
  <path d="M1123.26,504.2c.75,2.87-1.03,5.58-.96,8.38.2,8.73,2.06,19.23,2.13,27.95.12,14.6.56,28.5,1,43,.27,9.02-2.28,17.74-2.12,26.06.13,6.44,2.97,14.15,3.12,20.94.37,17.49-2.99,39.56-2.03,56.04,2.07,35.64,2.08,71.46,1.94,106.97-.09,23.61,1.43,43.33,0,67-.76,12.63,3,22.84,3.12,34.03.11,10.52-4.11,22.66-1.87,33.81.38,1.28,5.88,6.49,7.32,7.68,9.4,7.83,21.4,17.2,29.5,26.5,3.95,4.53,6.76,10.84,10.93,15.07,6.16,6.25,14.6,10.9,21.07,17.93,6.29,6.83,10.46,15.35,17.5,21.5,13.01,11.36,25.84,22.56,37.5,35.5,4.22,4.68,8.65,9.73,9.64,16.16.84,5.44,1.49,22.05,1.26,27.78-.37,9.6-10.69,6.13-17.47,6.54-14.93.89-28.98.13-44,.08-42.21-.14-85.58.97-127.96,1.05-5,0-9.73-2.22-15.02-2.17-6.27.07-14.02,3.1-19.98,3.07s-13.01-3.15-19-3.08-13.66,3.18-20,3.17c-7.41,0-16.31-1.96-24.99-2.08-39.89-.55-79.94,3.21-120.05-.05-28.23,4.05-57.85-1.13-86.01,0-6.21.25-12.03,3.01-17.94,3.11-6.08.1-11.13-2.65-16.98-3.11-13.84-1.09-41.59.09-56.07,1-4.51.28-8.06,2.09-12.97,2.1-6.81.01-13.18-2.82-19.95-3.1-8.58-.36-16.01,3.01-24.03,3.12-11.06.14-24.55-2.23-37.06-2.12-19.3.17-38.56-.09-57.96-.05-20.38.04-40.64.16-60.98,0-17.4-.13-37.91,1.09-55.05.12-15.15-.86-28.04.25-42.85-.14-6.07-.16-12.99-4.75-19.14.14l-1.53-.47c-3.11-2.18-1.87-24.15-1.9-29.11-.02-3.15-1.84-5.46.15-8.8.78-1.31,2.33-1.45,2.63-1.9.42-.63-.56-2.02-.29-2.86.81-2.44,11.76-13.06,14.46-15.42,17.15-15.01,33.48-30.47,51.04-44.96,5.3-4.37,9.16-11.46,13.93-16.07,4.58-4.41,11.38-7.83,16.05-11.95,11.06-9.75,21.03-23.6,33.51-33.49,1.91-1.51,10.97-6.32,11.14-7.46-1.24-8.13,2.16-16.8,2.38-25.01.25-9.5-2.85-18.96-3.09-28.01-.28-10.67,2-22.1,2-34,0-18.63.69-37.48.08-56.08-.15-4.59-2.1-10.52-2.13-14.96-.04-7.12,2.98-15.62,3.14-22.95.25-12.16-2.82-24.22-2.04-37.04,1.61-26.2.58-52.56.95-79.05.18-12.83,1.91-28.39,1.08-41-.3-4.57-2.13-9.44-2.13-13.96,0-6.32,3.11-13.46,3.17-19.99.13-14.37-1.37-29.59-.97-43.9.08-3.04,1.9-7.21,1.98-10.18.06-2.18-2.9-.61-2.08-3.41,4.96-1.77,10.21-.67,15.37-1.14,9.98-.91,23.04-2.8,33.11-1.87,14.8,1.37,29.1,1.1,44.02,1.98,7.66.45,13.55-2.05,19.99-2.07,11.1-.02,25.61,3.07,36,3.07,12.9,0,26.8-2.64,41.04-2.03,4.53.2,9.44,2.18,13.95,2.12,8.29-.1,15.7-1.08,24.97-1.04,10.76.04,21.65-2.13,31.04-2.13,5.85,0,12.11,2.84,17.96,3.12,7.97.39,14.99-3.12,22.04-3.12,5.03,0,10.45,2.26,16,2.52,13.02.61,37.69,1.58,50.03.6,5.4-.43,10.69-3.22,15.96-3.11,4.89.1,10.64,2.73,15.97,3.11,14.45,1.05,32.25-1.02,47.08-1.08,15.2-.06,33.45,2.27,47.85,1.94,6.06-.14,12.8-3.04,19.13-2.97,7.87.08,16.69,3.29,25.02,3.14,6.58-.12,13.67-3.14,19.97-3.15,4.59,0,9.39,1.92,13.96,2.13,8.01.37,62.62-.74,64.42,2.08ZM1119.36,510.11c-1.69-1.7-16.21.85-19.37.87-12.68.08-27.45-1.85-40.14-.94-5.56.4-9.95,2.33-16.01,2.08-7.77-.32-14.45-3.31-23-3.08-6.5.18-14.8,2.82-20.95,2.82-5.28,0-11.58-2.46-16.96-2.82-10.31-.68-24,1.1-35.08,1.08-19.44-.03-39.45-2.29-58.97-2.13-6.67.06-13.47,3.29-20,3.15-6.17-.13-12.92-3.88-19.09-3.96-3.57-.04-8.02,1.72-11.85,1.92-11.35.6-24.75-1.85-36.08-1.07-4.76.33-9.02,2.18-13.98,2.11-7.36-.11-14.11-3.43-22.02-3.11-5.59.22-12.58,3-17.85,2.93-4.85-.06-11.09-2.82-16.1-2.95-8.73-.23-18.58,1.54-28.04,1.1-4.18-.19-8.99-2.12-12.96-2.12-9.01,0-17.79,1.11-28,.99-18.59-.22-37.18.1-55.99.1-8.88,0-14.79-1.72-22.11-1.9s-15.28,2.43-23.95,1.94c-4.26-.24-9.28-2.05-12.95-2.03-4.59.02-10.61,2.67-15.83,2.6-8.92-.12-19.35-1.78-28.18-2.6-4.05-.38-8.41.24-12.49,0-.41.35,2.01,8.6,2.03,10.55.16,14.73-1.31,30.22-1.11,44.94.08,5.63,3.08,12.03,3.16,18,.07,5.1-1.78,9.97-2.11,14.97-.8,12.15.92,27.61,1.08,40,.36,27.52-.52,54.74,1.01,81.99.69,12.35-2.58,24.29-2.09,36.09.27,6.51,3.03,14.72,3.08,21,.03,4.43-1.96,10.36-2.08,14.91-.56,20.87-.81,42.22-1.01,62.99-.08,8.76,3.03,18.05,3.09,26.1.05,7.1-2.79,16.48-3.08,23.91-.4,10.4,2.39,20.1,2.15,30.43,4.43,2.3,8.44-.05,12.34.07,9.78.3,20.16,1.93,29.99,2.08,8.38.13,16.16-2.39,24.09-2.08,6.43.25,11.83,2.35,19.01,2.08,14.66-.56,29.12-2.11,44-2.08,10.17.02,17.32-1.85,26.01-1.99,25.06-.41,51.53,1.91,76.9,2.08,10.41.07,22.32-1.79,32.08-1.08,5.43.39,10.61,2.63,15.93,3.07,8.58.71,15.71-2.02,23.04-2.03,4.96,0,11.17,2.56,16.01,2.99,14.28,1.25,38.56,1.5,53.04,1.05,7.18-.22,14.57-4,20.96-4.13s14.3,3.1,20.97,3.16c20.81.18,42.17-2.75,62.97-3.12,12.09-.22,25.74,1.61,37.08,1.07,6.41-.3,13.54-3.05,19.94-3.11,7.75-.08,17.37,3.18,25.01,3.07,8.43-.12,17.07-5.24,25.01-5.98s14.89,2.06,21.99,2.07c5.58.01,12.68-2.46,18.51-2.08,1.35-12.45-2.75-24.18-2.05-36.54.37-6.53,3.01-14.67,3.04-20.96.04-8.62-3.98-19.69-4.09-28.01-.08-6.78,3.16-15.35,3.17-21.99.02-9.87-1.97-21.94-2.13-31.95-.16-9.46,2.42-18.17,2.08-27.09-.66-17.38-3.28-35.53-3.07-53,.12-9.92,2.65-19.2,2.03-29.94-1.65-28.51-.44-56.62-1.98-85.02-.9-16.6,3.84-32.95-.05-50.04l2.01-31.43ZM1223.73,1039.73c-5.38-5.6-8.86-12.84-13.84-18.66-6.72-7.86-16.7-13.66-24.03-21.97-5.19-5.89-9.32-13.85-14.97-19.03-10.81-9.93-22.02-18.87-31.5-30.5-3.93-4.82-6.22-11.65-11.67-15.32-1.29-.24-3.12,1.63-4.91,1.8-20.73,2-41.31,1.84-61.96,1.98-9.4.06-20.89,3.87-29.99,3.86-6.14,0-13.72-2.57-19.95-2.83-8.49-.36-17.62,1.78-26,2.08-24.33.86-49.65-1.62-73.93-.94-6.73.19-14.92,3.85-21.12,3.98s-12.91-2.72-18.95-3.11c-22.39-1.47-50.89,3.82-73.07,2.07-6.53-.52-13.49-3.93-19.96-4.1-5.15-.13-10.96,1.77-16.02,2.06-9.86.55-20.29-1.84-30.95-1.94-16.45-.16-31.88-1.36-48.05-1.06-16.19.31-36.03-1.96-51.03-1.02-11.72.73-24.57,4.14-36.96,4.11-5.9-.01-12.99-3.18-19.01-3.17-27.29.05-49.01,2.77-76.25-1.65-3.95-.64-7.87-.35-11.8-.9-1.3.24-8.08,10.81-9.92,12.67-4.62,4.7-13.53,13.1-18.53,17.47-4.57,4-11.09,6.42-15.5,10.5-4.6,4.25-8.28,10.79-13.49,15.51-4.59,4.16-10.6,7.11-15.03,10.97s-7.35,9.59-11.44,13.56c-12.05,11.7-25.25,21.39-37.52,33.48-5.18,5.1-11.05,9.2-16.03,14.46,7.85-.48,15.6-.84,23.49-1s14.03,1.24,21.04,1.06c6.23-.16,12.13-2.28,19.02-2.1,5.52.15,11.51,2.3,16.95,2.11,5.14-.18,11.63-2.98,17-3.06,13.48-.2,30.24,3.09,42.99,3.07,6.06,0,14.33-3.17,21-3.16,7.78.01,16.3-.03,24.01.09,7.12.11,16.25,3.17,22.99,3.08,4.04-.05,8.78-1.95,12.97-2.12,12.95-.53,28.02,1.95,40.02,1.02,5.29-.41,11.71-3.05,16.97-3.01,7.54.05,17.38,4.12,25.04,4.11,7.3,0,16.69-4.14,24-4.16,5.36-.02,11.83,2.62,17.01,3.07,11.9,1.05,27.8-1.12,39.99-1.08,6.24.02,13.31,2.34,20.05,2.13,7.67-.23,16.48-4.26,23.91-4.08,6.26.15,14.77,4.05,22.03,4.12,23.41.2,47.56-2.06,70.97-2.12,11.72-.03,24.76,2.86,36.09,2.08,5.25-.36,10.83-2.53,16.14-2.65,10.9-.25,21.95,3.51,33.86,2.65,5.65-.41,12.32-2.87,17.96-2.83s12.28,2.51,17.96,2.83c15.21.84,33.41-.14,49.08-.08,10.95.04,17.1-1.56,26.92-1.99s19.69,3.49,30.09,3.08c6.84-.27,14.37-3.14,20.95-3.14,7.72,0,16.69,4.04,24.01,4.17,4.17.07,8.09-1.86,12.01-2.06,30.45-1.58,60.61,1.32,90.98.99l-13.5-16.5c-3.15-2.77-7.83-5.93-10.64-8.86ZM1256.38,1073.09c-17.5.11-35.03-.15-52.54-.05-13.48.08-27.46,1.11-40.96,1.13-5.99.01-13.14-3.23-18.95-3.12-6.44.12-15.19,4.03-22.06,4.11s-14.2-2.72-20.95-3.13c-10.4-.63-19.01,3-28.05,3.04-5.75.03-13.11-2.62-18.96-3.03-16.13-1.13-41.02-.15-58.03-.05-6.31.04-14.74,3.04-20.89,2.98-7.05-.07-15.6-3.42-23.28-3.51-9.85-.12-19.67,3.34-29.87,2.66-5.67-.37-11.41-2.68-16.96-2.84-5.21-.15-12.7,1.72-17.95,1.83-29.06.63-58.11-2.59-87.08-2.1-8.56.15-15.61,3.59-25.01,3.1-5.95-.31-11.26-2.63-16.92-3.08s-10.86,1.02-15.99,1.08c-14.36.17-28.9-1.24-43.06-1.12-6.53.06-13.67,3.16-19.99,3.17-8.2,0-17.88-4.28-25.99-4.17-7.5.09-17.39,4.1-24.9,3.98-4.6-.08-10.22-2.53-15.07-2.93-12.56-1.03-26.21,1.86-38.07,1.07-22.36-1.49-40.87.04-62.96.06-6.65,0-14.64-3.1-21.01-3.18-14.4-.18-31.66,3.4-47.03,2.12-13.92-1.16-25-.16-38-1-4.18-.27-9.03-2.12-12.96-2.11-4.47,0-8.97,2.24-14.01,2.15-8.36-.16-18.47-1.36-27.02-2.04-1.35-.11-2.28-.55-3.46-1.03l2.92,31.56c4.94,1.85,9.71-1.56,14.58-1.64,11.07-.18,22.91,1.49,34.03,1.12,4.83-.16,11.31-2.13,15.96-2.12,7.15.02,13.93,2.82,21.9,1.98,13.34-1.42,28.57-2.92,42.14-1.93,21.76,1.58,42.09-1.07,64,0,10.83.53,14.1.53,24.93,0s23.44,1.47,34.06,1.08c5.44-.2,11.76-3.12,16.98-3.12s12.23,2.75,17.96,3.11c10.16.64,17.77-3.11,26.04-3.11,5.39,0,12.43,3.14,18,3.15,2.58,0,5.06-1.13,7.95-1.13,13.21.02,31.95,2.23,44.04,1.04,5.04-.5,9.67-2.98,15-3.06,6.18-.1,11.88,2.73,17.97,3.1,9.6.59,23.06-.92,33.05-1.03,23.8-.27,47.56.95,71-.99,10.5-.87,19.95,2.54,30.03,2.02,5.61-.29,12.79-3.04,17.96-3.02,3.35.02,7.26,1.89,10.97,2.02,22.1.8,44.27.37,66-1.07,7.74-.51,13.77,1.79,20.99,2.08,8.82.35,16.25-2.66,25.09-2.08,5.29.35,11.92,3.05,16.86,2.93,21.7-.52,43.21-1.95,65.06-1.93,35.61.03,70.66.89,106-1l24.55,1.05c-.29-7.77-.03-15.48,1.99-23Z"/>
  <path d="M883.22,1008.24c3.23,6.61,6.67,14.69,10.74,20.75,3.27,4.86,18.53,17.37,5.69,20.86-8.9,2.42-13.72-.27-21.74-.81-20.16-1.36-46.37.8-67.08.99-30.41.28-61.15,1.27-91.99,1.09-15.04-.09-29.81-.82-44.96-1.13-3.16-.06-12.78,2.99-14.48-.68-.18-1.77-.85-3.49-.58-5.3.69-4.56,11.76-21.72,15.15-25.86,2.55-3.11,6.55-5.47,8.49-7.79.69-.83.74-3.13.95-3.3.33-.26,3.25.95,4.48,1.01,15.2.71,33.52-4.23,49.04-3.04,5.09.39,11.08,3,15.97,3.03,6.54.03,15.99-3.09,22.95-3.03,9.35.08,17.76,3.82,27.92,2.92,22.07-1.97,36.54-.02,58.08,1.15,7.14.39,14.19-2.06,21.38-.87ZM895.38,1041.07l-14.4-24.09c-.62-.47-13.47-2.7-15.24-2.81-5-.32-9.29,1.68-13.87,1.89-10.12.47-23.16,1.2-32.98,1.1-5.3-.05-11.7-2.65-17.02-3.07-9.67-.75-18.99,2.45-29.03,2.02-6.6-.28-14.87-3.23-20.95-3.12-5.49.1-12.39,3.18-17.96,3.11-9.85-.12-24.06-2.99-34.16-3.92-4.68-.43-9.41.6-13.99-1.06-2.6.06-4.2,6.09-5.61,8.25-5.81,8.94-11.33,16.78-14.81,27.19l230.01-5.5Z"/>
  <path d="M510.38,525.09c3.25.55,6.29-.98,9.45-1.05,12.78-.28,28.27-2.01,41.03-.94,3.99.34,7.88,2.11,12.01,2.07,7.83-.08,15.09-2.71,24.04-2.12,19.42,1.26,35.79-.15,54.98-.04,6.04.03,13.32,2.81,18.98,2.86s13.17-2.78,18.95-2.82c13.78-.1,28.4,2.39,42.01,3.07,6.99.35,12.93-2.23,20.08-2.08,8.25.17,18.84,2.21,26.9,2.08,4.64-.08,11.23-3.02,16.05-3.02,7.07,0,15.97,3.87,23.83,3.61,7.89-.26,14.08-3.33,23.15-2.6,18.83,1.51,38.01,2.64,56.97,3.02,9.09.18,15.72-2.96,23.05-3.12,5.6-.12,12.14,2.69,17.96,3.11,13.44.98,29.48-1.09,43.05-1.11,22.99-.04,43.94,1.91,67,.09,10.62-.84,20.2,2.71,29.98,2.78,5.62.04,19.58-4.28,23.52-2.31,5.89,2.96-.07,10.3-.12,13.99-.07,5.17,2.16,12.59,2.18,18.01.04,9.85-2.68,19.57-2.12,30.06,1.51,28.39-.16,54.75.08,82.92.12,14.45.87,30.86,0,45.08-.4,6.51-3.01,14.91-3.04,20.96-.02,3.65,1.83,9.2,1.99,13.01.61,14.69-2.26,29.47-1.99,43.99.12,6.37,2.66,14.15,2.62,20.83-.06,8.51-3.34,17.77-3.66,26.12-.36,9.52,3.05,19.07,3.12,28.03.05,6.5-2.56,12.86-3.06,19.03-.58,7.14,1.07,13.54,1.07,19.98,0,13.53-8.2,4.4-14.81,4.78-8.35.48-16.86,1.81-25.82,1.76s-16.38,1.14-23.97,1.04c-5.96-.08-12.13-2.89-17.96-3.12-7.3-.29-15.69,2.31-23.05,2.1-9.33-.26-18.61-2.07-29.01-2.1-19.5-.05-39.31-1.07-58.95-.96-8.01.04-15.64,2.04-21.91,1.9-4.17-.09-9.43-2.57-14.07-2.93-6.5-.51-16.04,0-22.99,0-11.29-.02-22.21,1.27-33.2,1.67-7.79.28-15.68-3.3-24.88-2.66-11.48.8-13.63.74-24.97.04-28.03-1.71-56.49,1.48-84.04.04-5.54-.29-10.24-2.2-15.99-2.11-11.94.19-25.74,2.17-37.96,2.14-5.58-.01-12.42-2.98-18-3.15-6.77-.2-13.44,2.37-21.05,2.1-5.7-.2-12.68-2.53-18.12-2.65-5.74-.13-12.17,1.77-18.88,1.65-9.98-.17-24-.91-33.96-2.04-11.9-1.35-10.22-11.9-9.48-21.48,2.15-27.91,1.45-56.03-.06-83.97-.61-11.31,2.79-21.54,2.09-33.09-1.44-23.75-1.96-49.98-1.08-74,.15-4.17,2.1-8.96,2.12-12.96.04-9.99-1-21.05-1.02-32-.05-33.32.55-67.58.89-100.96.08-7.63,1.11-15.17.05-22.53ZM1099.39,537.08c-8.84-.93-16.5-2.47-25.55-2.05-7.01.33-13.86,2.46-20.99,2.08-5.52-.29-11.7-3.04-16.97-3.11-11.69-.16-23.49,1.24-35.95,1.04-14.38-.23-28.78.25-42.99.08-4.02-.05-9.97-2.13-14.04-2.12-5.37.02-11.56,2.75-16.96,3.11-7.88.53-12.89-2.51-20-3.07-16.86-1.33-46.09.36-63.16,1.91-9.53.86-16.16-2.64-24.84-2.92-7.97-.26-16.02,3.21-22.99,3.07-4.75-.09-10.82-2.78-16.01-3.06-9.99-.53-21.36,1.66-32.08,1.07-5.12-.28-9.42-2.19-15-2.1-13.31.22-28.23,2.26-41.98,2.14-6.11-.05-13.35-3.03-19.03-3.11-3.93-.05-8.75,1.82-12.91,2.07-14.13.84-28.29-.5-42.14-1.93-8.3-.86-15.44,1.9-22.89,1.9-12.33,0-24.57-4.99-38.05-.96l-42.45-3.03,4.11,372.89c6.09,2.78,11.54-.82,17.38-.96,12-.29,25.92,2.28,37.04,2.12,6.01-.09,12.93-2.18,18.98-2.14s13.41,2.86,18.98,2.86c4.96,0,11.92-2.74,17-2.78,16.68-.15,33.52,2.13,50.96,1.96,28.17-.28,59.7,3.93,87.08,2.07,3.99-.27,8.18-2.11,11.92-2.06,5.11.07,11.61,2.76,17.01,3.06,7.52.42,13.69-2.33,21.08-2.08,16.72.56,34.04,2.76,50.91,3.08,7.88.15,14.4-2.45,22.09-2.08,29.1,1.44,58.68,2.58,87.91,3.08,7.68.13,14.6-2.12,20.99-2.07s14.42,3.05,21.03,3.11c7.91.08,14.9-2.65,24-2.07,10.69.69,21.19,2.05,31.97,2.04,6.6,0,13.03-.32,19.55-1.04-.66-5.96,1.26-11.61,1.03-17.54-.15-3.9-1.75-8.13-2.02-11.98-.97-13.73,3.52-25.58,3.03-39.03-.35-9.47-2.81-17.94-2.08-27.99,2.23-30.64,3.47-61.38,1.99-91.92-.94-19.39,2.09-38.87,3.08-58,.4-7.83-1.97-15.59-2.08-23-.25-17.13,1.82-34.09,3.08-51.01.77-10.36-1.7-21.28-1.08-32.08.16-2.77,3.03-16.51,2.05-17.46Z"/>
  <path d="M720.39,775.08l12.46-18.03c15.61-15.98,30.24-32.58,43.12-50.88,1.2-1.71,3.07-2.78,4.14-4.57-2.63-4.37-4.41-10.39-7.29-14.45-4.95-6.98-13.47-13.02-20.02-21.98-2.73-3.73-7.69-6.43-7.41-12.08,5.83-1,6.41,3.53,9.99,6.51,12.42,10.35,11.71,12.37,20.59,24.4,2.69,3.64,7.12,7.25,9.91,11.07,5.13-10.53,14.5-17.03,21.47-25.51,4.29-5.22,19.28-30.73,24.68-31.25,3.03-.29,5.33,3.38,5.07,6.14-.6,6.4-19.99,20.43-24.7,26.17-3.89,4.74-6.33,11.14-9.8,16.2s-8.42,9.15-11.24,14.79c5.9,7.05,8.42,17.16,13.58,24.42,4.55,6.4,11.76,11.62,16.85,19.15,2.55,3.77,13.6,19.81,5.67,21.46-2.32.48-10.36-9.69-12.06-12.07-5.96-8.31-8.52-18.1-14.19-25.81-4.58-6.23-11.9-11.96-16.33-18.65-4.82,6.92-12.48,10.7-18.01,16.97-4.2,4.76-7.39,11.35-11.95,16.05-3.96,4.07-10.38,7.27-13.94,11.06-2.1,2.24-3.49,6.01-5.62,8.38-1.56,1.73-13.17,14.23-14.97,12.52Z"/>
</svg>