<?xml version="1.0" encoding="UTF-8"?>
<svg id="Calque_1" data-name="Calque 1" xmlns="http://www.w3.org/2000/svg" viewBox="0 0 1605 1605">
  <path d="M753.21,766.79c5.94-1.37,30.75.62,38.84.84,14.37.4,30.31,2.79,44.01,2.99,4.52.06,10.24-2.25,14.89-2.07,5.59.22,12.86,4.11,19.18,4.91,13.4,1.72,26.8,4.28,39.96,6.04,8.14,1.09,14.68-.88,23.42,1.58,34,9.58,71.72,17.47,103.38,33.62,4.72,2.41,7.81,6.56,11.92,9.08,4.76,2.92,10.29,3.54,15.02,5.98,11.13,5.75,26.13,18.43,33.49,28.51,13.95,19.09,24.46,40.11,14.36,63.99-1.76,4.15-5.45,8.6-6.7,12.3-2.75,8.16-3.67,18.64-6.2,26.8-5.52,17.82-12.97,38.42-17.8,56.2-3.35,12.36-5.12,23.89-8.97,37.03-5.66,19.32-10.64,35.98-15.38,55.62-5.02,20.78-13.02,41.63-20.32,61.68l-1.42,1.58c-14.91,8.74-29.58,15.35-45.87,21.13-6.17,2.19-12.65,2.95-18.78,5.22-5.68,2.09-12.9,7.59-18.48,8.52-7.64,1.28-17.72.27-25.52,1.48-8.85,1.37-19.06,8.58-28.35,9.65-6.46.75-11.86-1.14-17.87-.89-11.65.49-26.63,5.39-38.98,6.03-7.5.39-14.32-2.22-20.98-2.07-4.38.1-9.83,2.34-14.18,2.91-12.07,1.59-34.53,1.2-46.87.1-6.02-.54-12.22-3.4-18.02-3.98-7.29-.72-14.27,1.18-20.95,1.01-8.46-.22-23.45-3.06-32.92-4.14-9.69-1.11-16.77-6.6-25.56-8.44-17.75-3.7-24.76-2.35-43.05-9.95-12.13-5.04-20-5.36-30.7-9.3-5.73-2.11-19.94-9.78-25.99-13.01-8.1-4.32-12.79-13.88-22.86-15.14-2.69-11.55-8.13-22.45-11.18-33.82-5.5-20.52-11.58-37.81-18.01-57.99-4.17-13.08-6.29-24.76-9.97-37.03-2.44-8.13-7.89-16.31-10.56-25.44-2.43-8.3-3.06-17.42-5.7-25.3-4.42-13.21-10.26-24.76-13.74-39.26-1.21-5.06-1.62-16.33-3.04-19.93-.73-1.85-3.5-3.8-4.81-6.23-6.12-11.35-3.08-35.63.04-48.06,4.09-16.3,11.98-19.33,23.52-29.48,9.9-8.7,18.38-17.68,31.01-22.99,20.87-8.79,42.24-21.68,64.73-26.27,19.1-3.9,40.47-11.87,58.83-14.17,5.99-.75,12.75.52,18.81-.19s12.28-4.13,18.21-4.79c7.66-.85,16.27.65,23.88-.12,10.96-1.11,22.16-4.15,34-3.98,3.58.05,8.57,2.27,12.01,2.08,2.87-.16,3.96-2.37,6.19-2.88ZM745.29,772.79c-8.99,1.01-22.79,4.47-31.29,4.58-3.41.05-8.55-1.78-11.89-1.69-6.11.17-14.57,4.03-21.11,4.9-6.4.84-13-.46-18.89.11-6.91.67-14.95,5.24-22.36,6.64-13.54,2.56-28.9,4.04-42.3,6.7-5.92,1.18-11.19,5.33-16.69,7.31-14.99,5.4-37.17,10.59-50.94,17.06-5.01,2.35-10.18,7.91-15,11-8.72,5.61-21.6,11.68-28.86,19.14-3.12,3.2-20.81,31.92-21.4,35.6-1.48,9.27,9.42,38.08,15.89,44.98,7.26,7.74,36.26,31.67,45.27,34.73,6.03,2.05,11.9,2.1,17.99,5.01,6.72,3.21,12.29,9.28,19.8,12.2,22.88,8.89,48.41,13.31,72.19,18.81,8.25,1.91,18.64,6.32,26.54,7.46,6.63.96,13.92-.31,20.64.36,9.7.97,20.12,6.1,30.13,6.86,7.82.59,15.83-1.7,24.02-1.02,5.03.42,9.99,2.58,14.98,3.02,16.84,1.49,46.63,3.12,63.02,2.05,7.29-.48,15.85-4.04,22.97-4.12,8.76-.1,17.38,3.1,26.88,1.98,7.26-.86,15.55-5.14,23.12-5.88s15.38,1.55,22.98.97c6.56-.5,12.98-3.99,19.5-5.49,39.72-9.12,78.53-15.12,115.22-34.78,21.22-11.37,39.38-21.57,53.2-41.8,29.7-43.48-14.69-75.32-45.5-98.32-6.58-4.92-10.64-4.08-17.19-6.81-27.48-11.48-58.32-25.32-87.69-31.31-6.86-1.4-13.45-.85-19.89-2.11-5.61-1.09-10.42-4.71-15.92-6.08-5.97-1.48-11.71-.56-17.59-1.42-8.39-1.22-19.14-4.3-27.15-4.84-5.69-.38-10.51,1.39-15.98.97-5.07-.39-10.14-3.31-15.12-3.88-14.75-1.71-34.87-2.09-49.85-2.15-10.01-.04-24.2,2.11-33.11,1.11-3.78-.42-4.72-2.3-8.64-1.86ZM825.27,1027.82c-3.05-3.05-28.15-.14-34.31-.2-11.03-.1-23.85-1.92-34.91-2.08-8.02-.12-15.89,1.84-23.94.93-6.5-.73-13.3-4.25-20.12-4.88-10.52-.97-20.94.97-31.73-1.27-5.71-1.18-11.49-4.36-17.51-5.49-9.07-1.7-19.27-1.59-28.47-3.53-30.58-6.44-59.81-19.16-89.81-27.19-11.65-3.12-16.8-11.76-26.66-17.34-5.77-3.26-11.33-4.76-17.22-8.78-12.27-8.38-21.86-18.94-31.08-30.41,7.48,17.58,16,35,18.27,54.22,10.2,15.29,10.89,33.86,16.44,50.56,2.2,6.63,6.65,11.99,9,19,7.77,23.18,11.07,48.07,22.05,69.95l11.75,38.25c.52.87,4.53,2.68,5.8,3.2,12.58,5.1,26.82,10.48,39.07,15.93,4.42,1.97,8.7,5.87,12.96,8.04,10.41,5.33,21.69,5,32.88,8.12,8.49,2.37,18.33,8.34,26.54,9.46,6.43.88,13.26-.34,19.64.36s12.77,3.91,19.23,4.77c5.96.8,12.21.25,18.6,1.4,5.59,1,11.86,4.08,17.38,4.62,7.73.75,16.55-2.18,24.94-1.93,16.58.49,33.35,2.03,49.97,3.02,10.37.62,17.37-3.14,27-3.97,10.44-.9,22.37-.05,32.86-1.14,8.24-.86,15.79-5.85,23.23-6.77,9.62-1.18,18.5.9,28.59-1.41,8.87-2.03,17.88-8.82,25.75-10.25,6.36-1.16,13.26-.4,19.87-2.13,12.64-3.31,28.41-11.32,40.9-16.1,10.65-4.08,19.95-1.51,22.83-15.17,3.51-16.63,6.81-32.74,11.95-49.05,6.55-20.77,12.78-41.08,19.01-61.99,3.42-11.5,7.39-20.63,10.77-31.23,2.51-7.87,2.78-16.62,5.21-24.79,1.86-6.26,5.69-12.47,7.55-18.45,1.93-6.19,1.86-12.4,3.66-18.34,1.1-3.63,3.63-6.53,4.29-10.2-4.48,4.48-10.25,7.4-15,11.49-3.81,3.28-7.15,7.86-10.98,11.02-18.22,15.06-56.05,26.07-78.77,33.23-15.06,4.74-29.1,11.54-45.3,11.73l-.68.98c.62,6.85,4,16.42,3.79,23.02-.09,2.72-1.85,5.13-2.06,8.02-.33,4.53,1.08,22.01-.96,24.04-3.69,3.65-15.4,1.12-20.57,1.44-11.69.72-24.1,3.11-35.96,3.12-4.7,0-10.52-2.24-14.95-2.13-3.68.09-9.04,2.41-13.17,2.92-4.69.58-9.69,0-14.4.73-3.35-.93-14.25-14.89-15.73-18.36-2.15-5.04-1.33-10-2.49-14.51-.46-1.82-4.46-13.95-5-14.49ZM943.5,1014.59c-5.64.89-11.85,2.68-17.55,3.04-2.69.17-4.85-1.11-6.94-1.03-10,.37-20.25,6.78-30.11,7.89-14.23,1.6-30.57-4.58-44.37,3.6l7.58,16.57c5.41.41,10.71-2.92,15.95-3.1,4.96-.17,9.71,2.28,14.95,2.09,5.91-.21,12.78-3.49,19.01-4.05s13.52.43,20.02.02c7.56-.48,15.35-3.45,23.47-2.03l-2.01-23ZM840.46,1028.63l-11.95-.56c7.98,9.19,8.13,24.84,13.23,34.77.57,1.11,1.46,2.45,2.75,2.74-1.2-3.68,1.75-8.66,1.58-11.52-.1-1.67-1.94-3.33-2.31-5.24-1.3-6.66-2.01-13.52-3.3-20.19ZM944.51,1044.58c-6.9,1.16-15.03-1.22-21.44-1.03s-13.8,4.22-20.16,4.93c-6.68.74-14.26-.67-20.81.19-5.05.67-10.67,4.13-16.19,4.81s-11.71-.16-17.39,1.12c2.3,3.22.42,12.44,4.53,13.04,2.02.29,9.45-1.11,13.03-1.1,17.49.08,35.14-1.12,52.99-1,4.16.03,8.02,1.26,12.95,1.02,1.56-.07,10.3-1.4,10.93-1.86.27-1.24,1.58-4.95,1.58-5.62v-14.5Z"/>
  <path d="M949.65,600.72c-2.33,10.63-10.35,21.12-13.61,30.89-1.85,5.54-1.97,11.71-3.6,17.4-4.48,15.62-9.86,30.69-16.49,45.51-4.99,8.66-8.04-12.42-8.42-15.44-1.21-9.6-.09-19.48-1.02-28.98-.57-5.8-3.55-12.06-3.97-18.02-.56-7.99-.31-15.36-1-24-.26-3.25,1.15-11-.29-13.21-2.26-3.45-12.35-.93-16.2-1.24s-8.14-3-12.06-3.08c-12.66-.25-17.54-1.79-28.94-2.97s-23.72-.38-35.76-2.25c-3.84-.6-8.71-2.11-12.29-3.7-2.2-3.33,3.96-29.19,5.2-34.88,3.81-17.56,8.68-35.05,12.22-52.78,6.15-30.77,13.78-61.3,20.83-92.17,1.42-6.23.61-10.94,1.38-16.62,1.65-12.22,10.27-4.28,16.65-2.83,18.11,4.13,40.71,4.29,59.49,7.51,7.4,1.27,16.16,4.82,23.38,5.62,5.76.64,12.18-.56,17.81.19,7.32.97,16.35,5.94,24.19,6.81,6.68.74,14.26-.67,20.81.19,4.26.56,9.01,3.37,13.57,4.43,13.51,3.13,29.35,4.35,43.24,6.76,4.2.73,8.99,3.13,13.38,3.62,6.38.71,13.57-.63,19.81.19s14.32,5.29,21.38,6.62c7.8,1.46,13.09-.29,20.58.42,7.88.75,18.36,2.79,16.47,13.15-.36,1.97-3.25,4.96-4.16,7.91-3.61,11.59-5.72,26.51-9.4,38.6-12.4,40.75-25.77,81.44-37.78,122.22-1.03,3.48-6.3,20.92-7.92,22.08-2.27,1.62-6.13,1.03-8.82.66-14.21-1.93-32.82-10-47.51-12.49-17.13-2.9-34.28-4.75-51.03-9.97-5.2-1.62-9.32-5.2-14.98-6.02-4.9-.71-10.17-.18-15.1-.13ZM1083.5,620.59l56.59-182.03c-4.16-1.3-8.19-1.27-12.58-2.46-8.32-2.26-14.06-5.86-23.46-6.54-6.07-.44-13.01.74-18.95-.05-6.78-.89-14.13-5.67-22.21-6.79-17.49-2.43-36.77-6.27-53.89-8.11-4.47-.48-9.43.48-13.9-.1-6.62-.87-13.86-5.95-21.19-6.81-8.6-1-16.37.6-25.42-1.58-13.8-3.31-26.16-7.71-41.17-7.83-17.4-2.28-39.49-10.43-56.44-11.61-9.23-.64-10.81,4.52-12.9,12.86-4.35,17.34-6.01,36.88-9.68,54.32-.95,4.5-4.18,9.2-5.32,13.68-1.51,5.94-.86,11.62-1.71,17.29s-3.96,10.99-5.28,16.72c-3.1,13.44-5.68,27.13-8.59,40.41-2.7,12.27-4.33,24.91-8.87,36.62,4.41.28,9.11-.38,13.48.02,24.52,2.26,48.38,7.88,73.01,9,2.24.1,4.43,1.01,7.01,1.08,5.45.14,8.96-3.98,12,2.91,3.99,9.05,7,31.19,7.54,41.46.31,6.01-1.37,11.29-1.02,17.03.51,8.31,4.96,17.82,4.99,26.51l6.27-16.21c.98-11.35,7.72-20.94,11.02-30.98,3.67-11.16,4.45-23.75,10.93-34.11s14.54.68,23.51,2.07c4.84.75,9.81-.21,14.65.35,20.64,2.38,44.85,10.65,65.84,15.16,11.92,2.56,23.78,5.55,35.76,7.73Z"/>
  <path d="M825.27,1027.82c.54.54,4.54,12.68,5,14.49,1.15,4.52.34,9.47,2.49,14.51,1.48,3.47,12.38,17.44,15.73,18.36,4.71-.72,9.71-.15,14.4-.73,4.12-.51,9.49-2.83,13.17-2.92,4.43-.11,10.25,2.14,14.95,2.13,11.87-.01,24.27-2.41,35.96-3.12,5.17-.32,16.88,2.21,20.57-1.44,2.04-2.03.63-19.51.96-24.04.21-2.9,1.97-5.3,2.06-8.02.21-6.6-3.18-16.16-3.79-23.02l.68-.98c16.19-.19,30.23-6.99,45.3-11.73,22.72-7.15,60.55-18.16,78.77-33.23,3.83-3.16,7.17-7.75,10.98-11.02,4.75-4.09,10.52-7.01,15-11.49-.66,3.67-3.19,6.57-4.29,10.2-1.8,5.94-1.73,12.15-3.66,18.34-1.86,5.98-5.69,12.19-7.55,18.45-2.43,8.17-2.7,16.92-5.21,24.79-3.38,10.6-7.35,19.73-10.77,31.23-6.22,20.92-12.46,41.22-19.01,61.99-5.14,16.31-8.44,32.42-11.95,49.05-2.88,13.65-12.18,11.09-22.83,15.17-12.49,4.78-28.27,12.79-40.9,16.1-6.6,1.73-13.51.97-19.87,2.13-7.87,1.43-16.88,8.22-25.75,10.25-10.09,2.31-18.97.23-28.59,1.41-7.45.91-14.99,5.91-23.23,6.77-10.49,1.09-22.43.24-32.86,1.14-9.64.83-16.63,4.59-27,3.97-16.61-.99-33.38-2.53-49.97-3.02-8.39-.25-17.21,2.68-24.94,1.93-5.52-.54-11.79-3.62-17.38-4.62-6.39-1.14-12.64-.6-18.6-1.4-6.46-.86-13.08-4.09-19.23-4.77s-13.21.51-19.64-.36c-8.21-1.12-18.05-7.09-26.54-9.46-11.19-3.12-22.47-2.79-32.88-8.12-4.26-2.18-8.53-6.08-12.96-8.04-12.25-5.45-26.49-10.83-39.07-15.93-1.27-.52-5.28-2.33-5.8-3.2l-11.75-38.25c-10.98-21.88-14.28-46.78-22.05-69.95-2.35-7.01-6.79-12.38-9-19-5.55-16.7-6.25-35.27-16.44-50.56-2.26-19.22-10.79-36.64-18.27-54.22,9.22,11.47,18.81,22.03,31.08,30.41,5.89,4.02,11.45,5.52,17.22,8.78,9.86,5.58,15.01,14.22,26.66,17.34,30,8.03,59.22,20.75,89.81,27.19,9.2,1.94,19.4,1.83,28.47,3.53,6.02,1.13,11.8,4.31,17.51,5.49,10.79,2.23,21.21.3,31.73,1.27,6.82.63,13.62,4.15,20.12,4.88,8.05.9,15.92-1.05,23.94-.93,11.06.16,23.88,1.98,34.91,2.08,6.16.06,31.25-2.85,34.31.2Z"/>
  <path d="M750.3,797.88c26.44-1.38,52.65,3.31,78.67,4.73,6.75.37,13.12-1.87,19.95-.95,3.81.51,8.18,2.91,12.34,3.66,13.02,2.37,30.94,5.45,43.83,7.17,5.63.75,11.86-.5,17.65.35,5.51.8,12.57,4.82,18.55,6.45,23.13,6.3,43.81,10.1,66.21,19.79,13.01,5.62,18.45,10.36,29.47,17.53,10.02,6.51,13.73,6.16,23.04,15.96,10.48,11.04,15.06,17.14,13.36,33.39-2.99,28.62-34.62,46.85-58.9,56.11-6.34,2.42-12.86,2.88-18.96,5.04s-11.97,6.62-18.47,8.53c-24.26,7.11-51.1,8.71-75.92,12.08-10.31,1.4-23.41,5.58-33.29,5.8-14.46.32-28.55.23-42.86-.91-11.64-.93-21.5,4.08-31.98,4.06-6.96,0-15.71-3.56-22.97-4.12-10.26-.79-19.73,2.33-28.99,2.05-8.87-.27-19.41-5.39-29.1-6.05-20.72-1.42-38.98-5.03-58.96-6.95-4.83-.46-10.03.46-14.87-.13-8.46-1.03-17.57-7.45-26.56-9.44s-19.5-1.57-28.33-4.67c-5.39-1.9-10.24-6.08-15.73-8.27-11.35-4.51-22.26-6.25-33.68-12.32-17.64-9.37-47.66-31.05-52.62-51.38-2.44-10.01,6.31-28.97,13.27-36.36,5.52-5.87,25.13-19.78,32.34-23.66,6.66-3.58,14.1-3.49,20.98-6.02,5.67-2.09,10.82-6.87,16.51-8.49,4.75-1.35,9.33-.62,13.48-1.52,25.6-5.56,50.96-13.28,77.36-15.64,5.22-.47,9.58,1.03,13.74.82,3.27-.16,7.69-2.45,11.24-2.84,18.87-2.11,40.54,1.52,58.59-1.41,3.31-.54,7.25-2.17,11.6-2.39ZM1056.16,878.94c-3.16-3.45-19.54-18.13-22.96-19.54-37.58-15.56-67.79-29.52-108.93-35.07-6.84-.92-12.43-5.83-18.34-6.66-13.17-1.85-30.24-4.99-42.92-6.07-5.99-.51-11.19,1.45-16.88.87s-11.87-4.28-18.12-4.88c-29.99-2.87-60.52.28-90.04-3.96-15.24-2.19-40.84,4.23-56.96,4.94-18.52.82-34.48,4.57-53,7-10.29,1.35-13,2.13-22.63,4.37-8.72,2.02-19.25,2.49-27.64,5.36-4.36,1.49-7.63,4.66-12.16,5.84-5.06,1.31-10.95,1.03-16.28,2.72-7.2,2.28-12,7.78-18.41,10.59-4.06,1.78-8.59,2.2-12.69,4.31-8.06,4.15-23.05,17.44-27.92,25.08-4.18,6.56-2.41,18.49-.48,25.97,1.62,6.26,12.92,17.6,18.25,21.75,10.38,8.09,47.05,26.53,59.68,30.32,6.74,2.03,13.78,1.43,20.6,3.4,10.21,2.94,19.67,9.67,30.98,11.02,5.57.67,11.21-.24,16.61.39,7.14.83,14.14,5.19,21.38,6.62,16.43,3.24,40.19,6.54,56.85,8.15,9.55.93,18.62-1.65,27.86-.86,8.24.7,17.78,5.07,26.02,5.08,9.16,0,18.14-3.77,28.03-3.12,7.03.46,16.41,4.17,22.92,4.06,5.73-.1,13.68-3.49,20.06-4.01,39.55-3.23,75.97-3.11,115.32-12.68,6.61-1.61,12.81-4.68,18.94-6.06,6.55-1.47,13.87-1.02,20.27-2.73s22.1-9.24,28.63-12.37c13.7-6.55,40.02-22.3,44.55-37.45,2.67-8.94-4.45-25.68-10.57-32.37Z"/>
  <path d="M1002.27,458.82c.86,1.17,1.16,2.33.8,3.78-.97,3.96-5.9,12.95-8.04,17.01-11.06,21-23.52,37.74-37.94,56.06-7.02,8.92-10.12,26.02-23.63,25.48l-12.96-66.03c12.77-5.75,16.18-3.57,17.99,9.98,1.25,9.4.35,20.05,1.5,29.49,5.43-3.39,5.99-8.69,8.68-13.32,7.79-13.43,14.88-26.92,23.26-39.74,5.15-7.87,10.16-15.89,15.12-23.88,4.22-4.55,10.28,0,15.21,1.18Z"/>
</svg>