<?xml version="1.0" encoding="UTF-8"?>
<svg id="Calque_1" data-name="Calque 1" xmlns="http://www.w3.org/2000/svg" viewBox="0 0 1605 1605">
  <path d="M1160.22,1078.79c4.49,4.18,10.34,7.59,14.8,11.69,12.18,11.22,20.05,21.29,30.48,33.52,6.05,7.1,15.13,11.88,21.56,18.44,5.98,6.1,10.5,15.46,15.96,21.04,4.34,4.44,11.76,8.04,16.51,12.49,3.95,3.7,6.45,8.39,9.96,12.04,6.6,6.85,21.65,18.89,23.25,27.75,1.28,7.05,2.47,26.11,1.23,32.71-.31,1.64-1.04,2.78-2.67,3.33-6.22-.54-12.86,1.07-18.76,1.24-15.77.47-32.24-2.12-47.04-2.03-5.22.03-12.6,2.93-18.01,2.99-3.86.04-10.16-2-14.04-2.04-23.87-.25-47.87.86-71.94,1.03-9.96.07-22.11-2.18-31.01-2.08-6.33.08-13.37,3.23-20.02,3.16-6.03-.06-13.13-2.86-18.98-2.86s-12.11,2.64-17.96,2.83c-9.43.31-20.38-1.1-31-1-22.22.19-44.33,1.02-66.16-.92-11-.97-21.62,2.79-32.86,1.86-29.58-2.46-62.72-.84-93.06-.94-2.62,0-5.12-1.13-7.96-1.13-6.25,0-12.71,2.88-18.96,3.14-8.37.35-15.44-3.27-24.09-3.09-19.29.4-38.98.97-58.06,2.94-10.22,1.05-17.76-3.07-26.91-2.97-7.81.08-15.72,3.4-24.03,3.12-4.51-.15-8.53-1.76-12.92-2.08-11.36-.83-23.8,1.91-35.07,1.07-21.68-1.61-41.28.98-63,0-12.05-.54-15.49-.92-27.93,0-12.97.96-28.28-.56-41.14-1.93-8.15-.87-15.39,2.03-22.89,1.98-4.44-.03-10.35-1.94-14.96-2.13-10.84-.44-23,1.66-34.05,1.11-3.94-.2-8.4-2.26-12.02-2.17-4.59.11-8.06,5.64-10.21-1.66-2.36-8.01-.34-14.87-.21-22.79.05-2.88-1.2-5.41-1.11-7.93.23-6.84,3.88-4.2,4.05-4.52.37-.66-.97-2.51-.92-3.57.07-1.66,11.68-12.97,13.92-14.94,27.66-24.33,54.67-49.39,82.02-73.98,11.02-9.9,21.18-23.77,33.49-33.51,1.65-1.31,10.31-5.76,10.52-6.7-.56-8.73,2.99-18.32,3.06-26.78.08-10.62-3.79-21.93-3.06-33,1.81-27.46,3.12-55.2,2.02-83.06-.2-5.15-2.11-10.6-2.11-15.96,0-8,3.16-17.12,3.15-25,0-8.3-3.17-19.06-3.17-27,0-6.65,3.15-15.46,3.17-22,.01-7.83-2.07-18.01-2.13-25.95-.18-23.32,1.75-46.85,2.1-70,.14-9.12-2.49-17.87-2.08-26.08.26-5.4,2.95-11.83,3.07-17.02.33-14.64-1.3-30.23-1.06-44.89.05-3.14,2.04-7.05,2.11-10.13.06-2.3-2.93-.46-2.08-3.42,19.37-1.31,39.26-4.62,58.46-.96,12.92-3.87,26.49.94,38.04.94s25.85-3.02,39.03-2.02c18.31,1.38,34.13-.73,52.01,0,4.77.19,10.14,2.08,14.94,2.12,5.44.04,10.85-2.21,16.01-2.17,7.37.07,17.55,2.2,24.89,1.98,4.78-.14,11.38-2.88,16.11-2.88,7.29,0,14.41,3.47,23.04,3.02,5.37-.28,12.21-3.02,16.96-3.02s10.93,2.92,15.99,3.05c10.33.28,22-1.55,33.04-1.1,4.17.17,8.98,2.12,12.96,2.11,5.95,0,13.31-3.81,19-3.87,6.14-.06,14.43,3.47,21.01,3.58,22.49.4,45.39-2.3,68.04-1.84,7.13.14,15.95,2.26,22.96,2.12,5.84-.12,13.23-3.17,18.94-3.1,8.89.11,17.94,3.75,28.09,3.06,5.35-.36,11.95-3.02,16.96-3.02s12.34,2.81,17.96,3.03c7.1.27,14.41-.28,22.05-.05,12.55.38,25.06-.34,37.54,1.47l2,36c-2.62,14.82.65,29.42,1,44,.21,8.84-2.4,17.6-2.08,26.08.24,6.46,3.09,14.49,3.13,20.96.04,7-.96,15.44-1.08,22.99-.48,30.81,2.04,61.87,1.03,93.05-.15,4.54-2.14,10.53-2.07,14.91.14,8.99,1.93,17.77,1.99,28.01.1,16.02.89,29.33,2.03,45.06.83,11.49-3.03,21.63-3.02,32.03,0,8.23,4.02,18.89,4.12,26.96.08,6.72-3.03,15.36-3.12,22.04-.06,3.89,1.78,8.91,1.25,13.25ZM1152,659c-7.92-.49-15.66.92-23.56,1.04-16.14.25-29.45-.25-45.96.94-10.04.73-17.41-3.09-25.99-3.07-7.8.01-17.5,3.29-24.99,3.17-5.3-.08-11.47-2.85-16.98-3.12-8.61-.41-19.39,2.07-28.04,2.13-20.96.14-44.13-3.36-64.95-3.13-7.23.08-14.19,3.68-22.1,3.07-4.8-.37-8.92-2.69-13.92-3.07s-9.48,1.02-14,1.08c-11.63.14-25.22-1.6-36.08-1.08-5.47.26-9.9,2.29-16.01,2.08-6.51-.22-13.61-3.21-19.95-3.13-5.97.08-12.98,3.18-19,3.17-6.41,0-13.18-1.9-20.96-2.04-16.35-.3-32.05-.5-48,0-22.83.71-45.46-1.12-68.04-1.13-9.78,0-20.19-1.22-29.05-.94-4.58.14-10.45,2.09-14.91,2.08-7.01-.02-14.26-2.52-22.09-2.08-10.9.61-20.97,1.59-31.98,1.08-6.67-.31-14.07-3.62-21.47-2.04,2.54,10.4.81,20.83.95,31.54.11,8-.34,17.54.01,24.99.28,5.85,3.12,12.11,3.12,17.96,0,4.53-1.81,9.17-2.13,13.95-.87,13.11.94,28.75,1.09,42,.29,26.89-.73,53.38,1,80,.85,13.14-2.96,26.13-2.02,39.02,2.77,38.11-.38,76.81,1.97,115.03.85,13.85-2.69,26.65-2.04,40.04.35,7.1,2.69,14.09,2.19,21.31,3.97,2.45,8.43.36,12.19.53,9.87.44,21.86,2.24,31.28,2.51,5.96.17,14.69-3,20.89-2.98,5.62.02,13.29,3.14,18.9,2.98,34.26-.97,68.48-4.83,103.14-3.94,9.69.25,13.79.61,23.97.05,15.37-.85,28.56,1.32,45,0,10.79-.86,20.2,3.86,30.09,3.88,7.34.01,14.51-2.73,22.93-1.94,18.9,1.76,47.28,4.5,66,3.08,6.14-.47,13.25-3.96,19.01-4.06,5.42-.09,12.77,2.82,18.9,3.07,21.56.88,46.21-2.81,68.01-3.08,11.69-.15,25.09,1.88,36.08,1.08,5.64-.41,12.6-3.02,18.01-3.07,7.94-.07,17.37,3.47,25.99,3.07s16.48-5.25,23.95-6.04c7.96-.84,15.79,2.28,24.06,2.05,5.4-.15,10.99-2.02,16.44-2.05,1.17-12.26-2.59-23.32-2.04-35.54.43-9.57,2.63-17.86,2.09-27.99-.38-7.13-3.05-14.97-3.12-21.94-.06-5.14,1.9-10.05,2.12-14.98.72-15.95-2.01-32.84-1.08-48.08,1.49-24.32-.88-45.78-1.02-69.92-.06-9.99,2.67-19.45,2.05-30.02-1.66-28.36-.27-55.97-1.98-84.02-.68-11.14,1.99-20.8,2.08-30.99.09-11.61-2.25-26.48-2.12-38.94.02-2.32,2.95-12.63,2.04-13.55ZM1281,1213.99c-4.18-4.07-8-9.46-11.97-13.52-4.96-5.07-11.01-9.27-15.54-14.46-4.37-5-7.67-12.09-11.98-17.02-5.52-6.32-13.95-10.63-20.02-16.98s-10.84-15.75-16.5-21.5c-2.86-2.9-7.43-4.92-10.47-7.53-9.83-8.46-20.41-23.2-28.52-33.48-.77-.97-6.03-6.25-6.48-6.26-.48,0-1.72,1.57-3.05,1.72-15.55,1.69-35.63,2.95-50.93,3-14.68.04-28.95,3.01-42.05,3.13-6.91.06-15.07-3.11-21.98-3.17-6.49-.05-14.48,1.94-20.97,2.12-26.25.73-55.61-2.02-81.08-.08-5.94.45-12.05,3.03-17.95,3.11-7.03.1-13.88-3.13-21.01-3.14-5.18,0-10.02,1.86-14.96,2.1-12.18.58-26.6-1.99-39.08-1.07-4.34.32-8.7,2.21-12.96,2.12-6.86-.15-16.12-4.75-23.11-4.98-6.27-.2-14.86,2.8-20.79,2.79-4.54,0-9.89-2.49-14.1-2.9-24.44-2.37-53.34-.67-77.96-1.04-9.85-.15-23.27-1.33-32.07-1-11.63.44-25.32,4.02-37.96,4.13-6.46.05-13.36-3-19.02-3.07-3.93-.05-9.82,1.97-13.96,2.05-6.49.11-13.83-2.06-20.03-2.14-5.72-.07-11.3,2.25-18.04,2.12-9.39-.17-17.61-2.85-26.04-3.95-14.1-1.84-11.85,3.58-19.39,11.44-4.54,4.74-15.1,14.93-20.02,18.98-4.43,3.66-10.53,5.97-14.66,9.84-4.88,4.58-8.66,11.26-14.34,16.16-4.32,3.72-9.9,6.38-14.02,9.98-5.04,4.4-7.95,10.42-12.98,15.02-16.38,15-33.88,28.53-49.92,44.08-.87.84-2.35,1.35-2.1,2.9-.03,1.72,12.69-1.52,14.51-1.58,10.11-.33,20.93,1.5,31.04,1.13,4.61-.17,10.52-2.1,14.96-2.13,7.51-.05,14.74,2.85,22.89,1.98,13.77-1.47,29.11-2.93,43.14-1.93,22.22,1.59,42.65-.87,65.01-.01,12.64.48,18.13.66,30.91,0,13.24-.67,27.43,2.09,40.02,1.02,4.73-.4,10.36-2.7,15.02-2.77,8.67-.13,17.9,4.14,27.04,3.83,7.44-.25,15.67-3.78,22.96-3.84,5.21-.04,11.12,2.37,16.01,2.78,17.99,1.51,37.85.68,55.95,1.05,10.92.22,19.56-3.63,30.09-3.08,6.12.32,11.97,2.68,17.92,3.08,11.7.79,27.88-.96,39.99-1.08,27.53-.26,54.88,1.2,82.06-.94,11.4-.9,22.28,3.19,32.98,3.07,8.17-.09,15.64-3.57,25.06-3.13,24.28,1.13,49.59,3.75,74,3.09,6.68-.18,14.57-3.14,20.95-3.13,7.23,0,16.43,3.63,24.17,3.7s15.23-3,22.83-3.05c8.37-.06,16.3,3.25,23.97,3.49s18.16-1.84,27.02-2.05c6.29-.15,13.21-.97,19.01-1,4.52-.02,11.29,1.97,15.96,2.04,14.17.23,28.38-.25,42.54-.05ZM1287,1245v-15.5c0-.89,2.93-7.13,1.5-7.51-5.68.08-11.36-.07-17.04-.04-29.27.17-58.89,1.9-88.06-.85-11.51-1.09-20.4,3.16-30.93,2.96-8.79-.17-16.39-3.55-26.01-3.1-7.08.33-14.94,3.2-21.97,3.12-7.6-.08-14.92-3.29-23.03-3.13-19.47.4-39.47.25-58.99,1.01-4.73.18-10.25,2.18-14.95,2.13-5.56-.07-12.23-2.7-17.97-3.12-11.5-.84-22.27,2.89-32.86,2.65-5.3-.12-10.88-2.27-16.14-2.65-16.77-1.23-39.34,1.31-56.99,1.08-16.3-.21-34.22-2.22-50.04-2.12-7.36.05-16.19,4.14-23,4.16s-14.28-3.6-20.96-4.11c-5.48-.42-10.02,1.03-14.99,1.08-20.69.24-37.67-.23-58.15,1.85-10.78,1.09-18.98-3.09-28.9-3.33-8.82-.21-17.92,3.52-25.99,3.51-5.49,0-12.26-2.73-17.97-3.12-15.62-1.06-32.1.17-49.05-.95-15.62-1.03-36.15,2.84-53.03,2.02-5.65-.27-12.68-2.78-17.96-2.82-3.56-.03-8.26,1.75-11.96,1.83-28.56.61-57.91-.94-86.04-2.82-14.96,3.79-30.32-.58-45.5-.21l2.99,30.99,30.46-2.05c31.55,3.77,65.61-2.74,97.09-.99,4.96.28,9.79,2.1,14.96,2.1,15.75,0,32.11-2.86,49.04-2.1,11.86.53,15.96.65,27.93,0,15.77-.85,30.72-.09,46.99-1,8.95-.5,17.11,3.03,25.05,3.03,6.94,0,16.11-3.9,23.01-3.79,4.05.06,8.84,2.4,13,2.78,11.3,1.03,26.21-1.68,38.03-1.03,4.18.23,9.01,2.12,12.96,2.11,6.35,0,13.85-4.03,20.01-4.15,5.49-.11,11.87,2.78,17.95,3.12,11.03.62,24.82-.93,36-1.09,47.56.33,94.8-.05,141.99,0,17.82.02,32.43.78,50.17-.83,9.14-.83,15.9,2.67,23.88,2.66,6.22,0,13.48-2.94,20.02-2.87,6.19.07,13.31,3.15,18.98,3.15,3.55,0,7.42-1.77,11.02-2.06,18.24-1.43,39.3,0,57.94-.06,25.51-.08,50.82.36,76,0,9.97-.14,20.2-.99,30.01-1.02,7-.02,14.31,1.97,21.54,1.06Z"/>
  <path d="M919.87,256.87c-2.51,1.59-9.27-2.4-12.09-3.15-9.08-2.41-36.26-1.71-44.46,2.1-4.05,1.88-7.62,6.07-11.42,8.58-21.67,14.34-43.02,31.01-53.09,55.91-1.04,2.56-2.7,6.51-2.85,9.17-.07,1.25.02,2.09,1.51,1.5,2.5-.99,6.56-4.74,9.82-6.18,11.69-5.15,18.49-2.9,30.18-3.82,8.47-.67,18.79-4.39,27.02-4.06,9.79.4,20.26,8.05,28.47,12.59,12.97,7.16,20.7,8.14,25.32,24.68,13.16,47.13-50.09,54.71-82.68,49.68-18.31-2.82-37.71-21.04-43.64-38.36-2.14-6.26-2.45-13.38-4.17-18.83-.31-.97-1.08-1.94-2.21-1.61-7.42,5.55-15.82,10.04-22.65,16.38-12.73,11.83-21.79,29.19-24.51,46.49-1.74,11.07,6.1,35.58,11.53,45.57,6.43,11.83,24.06,20.71,33.7,30.31l2.28.12c1.81-5.69,5.03-11.07,9.02-15.49,22.04-24.42,39.93-33.44,72.77-38.24,13.93-2.03,37.34,9.62,49.18,17.34,17.82,11.63,15.37,42.11,0,54.83-11.9,9.86-16.69,7.94-30.16,10.84-11.19,2.41-17.8,7.23-30.18,5.66-4.52-.57-10.06-3.49-14.55-4.45-6.71-1.44-13.62-1.81-20.25-3.75-11.09-3.24-22.79-9.81-33.77-13.72-3.54,13.75-7.19,25.05-2.5,38.99,3.8,11.31,20.69,36.25,30.78,42.22,2.91,1.72,26.29,10.67,29.65,11.35,4.28.87,16.01-1.7,16.94,2.06,1.64,6.64-10.2,2.7-12.49,2.48-11.83-1.13-16.78-.08-27.7-6.3-17.43-9.92-33.22-20.64-40.56-40.44-2.58-6.96-5.14-27.13-5.21-34.85-.07-6.98,2.84-13.16,3.98-19.84-9.82-6.3-18.71-13.86-26.41-22.66-20.73-23.69-23.19-36.71-22.38-68.41.66-26.21,32-57.24,55.71-65.8,5.47-31.17,25.82-56.63,51.27-74.23,10.95-7.58,14.47-6.84,25.9-11.1,7.49-2.79,12.79-7.63,21.53-8.47,6.26-.6,32.36,1.68,34.33,8.71.38,1.34-.14,5.63-.96,6.15ZM795.14,340.14c-2.03,13.49,7.56,39.96,20.17,46.05,23.06,11.13,53.48,13.43,77.67,4.29,12.53-4.74,22.24-19.85,18.35-33.3-1.14-3.93-11.95-16.9-15.42-19.58-9.45-7.31-18.79-5.15-29.29-6.71-5.89-.87-12.5-3.23-18.24-3.76-13.43-1.23-22.22,4.76-34.39,8.37-6.21,1.84-12.82,2.15-18.85,4.65ZM856.8,441.25c-5.63.44-18.16,5.03-23.48,7.57-10.46,5.02-25.56,13.74-31.74,23.26-1.8,2.77-7.03,11.34-8.06,13.96-.42,1.06-1.03,1.93-.1,3.01,7.26,3.45,14.05,7.54,21.61,10.4,5.32,2.02,23.85,8.29,28.55,8.46,4.42.15,11.04-1.79,15.86-1.96,12.91-.48,19.56,4.03,32.54-.46,14.21-4.91,35.82-16.12,28.51-34.49-11.28-28.33-23.59-26.61-49.98-28.02-4.67-.25-8.54-2.14-13.71-1.73Z"/>
  <path d="M760.77,1154.28c9.94-.77,16.25,2.8,24.73,2.81,4.53,0,9.39-1.84,13.96-2.13,10.72-.69,19.07,1.62,28.99,2.08,8.85.41,16.25-2.25,25.1-2.09,13.31.24,26.72,2.27,39.91,3.08,5.84.36,20.12-3.06,22.98,1.02,3.27,6.51,6.84,15.11,11.12,20.88,3.2,4.31,16.44,14.18,5.45,18.58-9.62,3.85-16.74-.57-25.51-.57-21.02,0-42.18.9-63.04,1.02-17.5.11-34.38,1-51.99.99-11.64,0-23.38.78-35.07.95-4.34.06-10.56-1.94-14.89-1.98s-7.97,2.1-12.01,2.16c-7.4.12-16.97-1.8-24.1-1.97-5.33-.13-15.3,4.62-15.24-4.61s18.86-31.6,25.79-37.99c8.57,2.32,16.61-.96,24.53-1.54,6.54-.47,12.3-.14,19.31-.69ZM913.74,1166.26c-7.2-1.88-14.77-2.67-22.23-2.25-13.01.74-29.03,2.72-42.05,2.02-5.89-.32-12.01-3.03-17.95-3.11-9.06-.12-17.92,2.66-28.05,2.12-5.73-.31-12.7-2.54-18.12-2.66-6.27-.14-13.43,2.87-19.84,2.68-10.52-.3-24.34-3.13-35-4.06-4.49-.39-9.29.27-13.82-.05-6.18,11.81-14.8,22.01-18.67,35.03,8.51-.17,16.96-.71,25.48-1.01,9.82-.34,19.1-.54,28.97-1.03,29.84-1.47,60.33-.15,90.04-.88,5.39-.13,10.04-1.5,15.98-1.07,9.79.71,11.71.4,21.03,0,10.49-.44,21.68.74,32.02.02,5.49-.38,10.63-3.1,16.46-2.05l-14.26-23.73Z"/>
  <path d="M1136.76,676.24c3.63,3.63-.89,10.05-.85,14.26.05,5.22,1.91,12.63,1.89,18.01-.03,7.55-2.9,17.03-2.83,23.95.06,6.36,2.95,15.13,2.94,21.94-.02,17.01-3.66,36.93-3.8,53.22-.16,18,2.79,38.29,1.94,56.93-.31,6.92-3.05,15.56-3.13,21.97-.06,4.66,1.83,10.19,2.13,14.95,1.14,18.51-1.41,36.34-.06,56.06.97,14.19-3.67,26.34-2.97,39.97.35,6.77,3.1,15.47,3.07,22.01-.02,5.24-2.62,11.71-3.06,17.02-.63,7.53-.05,16.23.76,23.75-2.82,10-5.97,2.97-11.25,2.64-3.27-.2-5.99,1.06-8.99,1.13-13.81.32-34.18,1.9-47.08.99-5.1-.36-11.1-3-16.01-3.06-7.54-.1-15.78,2.61-23.99,2.07-27.36-1.82-56.62-3.31-83.98-3.03-8.2.09-17.35,2.18-23.98,2.07-5.45-.09-11.18-2.89-16.96-3.12-7.08-.27-16.47.12-23.93.14-9.99.03-22.07,1.98-31.11,1.97-5.16,0-11.48-2.8-16.96-3.1-7.8-.43-14.29,2.5-22.08,2.06-9.57-.54-17.58-2.14-28-2.07-21.31.14-45.66,1.18-66.99.08-4.39-.23-8.53-2.12-12.97-2.13-12.52,0-27.8,2.84-41.04,2.12-5.37-.29-11.87-2.99-16.96-3.02-3.41-.02-8.4,1.76-12.01,1.98-10.54.64-20.14-2.64-30.03-2.02-4,.25-8.16,2.11-11.91,2.06-8.53-.11-20.33-2.09-29.06-3.01-4.44-.47-9.95,1.07-13.87-1.13-8.25-4.63-2.09-24.93-1.58-32.35,1-14.46-.93-34.73-1.08-50.08-.09-9.21-1.75-17.79-1.75-25.96,0-5.9,2.46-12.99,2.83-18.96.68-11-2.65-21.74-2.09-33.09,1.59-31.97,1.53-64.05,2.05-95.95.6-37.1.05-74.73.95-112.04.1-3.92,1.81-7.11.05-11.46,5.45-.27,11.03.37,16.48-.02,9.41-.67,18.46-1.83,27.97-2.03,7.13-.15,12.98,2.28,20.09,2.09,5.35-.14,11.4-2.11,16.96-2.11,7.35,0,14.23,2.5,22.04,2.1,15.54-.8,28.99-1.69,44.94-1.02,10.53.44,14.5.37,24.98-.05,17.53-.72,36,2.63,52.09,2.08,4.66-.16,9.69-2.12,13.95-2.12,15.02-.03,24.2,1.53,40.01.09,10.41-.95,18.2,3.17,26.99,3.08,7.23-.08,14.38-3.41,22.05-3.13,16.81.61,34.02,1.32,50.99,2.01,4.14.17,8.97,2.14,12.91,2.07,5.88-.12,14.23-4.01,20.05-4.02s13.9,3.94,20.05,4.02c18.69.24,38.06-1.08,56.99-.99,17.37.08,32.7.62,50.08-.92,10.71-.95,20.05,2.97,29.88,2.97,5.35,0,21.14-4.98,24.26-1.86Z"/>
</svg>