<?xml version="1.0" encoding="UTF-8"?>
<svg id="Calque_1" data-name="Calque 1" xmlns="http://www.w3.org/2000/svg" viewBox="0 0 1605 1605">
  <path d="M1191.2,502.65c12.23-11.95,22.59-26.71,35.98-37.51,13.68-11.03,27.46-6.51,22.53,12.53-3.45,13.34-10.75,28.49-17.35,40.65-2.86,5.28-7.93,10.43-9.16,16.33l9.51-8.98c6.65-12.31,17.56-18,29.17-24.83,6.92-4.08,28.41-10.51,33.19-1.55,7.81,14.61-4.29,25.62-11.29,36.45-6.28,9.73-12.58,21.58-19.16,30.84-4.85,6.82-12.34,13.11-17.39,19.61-14.93,19.25-32.5,43.55-44.2,64.8-1.47,2.66-2.46,5.48-3.82,8.18,5.06-.01,10.5,1.35,15.45,1.53,7.55.27,17.7-1.77,24.06-1.06,10.81,1.22,4.13,8.8,4.65,12.27,1.24,8.36,8.18,18.36,10.87,26.21,5.27,15.38,7.26,28.17,8.98,44.02,1.58,14.63,7.22,26.78,7.78,43.02.43,12.48,1.46,21.94,2.24,33.96,1.58,24.2-4.04,53.38-6.05,78.02-1.85,22.69-12.99,51.33-19.45,73.55-4.49,15.44-12.63,27.2-18.71,41.29-2.87,6.65-3.97,14-7.63,20.37-3.81,6.63-10.56,11.84-15.02,17.98-6.12,8.42-9.1,18.99-15.2,26.8-4.95,6.34-19.66,20.63-26.08,26.92-11.93,11.7-23.01,17.99-35.37,27.63-6.98,5.44-12.25,14.48-20.49,18.51-6.34,3.11-14.37,4.13-21.02,6.98-14.35,6.16-26.51,13.06-42.24,17.76-27.85,8.32-51.88,7.28-80.24,7.76-7.4.13-14.47.39-21.53-2.04-.71,10.03,3.04,19.6,3.98,29.51.49,5.13-.45,10.7.12,15.88.76,6.88,4.73,14.47,5.82,21.18,2.38,14.62,1.23,33.25,3.16,47.84.9,6.79,5.98,14.01,6.81,21.19,1.63,14.06,1.34,30.58,3.19,44.81.77,5.95,5.05,12.76,5.81,19.19s-.83,12.16-.62,17.62c.32,8.32,5.72,16.87,6.61,25.4.67,6.37-1.18,12.41-.82,17.73.39,5.86,4.63,13.71,5.66,20.43.81,5.28.23,10.92,1.28,16.22l-6.06-.63c-4.24-10.99-1.62-23.03-3.03-33.78-.77-5.84-5.07-11.81-5.81-18.19-.84-7.28.75-15.65-.19-22.81s-6.37-15.44-6.82-23.23c-.33-5.73,1.55-11.35.8-17.74-1.51-12.89-8.34-30.83-9.79-43.22-.86-7.3,1.53-13.98.78-20.79-.53-4.8-3.39-9.6-4.43-14.56-1.93-9.15-3.39-18.63-5.2-27.8-1.95-9.91-.26-19.21-1.36-28.64-.82-6.97-4.51-15.33-5.77-23.23-2.71-17.08-3.28-34.65-5.23-51.77-.76-6.61-4.63-14.16-5.77-21.23-1.52-9.39-1.03-19.16-2.26-28.74-1.05-8.15-3.8-16.17-4.84-24.16-1.07-8.22-.21-17.06-1.12-24.88-.97-8.31-3.58-18.89-4.9-28.1-3.06-21.31-6.41-42.77-8.87-64.13-.22-1.94-.61-20.4-1.63-20.39l-15.38,4.12c-1.43,1.7,2.67,17.65,2.92,21.36.53,7.59-1.35,14.62-1.07,22.08s2.81,15.64,3.08,22.91c.32,8.52-1.41,17.06-1.03,26.04,1.12,26.51,4.88,54.39,7.03,80.97.93,11.44,2.69,19.69,3.85,30.15.67,6.04-.74,13.28.05,18.95.46,3.29,4.05,6.36,1.14,10.05-2.05,2.6-12.69,1.08-16.58,1.41-12.4,1.05-25.22.88-37,2-4.86.46-9.89,2.78-14.97,3.03-9.93.47-21.33-4.08-30.92-3.93-8.42.13-18.92,4.7-27.11,4.68-5.07,0-10.27-2.05-16.04-1.83-8.69.33-24.06,8.87-28.2-2.72-4.81-13.48.25-28.89-1.25-42.75-.4-3.72-2.46-7.33-2.9-11.1-2.76-23.51-.73-47.39-2.15-70.85-.92-15.24,1.32-30.89,1.04-46.04-.16-8.86-3.91-17.98-1.01-27.5-8.13,5.39-17.43,9.01-27,11.01.63,3.68,1.66,7.82,1.99,11.5.93,10.35,1.24,20.6,2.02,30.98,3.93,51.97,9.57,104.68,5.03,157.05-1.21,14-6.02,21-9.53,33.47-2.69,9.54-2.61,20.42-6.79,29.21-13.2,27.69-34.56,54.76-52.3,79.7-9.43,13.25-17.51,13.88-31.09,19.91-19.81,8.8-45.82,19.28-66.54,25.46-13.72,4.09-27.72,3.59-41.79,2.71-.16,4.77.31,9.61-.12,14.38-2.14,23.42-8.88,45.08-10.89,69.11-.35,4.14-2.3,8.23-1.99,12.51h-8c-2.58-2.61,6.34-26.75,6.9-31.6,2.78-24.3,5.08-40.23,10.87-64.13.98-4.04-1.43-9.07,4.3-9.83.08-13.87,4.84-26.92,7.68-40.19.92-4.31.75-9.76,1.7-14.3,1.85-8.82,6.99-15.97,9.09-23.91,1.91-7.19,1.94-15.72,3.75-23.25s6.12-15.46,7.25-22.75c1.04-6.67-.3-13.43,1.44-20.05-11.83,0-26.61-2.05-38-5.5-6.2-1.88-10.63-5.74-16.01-7.99-14.37-6.02-21.01-5.26-32.5-17.5-13.26-14.14-28.42-26.16-40.46-41.54-7.24-9.25-14.25-18.33-21.54-27.46s-8.84-20.76-14.32-30.68c-4-7.25-11.19-14.32-14.36-21.64-2.75-6.34-3.61-14.17-6.05-20.95-3.74-10.42-9.78-21.15-13.04-31.96-2.26-7.49-2.44-14.72-4.17-21.83-1.58-6.49-5.37-13.01-7.26-19.74-5.81-20.68-6.45-37.9-8.3-58.7-.71-8-4.31-15.92-4.97-24.03-1.96-24.11-.31-49.71-.05-73.93.13-12.65,5.71-24.59,6.91-36.17.54-5.18-.28-10.42.38-15.62,2.15-17,13.31-37.67,19.27-53.78.39-1.05-.51-2.51-.32-2.81,2.47-4.01,11.29-2.61,15.19-3.27,3.47-.59,7.05-2.41,10.18-2.81,6.94-.89,13.62,1.3,20.43.4-.94-4.53-1.59-9.4-2.01-13.99-3.85-42.67-11.03-63.8-35.18-98.82-10.27-14.89-24.83-30.21-33.65-45.35-5.46-9.37-10.02-19.75-.2-27.93,1.06-.54,1.96-.24,3.02.03,1.71.42,18.52,10.46,20.94,12.14,11.38,7.86,21.32,20.6,33.05,28.44-.42-2-1.54-5.28-2.57-6.92-12.5-19.75-37.65-51.43-34.33-75.49,1.2-8.65,5.7-7.17,11.95-4.13,11.82,5.75,28.18,18.69,32.53,31.47l7.43,7.06c-.98-7.8-8.59-17.83-9.76-24.73-1.01-5.96-1.23-25.83,4.19-29.33s14.07,2.53,18.49,5.65c15.21,10.74,23.91,31.79,31.92,48.08l5.16,7.33c1.05-9.36-5.09-19.17-6-27.49-.57-5.22-1.12-15.73-1.08-21,.08-12.18,6.47-18.8,18.46-13.38,13.96,6.32,14.49,19.77,19.13,31.87,5.65,14.72,11.28,27.69,14.24,43.76,1.28,6.96,5.11,27.95,5.15,33.85.02,4.43-2.46,10.21-2.87,14.91-.74,8.5.5,17.88,0,26.48l7.82-9.66c6.92-14.21,18.11-25.02,28.65-36.35s14.44-18.45,31.28-20.78c11.67-1.62,3.95,21.13,1.7,27.76-7.87,23.12-26.13,46.17-37.63,68.37-2.88,5.56-9.2,16.78-11.04,21.96-1.16,3.28-4.87,24.01-4.73,27.14.44,9.59,8.1,5.59,8.96,10.08.78,4.06-2.19,9.98-2.11,15.01.41,26.58,5.5,37.54,18.27,59.79,3.68,6.4,18.97,32.88,22.77,36.23,3.01,2.65,30.5,16.22,33.73,16.27,4.61-2.74,7.16-6.74,12-9.61,5.83-3.45,16.01-4.78,19.06-10.93,4.16-8.38-5.42-10.62-10.68-14.86-22.14-17.82-43.87-35.77-31.86-67.69,3.06-8.14,6.99-8.84,11.42-14.08,9.7-11.46,11.47-18.14,27.34-23.16,8.05-2.54,29.14-8.51,36.55-8.54,2.93,0,16.35,2.26,14.95-4.04-.62-2.81-10.44-14.8-12.99-17.93-3.21-3.94-7.79-6.87-10.71-11.29-17.83-27.05,6.02-70.33,29.87-86.52,9.58-6.5,25.49-17.37,36.83-18.16,6.91-.48,20.24-.6,27.02-.06,8.43.67,16.15,5.04,24.07,5.93,11.54,1.3,15.36-.97,26.7,5.3,6.74,3.72,11.46,10.17,17.36,13.64,3.72,2.19,8.07,3.05,12.05,4.95,1.87.89,3.11,3.15,4.26,3.63,3.86,1.63,11.24-.1,15.08-1.88,16.86-7.82,13.13-12.88,22.45-24.55,4.05-5.07,10.23-9.07,14.51-13.49,9.46-9.79,13.47-20.59,29.61-22.38,6.6-.73,33.37,3.39,40.62,5.17,20.57,5.04,50.14,44.81,51.76,65.24.68,8.58-1.14,26.82-4.11,34.85-2.16,5.84-6.29,9.87-9.04,14.96-3.91,7.24-5.46,13.48-10.86,20.14-8.35,10.29-24.38,20.75-36.97,24.54,2.46,13.21,6.85,24.76,5.99,38.48-.23,3.65-1.99,8.62-2.02,12.06-.06,5.16,2.1,11.78,1.04,17.45,8.31-2.29,12.53-10.94,19.3-15.19,3.26-2.04,28.98-12.62,32.63-13.36,11.05-2.25,21.36,6.06,22.1,17.02,1.04,15.27-11.37,25.92-19.45,36.63-3.96,5.24-5.68,10.6-10.57,15.47-1.44,1.44-5.54,1.88-1.54,3.45,2.34.92,3.91.78,6.45,2.56,7.65,5.36,12.37,22.84,18.61,30.46,5.27-.09,16.69-15.97,19.26-20.73,4.11-7.62,4.71-14.52,7.71-22.29,2.09-5.39,5.71-9.98,7.19-15.81,2.75-10.89.56-22.57,1.31-33.69.48-7.18,3.16-14.88,3.07-22.02-.08-5.71-2.46-12.17-3.06-18-.77-7.4-.63-15.14-1.58-22.53.89-1.99,1.85-3.5,4.09-3.94,6.03-1.18,28.67,2.5,31.26-3.74,2.46-5.9-.22-11.03-.77-16.8-1.28-13.53-6.1-36.26-10.97-49.03-2.79-7.33-9.22-13.6-12.59-20.41-3.55-7.18-8.75-27.07-4.88-33.96,5.22-9.29,16.76-6.04,22.25,1.58,9.21,12.76,14.31,30.4,23.66,43.32,1.37.04,2.88-7.28,3.2-8.78,3.21-14.7,4.93-29.82,7.41-44.59,2.6-15.46,9.82-27.51,14.16-41.84,5.66-18.67,3.01-23.47,19.71-37.29,7.33-6.07,13.93-11.13,21.52-2.49,9.66,10.99,3.91,21.67,1.5,34,3.9-2.75,5.48-7.49,8.48-11.01,4.65-5.45,18.81-21.86,23.6-25.4,6.79-5.02,17.29-5.81,20.65,3.18,2.94,7.86-1.22,28.87-4.86,36.61-2.48,5.28-7.14,9.86-8.87,15.62ZM1290.69,502.65c-2.59-.77-13.25,0-17,0-4.3,0-17.83,6.43-21.39,9.61-15.23,13.56-33.23,32.89-46.08,48.92-5.76,7.18-11.12,17.4-16.79,24.21-2.41,2.9-4.39,3.13-4.33-1.24.02-1.37,10.73-20,12.46-22.63,11.29-17.11,19.15-28.44,29.11-46.89,4.82-8.93,18.58-29.13,18.41-38.38-.15-8.51-2.47-11.55-10.19-7.4-29.74,15.97-57.58,65-72.9,94.1-1.61,3.05-4.52,14.06-7.07,15.04s-5.18-1.63-5.56-4.06c-.63-4.12,11.44-24.09,14-29.6,10.14-21.79,20.24-43.5,29.34-65.66,2.48-6.05,18.42-29.53-1.52-21.51-20.84,8.38-26,23.28-35.83,41.17-9.65,17.56-21.36,38.11-26.11,57.89-1.11,4.64-.48,20.16-8.09,18.04-6.37-1.78-3.85-14.87-2.68-19.81,1.81-7.62,6.39-14.18,8.75-21.25,2-6.01,2.52-12.46,4.5-18.5,4.3-13.1,16.4-29.97,15.44-43.53-.19-2.71-2.96-18.66-4.1-19.37-4.06-2.52-10.57,8.15-12.3,10.94-14.03,22.79-18.61,39.56-26.32,64.68-1.47,4.78-4.97,11.09-5.82,15.18-1.52,7.27-.38,17.38-1.69,25.31-.83,5.02-5.74,25.49-9.19,27.82-5.98,4.03-8.87-11.94-11.02-16.11-2.67-5.18-7.3-8.79-10.36-13.64-6.28-9.95-8.27-25.1-24.17-24.32-.63.58,3.3,11.65,3.98,13.51,4.19,11.46,9.51,26.67,14.54,37.46,2.71,5.83,7.17,10.4,9,17,1.32,4.78,5.46,25.22,5.47,29.52.03,6.39-3.24,14.92-3.99,21.49,12.5,2.83,25.21-1.03,37.48.03,5.48.47,11.53,3.13,17.01,3.07,6.15-.07,14.35-2.74,20.96-3.12,12.04-.7,22.29,2.56,33.04,2.47,2.52-.02,12.79-1.3,14.26-2.68,2.88-2.69,7.65-19.52,10.07-24.43,6.87-13.95,23.36-33.78,33.2-46.8,18.75-24.79,39.8-45.03,50.49-74.51.85-2.34,6.94-10.85,2.98-12.02ZM548.18,551.66c-4.18-.17-7.42,2.62-10.46,5.03-12.64,10-20.16,22.48-30.02,33.98-4.08,4.76-10.42,8.09-13.95,13.05-4.69,6.59-6.63,17.03-10.7,23.3-2.41,3.71-5.36,3.99-5.91-.81-1.52-13.29,3.13-28.82,2.08-42.09-.72-9.16-2.03-12.63-1.99-22.92.08-22.66-15.1-62.79-25.56-83.52-2.14-4.23-11.7-17.52-15.7-10.73-7.42,12.62-2.25,21.28-.06,33.49,2.61,14.59,4.32,29.68,7.96,44.04,1.07,4.24,9.1,20.25,1.81,20.23-3.63-.01-5.11-14.4-6.71-18.33-7.72-18.96-15.5-35.9-27.35-52.65-5.1-7.21-16.17-23.18-24.39-25.6-5.45-1.6-6.33-.7-7.77,4.3-2.47,8.56.79,23.01,4.23,31.23,8.42,20.12,21.82,40.3,30.59,60.51,1.35,2.04-.31,5.61-2.61,5.26-1.08-.16-12.94-14.37-14.3-16.44-4.25-6.49-10.7-16.89-14.35-23.65-3.08-5.7-4.56-13.75-7.84-18.16-2.3-3.1-13.42-12.95-16.98-16.02-2.33-2.01-18.62-15.29-19.91-14.41-3.54,6.07-2.66,14.92,0,21.31,7.94,19.08,21.8,35.58,31.69,53.31,4.18,7.49,8.89,16.57,13.36,23.64,1.81,2.86,13.02,12.95,5.85,16.22-3.09,1.41-7.01-8.39-8.58-10.49-10.2-13.59-35.13-35.27-48.96-46.04-5.2-4.05-10.64-9.55-17.83-8.92-3.52,1.17-.56,9.79.31,12.43,5.1,15.41,22.29,26.35,31.47,39.53,5.91,8.49,13.08,20.23,18.76,29.24,13.66,21.66,19.1,42.13,22.92,67.08,1.59,10.4,4.72,19.77,1.89,30.61,6.8-.71,13.72-3.45,20.51-3.98,7.95-.62,15.42,1.53,22.97.96,8.8-.66,17.62-5.66,27.04-5.98,3.47-.12,6.54,1.09,8.97.99,9.17-.37,18.9-4.49,28.51-2.99.13-6.93-1.73-13.35-.9-20.4,1.96-16.69,11.98-41.66,21.07-55.93,3.08-4.83,7.69-8.46,10.36-13.64,6.76-13.11,17.47-36.9,20.01-50.99.3-1.68.66-3.32.45-5.04ZM952.84,655.3c21.55-23.32,32.2-54.01,23.91-85.71-2.91-11.14-10.25-12.99-17.05-19.95-6.01-6.15-8.47-13.26-17.23-16.77-7.69-3.08-17.51-7.83-24.73-10.27-12.63-4.26-31.53,3.57-42.26,10.82-16.08,10.87-20.27,34.43-36.94,45.06-8.46,5.39-10.92,1.41-17.85,2.06-2.21.21-3.46,1.91-4.94,2-8.39.54-15.93-9.39-22.87-13.08-6.56-3.48-36.2-16.15-42.29-16.73-7.57-.71-18.3,1.4-26.92.94-4.54-.24-9.4-2.19-13.9-2.07s-25.92,4.31-29.89,6.2c-6.57,3.13-10.71,10.48-15.64,15.36-17.29,17.09-38.71,37.2-27.52,64.47,6.56,15.99,23.2,14.58,27.4,31.62,2.27,9.21-2.44,12.83-10.03,16.75-11.67,6.03-14.61,3.28-25.88,4.03-13.52.9-36.29,11.52-44.43,22.66-1.67,2.28-13.27,25.64-13.88,28.12-1.42,5.8,1.32,12.41,4.14,17.49,2.98,5.38,14.14,15.84,19.26,19.74,11.23,8.54,32.55,12.03,23.09,32.26-9.5,20.33-34.98,20.87-44,38-1.94,3.68-9.61,25.15-10.07,28.93-1.91,15.82,5.09,27.83,19.66,34.12,12.13,5.23,16.97-2,27.98-3.47,14.04-1.87,28.44,8.2,27.23,23.23-.69,8.51-10.75,26.37-9.98,32.93.5,4.24,6.22,6.79,9.64,8.44,29.16,14.08,57.85,20.84,86.69.98,15.01-10.33,20.46-38.24,20.47-55.33,0-7.17-2.51-14.29-1.69-21.9.57-5.27,3.31-11.26,4.4-16.59,1.57-7.68,2.15-15.47,4.48-23.01-9.92,3.59-20.03,10.32-31.02,7.53-6.64-1.69-30.7-24.36-34.18-30.82-4.27-7.94-6.6-26.14-5.67-35.08.85-8.15,14.79-35.17,20.66-40.63,9.65-9,27.43-12.43,38.92-5.19,3.64,2.3,6.6,6.51,10.38,8.62,6.2,3.47,29.05,4.62,36.37,3.51,4.63-.7,34.52-13.54,38.48-16.52,5.55-4.18,31.01-33.11,33.13-38.87,2.4-6.49,2.03-13.25,3.21-19.79,2.61-14.42,3.98-23.26,3.82-38.25-.06-5.4-3.68-10.49-2.08-15.51,4.68,1.99,3.79-.79,4.65-.99,6.19-1.44,25.09,3.64,31.02,6.81,9.9,5.29,18.78,19.93,24.88,29.15,5.52-3.08,13.15-3.67,18.5-6.41,2.02-1.03,8.92-7.11,10.59-8.91ZM926.19,746.66c-.96-6.55,1.24-13.23,1.04-19.53-.23-7.43-2.7-24.27-4.3-31.72-2.2-10.2-8.39-21.79-10.54-32.46-3.83-6.8-21.97-15.41-29.52-18.48-5.17-2.1-11.3-1.82-15.68-5.81-1.42,1.91,4.6,16.85,5,20.49,2.78,25.41-5.05,46.45-16.63,68.38-8.86,16.78-18.82,18.37-32.29,28.71-4.71,3.61-8.4,9.01-13.94,12.06-5.43,3-21.34,6.58-27.77,7.23-22.82,2.33-28.47-9.91-48.34-14.41-10.39-2.36-15.6-3.76-24.95,2.12-15.7,9.88-25.88,32.58-23.03,50.85.77,4.95,5.43,9.08,7.74,13.26,3.88,7.01,6.42,16.32,13.82,20.18s28.98,6.88,37.16,4.4c2.83-.86,10.62-6.05,12.08-1.64,2.27,9.93-4.59,20.16-5.77,28.94-.98,7.33,1.61,15.11.9,22.91-.43,4.73-2.65,10.06-2.97,15.02-.42,6.39,1.34,11.97.97,17.97-.25,4.04-2.87,9.72-2.83,13.03.05,3.96,6.67,17.33,9.89,19.94,2,1.62,25.9,11.86,28.7,12.3,18.2-.79,29.05,6.04,46.28-2.24,13.74-6.6,30.26-17.24,34.98-32.51-7.24-1.65-14.76-.83-22.05-2.46-5.25-1.18-18.58-6.14-23.27-8.73-2.75-1.52-14.09-10.52-15.16-12.84-.84-1.83-.67-7.58,1.14-8.03,8.26-2.01,15.78,12.34,21.32,16.57,7.79,5.94,38.38,8.46,48.51,7.47,8.65-.84,13.25-4.77,20.53-7.47,13.86-5.14,17.31-1.59,25.5-16.5,2.01-3.66,15.17-31.36,13.48-33.01-14.45,4.93-20.71,16.59-37.55,11.05-19.55-6.43-29.36-35.58-26.21-54.32.19-1.15,4.29-13.44,4.68-14.07,2.02-3.25,10.26-1.87,13.09,1.1,1.83,1.92,9.46,14.57,10.47,17.25,2.51,6.6,1.48,14.08,5.01,19.97,8.69-9.72,19.6-19.43,33.49-12.98.86-15.9,1.84-31.4,5.51-46.99,4.03-3.77,9.36-5.9,13.51-9.49,4.65-4.02,7.04-8.88,10.96-13.04,11.43-12.1,19.79-16.14,27.76-33.24,1.68-3.61,4.99-12.78,2-15.98-1.86-1.99-16.1-4.27-19.28-4.29-12.14-.08-16.18,8.04-24.93,13.06-4.23,2.43-8.52,3.07-12.85,6.15-5.14,3.65-13.49,14.21-20.16,13.9-9.82-.46-23.76-17.68-20.51-28.07l6.99,10.49c5.32,4.91,10.81,6.34,18,5.51ZM941.19,884.65c5.59.48,10.62-2.24,15.94-3.55,6.33-1.55,10.14-.2,15.97-5.03,5.26-4.34,16.89-20.73,18.79-27.2,2.5-8.47-.69-30.2-5.52-37.91-3.37-5.38-16-14.98-22.16-15.9-4.1-.61-11.1,8.24-14.99,10.39-.9,12.69-3.56,26.26-2.05,38.72,1.27,13.9-3.07,27.13-5.99,40.48ZM900.18,857.65c-5.76-12.56-2.67-22.96-15.11-31.38-.93-.63-4.09-3.44-4.87-2.62-1.11,1.16.47,3.33,2.01,3.5-.26,1.21-2.37-1.22-1.77,3.71,1.27,10.41,10.24,22.42,19.75,26.79ZM930.19,876.66c-10.28-.02-26.9-2.73-34.49-10.02l-18.5-29.98c.64,3.53-.75,7.91-.46,11.14.35,3.96,4.2,19.23,5.71,23.1,1.87,4.77,6.9,6.87,11.51,8.49,11.55,4.05,26.81,7.49,36.23-2.72ZM938.02,854.82c-3.24-5.24-27.83,2.39-27.82,10.82l26.89,1.9.94-12.72Z"/>
  <path d="M963.95,158.89c5.02,5.2-2.29,19.56-5.34,24.68-1.41,2.37-16.89,21.83-15.42,23.07,5.08.05,12,.77,16.68,2.82.93.41,14.77,11.85,15.34,12.66,4.47,6.23,3.05,20.82,3.98,28.52l10.81-20.68c3.03-7.48,10.4-9.75,15.66-14.34,10.3-8.99,17.17-20.6,33.53-16.41,6.66-7.67,3.98-20.83,8.22-28.84,2.05-3.88,4.98-3.19,5.75.8,2.25,11.72-6.71,18.99-7.03,29.96-.2,6.93,3.25,9.7,5.54,15.53,10.97,27.98-3.85,60.29-16.96,85-11.64,21.94-24.75,37.62-41.01,55.99-4.58,5.17-10.72,9.18-14.51,14.53,2.73,12.77-.69,25.39-.04,37.99,1.43,27.97,12.71,69.39,19.34,97.66,2.1,8.95,7.77,16.77,4.74,26.34-4.33,13.66-13.3-2.18-17.52-6.56-7.73-8.02-16.9-14.52-23.32-23.68-8.48-12.1-11.46-24.1-17.98-36.02-2.73-4.98-6.88-8.79-9.39-14.61-2.99-6.93-3.86-14.57-6.36-21.64-2.34-6.59-6.19-12.44-8.47-19.03l-5.46,7.02c-10.46,8.08-23.48,12.65-35.21,18.79-11.37,5.96-22.83,13.06-34.64,18.36-4.69,2.1-9.83,3.56-15.03,2.66l-1.72-2.37c-.36-4.71,12.34-12.25,15.62-15.43,16.8-16.31,32.6-34.26,48.92-51.08,2.61-2.69,7.06-4.92,9.19-7.31,2.56-2.87,3.84-7.64,7.2-10.37-1.09-9.03-3.67-17.76-4.84-26.79-.49-3.75.33-7.96-.12-11.88-.77-6.73-4.34-13.62-4.93-21.07-1.4-17.86,2.37-29.55,4.02-46.05.48-4.79-.51-9.9.25-14.75,2.09-13.38,11.92-30.03,21.72-39.28,3.22-3.04,7.3-3.77,10.55-6.45.92-3.71.23-7.19.94-11.06.81-4.47,8.93-23.5,11.52-27.48,2.32-3.56,11.54-13.63,15.78-9.24ZM979.18,363.64c4.49-11.14,16.69-16.52,23.43-25.08,10.55-13.39,17.32-30.57,26.17-44.83,2.77-4.47,7.32-8.22,9.86-12.14,3.63-5.62,8.08-29.01,8.61-36.39.45-6.37.83-21.09-.1-26.99-1.37-8.73-13.12-9.31-20-8.11-17.92,3.14-32.77,26.39-40.75,41.25-1.21,2.24-4.39,4.85-4.95,7.05-2.33,9.09.03,35.47-.2,46.8-.18,8.7.11,17.38.04,25.96-.07,9.74-3.64,19.68-3.08,30.02.06,1.13-.66,2.74.99,2.47ZM963.86,218.99c-3.72-3.75-11.68-7.92-17.07-7.25-5.96.74-22.91,8.57-26.12,13.89-17.3,28.67-16.77,72.11-13.46,104.52.59,5.79,3.63,11.67,4.71,17.29,2.07,10.71,2.93,22.75,5.77,33.23,1.84,6.77,5.84,11.81,7.81,18.19,2.76,8.97,2.48,18.58,6.51,27.49,2.97,6.58,9.04,12.47,12.07,18.93,2.83,6.03,3.57,12.98,5.93,19.07,5.29,13.68,28.01,52.23,40.62,58.38,1.21.59,2.04,1.27,3.57.92,1.58-10.54-3.07-19.41-5.34-29.15-5.02-21.64-14.59-50.14-15.7-71.3-1.23-23.44.38-48.39-.92-71.08-.5-8.83-2.95-16.5-1.94-25.85,1.35-12.46,2.85-17.66,2.85-31.06,0-18.97,4.14-62.64-9.29-76.21ZM917.19,408.64l-4.66-23.83-3.33-9.15c-.18,3.8-3.53,5.43-5.43,8.08-6.7,9.34-13.19,14.32-19.02,21.98-7.64,10.05-11.18,17.47-21.56,26.44-7.24,6.26-16.42,10.39-22.01,18.48,13.09-1.35,19.96-10.18,30.33-16.16,6.97-4.02,15.67-6.18,22.01-9.99,7.9-4.74,13.16-14.93,23.66-15.85Z"/>
  <path d="M525.19,162.64c14.12,2.82,27.35,26.27,28.88,39.63.74,6.44-.27,11.63,1.6,18.4,2.75,9.92,17.59,29.62,26.63,34.37,21.46,11.27,38.39,15.7,52.08,38.92,11.93,20.23,18.64,63.04,8.99,84.38-5.67,12.54-17.35,36.09-27.86,44.14-8.75,6.71-28.88,11.82-39.93,13.06-14.81,1.67-22.69-7.69-34.09-14.7-6.05-3.72-15.9-7.57-20.8-12.2-6.68-6.3-23.91-34.04-28.02-42.98-13.47-29.28-23.75-65.58-27.37-97.63-2.07-18.29,6.34-47.19,11.62-65.17,2.85-9.71,12.83-27.01,20.24-33.76,5.08-4.64,18.24-7.92,25.05-7.45-.49-6.06.06-10.65,2.24-16.26.73-1.87,7.99-14.79,8.74-15.26,2.92-1.81,6.38,0,6.83,3.24.7,5-4.63,7.81-7,11.59-3.07,4.88-5.2,12.33-7.81,17.68ZM509.48,200.96c7.55-6.5,6.21,8.38,8.26,11.65,4.42,7.04,16.15,12.47,23.41,6.5,1.53-1.26,4.62-6.43,4.86-8.19.21-1.53-7.68-27.08-8.99-29.59-5.95-11.35-19.46-15.05-30.72-9.08-8.94,4.74-20.69,22.01-22.01,31.98-.72,5.41-.2,17.03,6.65,18.26,9.47,1.71,13.45-17.16,18.54-21.54ZM548.2,218.65c-8.33,18.18-31.41,15.99-38.52-2-3.54,3.89-13.99,13.19-19.06,13.94-8.83,1.3-9.69-3.3-14.42-8.94.3,18.55-7.46,36.44-4.75,55.24.8,5.53,4.41,12.24,5.87,18.13,3.57,14.4,6.1,31.98,11.09,45.91,2.2,6.16,21.92,43.38,25.79,47.21,2.61,2.59,6.69,4.11,9.47,6.53,11.69,10.2,16.7,23.49,34.13,25.87,18.59,2.54,37.48,6.07,53.89-5.9,2.84-2.07,16.24-18.84,17.9-22.1,4.07-7.98,3.53-19.08,6.1-27.9,3.06-10.52,6.56-12.71,5.49-25.48-2.9-34.56-24.37-56.64-53.06-72.94-15.99-9.08-24.27-5.67-32.4-25.6-2.62-6.42-3.35-13.38-5.56-19.44-.39-1.07-.47-2.4-1.95-2.54Z"/>
  <path d="M675.54,171c2.85-2.78,7.2-4.85,10.13-7.37,7.79-6.71,10.94-14.35,23.04-14.04l23.48,2.06c-1.01-7.31-14.42-13.49-9.87-21.37,5.9-10.21,12.82,9.26,14.47,12.28,2.32,4.23,5.41,8.14,7.35,12.62,7.44-1.2,15.06-.1,22.54-.54,15.41-.93,23.49-4.32,39.5,1.53,37.32,13.65,32.29,47.93,37.03,80.94-.33,10.56-5.86,17.03-9.05,26-1.98,5.58-2.39,11.75-4.77,17.23-6.76,15.58-33.43,43.54-50.7,45.3-6.87.7-39.23-.21-45.3-1.67-3.28-.79-19.12-9-22.87-11.13-12.15-6.91-33.47-26.82-39.84-39.16-4.31-8.35-10.46-31.25-11.35-40.65-1.57-16.62,4.01-50.08,16.22-62.02ZM737.03,159.82c-2.03-1.27-6.82.81-9.23.72-3.29-.11-7.85-1.8-11.15-1.91-8.46-.27-27.57,7.08-33.43,13.54-14.07,15.54-19.25,32.24-18.93,53.08.56,37.36,15.1,60.46,45.99,79.81,13.29,8.32,13.06,5.81,27.33,7.67,5.43.71,11.76,4.56,17.53,5.46,11.6,1.81,15.03-3.34,24.52-6.59,5.84-2,12.62-2.03,18.07-4.93,10.01-5.34,31.6-38.72,33.21-49.79.89-6.17-.22-12.54.28-18.72.42-5.23,2.55-10.93,2.97-16.03,1.78-21.74-6.42-52.09-30.74-57.22-10.7-2.26-29.05-4.59-39.65-3.17-5.01.67-20.49,7.36-24.33,3.65-1.11-1.07-1.76-5.15-2.42-5.56Z"/>
  <path d="M753.48,800.94c5.92-5.11,7.78,4.03,4.89,10.39-5.51,12.1-16.96,22.14-30.11,12.75-10.97-7.83-2.24-17.95-3.17-28.33-4.18-1.23-9.68-.69-12.94,2.39-.94.89-.82,4.13-2.96,2,3.74-24.11,26.31-17.55,24,7-.35,3.68-3.45,9.15-1.09,12.1,7.26,9.07,18.4-15.73,21.38-18.3Z"/>
  <path d="M890.19,746.65v24.5c0,.59-2.3,7.1-2.82,8.18-4.72,9.66-17.31,11.08-26.47,7.12-6.89-2.98-17.72-16.16-17.21-23.79,6.9,6.13,24.36,27.54,33.34,14.33,1.52-2.23,5.65-11.52,6.65-14.35,1.76-4.99,2.34-9.81,2.99-15.01l3.53-.97Z"/>
</svg>