<?xml version="1.0" encoding="UTF-8"?>
<svg id="Calque_1" data-name="Calque 1" xmlns="http://www.w3.org/2000/svg" viewBox="0 0 1605 1605">
  <path d="M1086.62,636.07c-.54.59-3.2,1.61-2.64,2.34,7.6,1.53,15.76,4.82,21.91,9.6,11.78,9.15,27.44,46.11,27.14,60.96-.67,32.68-5.92,65.36-18.29,95.72-4.34,10.64-12.47,16.74-19.56,25.44-1.63,10.49-.38,22.46-2.29,32.71-1.16,6.25-5.06,12.77-5.81,19.19-.81,6.97.53,14.55-.36,21.64-4.14,32.84-24.68,79.68-41.57,108.43-6.43,10.95-18.13,24.38-26.2,34.8-22.82,29.48-41.17,49.91-71.66,72.34-18.21,13.4-51.22,36.74-71.62,44.38-4.55,1.7-9.78,2.07-14.23,3.77-7.48,2.86-14.61,8.29-22.93,11.07-11.94,4.01-40.69,8.34-53.09,7.85-1.84-.07-3.13-1.79-4.78-1.67-2.36.17-5.59,3.85-9.17,3.85-3.06,0-5.15-2.53-8.06-3-5.1-.81-11.58.41-16.93-.07-20.78-1.86-44.39-7.43-64.73-12.27-9.86-2.35-15.85-8.47-24.4-12.6-7.36-3.56-15.67-5.4-23.05-8.95-9.41-4.53-22.75-18.59-30.35-26.65-22.63-23.96-28.56-54.21-28.93-85.99-.15-12.64-2.15-26.94,1.24-38.76,8.29-28.91,19.91-56.92,35.28-82.72,3.83-6.42,11.26-12.25,15.85-18.15,12.16-15.61,12.47-17.64,28.05-30.95,17.77-15.17,25.37-19.35,44.85-31.15,5.88-3.56,10.64-9.32,17.01-12.99,15.31-8.8,33.61-14.46,49.04-21.96,5.42-2.63,9.59-7.24,14.7-10.3,16.49-9.85,34-12.67,50.28-19.72,6.43-2.79,11.73-7.89,17.97-11.03,6.71-3.38,14.36-4.75,21.05-7.95,10.1-4.82,22.65-14.45,32.94-20.06,1.12-.61,8.93-2.31,7.07-3.81-2.54-2.05-4.36-2.72-2.66-6.72.52-1.23,13.69-16.13,15.75-18.3,11.99-12.64,21.8-15.46,33.99-25.01,5.08-3.98,9.35-10.73,14.83-14.17,13.89-8.72,29.26-10.19,42.87-16.13,15.54-6.77,23.51-14.72,42.44-16.56,9.02-.88,15.06,1.26,23.37,3.88,1.74-10.17,9.58-15.53,10.06-26.48.19-4.22-1.51-8.22-1.01-11.94.92-6.79,6.93-5.68,6.88.78-.05,7.58-5.32,31.83-10.28,37.29ZM981.98,766.92c-1,7.45.74,16.82,0,24.5,1.87.41,3.18,1.08,5.23.83,8.21-1.02,40.15-18.29,45.2-24.9,3.52-4.61,5.57-10.45,9.6-15.4,3.19-3.93,7.75-7.06,10.8-11.2,3.87-5.25,6.39-11.93,8.41-18.09,8.23-3.54,3.85,7.84,3.72,12.22-.74,24.9,0,58.48,15.23,78.85,2.69,3.6,5.8,6.66,8.72,10.06,2.62,3.05,7.21-4.78,8.27-6.69,11.21-20.17,20.52-39.47,24.53-62.47,4.28-24.55,2.9-43.26-.82-67.6-2.8-18.32-25.35-29.72-37.19-42.81-1.98-.93-4-1.56-6.2-1.8-3.93-.44-21.44-1.25-24.73-.81-3.66.49-10.11,4.47-14.24,5.85-27.47,9.17-54.67,19.61-78.47,36.53-6.17,4.39-13.2,13.28-19.59,18.41-8.01,6.42-17.65,10.72-24.47,18.53,3.07,1.12,8.49,3.32,11.59,3.41,28.15.84,42.44-11.31,66.42-21.4,5.16-2.17,17.01-8.97,14.03,1.02-2.42,8.09-10.4,17.85-13.53,26.47-1.92,5.3-2.58,10.99-4.49,16.51-2.06,5.95-7.2,13.88-8.02,19.98Z"/>
  <path d="M694.85,721.54c-.96-.61-2.78.02-3.9.35-10.36,3.1-23.68,11.5-34,16.01-4.39,1.92-9.23,2.52-13.66,4.34-8.87,3.64-16.23,10.14-24.96,14.04-7.05,3.15-14.97,4.8-22.04,7.96-7.64,3.41-23.71,15.24-30.83,15.22-8.71-.03-8.74-16.87-11.6-23.42-6.99-16.02-18.42-33.72-26.06-49.94-11.97-25.4-20.85-53.46-31.36-79.64-5.87-14.61-7.91-21.76-12.18-36.82-2.73-9.61-14-32.01-12.07-40.51,1.89-8.28,19.41-11.46,25.77-14.22,9-3.91,19.64-8.46,28.37-12.63s17.34-11.97,25.65-15.35c13.96-5.67,33.45-9.04,47.99-13.01,7.06-1.93,11.96-7.2,18.31-9.69,10.91-4.27,18.59-4.56,30.38-10.62,9.67-4.97,14.05-5.81,23.31-9.69,7.47-3.13,15.53-10.25,23.3-13.7,8.19-3.64,17.7-4.28,25.38-7.62,13.88-6.02,28.09-15.78,43.33-21.67,6.38-2.47,20.84-7.45,25.84-1.87,9.26,10.35,13.29,25.91,18.96,38.04,7.75,16.6,16.94,32.65,25.06,48.94,5.93,11.9,8.95,27.23,14.64,39.36,2.24,4.78,5.88,8.95,7.97,14.03,3.93,9.57,5.1,20.81,8.23,30.77,2.93,9.3,10.38,20.4,8.07,30.51-1.51,6.64-11.37,7.99-16.32,10.68-5.03,2.73-8.93,7.24-13.78,10.22-12.05,7.43-24.81,11.43-37.67,16.33-9.92,3.78-15.91,12.95-24.7,17.3-6.1,3.02-13.81,3.99-20.01,6.99-9.54,4.62-18.18,14.09-27.8,19.12,1.51,7.54,2.25,15.43,4.15,22.9,3.4,13.38,7.69,24.74,10.05,38.95.73,4.44,3.25,16.31,3.15,19.76-.14,4.41-3.14,5.02-6.89,3.99-11.75-3.22-17.4-24.19-24.55-33.45-4.36-5.64-10.51-9.11-14.85-15.15-3.5-4.88-6.27-11.3-8.69-16.81ZM788.81,426.59c-2.57-1.58-28.47,6.72-32.52,8.65-6.03,2.86-10.25,7.31-17.36,9.64-6.43,2.1-13.34,2.11-19.64,4.36-7.56,2.7-15.03,9.3-23.33,12.67-7.42,3.01-17,4.21-23.66,7.34-3.96,1.86-7.33,5.85-11,8-15.9,9.3-30.84,14.22-48.72,17.28-11.61,1.99-14.39,7.45-23.37,11.63-5.89,2.75-13.24,3.48-19.21,5.79-18.53,7.14-37.72,16.91-55.67,25.33-11.43,5.37-23.22,10.38-34.95,15.11l9.11,34.02c15.53,29.43,23.71,63.33,36,94,7.12,17.79,20.53,35.91,27.96,55.04,4.19,10.78,4.5,22.51,14.55,30.51,7.62-1.16,15.41-2.38,22.48-5.51,10.7-4.75,19.24-14.85,29.81-19.19,6.7-2.76,14.01-2.99,20.66-5.34,12.27-4.35,27.55-14.32,40.35-19.65,5.2-2.16,16.24-7.74,20.56-3.21,3.28,3.45,9.7,13.92,12.53,18.46,5.71,9.14,9.32,18.01,16.18,26.82,1.1,1.41,9.76,12.65,11.4,11.09-2.39-8.87-5.66-17.66-7.93-26.56-2.98-11.73-8.52-32.45-6.99-43.84.25-1.87,1.31-5.09,2.43-6.57,2.42-3.17,20.87-11.66,26-15,7.5-4.88,15.48-13.62,22.8-17.2,6.84-3.34,15.41-3.61,22.37-6.63,4.21-1.83,7.66-5.35,11.64-7.36,12.79-6.49,30.07-12.76,41.15-21.85,4.67-3.83,6.9-9.64,12.39-12.15.12-17.22-12.44-29.96-17.64-44.55-2.49-7-2.84-14.4-5.47-21.53-4.16-11.28-11.16-22.98-15.52-34.48-1.96-5.16-2.42-11.21-4.75-16.25-2.66-5.75-8.55-11.32-11.92-17.08-4.52-7.75-11.05-22.16-14.34-30.66-2.67-6.9-3.65-14.24-6.4-21.09Z"/>
  <path d="M704.97,512.42c.95,7.56-4.2,12.86-6.47,19.02-1.88,5.12-2.59,11.07-4.51,16.49-3.85,10.85-10.72,20.11-10.95,32.39,12.58,3.07,20.56,16.08,30.62,21.9,6.65,3.84,31.38,11.32,33.11,18.91.68,2.97-.2,7.35-3.51,8.12-6.55,1.52-26.6-18.04-32.56-22.07-5.36-3.62-11.54-5.66-17.04-8.96-2.25-1.36-13.71-10.51-14.68-9.8l-16.31,44.2c-1.46,6.01-4.58,30.93-9.72,33.3-3.12,1.44-5.11-.05-5.78-3.24-1.75-8.25,9.27-25.24,11.85-33.71,2.1-6.89,2.45-14.44,4.45-21.55,2.38-8.43,6.91-16.1,9.25-24.55-4.79-5.27-12.55-5.52-18.44-8.28-8.31-3.89-21.16-14.65-28.37-20.65-2.2-1.83-8.07-2.43-1.56-6.45,3.68,3.22,8.43,4.18,12.64,6.38,5.47,2.86,13.23,6.7,18.29,9.71,3.23,1.92,17.36,15.09,20.59,12.76.87-4.59,4.66-8.2,6.28-12.23,2.2-5.46,2.82-12.12,5.04-17.96,2.1-5.54,6.22-10.74,8.27-15.73,2.45-6,2.15-15.58,9.49-18Z"/>
</svg>