<?xml version="1.0" encoding="UTF-8"?>
<svg id="Calque_1" xmlns="http://www.w3.org/2000/svg" version="1.1" viewBox="0 0 1605 1605">
  <!-- Generator: Adobe Illustrator 29.5.1, SVG Export Plug-In . SVG Version: 2.1.0 Build 141)  -->
  <path d="M1054.02,512.96c.04.07,1.17-.1,1.57.4,12.21,15.53,13.59,26.63,19.35,44.19,2.49,7.6,8.3,14.2,11.54,21.46,5.49,12.3,6.35,25.28,10.47,37.53,2.74,8.15,8.35,15.57,10.75,24.25,6.93,25.08,8,46.41,10.3,71.7,1.49,16.34,6.27,26.28,4.97,45-2.19,31.53-17.18,57.39-47.8,67.68l-6.97,47.54c0,2.12,6,6.51,7.62,8.95,3.12,4.71,4.42,10.99,6.99,16.01,4.68,9.16,9.07,12.61,11.07,23.93,4.49,25.46,8.78,50.86,13.57,76.43,1,5.35,4.12,12.63,4.48,17.61.42,5.8-1.9,17.16-1.93,24.85-.08,20.06.89,39.67-2.09,59.93-.33,2.22-2.88,13.03-3.94,14.06-1.39,1.34-13.57,2.51-16.44,2.55-6.86.11-13.07-1.52-20.03-1.02-21.12,1.53-41.69,3.21-63.06,3.03-26.52-.23-52.44-.26-78.94-1.04-35.89-1.06-72.46.18-109-1.01-30.19-.99-60.95-3.37-91.16-4.63-10.93-.45-22.12,2.72-32.84,1.63-5.76-.59-11.17-3.55-17.02-3.97-11.31-.81-24.99.98-36.97-.04-6.56-.56-12.49-3.56-18.98-4.02-7.54-.54-14.57,1.61-22.02,1.02s-15.85-4.66-23.98-5.02c-15.09-.67-33.08,2.81-48.05,4.02-5.51.45-11.54-.51-16.97.03s-10.19,4.86-14.08.06c-3.08-3.8-.44-4.38.51-7.64,2.1-7.22,3.74-15.85,6.29-22.7,5.51-14.78,9.39-27.09,13.49-42.51,4.51-16.96,8.35-34.25,12.92-51.08,8.25-30.32,21.98-58.4,31.86-88.14,3.7-11.14,18.85-34.77,26.08-44.92.96-1.35,4.2-3.85,4.35-4.72.31-1.77-5.21-3.75-2.01-8.7,1.23-1.9,5.38-1.7,7.47-1.66.98.1.78-2.01.62-2.51-.36-1.15-16.47-13.07-18.55-15.49-2.93-5.92,4.66-8.25,3.52-9.99-8.62-4.11-20.04-16.06-14.78-26.3,3.57-6.95,13.76-2.05,19.78-2.72-1.4-10.55-15.81-13.04-18.94-22.55-1.75-5.33-2.07-20.27.94-24.95,7.03-10.95,16.74.47,25,2.5l-7.94-27.55c-8.2-15.22-18.94-32.82-25.23-48.77-2.9-7.35-3.77-17.21-7.06-23.94-2.65-5.41-10.72-12.56-14.57-18.43-7.93-12.1-10.16-26.67-17.37-37.63-3.83-5.83-10.1-10.34-14.24-15.76-4.6-6.04-15.24-23.5-17.64-30.36-1.26-3.62-1.25-7.64-2.75-11.25-1.6-3.84-5.3-5.59-4.2-10.3,11.04,2.71,20.92-.13,31.51-.99,40.8-3.32,81.58-4.76,122.89-8.11,7.37-.6,15.47-.21,21.99-1.01,3.65-.45,6.87-2.61,10.09-2.93,7.68-.76,17.34-.23,26.03-.95,38.98-3.19,77.69-4.76,116.97-5.09,44-.37,91.19,2.12,135.02-.92,2.89-.2,5.26-2,7.98-2.02,3.43-.03,6.88,2.3,10.98,2.06,3.66-.21,6.32-2.17,11.05-2.12,10.66.11,46.18,7,55.53,11.52,2.7,1.3,4.06,3.29,7.4,4.6,5.12,2,9.9,1.02,13.85,2.15,5.79,1.67.45,8.34.72,8.76ZM1033,503.02c-7.09-1.47-12.59-6.06-19.78-7.74-38.78-9.03-79.04-2.42-118.38-2.84-13.28-.14-26.7.4-40.29.6-49.63.71-98.75-.85-147.88,3.4-30.27,2.62-59.77,6.31-90.14,8.62-7.53.57-14.55,1.26-22.05,1.95-9.55.87-20.24-.53-29.98.02-7.01.4-14.32,2.75-21.52,2.5-.23,1.62,1.26,2,2.32,2.68,10.68,6.93,32.73,1.64,46.17,2.83,7.34.64,13.93,4.4,20.98,5.02,8.51.75,16.77-1.38,25.08-1.07,11.49.42,22.44.81,34,1,6.13.1,13.77,2.18,19.97,2.11,7.96-.09,17.65-3.98,26.02-4.09s13.7-.31,22.15-.88c10.79-.72,18.93,2.97,27.81,2.97,4.73,0,10.4-2.37,15.06-2.87,11.09-1.18,24.53,2.9,35.99,1.83,7.09-.66,11.87-2.82,20-2.08,5.09.46,10.79,3.13,15.96,3.12,7.94-.02,15.84-4.73,24.01-4.87,6.21-.1,13.01,1.13,20.04.84,8.69-.37,19.94-3.15,27.95-3.14,5.45,0,11.02,1.86,17.03,1.12,4.93-.61,10.44-4.01,15.98-4.11,4.87-.09,11.19,2.17,15.94,2.12,9.46-.11,23.95-3.87,34.06-5.02,6.02-.69,12.9-.42,18.88-1.13.61-.07,6.68-.91,4.61-2.87ZM1046.99,513.01c-8.12.31-16.36-.44-24.48.01-6.42.36-16.5,1.31-22.9,2.1-7.47.93-4.97,1.76-7.79,6.21-6.73,10.63-15.32,15.81-21.27,24.73-3.55,5.31-5.62,12.42-9.14,17.86-9.6,14.84-21.99,31.48-29.13,47.87-3.01,6.91-3.92,14.1-6.55,20.45-2.84,6.84-13.87,27.74-17.92,34.08-3.08,4.83-7.7,8.46-10.36,13.64-8.8,17.11-14.88,36.88-26.05,52.95-3.56,5.13-17.01,21.8-21.5,24.5-11.15,6.71-28.35,14.59-41.38,15.62-6.16.49-22.95.75-28.26-.82-6.94-2.04-12.06-9.56-17.27-13.73-6.23-4.99-15.05-9.99-19.99-16.01-3.56-4.34-5.87-10.19-9.21-14.79-15.05-20.68-26.66-37.43-38.99-60.01-22.93-41.99-42.36-92.29-80.8-123.2-3.42-2.75-8.21-4.58-11.52-7.48-1.95-1.7-2.9-4.33-5.59-6.41-6.36-4.92-14.43-3.47-22.25-4.75-9.88-1.62-21.81-5.61-31.62-3.33-.88.21-1.94-.07-2.05,1.48,7.64,4.78,16,8.62,21.98,15.54,25.33,29.35,42.39,57.97,56.78,94.22,15.75,39.68,29.74,69.6,54.07,104.93,6.52,9.47,11.47,21.2,18.15,30.85,4.96,7.17,11.02,12.29,15.85,19.15,4.83,6.85,8.1,16.12,13.66,22.34,4.78,5.34,11.76,8.53,16.99,13.01,4.9,4.19,9.61,10.79,14.58,14.42,7.19,5.24,44.29,21.61,52.55,22.45,5.75.58,13.47-.98,19.93-.93s8.72,2.57,16.13-.78c11.04-5,32.22-25.89,41.85-35.15,8.14-7.82,27.35-31.89,32.3-41.7,2.78-5.51,4.06-12.71,6.67-18.33,8.82-18.9,18.28-37.85,25.26-57.74,3.07-8.75,3.56-17.28,6.21-25.79s8.51-15.45,11.51-23.49c2.74-7.34,3.47-15.95,6.67-23.33,3.52-8.13,10.53-14.13,14.39-21.61,14.06-27.17,26.21-68.36,48.93-89.07,3.16-2.88,6.91-5.09,10.26-7.68.83-.64,1.83.02,1.26-2.29ZM534.65,524.35c-9.92-8.42-19-5.31-30.15-6.35-4.51-.42-9.47-2.72-14.01-3.01-1.27-.08-2.06.01-1.48,1.5.7,1.82,4.93,6.13,6.41,8.6,2.4,4.01,4.38,9.17,7.15,12.85,4.31,5.75,10.78,9.59,14.85,16.15s5.3,13.44,8.4,19.6c4.87,9.65,13.23,19.18,18.7,29.3,20.24,37.42,38.51,79.7,53.49,119.51,2.12,5.63,7.97,21.25,8.81,26.28.3,1.79-.67,5.85-2.34,6.24-3.24.75-6.04-11.69-8.94-14.04-.74-.59-16.26-7.53-17.28-7.72-9.43-1.78-10.27,5.1-8.81,12.82,5.46,5.59,8.68,14.7,14.02,19.98,4.21,4.17,11.6,6.83,15.53,11.43,2.61,3.06,4.75,8.44,7.48,11.56,11.03,12.58,29.97,21.84,38.01,37.99,2.87,4.96,14.33,11.53,16.56,15.43,5.02,8.79-4.17,14.26-11.88,2.89-5.47-8.07-5.16-10.4-12.69-18.31-12.81-13.46-28.45-30.49-44.76-39.24-6.32-3.4-13.37-6.02-20.71-5.78-.85.75,6.75,13.89,8,15.49,4.89,6.34,23.52,15.89,12.47,22.48l-.47,1.51c.46,2.13,16.54,10.34,11.92,16.45-1.56,1.13-9.44-3.5-10.92,1.05,5.82,3.74,12.46,3.39,18.32,6.19,3.29,1.57,23.08,15.53,22.62,18.2l-2.65,2.49c-2.49.65-4.96-2.41-7.29-3.37-4.46-1.84-10.62-3.17-14.71-5.29-4.31-2.23-12.19-11.81-16.34-7.75-1.75,1.71-8.36,12.89-10.13,15.87-12.4,20.88-19.54,41.79-27.8,64.2-4.83,13.09-11.59,26.87-16.07,39.93-9.43,27.51-13.34,55.54-23.18,83.82-3.98,11.43-5.56,18.94-8.83,30.17-1.38,4.75-4.8,9.3-4.94,14.55.8.75,17.37-2.82,20.46-3.03,21.02-1.48,42.16.82,63.08.08,3.51-.12,7.81-1.91,10.98-1.84,9.21.19,17.96,7.13,29.15,7.43,22.53.6,43.59,2,65.83.37,11.59-.85,17.08,3.19,26.97,4.05,22.75,1.98,47.13-.08,70.03.97,4.66.22,10.21,1.99,14.98,2.05,7.19.09,13.62-2.43,21.08-2.09,31.59,1.42,62.22,2.92,93.91,2.99,23.26.05,46.87,1.31,70.06,1.11,25.77-.21,47.31-3.71,73.95-2.03,12.84.81,25.77-1.46,38.6-1.48l3.97-25.11c1.12-35.92-1.75-70.33-7.28-105.62-1.23-7.84-4.38-17.81-4.65-25.45-.12-3.33,1.36-6.49.8-10.81-.73-5.69-12.77-33.07-16.4-37.59-3.31-4.13-8.9-7.82-11.95-12.05-2.95-4.11-4.81-10.33-7.38-14.62-7.2-12.02-15.35-14.3-25.2-22.8-11.57-9.98-38.55-40.21-39.97-55.02-.86-8.95,1.61-29.76,4.7-38.28.84-2.31,6.73-14.7,10.27-12.21.47,1.86,1.08,3.18.84,5.22-.88,7.47-8.48,20.21-8.73,28.36-.1,3.33,3.57,19.2,4.74,23.07,6.03,19.82,26.1,30.06,38.67,44.33,3.32,3.77,11.71,17.61,15,19,1.76.75,1.54-1.05,1.92-2.02,8.33-21.15,5.69-49.74,8.57-72.46,1.57-12.39,4.6-19.42,3.98-33-.69-15.08-.07-30.77-.95-45.05-.3-4.81-2.08-10.16-2.12-14.94-.06-8.13,3.01-17.85,2.88-26.01-.28-17.56-8.16-43.4-9.78-62.02-.69-8.01.76-16.91-.12-24.88-.94-8.49-5.86-18.4-6.79-27.21-.65-6.13.48-12.83-.11-18.89-.71-7.27-4.84-14.87-4-22.51-29.19,18.18-34.46,51.85-49.6,79.89-4.27,7.91-10.85,14.33-14.26,22.74-2.9,7.16-4.16,15.13-7.64,22.36-3.21,6.65-8.82,12.62-11.26,19.74-2.73,7.94-3.52,17.37-6.44,25.56-8.05,22.51-19.43,46.1-28.55,68.45-5.84,14.29-15.36,35.01-24.39,47.61-7.98,11.15-29.68,33.28-40.31,42.69-11.68,10.33-36.1,26.71-51.92,22.86-8.22-2-15.39-3.63-23.63-5.38-14.41-3.06-52.42-21.31-61.95-32.04-4.89-5.51-8.6-12.97-13.63-18.37-4.69-5.02-12.1-9.16-16.4-14.6-4.59-5.82-6.46-13.53-10.2-19.8-7.62-12.78-17.61-23.7-25.3-37.7-10.21-18.6-22.91-33.64-32.03-52.97-4.89-10.37-6.2-18.97-9.99-29.01-2.68-7.11-8.28-14.05-11.67-21.33-6.76-14.52-12.01-34.85-19.01-47.99-3.92-7.35-11.06-13.39-15.63-20.37-3.73-5.69-6.11-12.99-10.67-18.33-5.73-6.71-24.26-21.2-31.85-27.64ZM987,516.02c-9.23-2.14-20.68,4.68-28.61,4.88-4.95.13-11.61-2.89-15.89-2.89-3.86,0-10.41,2.56-15.02,2.98-12.46,1.13-25.45.33-37.9,2.1-3.57.51-7.12,2.5-11.09,2.91-9.15.94-18.61-1.72-28.03-1.03-7.37.54-14.09,3.56-21.8,2.66-32.79-3.81-66.97-1.58-100.07-.54-7.49.23-15.29,2.05-24.14,1.96-22.98-.23-52.62,5.83-74.49,1.49-8.84-1.76-19.22-7.65-27.94-3.04,5.42,3.51,8.42,9.57,13.48,13.5s12.22,6.08,17.04,10.96c5.1,5.17,7.67,13.16,12.49,18.51,2.74,3.03,6.14,4.92,8.99,8.01,12.14,13.12,15.66,27.23,22.59,42.41,5.58,12.21,17.29,27.04,23.77,40.23,3.01,6.13,4.42,13.1,7.22,18.78,2.56,5.21,7.54,9.4,10.81,14.19,10.98,16.03,16.85,24.59,30.1,38.9,5.58,6.03,10.32,16.9,16.76,21.31,3.74,2.55,23.41,10.94,27.91,12.02,7.99,1.93,36.09-3.42,43.53-7.1,4.26-2.1,6.71-7.38,9.79-10.21,3.35-3.08,8.21-5.01,11.42-7.58,14.86-11.9,31.74-57.8,42.25-76.75,3.58-6.45,9.24-11.79,12.38-17.62s3.67-12.19,5.95-18.05c7.47-19.12,18.45-33.92,27.66-51.34,2.92-5.52,4.69-12.14,7.65-17.35,3.51-6.19,9.43-10.87,13.6-16.4,6.96-9.22,10.82-19.98,19.58-27.91ZM1077,816.01c10.36-.39,16.78-10.89,21.51-18.98,15.66-26.79,13.19-37.63,13.44-67.56.25-30.11-9.32-56.3-15.66-85.26-1.69-7.69-1.71-15.55-3.81-23.19-2.68-9.8-9.03-19.6-12.51-29.49-5.53-15.75-7.11-31.65-17.16-45.84l-4.81-14.68c-.99,11.96,4.01,22.99,5.87,34.62,3.9,24.55,10.77,51.76,13,76,.95,10.33-.75,21.6.14,31.86,1.61,18.52,4.17,32.59,4.02,51.97-.12,15.31-1.98,26.63-3.02,41.06-.73,10.01,1.57,19.88,1.03,30.03-.16,2.99-3.11,18.4-2.04,19.46Z"/>
  <path d="M641.63,870.06c2.88-.83,9.94,7.48,12.46,9.35,4.06,3.02,14.68,10.46,18.92,12.08s7.86.82,11.25,1.75c7.37,2.01,15.09,6.59,21.68,8.32,5.66,1.49,12.97,1.57,18.9,3.1,6.26,1.62,12.62,5.69,18.65,6.35,11.8,1.28,29.27-1,42.05-1.05,16.17-.07,16.9-1.62,31.63-5.28,14.63-3.63,34.48-5.16,48.28-9.72,5.91-1.95,13.78-7.95,20.19-10.81,4.04-1.8,19.72-9.83,14.84.85-1.43,3.13-18.55,9.72-22.71,11.29-18.66,7.08-45.58,18.16-65.24,19.76-4.84.39-10.06-.5-14.93.07-6.39.75-13.2,4.25-20.12,4.88-13.03,1.17-22.31-2.71-34.18-3.54-9.74-.68-16.36,1.61-27.08-1.16-20.47-5.29-41.96-14.21-60.54-24.46-4.17-2.3-16.03-10.68-16.68-15.4-.25-1.83.77-5.82,2.64-6.36Z"/>
  <path d="M906.42,907.43c-18.72,13.85-59.49,28.33-82.96,26.62-2.54-.19-4.92-1.08-7.47-1.05-1.79-1.44.2-1.76,1.51-1.96,8.6-1.35,19.01-.96,27.55-2.48,18.3-3.25,51.39-19.15,66.88-30.12,3.69-2.61,6.2-7.27,9.17-9.83,12.98-11.22,28.31-19.29,40.4-31.6,1.6,4.18-4.56,6.57-7.03,8.97-15.89,15.44-30.12,28.18-48.05,41.45Z"/>
</svg>