<?xml version="1.0" encoding="UTF-8"?>
<svg id="Calque_1" xmlns="http://www.w3.org/2000/svg" version="1.1" viewBox="0 0 1605 1605">
  <!-- Generator: Adobe Illustrator 29.5.1, SVG Export Plug-In . SVG Version: 2.1.0 Build 141)  -->
  <path d="M1051.68,1049.69c-7.08,4.12-15.41,6.78-22.31,11.18-8.04,5.12-13.88,13.35-23.45,16.55-6.48,2.17-14.16,2.33-20.87,4.13-26.11,7-52.68,15.07-79.15,20.85-10.32,2.26-16.32-.42-25.58.42-10.94,1-22.61,8.51-33.23,9.77-7.88.93-15.89-1.05-23.93-.93-11.98.18-23.83,2.21-36,2.08-23.09-.25-45.24-4.98-67.97-7.03-9.63-.87-19.55,2.14-28.91.91-6.8-.9-14.23-6.32-20.78-8.22s-13.03-1.81-19.58-3.42c-13.6-3.34-46.8-13.38-58.54-19.46-8.39-4.34-13.56-12.58-20.76-18.24-6.78-5.33-15.72-8.39-22.39-13.61-12.76-9.99-24.88-27.33-39.54-36.46-9.98-11.05-21.68-20.09-33.29-29.32l-1.71-2.72c.2-.91-7.99-7.79-9.51-9.46-5.47-6.02-10.99-11.52-16.51-17.49-12.41-13.4-22.26-31.57-31.8-47.2-4.52-7.41-10.54-29.44-13.1-38.9-7.71-28.41-4.6-77,9.73-103.12,9.52-17.35,18.26-36.56,31.22-51.78,4.38-5.14,10.39-8.12,15-13,4-4.24,7.24-10.52,11.43-14.57,5.51-5.32,13.37-8.34,19.02-12.98,3.13-2.57,4.94-6.12,7.58-8.42,6.38-5.55,20.31-10.59,25.94-15.06,1.84-1.46,1.81-3.61,3.61-5.39,8.39-8.26,30.31-17.27,41.64-25.36,2.37-1.69,6.16-2.24,7.79-4.21,5.14-6.22,6.43-24.13,9.67-32.33,2.56-6.46,6.99-9.7,10.13-14.87,11.19-18.42,12.22-22.2,30.83-35.17,14.38-10.02,17.9-3.2,31.79-2.14,12.89.98,40.91-2.05,53.56-5.51,4.57-1.25,9.19-4.28,13.71-5.29,6.23-1.39,13.52-.6,19.64-1.36,18.47-2.29,29.24-14.72,47.54-2.28s21.39,25.29,15.52,46.44c1.38,1.9,20.64,2.2,23.94,1.84,9.86-1.07,8.23-5.68,13.65-12.35,5.35-6.59,12.97-14.22,19.55-19.5-6.96-23.61,13.54-44.92,36.95-31.05,19.12,11.33,17.18,20.6,26.95,37.05,6.89,11.59,8.8,7.71,19.76,10.24,7.27,1.68,17.92,4.15,24.29,7.71,11.77,6.58,19.63,23.74,18.48,37.03,2.82-.89-1.04-9.66,2.37-8.89,4.34.98,9.7,4.41,14.09,5.92,16.97,5.83,37.62,11.64,53.89,18.11,7.11,2.83,27.08,16.14,34.94,21.06,15.34,9.63,23.8,18.09,37.22,28.78,5.23,4.17,12.38,6.97,17.37,11.63,6.26,5.84,19.39,25.09,24.94,33.06,15.55,22.36,26.11,48.66,29.15,75.85,2.39,21.4-2.2,38.9-5.09,59.88-.8,5.83-9.89,30.43-12.72,36.28-5.66,11.72-22.01,25.72-26.64,37.36-1.21,3.05.01,6.14-1.31,9.69-2.28,6.09-17.61,28.69-22.2,35.8-9.42,14.59-20.58,32.08-33.01,43.99-10.36,9.94-21.82,18.16-32.54,27.46-6.41,5.57-10.47,14.18-16.19,20.51l-4.3,5.51ZM932.04,545.34c-5.33-5.25-12.19-15.5-16.57-21.93-10.12-14.84-13.8-33.44-36.3-18.75-6.46,4.22-8.75,7.77-9.37,15.66-.55,6.98,5.28,9.62,9.06,15.7,7,11.23,14.72,25.72,13.81,39.15-1.06,15.71-3.07,33.35-7.47,48.52-1.87,6.42-11.96,31.07-15.53,35.47-3.47,4.27-8.59,7.29-12.49,11.51-4.43,4.79-8.64,12.95-12.99,17.01-3.65,3.41-9.21,4.68-13.41,7.59-4.59,3.18-9.51,8.86-14.08,12.41,7.37-.47,22.47,3.63,28.72,1.23,8.97-3.44,17.12-15.81,23.25-22.75,8.4-9.5,8.79-9.22,15.51-20.49,5.09-8.55,9.1-11.49,14.52-18.48,3.5-4.51,5.85-10.79,9.58-15.42,10.18-12.63,18.57-11.27,32.41-15.59,9.23-2.88,25.4-10.32,33.71-15.29,15.43-9.22,10.3-37.45-5.04-44.38-7.52-3.4-9.64-.72-16.12-.8-7.15-.08-16.21-5.46-21.2-10.38ZM766.69,515.7c-12.38-2.44-23.91,9.06-34.74,10.75-6.29.98-13.32-.4-19.65.35-9.94,1.17-21.21,6.21-32.12,6.87-16.96,1.03-23.1-8.19-43.48-.47-8.64,3.28-33.55,25.32-37.55,33.45-6.54,13.32-7.89,32.1-12.16,45.84-3.32,10.68-13.22,14.17-20.33,21.67-5.18,5.47-8.88,11.95-14.96,17.04-3.74,3.13-16.36,9.81-17.58,13.43-3.49,10.37,13.74,36.31,20.57,44.63l2.05.06c8.16-6.01,20.39-13.95,30.99-11.15,3.22.85,4.85,4.04,7.96,4.52,1.53-5.68,2.82-13.12,7.02-17.49,3.29-3.41,8.36-4.51,11.93-7.07,3.96-2.84,7.06-7.61,11.74-10.26,14.6-8.28,39.65-10.77,52.24-19.76,15.18-10.85,42.4-37.02,48.37-54.63,5.34-15.77,9.63-27.41,16.18-42.82,2.12-4.98,3.04-11.04,5.5-15.5,4.08-7.41,13.87-11.64,18.03-19.46ZM792.33,567.33c3.78-4.13,11.25-23.59,11.39-29.18.16-6.23-4.57-15.94-10.63-18.36-2.06-.82-8.86-2.18-10.86-2.06-2.29.14-11.09,7.83-13.07,9.94-23.17,24.63-21.26,63.54-36.11,92.89-2.98,5.9-27.82,35.12-33.04,38.96-6.87,5.04-26.86,17.13-34.55,19.45-4.27,1.29-8.84,1.39-13.05,2.95-5.44,2.01-9.38,6.74-15.04,8.96-13.94,5.49-29.3,6.39-31.5,25.58-.32,2.81,5.99,19.26,7.64,22.91,3.44,7.64,9,14.04,11.39,22.12,9.88,1.95,21.23,5.65,30.17,10.32,10.48,5.47,17.05,15.17,30.14,14.95,26.72-.45,56.05-9.4,74.13-29.42,10.62-11.76,4.96-22.75,4.31-36.11-.27-5.68,1.14-11.12,1.07-15.99-.23-17.6-11.12-42.53-10.82-63.05.25-17.38,8.64-26.79,14.98-40.81,2.92-6.45,3.81-14.3,7.61-20.39,4.27-6.83,11.21-8.6,15.84-13.66ZM799.7,697.69c4.8-7.33,14.41-12.63,19.42-19.07,8.8-11.29,18.54-30.54,25.76-43.24,3.27-5.75,8.6-10.79,11.52-16.48,10.54-20.47,16.26-46.84,15.36-69.72-.19-4.8-3.24-8.66-3.08-13.49-8.51,5.45-11.85,15.26-17.58,22.91-12.18,16.29-21.48,29.21-32.58,46.42-2.63,4.07-6.97,7.31-9.01,11.99-4.37,10-2.67,33.75-2.92,45.07-.16,7.33-4.72,15.96-4.9,21.23-.1,2.99,4.03,5.05,1.06,8.99-1.24,1.64-4.35.73-3.05,5.39ZM835.04,680.04c6.09-5.78,14.25-7.61,20.06-15.44,3.85-5.19,4.82-10.93,7.76-16.24,2.41-4.34,6.64-7.96,9.02-11.98,3.89-6.58,14.86-44.96,14.88-52.2.01-5.28-2.99-14.26-3.95-20.13-1.23-7.57.36-14.22-5.14-21.37-1.86-.22-.83,2.11-.7,3.2.54,4.74,2.43,10.44,2.33,15.13-.13,6.47-3.5,13.68-4.31,20.46-.52,4.38.23,10.15-.41,14.59-1.88,12.96-10.21,17.51-14.77,28.23-6.96,16.37-9.45,24.59-20.1,39.9-5.4,7.76-10.83,10.7-16,17-5.56,6.77-8.48,16.38-16.02,21.98.88,1.57,2.26-.33,3.11-.89,11.49-7.53,15.32-13.8,24.24-22.26ZM831.69,566.7c-10.6-1.56-21.26,3.38-32.33,2.15l-10.64,18.34c6.23,2.56,12.5,3.55,17.88,8.09.84.71,3.26,5,4.08,4.4l21.01-32.99ZM1190.7,828.69c1.66,1.14,6.74-12.37,6.99-14.5.73-6.38-1.08-12.21-1.08-17.99,0-29.75-2.06-48.44-15.04-75.89-11.07-23.42-22.62-30.9-38.39-48.61-4.59-5.15-7.6-11.43-13.01-15.99-9.27-7.82-41.51-29.35-52.22-33.78-4.36-1.81-9.33-2.58-13.63-4.37-9.02-3.75-16.14-10.91-25.37-14.63-8.09-3.26-22.04-8.47-30.25-10.75-5.49-1.52-11.46-1.97-17.04-3.09-5.64,11.51-12.7,24.73-24.98,30.1,9.43,12.05,22.23,26.1,25.2,41.3,4.71,2.12,13.46,5.53,18.18,3.06,1.25-.66,19.42-17.72,20.63-19.38,3.18-4.38,3.65-9.37,5.95-14.06,8.07-1.98,3.79,8.93,4.19,9.44.24.31,1.87.36,2.36,1.08,1.31,1.95-2.17,17.29-1.51,22.56,2.1,16.93,27.47,22.09,36.46,34.54,7.62,10.55,1.44,20.12,0,30.94,11.69,4.63,18.04,11.06,24.16,21.87,8.58-1.73,16.26-8.78,25.43-6.4,10.02,2.59,21.92,25.11,22.05,35.03.04,3-1.17,5.54-1.09,8.49,15.1.22,27.11,20.7,29.47,34.04,1.52,2.17,12.49.91,12.55,6.96ZM703.69,642.68c1.45,1.38,11.74-8.87,10.99-11.99-1.73.73-11.91,11.12-10.99,11.99ZM554.69,633.7c-4.85,2.37-10.23,4.04-15.04,6.45-2.74,1.37-6.94,5.35-9.03,6.06-2.28.78-3.5-.9-6.26.58-5.42,2.91-16.01,14.28-21.73,18.34-3.11,2.21-7.25,3.21-10.44,5.56-6.13,4.53-12.1,13.92-18.49,19.51-3.58,3.13-8.75,5.44-12.06,8.94-4.29,4.54-6.7,11.47-10.54,16.46-7.85,10.2-25.28,30.14-29.45,41.55-1.78,4.86-2.62,10.68-4.25,15.75-4.19,13.01-12.8,38.05-12.8,51.29,0,10.34,6.54,47.01,10.91,56.18,2.3,4.84,6.41,9.51,9.04,14.96,3.41,7.06,5.04,14.89,9.52,21.48,4.98,7.34,12.43,11.64,18.14,17.86,3.91,4.26,6.62,9.54,10.2,14.03,6.25.85,12.93-3,18.8-3.1,10.29-.18,17.56,3.78,28.17-1.74,2.46-1.28,14.36-9.43,14.91-11.14,2.13-6.61-9.85-12.32-14.1-17.03-5.29-5.85-13.67-17.02-13.6-24.9-3.63-1.23-7.43-.92-11.16-1.33-1.39-.15-3.19-1.55-4.25-1.44-.42.04-4.83,3.5-7.26,4.39-15.64,5.75-30.59,5.79-40.25-9.2-6.69-10.39-7.29-34.11-1.79-44.83,1.8-3.51,15.12-22.8,17.47-24.53,2.06-1.51,5.9-3.03,8.33-4.18-8.72-10.22-5.31-16.42,2.03-25.46,2.54-3.13,12.75-11.95,13.53-14.47,3.02-9.82-7.14-31.72-5.46-44.47,1.11-8.47,12.73-19.31,18.57-25.42,3.76-.48,12.17-8.45,14.78-8.22,3.88.35,4.62,6.92,6.35,9.76,1.57,2.6,9.51,12.37,11.91,13.09,6.55,1.94,16.84-2.07,23.78,3.8l8.51-4.61-.63-2.06c-2.74-1.32-5.42-4.14-7.34-6.44-4.73-5.68-15.02-19.19-15.94-26.06-3-22.52,10.82-33.41,26.91-45.4ZM687.69,653.7c-10.73.48-18.1,8.16-27.33,12.16-16.48,7.15-40.7,11.46-53.71,24.29-1.13,1.12-7.35,8.24-7.83,9.16-1.8,3.45-1.24,5.84-.12,9.37,2.31.63,1.67-.56,2.28-1.27,12.43-14.38,9.99-17.91,30.75-25.19,19.23-6.75,32.83-12.64,50.28-23.72,1.84-1.17,4.4-3.05,5.68-4.81ZM847.69,827.68c7.14,1.33,10.1,8.48,14.48,13.03,9.24,9.6,32.38,38.03,42.28,42.72,17.61,8.34,38.76,8.21,57.61,5.15,12.66-2.06,36.86-18.3,43.65-29.35,5.82-9.46,10.25-39.9,8.98-51.03-1.07-9.37-10.22-18.42-12.56-28.44s-4.26-25.89,5.22-31.89c12.73-8.06,24.11-1.2,35.36-4.65,2.91-.89,22.5-12.91,24.92-15.07,9.03-8.04,9.08-24.62-1-31.88-11.05-7.95-25.23-13.83-30.99-28.01l-1.94-8.54c-2.55,6.42-3.18,17.39-8.09,22.42-7.23,7.4-29.73,12.29-38.96,18.04-10.29,6.42-6.9,18.34-7.99,28.01-.97,8.64-1.99,17.4-3,26-.9,7.68-15.91,35.28-21.97,40.03-19.54,15.33-52.74,1.14-74.51,2.49-3.14.2-23.76,3.02-24.51,4.02,3.12,10.39,2.59,20.45-7,26.96ZM1001.68,667.7c-3.24-1.62-6.61.25-9.34-.07-3.98-.46-8.46-2.46-12.25-2.83-8.42-.83-27.47,2.07-33.9,7.89-5.86,5.31-18.38,31.72-19.42,39.58-1.09,8.24,2.35,20.72-3.68,27.32-2.82,3.08-23.54,11.81-27.92,12.13-9.16.67-17.74-6.48-26.22-7.79-8.92-1.38-31.06-1.71-39.23,1.29-2.24.82-6.73,2.77-5.92,5.78.75,2.76,15.27,16.47,18.31,20.78,2.74,3.88,5.24,8.33,6.6,12.91,3.8-2.52,4.89-7.18,8.49-9.99,6.24-4.87,22.16-5.56,30.04-5.04,4.52.3,9.31,2.19,13.8,1.96,4.03-.2,34.12-9.1,38.04-11.05,6.06-3.01,14.88-14.91,16.67-21.33,2.54-9.09-.81-16.76.23-25.77,1.86-16.15,14.12-33.19,27.72-41.28l17.99-4.49ZM1022.69,667.7c-13.21,1.83-22.56,8.99-33.64,14.85-5.65,2.98-11.43,3.09-15.77,8.23-9.66,11.41-9.06,36.68-11.59,51.41-2.35,13.65-3.2,19.93-16.3,26.7-16.22,8.39-36.11,8.52-54.15,9.85-8.99.66-14.24-1.78-23.53.47-7.55,1.83-19.36,4.4-15.52,14.51l9.99-4.04c15.35-5.67,17.35-.51,31.13,1.92,11.92,2.1,30.97,3.85,42.83,2.04,5.5-.84,7.36-5.15,11.09-7.91,6.21-4.61,11.48-6.52,14.96-14.04,2.06-4.45,9.63-28.14,10.26-32.74,1.53-11.26-1.58-28.9,4.83-39.17,1.52-2.44,12.07-8.72,15.04-9.96,6.3-2.63,12.74-2.03,18.31-6.69,4.61-3.86,7.58-11.12,12.08-15.41ZM792.69,694.7c-8.46.18-16.17-4.4-23.99-7-.68,13.8,6.8,26.32,6,39.99,7.34-10.59,14.89-20.21,17.99-32.99ZM537.68,721.69c-17.52-.3-31.74-9.27-37.49-26-4.01,2.48-.8,4.33-.58,7.58,2.41,35.49,20.41,89.36,53.02,107.97,1.67.95,9.68,4.48,11.25,4.76,3.8.68,9.01-.96,13.29,1.68l1.13-2.04-.62-9.95c-24.57,10.85-29.97-13.19-40.56-27.94-3.19-4.45-7.03-6.37-9.91-12.09-2.19-4.35-8.87-21.19-8.32-25.21,1.26-9.22,11.48-11.79,17.54-16.48.84-.65,1.83,0,1.26-2.29ZM570.69,841.7c-6.53,1.31-15.8-.29-22.24-2.27-4.9-1.51-29.52-19.55-34.23-23.77-13.95-12.53-26.35-57.02-28.26-75.74-1.09-10.69,2.99-20.76,2.23-31.22-9.71,7.65-15.71,25.31-13.28,37.27.97,4.78,6.74,10.39,8.09,15.91,5.29,21.7-15.13,16.97-20.53,28.11-2.94,6.07-1.95,13.36,1.37,19.05l13.34,17.66c6.33-12.66,12.76-16.61,26.48-11.48,18.12,6.79,38.57,22,41.02,42.49,2.84,2.84,22.72-13.58,25.99-15.99ZM494.68,716.69c-1.87.47-1.84,1.57-1.78,3.19.32,8.32,2.43,23.78,3.89,32.21,1.15,6.65,4.37,12.77,5.62,19.38,1.79,9.46.13,15.65,5.45,24.55,3.29,5.49,22.4,26.52,27.51,29.49,5.82,3.38,32.22,15.12,37.35,11.73l3.55-13.57c-3.41-2.61-7.77-1.43-11.61-2.45-14.95-3.96-34.19-20.58-42.82-33.18-10.97-16.03-18.88-40.66-24.9-59.1-1.23-3.76-2.21-8.25-2.28-12.23ZM1096.69,753.68c-3.43-3.44-17.71-20.12-21.48-20-4.77,18.09-21.86,14.6-36,16.03-4.51.46-8.85,2.48-13.52,1.99,3.6,10.81,11.62,21.71,19.49,30,5.19,5.47,11.38,9.81,19.32,8.78,1.9-5.02,6.93-8.62,9.63-12.86,2.34-3.68,3.23-8.12,5.56-11.44,2.78-3.97,12.18-11.46,17.01-12.5ZM1021.68,751.68c-7.76.47-15.53,4.82-15.04,13.47.33,5.83,6.54,14.04,8.75,20.32,3.35,9.53,5.47,22.91,6.98,33.02,1.59,10.63,4.44,20.26-1.68,30.18,6.38-.2,7.57,5.44,13.42-.08,1.36-1.28,10.04-11.47,11.02-12.97.62-.94,1.64-2.11,1.41-3.29-7.03-6.98-14.98-26.39-14.74-36.04.1-4.14,3.43-11.3,2.92-15.05-.16-1.16-5.84-8.13-7.21-10.86-2.65-5.26-5.54-12.88-5.82-18.69ZM776.69,862.67c-2.37-5.4-5.28-12.76-5.89-18.58-.42-3.98.94-9.22.59-11.73-1.35-9.52-23.34-35.18-31.17-41.69-8.44-7-9.28-2.29-18.32-.27-21.55,4.82-39.92,6.54-60.88-2.53-12.91-5.58-20.45-19.46-35.32-20.18,1.25,3.2-4.02,10.21-3.49,12.01.19.63,4.16,6.18,4.95,7.03,12.7,13.7,28.14,25.45,39.52,40.48,4.16,5.5,6.84,11.7,10.53,17.47l15.06-31.93c5.87-7.9,14.11-10.1,23.68-8.8,7.82,1.06,33.99,16.14,38.76,22.24,11.42,14.59,1.47,23.66-2.72,37.28-3.68,11.93-.79,27.78-17.86,30.14-17.61,2.43-34.27-6.94-48.4-15.91-5.34,5.53,10.83,32.93,16.65,36.84,15.9,10.67,25.83-2.33,39.83-3.85,8.49-.92,18.61-.25,26.5,3-1.33-14.67-5.87-34.47,3.17-47.33,1.2-1.71,2.53-3.55,4.83-3.69ZM760.68,789.69l-6.01-9.57-3.98.58c-.7.8,8.69,8.38,9.99,8.99ZM574.7,978.68c11.81,3.56,38.71,12.22,48.92,3.44,1.29-1.11,12.03-19.67,12.95-22.04,4.33-11.12-1.41-17.09-3.63-27.14-.92-4.14-3.03-15.1-3.18-18.9-.56-14.1,14.58-12.3,23.48-15.3,5.57-1.88,23.08-16.62,24.24-21.76,1.25-5.55-.48-20.64-2.3-26.28-2.73-8.48-19.75-26.26-26-34-5.31-6.56-10.59-12.6-16-19-4.15-4.91-6.88-11.01-12.12-14.94-1.25-.23-5.37,4.86-5.92,5.97-.89,1.77,6.77,11.02,8.36,13.65,2.13,3.53,3.49,7.86,5.76,11.24,5.39,8.01,15.55,12.67,20.47,21.54,6.23,11.26,10.23,40.82-2.68,48.38-9,5.27-38.61,5.56-41.9,16.09-2.95,9.44,7.08,17.2,10.32,25.78,4.82,12.76,11.98,43.85-6.73,47.82l-34.04,5.44ZM772.68,820.68c.4-1.5.72-2.09.26-3.68-3.84-13.53-15.34-22.64-23.7-33.37l-5.55-.94,10.41,10.08,18.57,27.91ZM472.69,956.7c3.79,3.31,10.98,11.48,15.25,13.24,26.98,11.11,46.09-2.14,72.22-2.3,18.21-.11,36.74,8.53,50.52-10.45,11.41-15.73-6.42-28.29-10.27-42.71-3.04-11.4-3.78-21.69,8.28-27.28,17.06-7.9,27.23.56,37.82-22.18,8.09-17.39-2.38-20.97-11.04-33.59-3.38-4.92-5.9-10.6-9.36-15.64-4.93-7.18-13.16-13.72-15.43-23.09l-29.77,11.21c-1.34,12.27,2.45,24.62-3.56,35.94-6.19,11.64-15.21,19.29-26.97,25.03-6.54,3.2-9.6,3.62-16.11,3.88-2.24.09-21.06,10.86-24.1,12.92-6.66,4.52-7.36,7.28-6.48,15.53,1.43,13.27,24.65,20.46,26.6,32.48.89,5.46-6.61,17.16-11.25,19.87-6.66,3.89-14.58,1.28-21.77,2.23-7.8,1.03-15.58,7.18-24.58,4.93ZM781.69,810.68l-10.99-7.99,5.98,9.56,5.01-1.58ZM1045.33,846.33c-3.66,3.47-8.73,4.77-12.62,7.86l9.46,8.26c3.63-1,4.74-5.27,7.13-7.65,4.74-4.74,10.43-8.02,13.24-14.79l-3.86-8.32c-1.42-1.06-12.08,13.44-13.34,14.64ZM1189.69,834.69c-1.95-1.97-23.21.56-27.23,1.27-18.22,3.23-23.41,18.44-36.24,29.79-2.52,3.94,1.62,13.84,1.54,19.42-.06,4.56-2.41,8.97-3,13.09-.71,4.95.13,10.42-1.34,15.66-2.44,8.68-13.55,15.55-10.73,26.76.18.25,4.3-2.89,5-3.49,14.99-12.73,34.53-32.97,46.4-48.6,6.54-8.6,8.6-17.45,13.21-26.79,4.37-8.86,11.78-16.3,12.38-27.12ZM1067.33,851.05c-7.31-6.36-9.98,5.07-15.12,9.67-2.47,2.22-5.38,2.97-7.51,5.47,14.75,13.98,20.74,31.64,7,48.92.43,1.9,13.05,7.78,15.48,9.58,4.7,3.48,7.51,8.9,11.49,13,.32-17.45,11.26-32.75,8.93-50.41-1.35-10.17-12.53-29.49-20.27-36.23ZM885.7,905.69c1,1.48,11.98-12.28,12.96-13.53,2.07-2.62,5.15-6.91-.65-7.36-1.72-.13-9.43,11.63-13.19,12.06l.88,8.83ZM896.19,1034.69c4.87-.55,10.53.4,15.5,0-2.54-11.12-5.22-20.7-3.89-32.39.44-3.93,2.49-8.04,2.89-12.11,1.34-13.7.41-22.45,5.79-36.21,1.64-4.19,5.91-5.92,6.3-9.76,1.19-11.78-10.3-27.44-.07-38.02,2.47-2.55,6.21-3.92,9-6.01-7.65-1.5-15.72-2.39-21.99-7.5-3.76,9.2-13.44,13.35-21.09,18.65,5.02,17.37,9.38,30.1,5.79,48.57-3.97,20.44-8.45,47.91-20.9,65.1-4.32,5.97-12.88,13.51-18.82,17.68-.27,1.64,1.35.93,2.48.99,17.43.95,24.84-7.41,39.02-9ZM706.55,965.83c-12,.19-18.06,3.43-28.77-3.73-20.62-13.79-23.37-37.73-18.1-60.41-4,3.93-19.94,7.11-22.46,10.03-5.12,5.92,1.68,14.82,3.51,20.44,5.05,15.5,1,31.3-1.81,46.28-.88,4.7,10.15,35.93,13.06,41.47,4.36,8.3,21.54,16.25,30.46,17.56,14.94,2.19,24.07-16.71,32.85-17.74,9.16-1.07,21.85,10.86,27.38,17.5,1.7,2.04,6.39,10.61,7.29,11.21,4.5,2.98,15.19.28,20.18.23,22.74-.21,51.19,2.38,72.88-5.13,1.67-.58,1.91-2.93,3.14-3.86,3.09-2.32,7.4-3.97,10.44-6.56,3.32-2.83,14.52-23.45,16.59-28.41,2.55-6.13,3.18-13.62,5.73-20.27,1.63-4.24,4.98-8.71,6.26-12.74,1.98-6.24,3.57-45.47,2.02-52.02-.15-.65-.58-3.02-1.51-1.46.09,3.78-1.31,7.79-2.81,11.18-2.07,4.68-7.9,14.78-10.77,19.23-6.52,10.11-13.06,11.85-24.2,14.8-4.43,1.17-16.98,4.42-20.79,4.19-1.63-.1-2.57-1.27-3.37-2.52,7.85-10.94,25.09-5.45,33.95-16.37-13.6,2.04-24.77,10.16-39,6,5.21,9.96,10.02,32.87,5.51,43-3.28,7.36-22.32,15.6-30.07,17.93-19.29,5.8-39.69,3.97-44.45-18.94-7.62,8.27-13.23,9.81-24.38,6.89-18.7-4.9-14.44-23.02-18.75-37.75ZM1006.69,935.69c3.73,10.33,2.31,22.86-5.98,30.52-4.66,4.3-11.44,6.41-15.83,11.1-.94,4.89,15.14,21.98,19.55,23.13,5.28,1.37,14.71-2.45,19.94-4.57,8.02-3.26,20.52-9.57,27.99-14.01,9.8-5.83,18.04-13.7,29.31-17.67-6.61-3.87-3.51-13.09-5.5-17.48-.92-2.03-7.45-6.97-9.46-9.54-2.75-3.51-4.13-7.93-6.98-11.02-1.48-1.61-8.78-6.66-10.65-7.36s-1.2.45-1.61,1.18c-1.68,2.98-3.62,7.75-5.76,10.24-7.41,8.62-24.91,7.05-35.01,5.49ZM1134.69,937.7c-.78-.75-5.43,3.25-6.46,4.03-15.78,11.98-31.58,23.71-47.07,35.93-8.23,6.5-13.65,7.4-22.15,11.85-34.65,18.15-76.98,38.28-115.11,46.89-7.16,1.62-14.47,1.05-21.27,2.73-8.16,2.01-15.68,7.51-24.71,9.29-9.62,1.89-18.5.31-27.62,1.38-8.08.95-16.99,6.06-25.12,6.88-8.77.89-17.37-1.63-26.03-1.03-25.36,1.76-50.64,3.02-75.97,4.02-11.85.47-19.31-4.02-30.01-4.97-8.96-.8-18.89.8-27.86-.14-9.39-.98-25.09-5.94-36.01-7.99-28.67-5.39-57.52-14.54-84.6-25.4-5.02-2.01-9.62-5.57-15.48-7.52-17.21-5.73-25.75-8.04-39.61-21.39l-24.92-14.08c4.59,3.32,8.13,9.49,11.96,13.04,4.44,4.12,12.14,7.07,17.51,11.49,7.5,6.18,15.06,15.63,22.62,21.38,4.71,3.59,10.6,5.77,15.39,9.61,11.01,8.83,14.84,16.83,28.64,24.36,9.15,4.99,15.91,9.34,24.56,14.44,10,5.89,31.95,10.14,44.08,13.92,6.03,1.88,14.09,6.42,19.82,7.18,6.86.9,14.84-.63,21.81.19s14.78,4.99,22.23,5.77c28.18,2.96,54.81,2.54,82.92,3.08,8.62.17,19.44,2.62,27.95,2.02,6.33-.45,12.15-3.56,18.29-4.71,11.17-2.09,23.32-1.22,34.45-3.55,6.9-1.45,14.34-5.79,21.38-6.62,6.01-.7,12.41.32,18.62-.38,14.93-1.69,48.61-9.95,63.79-14.21,7.56-2.12,13.45-7.49,20.3-10.7,9.62-4.52,20.25-5.42,28.7-12.3,5.05-4.11,8.48-10.09,13.52-14.48,7.01-6.11,17.6-10.55,23.87-17.13,3.69-3.88,6.36-9.83,10.1-13.9,3.92-4.28,9.62-7.43,13.56-11.44,4.55-4.65,8.44-11.17,12.96-16.04,3.67-3.96,9.04-7.49,12.97-12.03,7.95-9.18,11.94-19.19,18.03-29.46ZM949.69,1003.19c-.27,6.81.2,13.69,0,20.5,7.84-1.88,14.47-5.75,22.24-8.26,9.28-3,21.08-3.71,28.76-9.72-13.64-2.17-15.67-17.17-21.62-27.09l-23.42,2.54c-3.39,8.01-5.61,13.25-5.96,22.04ZM736.68,1046.68c-3.21-12.98-16.35-18.74-28.37-12.87-5.08,2.48-8.03,8.09-13.62,9.89l15.5,3.98c8.95,1.17,17.76-2.64,26.49-1Z"/>
</svg>