<?xml version="1.0" encoding="UTF-8"?>
<svg id="Calque_1" data-name="Calque 1" xmlns="http://www.w3.org/2000/svg" viewBox="0 0 1605 1605">
  <path d="M1172.71,598.59c2.09,2.36,8.74-11.7,9.59-12.91,4.22-6.03,15.8-20.63,21.09-24.91,4.57-3.71,11.1-7.33,16.32-10.18l-9.91-2.57c-9.8-7.94-15.24-15.99-16.06-28.93-1.33-21.01,21.91-42.87,41.96-46.08,4.61-.74,11.25,2.38,15.32,4.79,10.93,6.49,22.17,18.39,34.71,23.29,4.34,1.69,21.69,8.76,24.73,9.27,5.07.86,10.65-.35,15.68.32,4.7.63,10.79,2.08,16.08,2.92,18.84,3,35.35,8.13,49.61,21.39l64.97,26.02c2.39,3.31-.77,10.91-1.06,15.1s.95,8.76.77,11.98c-1.91,34.64-7.31,69.47-1.68,103.89,1.23,7.54,4.01,14.85,3.88,22.62,4.82-1.03,10.16,1.08,14.5,1.08,14.67,0,28.53-2.12,42.96-3.13,13.38-.93,28.09.4,42,0,3.32-.09,16.73-.87,17.47,1.67l-1.93,24.38,5.57.93-.55,5.59c-5.91,3.2-12.19.28-17.52.4-6.19.14-12.21,1.5-19.04,1.12-2.75-.15-10.74-3.18-11.41-.44,2.21,10.96.78,21.91.91,32.94.57,51.2.9,102.65,1.09,153.91.04,11.9-1.8,25.88-1.09,37.09.32,4.97,2.17,9.87,2.12,14.98-.08,7.28-3.22,15.49-3.16,23,.06,6.87,3.18,15.33,3.11,21.93-.07,7.05-1.83,14.85-1.99,23.01-.28,14.72-2.11,35.23-1.08,49.08,2.31,31.02,0,63.37,0,95.01,0,17.51-.06,33.44,1.03,50.97.73,11.73-2.62,23.13-2.04,35.03,1.01,20.56.27,37.69,0,57.91-.07,5.42,1.07,17.52-.17,21.83-1.08,3.77-7.82,4.44-11.3,4.7-11.77.85-28.71-.88-40.95-1.02-11.95-.14-25.63-1.27-37.07-1.02-7.04.16-14.69,3.97-21.02,4.08-8.45.15-16.39-4.54-26.94-4.01-13.48.67-26.65.78-40.02.99-9.25.15-18.06,2.42-25.99,2.42-7.35,0-14.88-3.41-21.99-3.5-6.71-.09-13.48,2.72-19.97,3.11-6.89.42-10.91-1.58-17-2.07-13.94-1.12-27.67,2.72-41.53.03-.02,5.91-3.27,11.94-3.9,17.61-.54,4.85.29,9.76-.36,14.64-.87,6.46-4.9,13.63-5.64,20.36-.54,4.9.29,9.98-.12,14.88-.29,3.36-6.51,26.48-8.48,26.5-4.6-2.95-.92-6.6-.61-10.59,1.06-13.54,3.25-18.03,5.81-30.19,1.71-8.13.52-14.94,1.41-22.59.52-4.48,8.99-29.53,6.89-31.6-5.83-.5-11.77,1.74-17.46,2.04-7.37.38-20.83.49-28.08,0-7.74-.53-15.07-4.04-23.25-.83-2.21,1.59-.97,21.93-1.24,26.28-.23,3.81-1.78,8.03-2.02,11.98-.36,5.92,1.3,19.93-.67,24.32-.94,2.1-3.9,1.64-4.85.28-2.06-2.94,2.48-17.07,2.55-21.57.09-6.04-2.41-13.52-2.03-20.03.39-6.78,4.34-13.3,3.02-20.45-7.34-2.28-14.7.17-21.43.02-3.59-.08-8.12-1.88-12.01-2.06-6.89-.33-13.61,1.82-20.55,1.03.23,6.38-2.1,14.3-2.03,20.45.16,13.8,3.93,31.15,4.07,46.01.08,8.77-1.79,18.92-1.03,27.03.68,7.3,7.51,23.17,3.44,29.47-1.16,1.79-3.61,2.11-5.21.81-3.59-10.64-1.48-22.25-2.26-33.26-1.27-17.85-4.73-35.9-4.03-54.06.19-4.84,2.14-11.32,2.13-15.96-.02-6.64-3.35-14.37-2.12-21.46-8.05-.69-15.77,1.9-23.95-.04.95,5.78,5.45,10.29,7.29,16.19,4.89,15.62,4.45,40.18,5.68,57.32.61,8.46-1.68,15.9-2.03,23.94-.37,8.55,1.77,25.38-1.68,32.28-.65,1.31-2,1.25-2.57,2.51-3.04,6.72-2.28,11.93-10.89,15.08-16.89,6.17-40.85.47-58.37,1.63-5.02.33-9.87,2.22-14.97,2.11-5.6-.13-12.33-2.67-18.01-3.05-10.97-.74-19.76,3.87-30.03,3.02-4.63-.38-9.6-3.01-14.01-3.07-9.5-.13-20.08,3.3-29.65.73-2.85-.77-7.67-2.31-8.6-5.41-1.05-3.54,1.63-15.6,3.02-19.56,2.49-7.08,7.85-12.88,10.77-19.72l-51.33.07c-4.24-2.76.6-21.98-.68-27.08-8.09,4.53-17.35,3.95-26.23,5.26-3.16.47-6.39,2.29-9.34,2.66-20.9,2.61-20.57-15.23-34.41-24.91,1.05,6.98,7.29,24.85,3.04,30.55-2.64,3.54-20.29,7.78-25.32,9.67-5.83,2.19-10.62,9.27-14.43,1-1.57-3.42-10.08-25.98-11.27-26.82l-13.04,1.61c1.61,3.23.7,6.59,1.45,10.05,1.42,6.58,11.37,23.65,17.84,26.16,3.31,1.28,20.98,6.26,24.3,6.7,17.97,2.36,36.72-.43,53.81,2.19,6.11.94,10.79,3.86,16.38,5.62,2.94.93,7.08.61,10.24,1.76,6.05,2.21,22.08,19.92,25.2,25.8,2.94,5.53,2.7,12.08,4.25,17.75.89,3.25,6.67,8.58-2.02,9.9-10.17,1.54-15.94-1.28-24.94-1.37-8.61-.08-19.77,3.53-29.01,4.42-17.16,1.65-34.83,1.14-51.95,2.05-17.4.92-34.76-1.07-51.99-.99-11.29.05-22.13-.57-33.04-1.05-3.67-.16-7.31,3.71-8.43-3.56-2.63-17.03,2.66-37.73-6.2-54.8-5.21-10.04-10.1,3.79-10.79,8.95-.7,5.33.33,11.45-.09,16.91-.24,3.09-1.76,5.93-1.98,9.02-.41,5.72,1.27,18.53-1.2,22.8-2.26,3.9-6.68,2.14-10.2,2.79-6.83,1.26-16.2,6.33-17.51-3.7-1.88-14.39-1.14-33-1.14-47.86,0-15.22.67-30.39,1.04-45.54l-19.62,3.87c-12.04,2.38-20.49,3.67-32.92,4.08-2.91.1-12.11,3.03-13.34-.6l22.87-94.35c-4.59.29-9.97,2.15-14.48,2.08-5.02-.08-11.25-3.05-16.01-3.07-8.11-.04-17.99,5.12-26.5,3.98-1.01,4.76,1.11,10.18,1.04,14.46-.09,6.05-2.54,13.7-2.66,19.88-.16,8.31,4.01,23.9.7,31.25-2.16,4.8-5.6,1.95-6.13-2.04-1.46-10.95,2.11-21.78,2.11-32.05s-3.61-22.28-2.19-33.37c-8.47-3.92-16.58-.92-25.42-1.09-10.46-.21-22.47-1.9-32.91-2.08-8.54-.14-16.18,2.39-24.08,2.08-5.83-.23-12.13-2.72-17.92-3.07-6.6-.39-12.1,1.16-18.49,2.08.83,6.16-1.01,12.56-1.1,18.41-.25,15.7,1.14,32.07,1.09,48.09-.04,12.93,1.71,17.42,2.84,29.08.33,3.45-.14,23.2-5.27,22.33-4.64-.79-4.89-20.43-4.59-24.44,1.34-17.57,1.6-32.22,1.02-50.06-.23-7.28.45-15.34-.06-21.95-.47-6.17-3.16-13.06-2.99-19.5-7.6,1.32-15.29-2.03-22.47-2.09-11.62-.1-23.89,1.68-36.05,1.12-5.72-.26-10.78-2.29-17.01-2.08-12.65.42-25.01,2.78-39,3-21.72.34-43.14.74-65,1-13.42.16-16.47-1.82-27.97-2.95-8.55-.84-17.93,1.58-27.03,1.03-5.6-.34-12.81-2.82-17.96-2.82-4.07,0-8.48,2.15-12.98,1.82-3.07-.23-10.35-1.65-13.79-2.27-11.5-2.09-4.54-16.57-3.86-24.39.95-10.89-2.88-20.73-2.96-30.86-.04-5.58,1.93-11.38,2.13-16.97.97-27-1.18-53.37-2.09-80-.38-11.16,2.7-22,2.09-34.09-2.19-43.13.59-86.93-.05-129.97-.17-11.47-2.64-24.65-2.04-35.03.37-6.41,3.11-13.78,3.08-19.91-.03-8.03-1.01-16.06-1-25,0-14.07-2.46-30.95-2.08-44.09.19-6.68,3.11-14.5,3.09-20.91s-3.16-14.82-3.07-20.99c.05-3.56,1.93-8.15,2.07-12.01,1.32-36.75-.4-73.31.92-110.08.12-3.42,1.69-6.84,1.05-10.46-5.79-.23-11.7.34-17.49,0-15.9-.96-31.35.29-47.14-1.86-1.3-.18-2.77.68-4.43.44-12.69-1.82-4.09-22.32-3.94-30.56,5.3-.46,10.38-1.88,15.67-2.63,27.95-3.94,55.46-.06,83.87-.33,29.78-.28,59.94-4.7,89.95-4.48,6.4.05,12.08,2.95,18.5,2.42-3.07-15.18-2.84-32.89,1.7-47.79,1.57-5.15,5.23-9.89,7.07-14.93s2.37-11.53,4.44-16.56c2.58-6.28,8.22-10.65,11.81-16.19,10.19-15.7,17.73-32.9,26.8-49.2,5.81-10.44,12.76-9.16,22.22-13.78,7.46-3.64,15.1-10.9,21.96-14.04,5.25-2.4,10.78-2.4,15.97-4.03,8.89-2.8,19.2-10.09,28.35-13.65,5.98-2.32,12.26-3.07,17.66-5.34,5.76-2.42,10.49-7.38,17.02-9.98,18.55-7.36,38.78-12.1,57.97-17.03,6.13-1.58,24.95-2.86,31.22-2.27,11.43,1.08,17.91,16.48,20.84,26.24,2.01,6.71,2.17,9.76.46,16.55-1.13,4.5-10.18,22.5-13.09,25.91-2.71,3.17-7.78,5.94-11.41,8.1v1.46c10.04,9.84,11.09,21.81,13.27,34.75.51,3.01,2.24,6.14,2.61,9.39.35,2.98.38,21.54,1.11,22.39,3.23.22,4.18-3.79,6.09-5.4,4.78-4.05,19.14-12.69,21.96-17.29,1.2-1.96,1.71-6.73,3.07-9.68,12.48-27.01,39.45-65.53,60.86-86.14,12.52-12.04,29.32-30.51,43.69-39.31,18.76-11.5,44.74-30.72,66.91-34.09,3.02-.46,6.34.14,9.41-.09l1.13-11.87c6.46-.98,12.15-4.5,18.06-6.44s10.63.94,11.72-7.28c.9-6.78-2.06-36.26-8.41-39.39-1.61-.79-1.67,1.11-1.96,1.99-1.25,3.78-6.14,13.83-6.29,14.62-.22,1.13.82,3.19.8,4.83-.36,28.57-34.05,48.14-60.33,42.34-1.1-.24-18.55-9.01-20.05-9.95-6.42-4.07-9.64-13.89-14.16-19.82-7.28,4.87-14.65,15.55-23.97,14.99-3.66-.22-17.83-3.47-20.88-5.16-4.86-2.69-19.53-17.05-20.59-22.41-.25-1.28-.87-3.97,1.43-3.43,3.64,7.61,16.06,17.28,24.56,16.55,10.14-.87,26.58-11.33,32.39-19.62,5.34-7.63,10.26-36.95,9.54-46.42-.4-5.22-2.25-9.14-2.02-15.05.31-7.85,2.62-18.12,4.07-25.91-.13-1.18-12.12-2.46-14.08-3.01-5.04-1.42-28.17-16.56-32.43-20.57-3.25-3.06-6.28-6.74-8.27-10.73-14.5-29.07-17.2-52.95-7.78-84.26,3.88-12.88,31.05-44.68,42.06-52.94,13.76-10.33,22.6-12.33,37.44-18.56,4.58-1.92,9-6.02,13.96-7.04,8.11-1.68,29.97-1.85,38.09.02,7.47,1.73,10.09,5.01,16.27,7.73,4.65,2.04,10.35,2.87,14.75,5.25,9.08,4.91,12.22,14.61,23.47,5.58,4.7-3.77,20.89-20.69,24.47-25.53,7.73-10.42,13.51-21.1,19.61-32.39,7.93-14.67,21.36-23.72,37.08-13.31,9.59,6.35,12.49,26.87,12.35,37.74-.07,5.48-2.29,10.9-.01,16.91-3.83,26.31-20.62,47.94-36.93,67.89,13.11,13.39,18.44,31.12,18.34,49.73,10.19,3.41,20.95,5.43,31.09,8.91,3.8,1.3,16.11,6.18,18.83,8.17,6.8,5,8.34,14.71,4.08,21.78-7.94,13.18-12.94,11.68-25.4,15.6-2.35.74-12.87,4.53-13.36,5.7-2.25,5.37,6.42,25.43,8.05,32.56,2.37,10.32,4.94,36.42,1.47,45.9-.88,2.42-2.82,5.54-4.36,7.64-3.03,4.14-14.1,12.87-15.36,15.71-3.64,8.17,19.11,24.22,27.54,18.45,2.86-1.36.92-5.5,2.16-6.33.38-.26,7.56-2.39,8.79-2.71,9.75-2.54,18.05-2.35,27.46-3.54,6.65-.84,17.98-8.27,21.14,2.02,1.12,3.63-.32,8.25,2.38,11.63.65.41,2.88-.75,4.39-.51,13.82,2.12,27.84,2.01,41.73,5.38,5.87,1.42,10.53,6.18,15.97,8.03,7.53,2.57,15.93,2.86,23.66,6.34,6.92,3.11,12.75,9.44,19.27,12.73,5.29,2.67,10.89,3.48,16.34,6.66,14.06,8.22,23.24,19.09,34.69,29.31,4.05,3.61,9.98,6.16,14.03,9.97,11.48,10.78,28.82,35.19,37.17,48.83,3.12,5.09,20.81,44.42,20.81,48.19v15.5ZM785.71,152.58c17.59-.72,32.23,6.95,43.5,19.99,1.9,0,19.53-25.58,21.67-29.31,11.91-20.78,20.15-45.14,8.03-67.37-2.46-4.51-9.03-8.54-14.26-6.85-1.22.39-13.96,11.84-15.46,13.55-6.74,7.72-7.07,18.21-10.73,27.27-1.55,3.84-16.12,27.26-18.76,30.24-4.03,4.53-10.88,6.87-14,12.49ZM811.65,161.64c-2.43-.15-4.86-.56-7.18-1.32-5.6-1.85-12.46-3.98-18.37-4.67-8.38-.96-6.76,2.36-10.4,6.44-7.06,7.93-16,14.25-21.49,23.51l-20.51,21.97c6.33,2.94,11.88-.29,17.6-.88,7.66-.79,11.49.25,19.38-2.62,16.62-6.04,30.33-15.01,38.85-31.15,1.89-3.58,2.61-7.24,2.11-11.29ZM847.71,227.59c.91-.91-4.38-22.53-5.28-25.22-1.03-3.08-8.14-18.36-9.81-20.19-1.5-1.64-4.6-2.85-6.31-4.69-3.68-3.97-6.73-8.66-10.12-12.89-2.16-.36-1.16.43-1.58,1.38-7.69,17.45-14.76,28.16-28.87,41.15-6.58,6.05-27.63,9.48-36.3,8.22-2-.29-13.27-4.31-13.73-3.76,1.05,3.5,3.5,6.16,4.72,9.77,6.35,18.84,9.02,40.73,9.32,60.68.25,16.39-18.25,53.39-34.49,58.61-10.57,3.4-23.68.87-33.58,8.42-7.6,5.8-16.22,21.53-16.99,31.03-.41,4.97,1.07,17.9,4.47,21.55,2.1,2.26,15.79,7.46,19.13,7.86,13.16,1.59,37.69-7.54,44.6-19.23,3.57-6.03,5.14-8.86,9.26-14.74,1.35-1.93,3.73-9.43,6.04-8.93,1.12.24,6.58,8.91,7.4,10.62,6.73,14.11,6.73,29.94,8.88,45.12,1.15,2.74,11.82,9.83,14.85,11.15s22.65,8.7,24.98,9.02c6.27.87,36.72-.75,41.75-3.08s17.59-10.92,22.19-14.81c3.63-3.07,6.84-7.34,10.45-10.53.04-2.01-8.78-1.48-11.04-1.94-8.15-1.68-14.52-14.94-15.95-22.56-.66-.6-14.78,2.99-17.54,3.03-6.43.09-32.06-6.36-32.1-14.52-.04-7.72,8.02,0,10.35,1.29,6.94,3.84,11.61,5.77,19.76,6.24,11.62.67,26.22-1.93,31.57-13.52,1.6-3.46,7.41-20.72,7.89-24.11.62-4.41-3.42-29.9-5.4-33.42-.26-.46-1.23-1.27-1.5-.99-.03,17.12-22.92,27-37.42,24.91-5.57-.8-20.12-13.75-22.33-18.67-1.7-3.78-1.49-8.41-4.24-11.82-1.73-1.09-5.02,2.17-7.6,2.54-5.07.72-18.81-5.09-20.41-10.48-1.25-4.22,7.78,2.85,8.74,3.25,5.51,2.33,19.09-2.06,22.01-7.46,1.03-1.91,3.14-7.9,3.79-10.21.76-2.69-.88-7.84,2.43-7.07,2.72,11.04.42,19.17-7.01,27.49.01,3,13.22,16.84,16.62,18.41,4.82,2.23,21.9,6.98,26.68,5.89,7.03-1.6,14.79-13.6,18.44-19.43-.54-5.27-6.83-25.89-4.3-29.42,7.53-2.66,15.31-1.9,22.6-5.4,2.33-1.12,15.26-9.57,16.86-11.14,5.68-5.57,2.8-10.9-1.91-15.89-8.29-8.78-14.46-6.54-24.77-9.23-7.65-1.99-17.39-4.72-23.72-9.28-2.78,6.99-13.28,3.12-18.2.2-8.53-5.04-8.63-13.72-11.28-22.21,7.49,8.53,14.61,21.64,27.99,18.99ZM709.71,335.59c3.05-.04,6.04-1.23,8.5-2.99,1.75-1.25,15.55-17.8,16.9-20.1,4.77-8.12,9.77-41.9,8.51-51.32-.6-4.43-3.49-9.73-4.47-14.53-1.84-9.09-2.3-21.68-5.7-30.29-2.85-7.2-9.7,3.33-13.83,4.88,1.1,4.9,3.88,10.28,4.83,15.11,1.46,7.39,3.67,21.42,4.24,28.76.88,11.31-6.28,46.25-11.48,56.48-2.45,4.82-7.31,8.35-7.49,14ZM718.7,223.59c-3.06-3.16-10.54,12.68-12,14.5-2.61,3.26-6.21,5.12-8.87,8.19.29,5.3,4.08,9.34,5.41,14.27,6.35,23.49-1.01,41.25-4.82,64.27l-8.72,15.77,12.99-1.5c1.7-3.64,5.35-6.58,7.25-9.75,10.76-17.95,14.42-56.63,12.79-77.28-.72-9.07-4.4-18.9-4.04-28.47ZM696.7,248.6c-1.85-.43-1.94.62-2.83,1.66-5.61,6.55-14.38,16.99-19.16,23.84-2.64,3.78-3.59,8.11-6.16,11.84-3.96,5.73-11.34,10.52-14.62,17.38.47,18.07-.15,35.79-.25,53.83-.03,5.9,1.43,9.91-.21,16.71-1.43,5.94-16.01,30.07-20.79,33.21-2.18,1.43-14.3,6.9-16.69,7.3-4.53.76-7.92-.36-12.26-.75-1.74,1.5,7.81,6.36,8.76,6.73,4.42,1.72,5.17,1.41,9.52.04,9.34-2.95,17.58-7.8,25.22-13.8,6.57,1.74,5.54,12.2,9.53,15.51,1.98,1.64,4.76,1.23,6.69,2.31,1.5.84,7.17,6.18,8.28,5.21-3.78-4.68,1.37-16.42.78-19.37-.17-.84-8.21-10.86-9.65-14.25-6.16-14.39,5.71-37.32,14.9-48.85,2.91-3.65,7.94-6.65,10.4-9.6,1.63-1.96,8.66-27.67,9.71-32.29,2-8.81,2.09-23.79,1.92-33.17-.12-7.22-2.83-15.97-3.07-23.46ZM736.7,397.59c-10.72,4.53-17.99,13.23-29.58,15.96-.21,4.48,6.3,13.52,10.91,12.83.69-.1,7.48-4.5,8.59-5.37,8.35-6.59,9.98-12.87,10.08-23.41ZM901.71,486.59c-1.83-5.7-1.89-12.72-3.26-18.24-2.93-11.8-8.24-25.55-10.49-37.51-.57-3.04-1.02-19.33-2.27-20.24-5.38,3.7-5.76,11.04-10.45,16.04-11.22,11.94-40.61,25.34-56.92,23.84-5.08-.47-10.18-2.85-15.22-3.77-4.56-.84-10.7-.17-15.43-1.57-5.43-1.6-14.36-9.8-19.96-12.53l14.65,77.04c7.45,2.54,14.16-2.57,21.5-4.38,11.95-2.95,24.47-4.91,36.45-7.55,7.5-1.65,14.37-.48,21.78-2.22,5.58-1.31,11.33-5.81,16.35-6.65,7.17-1.2,15.76.16,23.27-2.24ZM987.71,629.09c.72,5.34-.53,11.99,0,17.5,2.67.33,10.96,2.42,12.56.06,1.74-7.93.69-15.66,4.46-23.06,2.47-.85,1.74,1.4,2.21,1.7,4.35,2.85,28.8-1.85,35.29-1.79,10.87.11,21.98,1.05,32.94,1.12,12.23.08,24.33.74,36.54.95-.69-3.87-2.75-7.52-3-11.51-.32-5.19-.28-18.75.28-23.7,1.03-9.02,8.31-24.1,19.7-19.25,2.64,1.12,12.33,14.3,13.33,17.66,2.74,9.12,4.84,21.32,8.95,30.05.27.58,5.48,7.32,5.9,7.56.77.45,1.89.25,2.74.1,2.44-4.47,3.1-9.71,5.23-14.27.96-2.05,5.4-7.51,5.49-8.09.49-3.58-5.85-15.96-7.12-20.53-1.68-6.05-1.68-12.32-3.72-18.28-6.94-20.37-24.22-44.58-38.27-60.73-15.19-17.46-29.17-29.69-48.19-42.81-6.13-4.23-20.07-14.45-25.64-17.36s-12.48-4.11-18.36-6.64c-7.22-3.11-14.8-8.71-21.65-11.35-6.44-2.49-13.24-1.94-20.12-3.88-9.16-2.58-21.38-7.73-30.28-9.72-3.36-.75-7.67-.04-11.27-1.22,2.12,9.48,4,19.07,5.87,28.62,3.67,18.69,8.2,37.92,11,57,1.8,12.26,3.41,19.35,5.83,31.17,2.19,10.72,2.39,22.75,4.57,33.43,1.21,5.92,4.32,11.03,5.49,16.51,1.78,8.36.52,17.1,1.52,25.48,1.03,8.62,6.69,17.7,7.72,25.28ZM704.7,413.6c-4.36,3.04-28.37-1.78-30.02-.58-4.16,3.01,4.69,16.96,4.16,21.45,11.71,3.5,21.99.88,32.87-3.89-.98-4.04-5.37-5.61-6.53-9.96-.64-2.38-.56-4.61-.48-7.03ZM727.7,443.6c-.89-.82-15.18,4.07-17.54,4.95-11.95,4.5-42.32,19.91-51.68,28.04-2.96,2.57-5.85,7.04-9.3,9.98-9.07,7.73-23.86,17.03-31.87,25.13-3.88,3.92-7.28,10.52-11.1,14.9-18.57,21.32-37.2,39.93-50.05,65.95-2.31,4.67-3.06,9.92-5.45,14.55,4.78,1.61,13.5-3.38,16.89,2.09,4.83,7.79.48,23.48-3.87,30.94-3.87,6.64-9.61,9.43-14.03,14.97-2.68,3.35-4.45,8.03-7.49,11.51-2.01,2.31-10.39,8.03-10.55,8.7-.91,3.81,3.89,9.45,5.52,13.31,3.56,8.4,7.07,17.11,9.62,25.88,12.39.73,26.07-2.76,38.28-1.77s18.06-1.23,29.12-1.21c4.43,0,10.39,2,14.96,2.13,15.13.4,32.52-2.66,49.08-2.08,3.84.13,8.42,2.03,11.96,2.03,1.67,0,14.62-2.3,15.07-2.92-.21-5.45,1.55-11.23,1.52-16.57-.06-14.48-1.82-27.86-1.14-42.96.19-4.14,1.97-8.95,1.03-13.54-5.1,2.06-10.92.51-16.38,1.1-10.3,1.13-22.75,3.86-33.11,3.98-4.12.05-9.14-1.95-13-1.88-4.36.08-10.3,2.48-15.01,2.77-9.75.6-22.93.41-32.82.4-5.42-.01-11.02.92-16.66-.87,6.23-2.89,14.66-4.2,21.5-4.49,12.11-.52,23.86-1.83,35.98-2.01,8.13-.12,10.76-1.28,18.02-2,15.49-1.52,31.05.17,46.27-1.75,1.63-.21,3.38.95,4.57.63,5.25-1.42,3.22-14.35,3.61-18.43.92-9.53,3.23-18.7,4.91-28.09,6.5-36.29,10.61-72.96,12.14-109.86.16-3.95,2.08-9.14,2.06-13.01-.03-6.53-4.12-13.27-1.08-20.5ZM1445.8,809.49c.87.76,19.87-4.83,22.28-6.02,4.12-2.04,7.55-6.08,11.29-8.71s7.82-3.96,11.33-6.69c.53-2.25-12.77-12.45-14.98-15-13.46-15.57-25.67-67.14-27.06-87.94-.7-10.44.96-24.31,1.07-35,.22-20.41-.89-42.65.97-63.03.43-4.7,2.8-10.2,2.99-15.04.51-12.78-18.27-14.03-27.28-17.69-14.94-6.08-33.97-14.44-48.05-21.95-10.55-5.64-9.03-9.75-24.43-12.57-10.07-1.84-19.37-.71-28.6-1.32-4.22-.28-18.82-4.78-25.04-6.05-13.61-2.77-30.26-15.78-40.7-24.3-8.51-6.95-19.9-12.91-31.2-10.38-5.31,1.19-24.21,18.11-26.92,23.08-3.02,5.55-6.58,19.42-3.67,25.08.5.97,10.2,14.28,10.97,15.03,2.81,2.74,11.11,8.54,14.9,5.59l.02,3.02c7.06-1.03,12.09-5.81,18.45-8.05,9.79-3.44,23.64-5.02,34.04-5.05,2.93,0,5.8.74,8.57,1.59-.34,4.31,2.57,5.52,3.7,8.24,6.24,15.08,6.82,23.22,9.32,38.68,1.66,10.28,4.65,16.64,3.97,28.12-.49,8.24-4.13,15.43-4.92,23.08-.87,8.43.75,14.19-2.09,22.91-6.06,18.65-25.12,53.71-40.56,65.44-14.56,11.06-27.59,14.04-43.03,2.06l-5.45-8.04c1.08,15.48-.03,28.74,9.56,41.93,3.25,4.46,20.55,13.72,25.93,13.87s11.85-3.03,17.85-.87c19.31-2.76,36.4-10.96,52.55-21.54,1.44-4.13,3.53-8.11,4.64-12.36,4.22-16.18,6.85-32.94,10.92-49.08,1.08-4.26,3.98-8.63,5.09-12.91,7.96-30.52,10.08-70.15,4.01-101.1-.8-4.08-6.88-23.39-6.4-25.24.31-1.18,1.6-1.84,2.35-2.69,8.62,16.14,9.84,36.27,11.63,54.35.75,7.54,2.58,12.79,1.75,21.01-2.19,21.83-6.21,48.43-11.12,69.88-1.47,6.44-6.12,12.53-7.51,19.49-.97,4.9-.48,11.38-1.69,16.31-2.07,8.44-10.58,27.73-14.39,36.61-2.18,5.07-6.59,9.36-6.18,15.33l41,8c-.47-8.36-3.69-17.16-4.03-25.45-1.09-26.41,2.33-56.94,6.05-83.03,3.76-26.42,11.1-51.24,16.91-77.09,1.31-5.83,1.49-12.02,3.39-18.62.3-1.03.24-3.02,1.68-2.79,1.04,9.26-2.34,17.7-3.87,26.61-6.5,37.76-14.56,75.64-18.1,113.9-1.52,16.45-2.86,38.53-.91,54.87.3,2.49,3.07,11.65,4.14,13.86,2.06,4.28,15.82,6.38,21.13,8.87,8.07,3.78,15.05,11.7,24.62,11.87-3.75-8.9-8.06-17.09-9.72-26.77-7.66-44.68-11.78-76.82-6.16-122.6.91-7.39,3.83-25.57,6.11-31.88.46-1.27,1.3-4.52,2.75-4.73-.5,6.76-3.01,13.99-3.88,20.6-1.95,14.83-2.56,30.2-3.1,44.91-1.17,31.63,2.23,73.3,11.48,103.5,1.92,6.27,3.84,16.91,10.5,19.5,2.89,1.12,14.34,2.74,17.49,2.52,6.31-.44,12.96-5.71,19.52-6.04-2.39-11.85-12.51-18.57-16.28-30.21-15.56-48.09-24.96-91.79-9.2-141.76l8.47-18.02c-.07,4.95-3.21,9.07-4.52,13.96-6.7,24.87-9.74,60.93-6.38,86.45,1.02,7.75,9.95,38.25,13.14,45.86,3.86,9.22,8.37,18.29,12.3,27.7,1.98,4.74,5.21,8.93,6.58,13.92ZM501.36,559.25c9.87-10.64,15.92-20.15,16.38-35.11.38-12.44-1.81-18.71-13.76-23.32-11.49-4.43-14.07-1.67-24.78-1.24-6.53.27-14.56-.8-20.75.25-5.07.86-11.37,5.58-16.48,7.52-13.42,5.1-29.28,8.45-42.53,13.47-6.17,2.33-11.83,6.99-18.05,9.95-9.14,4.34-20.33,7.21-29.35,11.65-5.21,2.57-10.27,7.38-15.33,9.67-14.11,6.39-21.03,3.14-35.01,14.99-14.43,12.23-15.89,22.04-25.18,36.82-3.44,5.47-8.71,10.46-11.65,15.35-3.65,6.07-4.33,13.42-7.28,19.72-2.09,4.46-5.82,8.32-8.06,12.94-14.48,29.83-9.85,57.55,2,87.37,2.45,6.18,7.73,10.48,10.73,16.27,3.41,6.61,5.36,14.85,9.63,21.37,3.8,5.82,9.82,10.12,13.35,16.65,11.37,20.98,14.56,39.86,13.52,63.56-.46,10.38-.86,20.38-1.12,30.79-.13,5.06-6.96,28.86-9.12,34-.63,1.49-2.59,1.39-2.82,2.36-2.24,9.19-.12,17.29.91,25.92.94,7.91.34,17.2,5.12,23.88,1.52,2.12,10.44,11.72,12.47,13.53,3.26,2.9,9.22,4.84,12.03,8.97,4.06-11.19,2.23-23.93,3.75-35.24,2.33-17.31,17.15-48.26,26.71-63.29,5.45-8.56,13.56-15.4,19-24,1.68-15.79-3-31.27-9.48-45.47-2.37-5.2-7.17-10.11-8.49-16,1.9,2.41,5.1,4.21,6.99,6.49,1.89,2.27,8.91,11.96,9.79,14.22,1.23,3.17,5.98,27.29,6.14,30.96.1,2.36-.92,4.08-.93,6.33,2.41,2.33,15.24-12.78,17.47-15.02,1.95-1.96,5.05-2.63,5.53-5.51-1.3-8.52-.8-18.48-3.29-26.68-2.15-7.08-9.2-16.34-11.71-23.78,1.68-1.57,7.09,5.19,8,6.49,3.15,4.53,10.64,26.71,10.92,32.16.21,3.96-1.28,7.54-1.92,11.33,6.76-.35,9.13-8.52,15.87-9.12,1.39-18.02-1.33-36.8-10.84-52.4-1.11-1.81-13.44-19.08-15.02-17.47-1.01,7.47-7.05,15.92-12.04,21.47-13.49,14.99-32.09,13.07-49.51,6.57-11.02-4.11-12.13-12.58-17.27-21.73-2.52-4.49-6.57-8.28-8.4-13.6-3.36-9.72-4.27-32.16,1.37-41.05,1.38-2.17,12.54-13.44,14.56-14.43,7.41-3.63,12.29,3.07,18.23-.78,10.42-6.75,12.3-23.23,13.03-34.96.67-10.84-5.46-35.45-12.02-43.96-3.15-4.09-8.02-8.07-10.97-12.52,4.03-.28,7.03,3.23,9.51,5.98,16.62,18.42,23.91,55.98,12.04,78.06-2.62,4.88-7.09,7.57-11.53,10.45l26.51,10.42c6.24-7.44,15.48-6.51,21-15.88,8.9-15.1,14.13-40.4,7.95-57.01-5.09-13.67-12.43-27.08-23.55-36.45-2.26-1.9-6.28-2.21-7.92-4.56,3.3-1.77,12.01,2.73,14.51,4.97,1.91,1.71,15.21,18.78,16.65,21.35,3.55,6.33,9.28,32.89,8.71,40.05-1.27,16.08-9.77,32.57-21.34,43.66-2.69,2.58-5.88,3.07-8.53,5.47,8.5.98,26.01-4.84,31.99-11.01,2.38-2.46,15.38-20.24,16.82-23.18,3.58-7.31,2.01-13.97,1.04-21.68-3.05-24.23-6.83-32.01-20.42-51.58-1.68-2.42-12.51-14.68-12.41-16.57.15-2.96,7-.51,8.49-.5,16.56.06,30.65-7.52,42.97-18.01,10.12-8.62,8.38-21.04,17.48-29.58l23.59,2.55,18.96,12.88c1.76-2.37,5.43-4.31,7.15-6.17ZM1282.57,540.72c-4.59.76-10.11-1.47-14.24-1.09-5.01.46-25.89,6.64-31.39,8.7-12.32,4.61-33.48,17.92-42.23,27.77-2.88,3.24-3.92,7.62-6.18,10.82-5.12,7.24-19.8,23.24-20.54,31.33-.43,4.62,5.17,7.61,9.17,7.33s7.96-6.65,12.55-5.98c5.18,3.7-12.99,13.89-18.26,12.82-3.91-.79-6.18-5.06-5.74-8.82-1.5-1.62-5.62,6.67-7.71,6.86-6.42,1.65-11.3-15.89-13.04-20.61-3.55-9.65-6.4-22.77-12.81-31.19-4.64-6.09-11.06-5.48-15.43.45-7.39,10.02-4.19,34.56-1.35,46.33,1.54,6.35,4.84,11.4,6.66,17.34.65,2.11,3.57,13.86,3.64,15.41.12,2.6-1.13,5.1-3.93,5.45v1.42c3.86,3.52,6.93,14,7,19.08.05,3.51-5.92,22.65-5.02,23.44,5.07-.04,8.31-4.86,13-6.49,14.88-5.16,27.28-1.52,37.99,9.5-.22-4.65,1.02-9.42,2.83-13.68.69-1.63,5.77-11.54,8.18-9.31-.96,3.65-4.29,5.4-4.93,9.56-.54,3.51-.53,13.37-.09,16.96.6,4.87,9.33,22.71,9.03,23.95-1.05,4.33-7.89-2.52-8.99-3.99-3.09-4.14-3-8.35-5.51-12.47-4.05,3.22-10.06,9.36-14.6,11.38-2.69,1.2-5.85,1.23-8.6,2.4-8.19,3.48-11.6,7.72-22.05,8.95-12.22,1.44-13.82-.91-23.54-5.95-1.61-.83-3.78-.75-5.43-1.57-11.62-5.81-14.94-29.72-12.6-41.04.19-.91,4.18-7.64.83-6.17-1.58.69-8.72,7.34-9.95,9.05-2.42,3.37-3.8,8.21-6.14,11.86-2.62,4.07-6.48,7.17-8.6,11.4-10.07,20.12-9.79,55.02,9.68,69.68,10.36,7.8,14.68,4.96,25.99,6.01,2.85.26,5.46,1.63,8.11,1.89,20.07,1.92,45.81-10.72,66.93-11.89,5.71-.32,10.1,3.22,12.9,8.07,3.67,6.37,8.11,14.2,11.41,20.58,5.29,10.25,6.12,19.16,8.17,30.34,3.09,2.93,6.14-12.95,6.52-13.97,2.89-7.72,11.86-16.81,20.76-14.81,6.88,1.54,9.11,16.75,9.73,22.79,5.22-5.02,4.59-12.82,11.06-17.43,2.95-2.1,10.74-4.77,14.32-4.53,5.46.38,8.57,5.56,13.62,5.95-1.16-2.15-1.14-4.08-1.01-6.45.28-4.99,3.37-21.42,4.96-26.09,3.06-8.99,10.73-18.65,16.05-26.44-.92-.81-6.68,3.48-8.31,4.18-11.98,5.21-24.06,9.03-37.2,9.8-6.76.39-28.86-.69-33.99-3.98-2.93-1.88-11.64-13.83-13.69-17.31-8.82-15.04-8.34-32.52-5.75-49.13.43-2.74,2.67-4.77,2.96-7.55,1.41-1.39,1.82.06,1.99,1.47,1,8.5,0,10.98,5.19,18.82,6.36,9.61,12.47,5.96,22.05,2.45,14.05-5.15,17.26-10.68,27.23-20.77,11.45-11.6,7.63-9.72,13.04-23.96,1.96-5.17,5.87-10.21,7.78-15.22,8.56-22.41,11.18-49.4,10.61-73.18-.15-6.43-4.83-15.13-6.43-21.57-.89-3.55-5.35-28.1-6.6-28.9ZM537.71,724.59c-1.66,4.68-2.07,7.6-5.96,11.54-12,12.14-24.88,10.52-40.05,5.98-15.05-4.5-19.64-21.95-20.02-35.98-.15-5.64.37-10.99,1.05-16.55,3.25,1.97,5.89-1.22,8.73-1.76,14.9-2.88,19.18,16.09,25.37,25.66h2.78c3.31-10.3,10.67-19.5,21.07-22.94.02-5.86-5.58-15.61-3.42-20.91,2.85-7,16.85-14.52,22.49-20.52s19.12-23.57,16.23-32.24c-3.32-9.96-10.09-7.8-17.19-3.72-10.09,5.8-21.48,14.01-31,21-5.98,4.39-8.82,10.95-17.53,10.48-11.22-.61-19.1-17.05-18.52-27.04,3.11,1.87,3.49,6.25,5.55,8.94,1.56,2.04,15.72,10.34,18.17,10.84,1.72.35,5.62.84,6.15-1.36-.61-7.33-2.08-14.65-2.87-21.93-2.22-20.54-3.15-30.98-18.04-46.96-4.61-4.95-14.83-8.3-21.45-10.55-5.31-1.8-10.86-4.9-15.99-.95-7.38,13.16-13.91,28.69-24.61,39.39-12.05,5.67-23.3,13.98-36.91,7.6,3.55,6.7,11.36,11.19,15.19,17.3,3.12,4.98,15.01,33.88,15.72,39.28,1.35,10.2-3.44,35.32-8.36,44.47-5.07,9.43-21.2,23.82-32.07,24.93-8.41.86-32.8-.69-40.17-3.81-8.16-3.46-15.54-8.81-25.1-9.94-13.87-1.64-19.4,21.58-18.23,32.27.52,4.76,9.07,27.25,12.03,30.97,2.59,3.25,14.41,12.98,18.04,14.96,11.7,6.37,30.34,3.72,40.87-4,7.5-5.5,7.55-17.39,11.16-25.34l3.89.43c3.2,4.63,9.54,7.3,13.02,10.98,11.91,12.62,21.41,38.69,19.88,55.88-.71,8.01-5.14,10.4.69,18.55,6.35,8.86,17.3,9.18,26.29,11.71,5.66,1.59,11.49,5.2,17.37,5.08,5.03-.11,25.25-5.5,30.56-7.44,2.52-.92,5.12-2.07,7.11-3.89,2.41-2.2,14.86-19.62,16.28-22.72,2.54-5.51,3.2-12.5,5.49-18.2-6.08-6-9.42-14.43-11.68-22.48-6.55,1.5-11.25,6.22-18.61,6.9-4.25.39-7.19-1.11-10.88-.99-6.86.22-13.63,1.8-21,1.08-2.36-.23-19.87-4.32-20.94-5.06-2.66-1.83-2.77-8.17,1.65-7.75,5.14.49,12.07,3.7,17.53,4.56,16.06,2.53,20.74-.68,34.98-3.51,4.33-.86,9.96-.5,14.51-1.49,9.46-2.06,23.96-12.36,30.77-19.23,10.47-10.56,4.78-31.96,4.97-45.52-2.46-.06-3.09,2.44-4.99,3.99.52-1.47,3.44-9.52,2.99-10-7.08,2.38-16.23,9.25-23.49,9.99-5.8.59-24.03-3.9-29.8-6.2-7.84-3.13-7.14-11.71-12.69-16.79-.62,2.27-1.17,3.75-.83,6.23.6,4.39,7.58,20.24,10.89,23.19,6.32,5.63,13.91,9.22,22.41,8.56,15.35-1.2,19.54-6,30.51-14.98ZM1113.6,629.7c-5.07.02-10.31-.46-15.38-.09-10.15.73-20.71,2.25-30.97,2.02-4.3-.09-9.45-3.11-14.05-3.12-11.33-.02-23.77,1.83-34.99,2.14-4.02.11-7.47-1.51-11.41-.96l-3.1,79.89c7.11-1.05,14.76,1.15,21.52,1.08,4.21-.05,8.01-1.74,12-2.06,9.47-.75,19.01,1.79,28.5,1.54,1.83-3.11,3.68-6.27,6.02-9.02,12.67-14.9,24.4-27.19,40.65-38.35,1.83-1.25,7.05-2.88,7.86-4.17,1.95-3.09-3.52-11.95-4.49-15.57-1.2-4.51-.94-8.88-2.16-13.33ZM965.71,710.59h30.5c.28,0,2.33-1.02,2.53-1.69.19-8.09-1.56-15.63-1.02-23.8.68-10.31,6.04-22.86,2.81-32.83-.4-1.22-.96-1.65-2.25-1.67-1.6-.02-15.31,5.17-17.8,6.25-3.7,1.6-6.48,4.95-10.95,6.05-10.88,2.69-12.01.09-22.3,7.7-5.47,4.05-25.02,18.22-27.72,22.28-1.01,1.51-9.57,18-8.8,18.69,7.57.21,14.28-3.77,21.88-2.1,7.83-14.76,19.4-28.96,35.74-34.77.84-.3,7.36-2.07,4.71.84-6.52,7.17-20.48,13.26-26.74,20.13-3.76,4.12-4.48,9.93-7.58,14.41.15,3.28,16.14.47,18.87.39,1.77-12.03,14.28-24.17,26.6-23.9,2.13,1.69,0,1.64-.81,2.23-3.51,2.57-9.71,5.26-12.16,8.81-.61.89-6.06,12.49-5.54,12.96ZM713.21,711.59h29c.46,0,2.65,2.8,2.49-.49-2.65-4.05-7.52-5.46-10.93-8.08-2.98-2.29-6.02-5.71-9.11-7.89-.57-.4-10.7-4.48-5.44-5.54,1.53-.31,19.49,6.52,21.81,8.18,4.99,3.56,9.16,9.7,12.34,14.88,6.81-1.68,14.3-.28,20.85-1.05,1.34-.16,1.82.52,1.37-1.38-2.31-10.4-11.71-12.13-19.19-16.82-5.23-3.28-8.38-7.81-14.75-9.26l-6.95-4.54c21.27-1.2,38.1,15.35,48.66,32.04,3-1.21,11.36,2.21,12.91,0,1.37-12.75-8.97-18.62-17.67-25.45-6.24-4.89-17.94-14.33-25.48-15.52-10.14-1.61-19.92-3.16-29.84-5.16-3.36-.68-6.79-2.78-10.08-2.94-2.1-.11-1.29,0-1.51,1.49-.68,4.64.25,11.09.05,16.07-.22,5.46-1.44,9.77-.92,15.84.4,4.68,3.32,9.42,1.11,14.17l1.26,1.45ZM1118.7,711.59c4.5-11.9,8.76-32.84,1.81-44.3-2.44-4.03-13.15,4.37-14.87,6.73-2.56,3.51,1.36,23.44,3.33,27.81,1.41,3.12,7.09,7.3,9.73,9.76ZM1103.7,676.6c-1.33-1.51-6.78,5.53-7.5,6.99-2.15,4.31-5.74,20.82-5.58,25.52.27,7.81,12,26.07,20.65,27.43,4.33.68,19.52,1.42,23.83.95,11.92-1.29,22.6-6.73,32.59-12.91l-.49-1.98c-10.75.77-20.79,4.68-31.93,2.94-4.44-.69-19.53-9.79-22.39-13.61-7.7-10.26-11.65-22.56-9.18-35.32ZM504.7,718.59c.5-.46-4.18-11.18-4.97-12.52s-8.83-11.97-9.5-12.5c-3.77-2.96-10.03-1.75-14.52-1.97-3.01,2.9,21.26,30.42,28.99,26.99ZM509.71,718.59h16.5c3.22,0,9.55-6.95,12.57-8.65-.51-2.68-3.12-13.61-5.67-14.22-10.42,2.56-21.35,12.12-23.4,22.87ZM1172.7,716.58c-3.17-4.65-8.58-12.32-14.48-13.01-7.85-.92-22.05,1.75-29.53,4.51-2.85,1.06-4.83,4.01-7.99,4.53-1.06,1.53,6.39,6.39,7.73,6.74,2.59.68,5.26-.12,7.75.25,6.6.98,17.36,2.51,23.74,1.81,3.91-.43,8.46-4.61,12.77-4.83ZM1063.71,715.6c-7.02.26-15.79,3.09-22.5,3.08-4.42,0-8.58-1.82-12.97-2.13-5.5-.38-10.19,1.03-14.99,1.08-23.01.23-46.37-1.89-69.07-1.09-5.63.2-11.39,3.13-16.98,3.13-6.2,0-12.37-3.29-19.01-3.15-3.81.08-8.48,2.06-12.04,2.1-9.38.11-21.59-1.59-30.93-1.01-4.67.29-10.63,2.97-15.02,2.97-4.89,0-11.3-2.79-16.95-3.03-8.45-.35-15.69,2.99-23.06,3.12-4.34.08-8.6-1.87-12.96-2.11-26.24-1.49-54.64.94-81.08.99-8.94.02-15.46-.77-23.91-1-14.55-.4-31.93,3.19-47.09,2.08-12.75-.94-16.45-.61-28.92,0-8,.39-14.86-2.13-22.04-2.13-4.43,0-8.58,1.92-12.97,2.13-8.22.39-19.53-1.44-28-2.08-1.91-.14-5.68-.94-5.55,1.53.41,8.01,5.46,16.71,2.02,25.5,2.91-.39,5.57-1.75,8.53-2.02,8.79-.79,17.71,1.16,25.98,1.1,5.83-.04,11.87-2.28,18.01-2.13,4.29.11,9.77,2.16,13.92,2.08,4.36-.08,10.25-2.43,15.23-2.65,19.54-.84,42.92.67,62.83.68,9.63,0,19.32,1.12,28.01,1.01,4.44-.06,8.56-1.83,12.95-2.11,9.43-.59,19.89,1.69,30.03,1.02,3.68-.24,6.87-1.99,11-2.06,6.46-.11,13.72,3.07,19.9,2.96,5.2-.09,11.44-2.81,17.08-2.95s9.74,1.97,15,2.11c4.01.11,7.25-1.06,10.98-1.1,10.44-.12,24.71,2.04,34.06,1.06,4.14-.44,8.23-2.69,12.83-2.62s10.23,2.41,15.13,2.65c14.31.69,32.13-.89,47.08-.99,9.94-.07,20.74,1.12,29.85.85,4.53-.13,10.74-2.7,15.22-2.79,11.65-.22,24.12,4.98,36.89-.2l23.49,3.1c.28-10.52,6.45-17.69,10.01-27ZM1571.71,737.59v-17.5c0-.13,1.92-2.31-.48-2.47-1.98-.13-8.32,1.97-11.02,1.97-4.39,0-10.38-2.12-15-2.09-18.3.13-36.46,2.5-54.96,2.14-8.74-.17-21.07-2.26-29.08-1.05-1.58.24-1.5-.61-1.51,1.51-.02,7.5,6.99,14.96,8.05,22.5l103.98-5.01ZM29.71,723.09c-1.32,6.29.98,16.7,0,23.5,14.53.04,29.04-3.45,43.51-.93,26.25-.55,56.13-5.7,82.03-4.11,4.58.28,9.35,2.07,13.94,2.12,6.58.07,13.42-2.78,19.97-3.11,8.86-.45,24.4-.62,33.08,0,8.01.57,16.2,3.86,24.48,1.52l-9.69-23.54c-5.75-.37-12.3,3.09-17.83,3.04-3-.02-6.45-1.75-9.96-2.03-13.51-1.08-29,2.72-43.02,2.02-3.12-.16-7.02-1.8-10.02-1.77-5.86.05-14.01,3.45-20.95,3.84-21.3,1.18-44.77-3.73-66.94-3.95-9.16-.09-18.01.59-27.08.95-4.34.17-10.4-2.91-11.52,2.45ZM1529.71,745.59c-.92-.92-13.93,1.99-16.5,2-8.92.05-18.1-.99-27.98-.92-5.37.04-10.91-1.94-16.51-1.07,3.63,12.5,7.29,22.36,17.52,30.97,5.83,4.91,15.62,6.23,9,15.04-8.51,11.32-15.52,11.68-26.88,17.12-7.88,3.77-14.69,10.52-23.39,12.61-6.98,1.67-14.01.55-20.73,1.27-7.92.84-15.83,5.08-23.78,3.74-3.4-.57-24.62-11.2-28.43-13.56-5.41-3.34-10.92-9.75-17.06-12.03-6.36-2.37-13.97-1.64-20.46-2.45-6.05-.75-25.09-5.86-31.02-7.98-3.62-1.3-5.18-2.61-4.77-6.74-1.44.24-1.92,1.84-2.53,2.96-7.65,14.03-12.16,32.07-6.65,47.73,4.58,13.02,10.63,7.57,21.25,9.75,4.37.9,21.61,8.25,24.88,11.12,4.04,3.53,6.64,9.87,10.08,13.92,8.03,9.45,13.15,10.41,17.24,23.76,5.96,19.45,10.69,38.55,8.62,59.14-1.92,19.07-6.99,39.48-15.17,56.83-3.72,7.9-9.18,19.26-13.27,26.73-4.5,8.22-12.9,17.62-18.26,25.74-2.94,4.45-4.09,9.7-8.14,13.86-4.31,4.44-11.62,7.48-16.52,11.48-5.5,4.49-11.09,12.67-16.59,16.41-5.02,3.42-12.01,3.18-15.79,8.2.46,2.51,2.18,4.55,2.63,7.1,2.12,11.97,5.5,33.21,1.7,44.24-2.48,7.2-9.32,14.34-9.46,23.01,21.78,2.44,25.83,22.69,23.87,41.4-2.45,23.26-28.5,33.35-47.75,39.75-.05,9.14-3.21,18.48-4.11,27.39-.8,7.84-.13,16.8-1.02,24.98-.96,8.73-3.85,16.89-4.87,25.13-.64,5.12.7,10.39-1.12,15.37,13.07-1.73,26.25.8,39.53.04,6.29-.36,10.68-2.56,18-2.07,5.93.4,13.15,3.13,18.96,3.11,7.24-.02,15.85-4.31,22.99-4.16,5.15.11,11.5,3.04,17,3.15,12.97.25,27.5-1.27,41.05-1.11,4.82.06,9.5,1.51,15,1.08,5.86-.46,12.7-3.81,18.07-3.93,6.75-.15,15.48,3.9,22.88,3.97,15.77.15,33.81-1.83,50.06-2.12,7.58-.13,15.43-.88,22.96-.96,2.78-.03,6.3,1.83,9.5,1.01-.14-14.17.16-28.37.04-42.55-.05-5.73-1.47-11.58-1.08-18,.48-7.96,2.35-14.41,2.08-23-.82-26.03-.33-51.79,0-77.92.4-31.55-1.02-62.93,1-94,1.08-16.63.59-40.06,0-57.09-.16-4.66-2.12-9.7-2.13-13.95,0-6.27,2.87-14.43,3.12-20.95.38-10.03-2.79-19.38-2.02-30.03,1.19-16.6.35-30.64.95-47.05.15-4.17,2.1-8.96,2.12-12.96.02-4.36-1.88-10.36-2.12-14.96-1-19.13,1.07-40.42,1-60-.08-23.91,2.16-47.38,2.66-71.21.19-9.21-1.8-18.91.38-28.33ZM1052.71,761.09c-.54-4.53.39-9.87,0-14.5l-22.5,3.08c-30.48-2.86-61.26-1.08-91.95-1.03-11.79.02-25.61-1.64-37.08-1.09-5.1.24-11.4,3.05-15.97,3.03s-10.51-3.01-15.98-3.07c-13.36-.14-31.66.21-45,1.08-3.37.22-6.51,1.99-10.02,2.07-5.66.12-12.55-3.04-18.04-3.11-5.81-.07-12.79,2.93-18.92,3.09-5.29.13-8.46-1.62-13.04-2.04-14.82-1.36-38.54.7-53.95,1.03-29.3.62-62.28.84-91-1.07-18.86-1.26-41.98,1.49-61.04,1.04-2.94-.07-5.6-1.72-8.49-2.01-2.4,11.61-5.17,26.87-15.67,33.84-6,3.98-14.51,4.37-19.65,7.35-1,.58-1.82.86-1.69,2.27,1.7,7.26,9.04,10.24,13.65,15.39,3.37.64,20.79-13.44,23.54-3.01,7.14-.53,15.34-4.61,22.56-5.59,4.27-.58,8.55.2,12.68-.32,3.87-.49,7.74-2.97,12.08-2.99,25.58-.09,54.42,23.67,67.92,44.15,6.8,10.31,14.78,22.82,20.06,33.94,9.15,19.25,16.2,42.85,22.75,63.25.97,3.01,7.64,19.97,9.42,20.58,4.71-.34,14.13,1.48,17.91-.77,2.45-1.46,5.45-9.6,7.41-12.59,5.47-8.4,13.07-20.3,19.05-27.95,4.12-5.27,10.31-9.27,14.99-14.01,9.9-2.34,7.09,7.97,4.84,13.84s-10.28,18.43-14.02,23.98c-3.52,5.22-9.61,9.55-11.82,16.19-.69,2.09-.24,1.08.99,1,2.84-.18,9.87-1.88,11.34,1.7,3.35,8.15.48,20.21.67,28.78,4.2-.85,10.43-1.8,14.6-1.9,10.3-.25,23.85,1.84,33.88.89,8.27-.78,13.47-3.67,22.99-2.98,9.81.71,11.65.42,21.03,0,16.37-.74,30.95,3.16,46.98,3.98,1.88.1,3.58,1.18,5.5.99-5.3-12.01-7.36-25.83-4.01-38.5,3.32-2.83,22-1.91,27.27-2.73,3.3-.51,7.11-2.92,10.48-3.52,6.66-1.2,15.07-1.04,21.53-2.47,4.33-.96,8.83-4.12,13.32-4.67,6.6-.82,12.94,1.94,18.92,1.91,4.82-.02,21.5-5.42,23.3.7,1.07,3.64-.49,20.34,1.21,22.29,2.95-.19,5.27-2.57,8-3.49,2.56-.86,5.85-.71,8.23-1.77,4.71-2.09,8.45-12.32,12.24-15.76,11.86-10.77,24.1-21.19,36.02-31.98,8.87-8.02,18.37-12.2,26.97-19.03,3.8-3.02,6.69-7.73,9.88-10.62,12.74-11.58,32.57-22.38,46.73-32.77,3.37-2.48,7.32-3.77,10.43-6.58,2.39-6.37-.43-13.28.56-19.45.5-3.13,3.86-6.58,3.86-9.06,0-4.12-8.06-16.36-13.26-15.45-24.36,6.89-49.07,10.03-74.15,12.03-27.43-1.49-45.27-18.32-48.51-45.58ZM249.48,748.82c-10.19-3.87-20.37,1.01-30.29,1.76-8.93.68-25.03.62-34.03.06-5.32-.33-10.76-2.26-15.96-2.11-14.33.41-30.86,4.11-46.03,3.1-6.69-.44-13.34-3.27-20.47-2.04.85,9.53.83,18.97,1.05,28.54.7,30.27.02,61.16.91,92,.12,4.01,2.04,9.2,2.04,12.96,0,6.05-2.87,14.49-2.79,21s2.62,13.52,2.84,19.95c.32,9.32-1.08,19.66-1,30.01.11,14.06-2.15,32.01-1.08,45.08.45,5.45,3.05,11.58,3.12,16.97.08,6.37-2.84,14.32-3.12,20.95-.2,4.84,1.06,8.89,1.08,13,.17,34.05-.81,68.45.95,102.05.65,12.37-2.08,23.51-2.08,34.99,0,6.65,2.88,14.38,3.13,20.96.25,6.37-1.84,12.04-2.08,18-.82,20.9-.76,45.17,0,66.09.2,5.59,2.16,11.38,2.13,16.97-.04,8.17-3.22,17.73-3.16,26,.06,7.79,3.31,16.51,3.08,24.49,8.65-1.69,17.49,2.04,25.51,2.06,7.25.01,14.47-2.38,22.04-2.1,6.67.25,14.45,3.12,20.96,3.13,4.76,0,10.28-2.04,14.97-2.15,14.9-.35,32.55,2.49,47.08,2.1,6.91-.19,15.04-2.92,21.95-3.05,21.87-.41,41.86.63,64.02-.98,12.08-.88,25.99,2.21,37.97,2.07,7.41-.09,15.36-5,23.51-3.08-.22-4.13.31-8.36-.02-12.49-2.98-36.81-.72-74.02-.92-111.05-.11-18.65-4.53-27.5-8.81-44.22-1-3.91-.74-9.2-1.71-13.29-1.25-5.28-4.15-10.01-5.27-15.73-2.37-12.05-.89-25.65-2.26-38.74-.63-6.06,2.36-12.06-3.31-15.69-5.64-3.61-10.53-2.93-15.7-9.3-4.15-5.11-19.75-33.35-22.18-39.82-3.01-7.99-7.63-30.4-8.69-39.31-.68-5.66-.28-12.62-.56-18.43-5.51-2.25-12.77-5.9-17.51-9.5-7.97-6.05-17.62-25.83-18.1-35.9-.91-19.21,2.96-40.98,6.16-59.91,3.62-21.41,10.18-55.22,1.41-75.66-2.25-5.23-6.52-9.21-9.07-13.93-3.52-6.53-4.64-13.76-8.66-20.34-7.08-11.58-18.92-20.76-21.03-35.47ZM643.36,819.94c-3.06-2.84-29.75-18.75-33.22-19.29-4.67-.73-18.05-.6-22.94-.07-4.52.49-8.74,3.25-13.08,3.92-7.05,1.09-16.18.72-23.42,1.09,3.46,11.3-.91,21.03-1.98,31.51-.43,4.15.53,8.88-.08,12.92-1.2,7.98-20.32,35.26-27,40-3.51,2.49-31.58,17.26-34.56,17.52-16.18-1.96-31.33-2.32-46.37-9.46-4.76-2.26-8.45-6.45-13.12-8.88-3.41-1.78-7.6-2.52-10.79-4.21-10.31-5.47-14.59-20.59-21.6-29.38-4.09,5.26-11.63,8.44-15.99,12.99-3.39,3.53-6.16,9.41-9.54,13.46-7.44,8.92-22.26,23.76-27.52,33.48-2.53,4.67-8.28,24.41-10.16,30.84-7.13,24.34-8.5,38.59-8.36,63.73.11,18.91,6.41,25.84,11.35,41.71,1.73,5.55,2.19,12.28,4.24,17.76,4.85,12.94,32.9,36.03,45.43,42.57,3.99,2.08,20.05,9.16,23.69,9.4,4.06.27,8.08-1.31,12.85-.92,4.49.36,9.52,3.16,13.87,2.93,17.22-.9,47.89-9.62,64.86-15.22,5.76-1.9,10.32-6.09,15.54-8.46,15.21-6.9,16.37-6.3,30.31-16.69,8.5-6.33,16.41-9.97,21.79-20.23-8.02-12.85-5.07-27.89-8.93-41.8-1.66-5.99-5.4-12.1-6.69-18.31-1.95-9.4-3.27-21.02-5-31-.54-3.12-1.97-21.28-3.27-22.24-13.92,8.27-28.69,12.58-43.98,17.51-19.63,6.33-43.64,14.07-63.75,18.25-1.01.21-4.43,1.12-4.25-.75,14.55-4.67,28.86-10.07,43.22-15.28,12.52-4.54,24.69-9.04,37.05-13.95,11.09-4.41,35.25-19.38,39.22.22,1.58-1.36,2.86-3.25,4.57-4.43,13.33-9.23,37.25-20.18,53.48-20.58,13.92-.34,33.94,5.27,44.96,14.02,3.07,2.43,12.46,14.45,14.12,14.77s5.37-1.75,7.88-1.78c5.84-.06,12-.09,18.05-.04,5.46.05,10.81,2.53,16.45.03-3.69-6.99-4.69-14.9-7.23-22.26-6.23-18.07-13.01-36.16-19.92-54.08-6.32-16.41-27.37-49.37-40.2-61.3ZM545.71,808.59c-3.76,1.29-16.69.16-18.54,2.96-.02,10.37-3.88,20.36-8.6,29.4-4.75,9.09-14.58,16.97-22.95,23.05-14.84,10.79-22.89,7.02-39.41,6.5-2.5-.08-5.11,1.21-7.99,1.17-4.25-.06-23.29-7.74-26.54-10.55-4.73-4.09-6.45-11.92-9.02-17.49-1.1-.76-13.55,6.73-13.68,8.45,2.04,3.55,2.92,7.88,5.73,11,3.27,3.62,9.35,5.68,13.01,8.99,4.63,4.18,7.37,10.13,13.44,13.56,22.52,12.7,45.6,16.04,70.53,8.47,9.14-2.78,15.23-11.72,21.97-18.03,3.03-2.83,5.59-2.99,8.85-7.15,4.1-5.23,13.17-24.8,13.17-30.83v-29.5ZM1205.7,863.59c-1.21-6.26-.46-12.79-1.44-19.05-.62-3.98-6.38-22.1-8.05-25.95-3.58-8.23-5.24,2.56-5.54,6.46-.32,4.23-.39,29.64,1.12,31.48.08.1,1.52-.69,2.6-.19,3.49,1.62,6.17,6.89,11.3,7.25ZM1239.71,864.59v-36.5c0-.38-3.39-3.37-4.25-3.74-5.93-2.57-10.61.88-14.16,5.33-8.16,10.21-9.85,22.1-9.59,34.91h28ZM1244.72,864.59c12-3.44,31.96-4.97,40.5-14.99,5.01-5.88,3.54-6.7-.09-12.93-4.41-7.57-11.67-15.69-21.48-12.63-2.42.75-14.06,14.05-15.16,16.83-2.56,6.51-2,16.62-3.77,23.72ZM1069.7,1164.6c3.93-.63,7.6,1.09,11.45,1.03,7.28-.12,17-3.96,24.06-4.03,5.18-.05,11.04,2.3,16.86,1.88,17.05-1.22,61.6-16.45,78.62-23.4,6.21-2.54,10.05-7.08,15.34-9.66s10.96-2.93,16.36-5.64c16.06-8.05,31.91-20.28,45.99-31.01,5.74-4.37,12.44-5.85,17.81-10.19,5.7-4.62,10.11-12.38,15.13-17.87,2.19-2.4,6.72-4.82,8.8-7.2,13.32-15.24,29.25-47.43,36.62-66.38,3.31-8.51,6.75-20.2,7.6-29.19,2.21-23.5,1.99-48.06-9.1-69.35-13.71-26.32-23.25-31.03-49.5-42.5-1.79-.78-9.98-6.44-11.01-5.49.03,2.24-.54,3.78-2.08,5.44-.75.81-13.63,9.22-15.61,10.39-15.54,9.15-46.03,15.27-63.71,12.07-5-.91-18.18-5.94-21.54-9.46s-3.89-17.63-7.38-17.31c-6.01,3.14-11.86,6.66-17.15,10.91-9.21,7.39-19.43,18.55-28.62,25.38-5.44,4.04-12.55,5.38-17.85,9.15-5.7,4.06-11.45,12-17.56,16.44-5.13,3.72-12.16,6.19-17,10-4.44,3.49-7.26,8.74-11.49,12.51-3.06,2.73-7.5,4.63-10.4,7.6-3.88,3.97-5.44,11.1-11.6,11.9.85,2.38,5.55-.68,7.57-.93,13.61-1.65,33.37,7.32,37.72,21.12,5.66,17.95-2.38,27.94-16.78,36.82-5.81,3.58-14.61,6.26-19.27,9.68-.9.66-1.78.03-1.24,2.28,1.36.24,2.49,1.05,3.72,1.62,6.51,2.99,30.65,3.18,39.76,2.39,13.15-1.15,18.84-7.35,29.84-12.16,7.66-3.36,17.29-4.52,23.7-10.3,3.67-3.31,6.98-9.19,10.44-12.56,12.72-12.37,17.44-15.49,24.72-33.28,2.08-5.07,3.24-10.46,4.83-15.68,1.74-.27,2.81.68,2.93,2.41.14,2.06-5.1,25.93-6.17,28.86-2.04,5.59-8.79,14.54-12.8,19.2-7.4,8.6-28.74,23.1-39.05,28.95-12.44,7.05-20.61,5.64-32.72,9.28-3.91,1.18-8.22,4.69-11.76,5.24-5.14.79-17.86-2.88-23.66-4.21-2.8-.64-4.6-3.49-7.69-1.62.46,3.56-1.07,7.05-1.13,10.35-.63,32.28,2.76,64.82,4.08,97,.4,9.81-.38,19.74-.05,29.55ZM738.71,956.59c3.32-.3,7.63,2.6,10.51.02,2.53-5.5,6.04-10.53,9.67-15.33,7.51-9.94,10.55-11.91,16.11-23.89.94-2.03,8.21-11.8,3.18-12.79-3.24-.64-5.77,5.59-7.5,7.48-6.64,7.27-13.26,12.86-16.14,22.86l-15.84,21.65ZM662.83,961.5c-.14-.09.69-1.51-.02-2.42-.53-.68-11.82-9.97-13.17-10.92-2.34-1.65-22.15-11.31-24.41-11.59-10.72-1.34-32.2,1.23-42.74,4.31-9.07,2.65-18.74,8.15-25.84,14.16-2.71,2.29-5.08.62-5.03,6.05.11,14.91,6.98,25.42,9.81,38.29,1.92,8.73,1.07,29.44,6.2,35.55,2.36,2.81,16.7,3.66,21.05,5.2,5,1.76,8.49,6.1,14.66,6.41,10.92.56,15.14-6.47,15.39-16.49s-5.61-9.76-10.22-16.75c-1.46-2.21-7.84-14.57-8.37-16.65-.45-1.77-.47-1.82,1.06-3.02,1.93-.08,10.47,10.86,11.92,13.06,5.19,7.88,4.78,14.65,14.31,18.69,4.65,1.97,17.3,5.15,21.28,1.74s-5.72-22.06-6.8-27.22l-20.2-22.29c15.63,5.23,28.29,17,33.13,32.85,6.44.86,12.94-1.54,17.88-5.56-.23-3.18.41-6.58-.08-9.73-.88-5.71-14.59-19.87-19.44-23.56-5.31-4.04-12.96-6.78-17.49-12.51l12.98,4.02c13.89,5.84,19.34,10.45,25.52,24.48,1.08-1.91.59-4.98.03-7.03-.38-1.39-7.77-17.6-8.45-18.34-.98-1.08-2.43-.38-2.96-.72ZM1019.61,943.7c-7.09-.4-14.23-1.81-21.39-1.1-5.54.55-11.63,3.49-17.28,3.72-19.96.83-37.11,3.06-56.83,6.16-4.14.65-14.6-1.84-14.35,4.45,2.52,9.78,3.51,21.3,6.22,30.9,1.32,4.68,4.53,14.12,6.22,18.78.95,2.62,8.56,20.79,9.5,21.5,1.57,1.18,1.53.24,2.44-.59,2.19-2,4.06-4.39,6.66-6.34,15.04-11.24,48.67-19.72,67.41-19.38,3.7.07,7.02,1.91,10.49,2.79.82-5.95-3.99-14.48-1.48-19.98,1.31-2.88,19.77-13.15,23.22-13.78,7.21-1.31,28.73.3,32.16,7.38,9.8,20.25-16.51,22.06-28.9,27.88l-13.99,2.5c7.44-1.99,16.17,5.55,22.37,4.96,2.03-.19,4.09-1.34,5.97-2.1,10.09-4.05,27.71-13.41,33.08-22.92,3.26-5.79,3.04-7.59.74-13.6-7.92-20.74-14.83-12.34-31.71-13.29-4.46-.25-9.65-2.31-13.92-2.09-5.8.3-18.52,8.06-22.82,6.91-5.35-1.44-1.02-18.1-3.82-22.75ZM764.7,962.59c-6.42,2.46-12.6-1.19-18.45-1.03-5.59.14-13.67,3.98-20.09,4.07-6.26.09-14.26-2.99-19.96-3.11-4.32-.09-8.61,1.87-12.95,2.11-6.87.37-13.61-1.85-20.53-1.03,2.57,5.99,6.34,10.69,6.98,17.5.61,6.45-1.68,9.02-1.96,13.04-.44,6.42,4.41,13.34-3.09,18.89-6.11,4.52-12.11,1.94-18.94,1.56,2.23,19.73-19.65,30.18-32.99,15,2.76,8.7,0,14.36-6.51,20-1.46,1.27-8.22,3.64-5.44,6.94.45.54,11.73,3.88,13.45,4.05,9.84.98,29.67,3.04,38.82,2.63,5.48-.24,10.58-2.85,16.18-2.68,4.64.13,9.05,2.35,14,2.13,6.62-.29,13.71-5.22,20.44-5.61,3.94-.23,7.57,1.81,11.51,1.59,6.45-.35,16.97-4.97,24.14-5.94,4.11-.56,8.39.56,12.46-.54l2.93-89.56ZM1022.77,1003.55c1.17.85,13.03-4.15,15.69-4.71,4.29-.89,9.63-.59,13.66-1.34,7.26-1.36,22.06-12.18,11.95-18.78-6.45-4.21-16.06-.05-23.14,1.59-2.11.49-4.42.04-6.48.52-5.07,1.17-9.28,5.13-14.75,4.77l3.07,17.95ZM914.7,990.59c-6.42,3-13-1.03-19.49-1.08-9.87-.09-21.21,1.23-30.95,1.12-4.63-.05-9.62-2.2-15.09-2.09-21.2.41-42.57,5.2-63.85,2.94-5.46-.58-11.1-2.38-16.61-2.88.31,3.88,1.75,7.55,2.03,11.46.83,11.82.71,29.18,0,41.08-.16,2.71-1.15,13.57-2.71,14.54-1.83,1.14-16.09,5.31-18.93,5.82-17.46,3.14-35.34,3.69-52.88,5.12-7.22.59-15.08,4.25-22.02,4.05-17.56-.5-34.72-3.13-52.11-5.94-4.16-.67-14-.37-16.72-1.28s-3.72-9.06-3.67-11.83c-3.87.54-7.57-1.53-11.41-.99-4.61.65-16.52,10.91-18.97,15.08-6.89,11.72-9.14,27.01,3.47,35.31,24.09,15.85,57.42,29.63,85.66,35.34,4.79.97,11.11.49,15.66,1.34,6.25,1.16,13.07,4.28,19.11,4.89,7.28.73,15.54-.46,22.98.02,8.33.53,19.28,2.99,27.01,3.07,5.96.06,13.08-3.19,18.95-3.11,6.79.09,16,3.82,23.05,3.82,7.14,0,16.13-3.75,23.01-3.87,4.12-.07,8.01,1.72,12.01,2.06,12.19,1.03,27.58-2.1,39.99-2.97,6.7-.47,14.41.76,20.9-.1s14.33-5.98,21.19-6.8c7.55-.9,15.06,1.64,22.88.88,5.33-.52,11.54-2.94,17.13-3.87,5.09-.85,9.73.06,15.39-1.61,7.57-2.23,5.39-5.62,10.01-10.98,4.16-4.83,11.42-8.09,13.98-14.51-13.91,3.43-42.11,23.06-46.58-1.07-8.64-.35-17.43,2.66-25.93,3.05-4.91.22-9.92-1.04-13.9-.91s-10.28,2.95-15.1,3c-10.46.1-17.24-2.32-26.48-4.6-10.08-2.49-14.07-.11-21.43-9.57s-8.13-15.91-2.76-26.58c5.64-11.21,11.92-17.21,23.95-21.05,13.05-4.16,31.22-8.58,44.68-9.32,5.09-.28,21.61,2.62,24.58.57.76-.53,3.25-7.01,5.8-8.03l-7.89-13.95-7.96-25.56ZM971.21,1136.59c3.18.89,15.56,0,20,0,1.45,0,10.04-6.37,12.5-7.5,12.69-5.84,35.7-12.57,49.48-11.48,3.55.28,6.94,1.83,10.51,1.97-1.2-4.74-2.98-11.79-3.04-16.54-.15-11.89,1.56-24.14,2.03-35.96.54-13.5-.31-27.09,2.01-40.49-5.28.82-9.1-3.23-13.78-4.73-4.56-1.46-9.09-1.32-13.75-3.25s-8.22-5.68-13.68-7.32c-4.51-1.36-24.93-4.73-29.21-4.6-2.03.06-33.47,7.27-35.83,8.17-3.04,1.16-23.61,14.18-25.69,16.31-3.21,3.28-6.42,10.29-.82,12.66,7.05,2.98,10.04-1.46,15.68-2.8,7.11-1.69,13.84-2.37,21.29-4.71,12.03-3.78,9.83-4.19,23.13-4.78,3.74-.17,13.42-4.69,16.53-2.85l-.64,4.9c-5.18,1.28-11.24,1.25-16.31,2.44-7.1,1.67-11.79,3.2-19.32,4.68-13.37,2.63-27.55,9.45-38.12,17.88-4.85,3.87-4.69,6.97.54,10.44,10.44,6.92,16.19-1.83,25.17-4.73,5.12-1.65,9.26-1.1,13.83-2.17,10.85-2.52,25.72-9.7,35.93-11.15,5.99-.85,12.04,2.71,4.02,6.1-9.75,4.11-34.16,6.69-41.97,13.03-1.78,1.45-2.42,3.75-4,5-3.28,2.61-7.7,4.57-10.57,7.43-2.09,2.07-12.79,16.05-13.68,18.31-.72,1.83-1.22,3.64-.66,5.6,17.48,5.54,33.34-9.46,48.33-14.91,5.77-2.1,20.55-6.69,26.28-7.72,1.42-.25,2.82-.35,4.25-.24.02,1.95.49,3.84-.99,5.51-1.92,2.18-20.19,10.21-24.74,13.26-8.85,5.92-19.46,15.36-23.76,25.24-.84,1.94-3.7,8.24-1.01,8.99ZM581.71,1049.58c.85-1.21-8.82-5.22-9.99-5.98l2,12c.8.59,5.72-6.59,7.99-6.01ZM938.71,1049.6c-2.86-.08-7.26-.43-9.74-1.77-2.74-1.47-1.71-3.81-5.69-4.31-9.77-1.22-15.64,2.02-24.17,2.97-1.56.17-3.22-.96-4.8-.82-4.8.42-10,3.49-15.1,3.9-4.36.36-9.57-1.41-12.74-.81-2.33.44-27.24,14.79-28.77,16.59-6.04,7.12-4.27,20.32,2.09,26.66,3,2.99,12.31,7.91,16.51,8.49,23.61,3.21,48.13.79,71.9-.92,3.2-.23,6.99-1.3,10.29-1.64,1.11-.46,7.62-13.11,10.23-15.83,2.8-2.92,6.74-4.07,8.99-7.5-8.27-1.25-22.32,5.97-28-2.51-6.5-9.71,2.44-16.64,9-22.49ZM810.58,1155.72c-8.07.5-16.72-3.95-24.48-4.02-7.37-.07-16.69,3.98-23.89,3.97-4.87,0-10.95-2.62-16.02-3.06-10.58-.92-22.42.94-32.97-.03-5.86-.54-11.43-3.41-17.03-3.97-17.81-1.79-31.94-.23-50.27-5.73-6.62-1.99-12.1-6.65-18.25-8.75-4.94-1.69-10.24-1.7-15.01-2.99-10.52-2.85-32.92-12.98-39.94-21.06-6.47-7.44-15.31-19.28-14.03-29.48-4.16,2.92-6.08,7.15-10.26,10.23-5.28,3.89-11.71,5.53-17.4,8.6-16.07,8.69-29.8,14.81-47.55,20.45-17.1,5.44-40.33,8.52-58.3,9.7-10.05.66-12.08-2.42-20.44-4.53-4.33-1.09-8.97-.92-13.6-2.4-6.44-2.06-13.36-6.99-19.44-10.05.37,2.96,1.1,5.4,1.05,8.5-.18,12.41,1.44,42.53,5.45,53.49,1.92,5.24,5.38,10.11,7.2,15.8,4.32,13.45,7.35,31.17,16.31,42.69,6.02,7.74,44.65,37.76,53.16,39.84,7.87,1.92,34.59,5.71,42.31,5.48,5.82-.17,11.37-3.21,17.01-3.78,6.02-.61,12.93.69,18.91-.09,6.3-.82,12.68-5.71,18.94-7.06,5.26-1.14,9.86-.52,15.09-1.91,8.79-2.32,19.76-8.14,28.6-11.4,3.97-1.47,8.85-1.67,12.65-3.35,4.58-2.02,8.86-7.34,13.41-9.59,3.78-1.87,7.59-1.81,10.9-3.1,11.13-4.34,23.37-15.75,33.27-22.73,1.27-.61,2.26-1.37,3.26.21.85,1.35.75,19.57.46,22.52-2.86,29.09-9,58.6-14.74,87.26-4.81,24.01-7.9,47.72-12.14,71.86-.73,4.15-.56,9.25-1.39,13.61-.64,3.33-5.78,18.31-4.72,19.77,4.31-4.34,9.81-5.76,15.01-8.48,9.06-4.75,14.99-5.98,23.19-9.81,5.88-2.75,10.92-7.75,17.43-10.57,14.8-6.4,28.78-12.86,43.36-19.64,18.95-8.82,37.36-17.83,56.36-26.64,9.97-4.63,18.84-7.51,28.33-11.67,5.51-2.41,11.02-7.11,16.95-10.05,5.05-2.5,30.38-11.53,31.93-14.12-1.36-4.39-3.89-8.38-5.29-12.8-5.67-17.93-12.11-32.88-18.52-50.48-9.51-26.11-19.22-52.34-28.55-78.45-2.49-6.96-4.14-15.05-6.34-22.16ZM1060.7,1376.59c.81-.75-6.61-10.27-7.54-11.95-3.56-6.48-10.88-21.5-10.48-28.51.22-3.77,5.03-23.96,6.51-27.54,3.16-7.66,17.64-30.5,24.17-34.83,4.5-2.98,10.44-4.21,15.21-6.79s10.66-7.7,15.42-9.58c16-6.28,40.54-7.11,56.92-12.08,4.05-1.23,6.91-4.14,10.4-5.6,24.48-10.25,51.17-16.44,70.4-35.6,15.61-15.56,24.9-40.15,26.02-61.98.58-11.19-2.45-18-4.05-28.54-6.54,3.07-12.55,8.45-18.95,11.54-4.01,1.94-8.54,2.62-12.36,4.64-5.09,2.68-9.78,8.71-14.99,11.01-4.38,1.94-10.24,2.28-14.96,4.04-23.56,8.77-45.91,21.33-71.24,24.76-8.27,1.12-24.22,3.34-31.98,3.01-5.35-.23-11.5-2.04-17.01-2.05-4.78,0-15.85,4.04-18.6.65-1.91-2.35-.96-37.94.11-43.59-15.87-1.97-31.04-2.6-46,3.5-12.25,5-11.41,5.09-25.06,7.94-4.27.89-8.52,4.85-12.5,5.49-6.28,1.01-12.49-.56-15.45-6.47l-1.48-.5c-9.49,1.17-15.56,2.05-23.45,7.6-13.1,9.21-24.66,20.53-35.57,32.43-20.51,22.36-33.5,43.17-42.77,72.23-.96,3.01-3.58,11.78-3.65,14.39-.06,2.47,4.72,19.71,5.89,22.93,2.53,6.95,7.31,12.74,9.8,20.2,6.91,20.78-.3,16.09-15.47,25.71,1.92,10.13,6.42,19.75,13.21,27.45,4.75-3.65,10.4-5.95,15.99-7.92,5.85-2.06,19.39-6.35,25.13-6.86,5.17-.45,22.72,1.53,27.65,3.1,6.12,1.94,23.83,17.39,26.94,23.06,3.28,5.99,7.98,22.66.79,26.7l92.99-22ZM936.71,1141.6c-11.09-1.82-21.45,5.68-31.61,6.88-8.22.97-15.96-1.61-23.88-.88-6.76.62-14.51,3.28-22.02,3.98-5.47.51-46.2.12-46.47,4.5,6.23,8.72,8.12,19.75,11.79,29.2,1.93,4.97,5.55,9.34,7.67,14.33,3.05,7.17,4.08,15.26,6.75,22.25,4.05,10.62,12.56,20.34,13.79,32.72,1.71,1.34,6.18-17.11,6.81-18.68,2.21-5.52,6.35-10.19,8.68-15.32,1.88-4.15,2.61-9.15,4.62-13.38,9.45-19.83,30.07-30.79,42.35-48.65l21.52-16.97ZM1097.71,1269.58c5.43,2.04,10.64-.96,15.55-1.02,22.51-.29,41.09.37,63.93-1.98,12.39-1.28,24.71-1.77,37-3,7.8-.78,38.34-10.4,46.2-13.8,9.44-4.08,7.85-7.11,12.5-14.5,8.41-13.32,15.82-18.58,1.82-32.21-1.52-1.48-12.64-11.7-13.5-11.48-6.7,9.82-18.43,25.69-29.28,30.73-4.14,1.92-9.11,2.56-13.28,4.72-13.66,7.07-25.75,15.87-41.41,20.59-6.39,1.92-12.56,1.66-18.53,3.47-4.29,1.3-9.19,4.89-13.95,6.05-9.31,2.28-20.43,1.62-29.89,4.11l-17.17,8.32ZM666.7,1223.6c-1.42-1.35-13.51,9.41-15.67,10.82-3.21,2.08-7.41,3.28-10.64,5.36-8.95,5.74-14.89,13.46-26.72,14.49-.95,7.04-1.52,13.46-3.44,20.35-9.8,35.16-22.49,69.01-31.65,104.35-1.38,5.33-1.38,11.06-2.71,16.29-1.57,6.16-5.6,11.91-6.92,18.08-2.67,12.59-2.93,16.2-7.26,28.74-1.99,5.76-3.4,11.65-4.97,17.52,2.8-.56,5.64.91,8.24.76,4.27-.24,8.78-3.81,13.51-4.5s9.79.17,14.63-.37c13.5-1.5,29.32-6.6,43.21-8.79,22.56-3.55,45.47-5.5,68.02-8.98,2.82-.44,21.55-1.37,22.38-2.13-1.46-13.14-9.32-23.84-13.57-36.04-7.23,2.28-12.85,8.12-19.74,11.24-5.65,2.56-12.54,3.51-18.06,5.94-11.06,4.87-21.39,13.32-34.43,16.57-2.36.59-7.48,2.15-8.54-.95.2-8.72.44-17.42,1.47-26.12,1.16-9.76,3.23-22.17,5.16-31.84,4.49-22.46,6.94-45.33,12.19-67.81s9.81-44.23,12.61-68.39c.26-2.24,3.43-14.09,2.89-14.6ZM513.71,1286.6c-15.62-3.39-31.6.56-47.23-3.28-5.49-1.35-23.49-7.85-28.8-10.2-8.93-3.96-17.35-13.95-26.5-18.5l-23.47-30.02,3.42,133.06c.98,1.37,13.67,2.07,16.11,1.97,8.28-.35,16.55-4.39,24.98-4.08,6.42.24,13.3,3.47,19.99,4.03,11.27.95,23.75-.89,35.02-.02,7.49.58,14.97,4.37,22.53,2.6l3.92-24.08c-1.78-12.42-.14-24.69.1-37,.09-4.81-2.24-9.23-.07-14.48ZM611.7,1254.6l-24.04,10.66,2.06,54.33,21.98-64.99ZM585.7,1265.6c-5.25,2.68-11.35,3.64-16.69,5.8-4.44,1.8-9.72,5.81-14.25,6.75-5.88,1.22-12.28-.12-18.3.7-6.52.89-13.36,5.08-19.74,6.8l1.98,73.94c9.87-1.4,18.98,2.23,28.47,3.03,8.88.75,18.18-.02,27.09,1.01l2.97-1.03c.48-5.94,4.08-12.43,5.23-17.77,4.48-20.81,1.08-43.71,1.16-64.76.02-4.16,1.61-10.17,2.08-14.49ZM1235.7,1267.6c-6.33,1.87-12.98.34-19.38,1.11-5.02.6-10.1,3.53-15.41,4.59-8.23,1.65-21.03,2.59-29.72,3.28-6.4.51-13.29-.34-19.47-1.98,3.24,12.62,2.52,26.35,2.37,39.33-.12,9.71-.2,19.47-.33,29.12-.08,5.93-.44,11.68-1.04,17.54h68.99s14-92.99,14-92.99ZM1149.69,1274.59c-7.95,2.09-15.3,2.11-23.47,1.99-10.42-.15-20.65-2.18-30.97-4.03-1.92-.34-3.24-2.48-5.54-1.95l1.99,90c7.25-.87,14.37,1.37,21.55,1.03,8.18-.39,13.39-.95,21.96-.94,4.09,0,8.21-1.85,12.51-1.09-1.2-7.37,1.64-14.47,2.03-21.47.82-14.66-1.42-29.55,1.76-44.04l-1.81-19.5ZM1086.7,1273.6c-.69-.79-4.59,2.33-5.47,3.02-3.59,2.83-13.03,10.42-15.52,13.48-3.42,4.2-14.85,25.32-15.77,30.23-1.42,7.62.22,27.87,3.96,34.57,5.99,10.73,9.02,5.57,18.19,5.8,2.15.05,11.76,2.79,12.61,1.9l2-89ZM854.68,1335.61c-1.54-1.08-15.98,7.21-18.99,8.46-12.94,5.41-21.56,8.69-34.01,16.03-1.29.76-2.52-.18-1.97,2.48l60-2-5.03-24.98ZM849.7,1367.6c-8.32,2.22-17.33-2.94-24.5-3-3.74-.03-9.13,2.09-12.99,2.07-5.7-.03-12.26-3.46-18.5-2.07-1.09,1.05,3.05,8.63,4.63,9.86,4.69,3.66,25.06,9.76,30.72,4.98l20.64-11.84ZM1012.7,1394.6c-3.57-.53-17.93,2.2-18.87,5.7-.55,2.04.98,3.88.88,5.79-.21,3.77-2.08,8.27-2.08,12-.01,5.5,2.18,12.48,1.09,18.49,8.23-.41,13.91-12.42,14.89-19.61.43-3.16-.12-6.34.37-9.63.67-4.52,3.2-8.33,3.74-12.75ZM917.71,1455.6c-10.06-2.32-19.61,0-29.55.03-8.85.03-17.04-1.27-25.99,1l-13.47-2.53c.65,6.91.2,7.59,6.79,9.21,9.99,2.46,29.3-1.34,42.67.32,1.85.23,3.4,1.87,5.04,1.89,3.26.03,12.22-7.1,14.51-9.92ZM1061.7,1496.6c-7.32-.45-14.09,1.59-21.48.98-5.85-.49-12.44-3.53-18.18-3.6-12.59-.14-27.51,2.47-40.88,1.64-23.13-1.43-45.59.33-69.01.01-6.14-.08-13.64-1.52-19.87-2.11l-3.58,14.06c13.39-.56,27.18.74,40.54.04,12.18-.64,15.42-.97,27.98-.05,16.05,1.18,28.89-8.18,44.99-.99l56.05,1.67c2.58-.4,2.83-9.26,3.44-11.66Z"/>
  <path d="M347.7,889.6h-2.99c.28-8.75-5.4-16.15-8.49-24.02-5.37-13.69-14.79-39.27-23.54-50.46-7.06-9.03-10.96-13.48-17.34-23.66-6.77-10.79-15.11-24-20.51-35.49-3.46-7.37-3.96-19.5-4.16-27.83-.28-11.83,3.36-23.76,12.54-31.54l-6.05,15.95c-3.22,13.81-3.88,19.35.28,32.82,5.57,18.08,13.44,28.18,23.45,43.55,14.02,21.53,31.4,41.45,40.31,65.69,4.15,11.31,6.35,22.93,6.51,34.99Z"/>
  <path d="M1214.7,619.6c-3.33,11-5.55,21.3,2.58,30.92,7.25,8.57,23.42,9.1,32.18,2.33,2.97-2.3,4.31-6.74,8.24-7.25,3.46,3.69-18.14,17.95-22.76,16.22-3.18,3.2,2.9,14.95-.75,15.77-5.82-.87.63-14.9-.48-15.99-5.42.34-9.54-3.23-14.02-5.55-.86-.44-2.42.53-2.81.3-.32-.19-4.93-4.85-5.21-5.23-1.15-1.54-1.66-3.66-1.98-5.54l-16.98,5c-.44-2.2,1.07-2.26,2.45-3.04,4.11-2.3,9.01-2.59,13.34-4.17,1.98-6.98.45-15.31,3.68-21.85.74-1.49,0-2.42,2.52-1.93Z"/>
  <path d="M1215.71,657.6l-7.99,9.99c-1.98-2.94,6.8-11.13,7.99-9.99Z"/>
  <path d="M330.46,733.83c9.84-.59,9.39,9.47,9.28,16.31s-4.1,14.8,8.66,8.65c3.04-1.47,16.22-15.2,17.35-7.67,1.24,8.27-14.79,16.58-22.48,15.4-14.62-2.23-7.58-20.67-12.99-25.03-3.15-2.54-6.34,2.18-10.09,2.17-9.77-.02,3.59-9.44,10.28-9.84Z"/>
  <path d="M464.59,623.71c4.56,12.21,5.12,22.49-.94,34.3.06.69,5.98,2.47,5.05,6.07l-3.03,1.05-3.47-4.52c-3.41,4.11-5.82,5.92-11.5,4.99-.53.48,3.23,11.98-.5,13.97-3.91-2.74.28-13.06-.93-14.98-8.89-3.3-12.04-8.58-15.57-16.99,2.9-.2,3.08,3.43,5.11,5.38,6.67,6.4,11.8,8.97,19.8,3.02,11.85-8.82.34-20.01,2.07-31.83l3.9-.47Z"/>
  <path d="M706.71,388.59c1.32,1.36,7.82-4.71,9.7-5.8,3.83-2.22,10.93-5.76,15.25-5.8,1.45-.01,2.16.67,2.06,2.1-.03,2.93-7.81,3.01-10.96,5.05-5.25,3.4-10.11,16.32-17.8,12.72-6.6-3.09-1.33-13.41-1.51-18.51-.7-19.32-14.94-14.21-23.24-2.76-3.26-8.33,13.44-19.81,19.79-18.82,2.5.39,6.71,5,6.71,7.33v24.5Z"/>
  <path d="M769.71,266.57l.51-2c2.53,0,4.62,1.62,7.07,1.93,4.1.53,20.57-2.88,23.48-5.35,2.42-2.06,7.16-13.96,7.69-17.3,1.07-6.68-.32-12.35-3.22-18.3-2.09-4.29-8.02-10.25-9.38-13.63-.48-1.2-.52-3.02,1.32-2.32,1.42.54,8.36,6.03,9.52,7.49,2.04,2.57,4,7.21,4.55,10.45,1.2,6.97,1.77,27.63-1.35,33.75-7.45,14.61-28.33,12.55-40.19,5.28Z"/>
  <path d="M939.72,969.6c1.59.86,2.15,5.15,2.54,6.94.52,2.35.25,4.77.91,7.09,1.29,4.55,7.6,9.18,5.8,13.66-1.25,3.11-3.62,4.44-6.31,1.84-4.87-4.71-5.05-22.99-2.95-29.53Z"/>
</svg>