<?xml version="1.0" encoding="UTF-8"?>
<svg id="Calque_1" data-name="Calque 1" xmlns="http://www.w3.org/2000/svg" viewBox="0 0 1605 1605">
  <defs>
    <style>
      .cls-1 {
        fill: #fff;
      }
    </style>
  </defs>
  <path d="M1036.83,682.62c12.36,27.09.95,82.22.95,82.22l-3.33,25.19s6.18-2.38,27.56-10.93c21.39-8.55,31.37,4.75,52.75,11.88s13.31,42.3,14.26,54.18c.95,11.88-16.16,11.41-33.74,19.49-17.58,8.08-47.05,4.75-47.05,4.75,0,0-3.8,10.46,4.75,20.91,8.55,10.46-16.16,38.49-3.33,39.45,12.83.95,12.2,43.28,12.2,43.28,9.52,1.72,19.96,3.6,29.21,6.3,10.19,2.97,21.32,6.39,31.34,9.66,7.57,2.47,14.2,8.97,21.42,12.58,29.15,14.59,61.79,18.87,92.01,29.99,4.66,1.72,9.72,6.75,13.99,8.01,4.64,1.37,10.15.96,15.31,2.69,2.57.86,14.8,6.58,15.79,8.21,8.26,13.64-25.85,13.7-32.29,14.84-18.47,3.29-38.78,8.66-57.41,10.59-15.68,1.63-33.16,1.52-48.77,3.23-7.94.87-16.81,5.13-25.12,5.88-6.44.58-13.48-.45-19.97.03-37.67,2.75-75.23,5.99-112.99,3.97-4.29-.23-8.24-2.13-13.03-2.06-7.75.11-17.09,3.92-24.98,3.87-5.81-.04-12.81-2.52-18.96-2.84-10.59-.55-18.49,2.78-28,3.09-8.47.28-17.01-3.15-25.04-3.14-23.19.02-46.92,1.68-69.96,3.12-9.25.58-17.45-3.02-26.02-3.11-7.15-.07-14.9,2.64-21.98,3.12-8.5.57-17.12-1.54-25.03-1.02-8.97.6-20.69,4.58-30.13,5.86-22.73,3.08-46.05,4.23-68.76,7.24-8.45,1.12-19.01,6.62-26.17,6.91-5.9.24-13.9-2.39-19.91-2.06-4.76.26-11.14,2.97-16.31,3.74-12.96,1.94-26.05,1.93-38.62,3.38-5.65.65-12.88,4.58-18.25,4.84-6.37.31-15.17-2.31-21.84-1.94-7.57.41-15.63,5.08-23.13,5.89-5.53.6-10-1.06-14.74-.82-9.36.47-21.82,6.72-31.27,7.82-1.95.23-18.57.14-19.4-.36-3.63-2.19-.83-7.78.47-10.57,6.81-14.68,20-28.27,28.38-41.62,2.4-3.83,3.54-8.52,5.72-12.28,8.99-15.45,24.41-26.25,35.44-40.05-4.04-.79-8.31-1.95-12.45-2.06-9.4-.25-20.71,2.13-30.05,2.14-6.15,0-12.46-2.51-19.04-2.13-6.05.35-13.63,3.08-19.96,3.12-20.1.13-35.93-1.91-51.44-15.64-3.12-2.77-5.2-7.12-5.8-11.2-1.78-12.14-.43-24.62-.22-36.7.13-7.39-2.28-21.21,2.41-26.59,2.92-3.35,7.71-3.91,10.55-6.94-13.82-1.31-25.02-9.33-24-24.49.47-6.93,7.16-21.02,13.07-24.96,3.19-2.13,6.92-1.95,8.93-4.56-6.7-1.76-11.76-5.65-14.49-12.02-3.4-7.95-4.69-30.74-2-38.98,3.18-9.75,16.01-17.91,25.5-20.52.71-2.56-7.27-3.74-8.99-5-5.22-3.82,1.77-7.66,1.92-10.96.09-1.92-4.34-17.26-5.21-20.75-3.2-12.8-7.6-29.81-6.7-43.27.41-6.05,3.15-13,3.86-19.13,1.4-12.17.04-20.12,4.36-32.64,1.8-5.21,5.43-10.15,7.26-14.74,8.26-20.63,13.38-38.48,28.99-56.01,7.02-7.88,12.92-13.23,20.1-21.9,8.73-10.54,28.48-27.95,40.37-34.63,11.44-6.43,15.77-9.88,26.11-16.89,11.74-7.96,26.6-11.58,39.29-17.71,5.33-2.58,9.85-6.8,14.95-9.05,8.88-3.91,18.5-2.99,27.72-5.28s19.96-10.32,28.55-11.45c5.3-.7,11.3.31,16.79-.21,13.72-1.3,28.54-6.02,43.13-6.87,6.96-.41,13.7,1.33,19.96.98,9.42-.52,17.84-5.7,28.07-5.03,7.13.47,14.53,4.29,22.09,4.9,5.55.45,10.02-.91,14.71-.8,7.83.18,25.56,2.82,34.05,4.03,25.76,3.69,49.67,12.63,74.83,18.17,16.13,3.56,23.78,11.88,37.79,17.21,6.59,2.5,14.2,3.29,20.68,6.32,6.54,3.06,23.19,15,30.23,19.77,15.68,10.63,26.46,20.99,40.6,32.4,4.73,3.81,11.1,6.35,15.5,10.5,7.72,7.27,12.87,19.81,20.01,27.99.82.94,5.92,6.7,6.97,5.52,0,0,22.62,35.49,34.98,62.58ZM1028.76,791.94l4.97-24.53c3.36-24.43.55-48.72-5.15-72.59-2.8-11.74-11.37-37.22-19.28-45.72-1.03-1.1-2.93-.96-3.91-2.09-3.37-3.88-8.93-18.96-12.36-24.64-6.79-11.24-14.87-14.35-23.22-22.78-3.77-3.81-6.85-9.55-10.44-13.56-10.42-11.64-38.6-31.25-52.59-39.41-7.75-4.52-15.95-6.1-23.59-10.41-5.29-2.99-10.06-7.8-15.3-10.7-10.41-5.77-20.74-5.93-31.31-9.69-7.78-2.77-14.22-8.13-22.52-10.48-30.81-8.75-73.12-16.33-104.83-19.17-10.93-.98-20.46,3.76-30.88,2.86-7.03-.6-14.37-4.33-22.01-4.05-4.5.16-9.5,2.41-14.12,2.95-14.17,1.66-29.65,2.16-43.62,4.38-7.34,1.16-13.13,5.25-19.92,7.08-10.47,2.81-19.79.27-30.11,3.89-7.49,2.63-14.66,8.63-21.75,11.25s-15.26,2.22-22.67,5.33c-9.22,3.87-19.34,11.04-28.29,15.71-9.35,4.88-18.18,6.76-26.49,13.51-16.57,13.47-34.82,28.19-50.54,42.46-11.21,10.17-23.97,34.79-31.82,48.18-3.44,5.87-8.75,11.51-11.35,17.65-2.93,6.92-11.82,40.74-12.72,48.29-1.75,14.74.99,47.22,3.34,62.44,1.38,8.91,7.2,18.53,7.7,27.81,8.26,3.72,13.41,4.12,22.34,4.14,9.54.02,17.84,2.09,26.02,2.1,5.2,0,10.57-2.22,16.01-2.17,13.16.11,28.99,2.49,41.99,2.14,7.26-.19,16.32-3.94,23.99-4.06,14.03-.23,28.09,1.1,42.01,1.99,10.52.67,16.65-2.16,26-2.97,11.84-1.03,25.23,1.12,36.98-.02,5.89-.58,11.94-3.63,17.97-4.02,8.04-.52,14.46,2.54,22.01,3.07,11.97.84,22.41-3.82,34.07-3.07,10.36.67,15.46,2.09,26.92,1.99,16.03-.13,30.36,1.23,45.99,2.08,9.56.52,17.72-3.29,26.04-3.12,7.56.15,15.04,4.32,24.06,4.13,22.68-.47,45.44-2.26,67.91-3.09,10.05-.37,20.65,1.95,31.08,1.07,5.32-.44,10.49-2.64,15.93-3.07,10.61-.84,21.36,1.88,32.07,1.07,5.79-.44,12.29-2.98,17.96-3.1,5.1-.11,9.95,1.77,14.97,2.11,11.68.79,25.25-.83,37-1.08,8.47-.18,16.98.31,25.44-.06ZM1122.74,815.66,1062.89,783.57,1120.48,809.03c-2.75-6.47-18.9-20.15-26.09-21.01-4.68-.56-8.6.99-12.97,1.06-17.27.29-22.14-1.71-39.23,5.78-3.9,1.71-8.9,3.62-9.89,8.19,1.46,3.05,23.14,10.41,27.15,10.9,4.37.53,7.17-.91,10.87-.95,4.7-.06,17.26-.81,20.84.24.97.29,1.69.96,2.23,1.79l.34,3.3c-.91,3.22-13.35,6.03-16.62,6.44-6.27.79-23.84-2.29-30.03-4.46-10.52-3.69-18.22-18.13-30.74-19.26-12.59-1.14-29.85-.13-42.98-.1-6.44.01-14.48,3.17-21,3.18-7.67,0-16.1-3.35-24.03-3.15-5.85.15-12.59,2.4-18.47,3.06,4.05,7.92,11.17,10.96,17.48,16.01,4.75,3.81,9.39,9.6,15.14,11.86,10.64,4.18,25.65,2.89,36.78,6.22l2.53,4.4c-.03,9.97-21.28,4.44-27.19,2.26-5.39-1.99-10.74-5.58-16.05-7.95-3.99-1.79-8.36-1.98-12.63-4.37-6.67-3.73-8.67-8.71-13.09-13.91-3.63-4.27-8.53-7.47-10.14-13.36-5.69.01-12.83-2.27-18.29-2.2-3.42.04-8.4,1.72-12.06,2.03-6.44.54-13.04.83-19.5,1-1.17,17.19-5.73,35.29-20.75,45.49-.04.55,5.32,8.37,6.1,9.17,1.45,1.49,12.7,10.41,14.29,11.2,9.5,4.72,21.75-3.61,30.37-7.35,18.44-8,30.56-16.93,52.25-13.27,4.94.83,9.72,5.12,14.67,6.33,4.26,1.04,9.87.72,14.29,1.71,13.02,2.92,39.05,11.34,51.26,10.71,8.67-.45,16.59,5.53,22.98-.94,9.06-9.19,30.66-6.01,54.18-9.91,13.7-2.27,33.45-11.11,30.83-25.9M707.72,805.19c-8.92.89-18.81-1.51-27.4-1.19-7.74.29-14.72,3.52-23,3.07-7.32-.4-15.83-4.2-22.96-4.11-6.67.08-14.34,3.48-21.02,4.07-9.06.79-16.08-2.07-23.98-2.08-10.19,0-23.11,3.7-33.8,3.29-3.46,4.05-8.41,7.35-11.68,11.32-2.19,2.66-3.36,5.93-5.5,8.5-5.18,6.24-12.82,10.01-16.7,17.3-1.46,2.74-5.55,17.23-9.22,16.62-5.55-3.51-1.06-10.93,1.57-15.27,3.57-5.92,12.5-19.12,16.85-24.15s10.42-8.03,13.95-14.03c.01-1.41-8.05-2.32-9.03-1.95-.6.23-9.25,6.52-10.42,7.48-3.2,2.61-5.85,6.38-9.05,8.95-6.7,5.36-16.3,9.93-22,15-8.07,7.19-17.41,20.8-24.96,29.04-2.93,3.19-7.13,5.5-9.51,8.49-1.08,1.36-7.12,12.02-6.91,12.9,6.61,6.02,14.93,9.18,22.58,13.43,4.49,2.5,10.51,7.58,14.78,9.22,3.56,1.37,23.89,4.78,28.1,4.96,15.42.66,19.36-4.81,31.18-9.79,7.4-3.11,16.36-3.25,24.28-6.72,4.59-2.01,8.99-6.22,14-7.51.71-1.01-3.83-5.75-4.74-7.75-9.22-20.31-3.3-41.06,9.31-58.17,2.04-2.77,8.08-7.32,5.97-1.03-1.73,5.17-5.86,7.82-7.94,12.06-3.37,6.85-5.34,30.54-4.49,38.29.17,1.52,1.13,5.78,1.84,6.91.27.43,7.61,5.96,8.07,6.17,4.03,1.87,8.71-1.2,12.98-.49-2.38-2.62-4.67-3.61-6.4-7.09-2.95-5.94-5.77-31.54,2.89-32.93,1.79-.48,1.97,1.27,1.99,2.51.09,7.09-3.3,10.27.02,18.51,1.43,3.54,10.66,15.11,14.11,15.76,3.56.67,15.99-2.67,20.88-2.76,5.08-.09,10.97,1.6,16.99.99,5.16-.53,10.14-3.3,15.12-3.88,11.06-1.29,15.82,2.28,26.3-4.7,17.9-11.92,23.65-28.47,17.6-49.42-2.44-8.44-7.04-12.52-10.65-19.84ZM845.83,806.09c-3.79-2.1-6.81-.09-10.43,0-17.23.41-37.5-2.15-54.08-1.08-7.74.5-13.54,3.67-22,3.07-6.06-.43-12.08-3.45-17.97-4.02-8.54-.83-16.96,1.63-25.49,1,5.09,7.38,9.29,13.5,10.9,22.59.58,3.29-1.05,6.9,1.55,9.45.74.73,15.67,9.14,17.26,9.74,3.42,1.29,7.2,1.27,10.51,2.49,5.33,1.96,11.03,5.69,15.79,7.21,8.38,2.67,28.94-.82,38.2-2.79,8.83-1.88,13.31-2.54,19.21-9.79,8.11-9.94,16.1-24.94,16.56-37.86ZM524.86,808.05c-3.62-.66-7.04.9-10.46,1.03-8.15.3-17.04.06-25.05-.05-9.1-.13-19.06-2.17-26.98-2.07-5.69.07-13.07,2.73-19.02,3.07-17.62,1.02-34.49-2.96-51.98-2.98-8.45-.01-15.82,1.7-23.78,1.21-5.46,3.86-21.47,7.88-25.29,11.72-2.82,2.84-10.08,20.67-10.37,24.71-.99,13.94,14.06,21.6,25.39,25.39,11.28,3.78,15.07-.8,25.14-1.93,6.71-.76,22.86.69,29.65,2.13,12.88,2.74,22.65,14.91,36.73,15.76.02-1.26.2-2.54.8-3.68,7.75-14.66,18.53-28.31,30.17-39.86,4.3-4.27,10.63-6.44,15.52-10.48,4.35-3.6,7.12-8.36,11.06-11.94,5.66-5.15,12.78-7.27,18.47-12.02ZM826.85,855.04l-19.79,10.7c-10.97,4.3-20.81-.83-30.96-2.45-16.89-2.7-29.56-3.5-44-15-2.42-1.93-3.47-4.8-6.24-6.25,1.81,11.78-5.01,25.17-13.52,32.99-4.45,4.1-9.94,5.45-14.49,9,4.99,1.11,10.43.39,15.39,1.12,7.92,1.16,18.31,3.62,26.85,5.15,8.47,1.52,14.34,6.22,21.74,8.26,7.03,1.95,13.61,1.02,20.8,3.2,4.18,1.27,8.42,3.84,12.7,5.3,13.24,4.5,24.74,7.67,36.51,15.98l-5-68ZM1037.77,878.1c-9.41,2.7-19.11-2.53-28.42-2.85-17.31-.6-28.06-.45-45.27-5.93-6.3-2-11.5-6.44-18.16-7.84-17.04-3.58-36.86-1.33-53.05,5.07-9.81,3.88-13.71,14.33-27.47,13.51-6.5-.39-21.63-5.19-26.05-10-1.76-1.92-2.5-4.77-4.47-6.01l6,51.99c9.97-4.51,20.26.05,29.38-.1,4.36-.07,9.75-2.49,14.12-2.88,7.08-.64,19.33-.14,26.99-.09,7.08.04,15.22,3.46,22.01,4.08,8.25.75,17.13-1.59,25.98-.97,9.05.63,20.86,1.85,29.9,3.1,10.81,1.5,18.33,5.62,29.85,3.6,5.96-1.05,20.78-4.3,24.22-8.78,12.21-15.94.45-21.78-5.53-35.88ZM380.86,879.05c-3.94.64-7.67-1.11-11.5-1.1-12.83.04-26.3,3.18-35.99,12.1-6.51,5.98-3.31,21.07,2.04,26.94,2.68,2.94,37.05,9.45,38.45,8.06-.89-15.65,3.7-30.88,6.99-46ZM465.86,908.03c-5.16-6.17-13.6-8.19-20.31-12.18-5.45-3.25-10.43-8.71-16.15-10.85-4.6-1.73-24.73-6.73-29.2-6.89-4.52-.16-10.6,1.83-15.29,1.98l-4.04,45.95c7.4-2.49,16.15-8.04,23.99-8.59,17.27-1.22,30.03-5.13,46.82-8.09,4.69-.83,9.37-1.69,14.18-1.33ZM806.85,921.05c-7.95-3.89-17.34-5.31-25.27-8.23-6.99-2.58-13.12-7.41-20.67-9.33-12.35-3.12-23.51-7.23-34.84-10.16-5.63-1.45-10.45-.6-15.47-1.53-3.92-.73-18.98-5.73-21.09-5.51-1.94.2-6.93,3.52-9.64,4.24-9.3,2.47-17.82-2.04-27.54-1.53-12.01.64-31.01,2.67-42.7,5.29-6.31,1.41-10.82,5.26-16.97,7.03-6.24,1.79-12.51,1.82-18.77,4.23-7.04,2.72-12.88,9.2-19.45,11.55-4.48,1.6-9.28,1.33-13.61,2.39-12.58,3.07-20.21,6.49-34.21,4.31-7.01-1.09-15.31-8.47-21.21-8.59-7.97-.17-21,5.11-29.3,6.56-11.03,1.93-22.7.34-33.24,3.77.02.88,13.44.42,15.39.62,24.62,2.54,49.45,8.37,74.29,9.49,4.2.19,8.85-1.05,13.72-.51,5.15.57,10.83,3.38,16.11,3.89,7.02.68,13.55-1.46,20.03-1.03,4.47.3,7.77,2.59,11.95,3.05,28.15,3.1,55.57-4.79,83.05-1.96,45.38-4.36,92.56.69,135.68-15.32l13.77-2.71ZM374.59,930.34c-7.93-3.59-21.78.47-28.66,5.26-7.49,5.22-8.56,14.4-8.09,22.98.21,3.75,1.83,7.44,2.01,10.98.75,14.24-3.19,41.96,16.75,45.25,14,2.31,29.62,1.78,43.8,2.2,3.89.11,9.24,1.93,12.96,1.84,4.49-.11,10.06-2.49,14.96-2.83,10.9-.76,22.12,1.91,33.02,1.02,5.27-.43,11.77-3.08,16.97-3.01,8.48.11,15.95,3.77,26.09,3.07,5.15-.36,11.31-2.98,15.97-3.03,5.41-.06,12.56,2.91,17.99,3.06,10.03.27,21.31-1.62,32.05-1.11,5.95.28,11.74,2.44,17.99,2.08,5.22-.31,11.63-3.07,16.86-2.93,5.68.15,12.97,3.8,19.1,3.96,30.33.79,62.49-2.54,93.05-1.11,8.81.41,19.3,3.07,27.95,3.11,6.98.03,13.67-2.43,21.05-2.1,3.91.17,8.2,1.84,11.97,2.02,21.2,1,42,.79,62.93-.03,9.27-.36,17.71,3.02,26.05,2.84s14.73-3.49,23.89-2.67c12.22,1.09,17.05,2,30.08,1.84,35.71-.46,76.51,3.63,108.43-14.57,8.75-4.99,12.46-12.97,15.57-22.43,3.62-11,3.46-23.88,2.53-35.44-.29-3.59-.97-9.01-3.48-11.52-.76-.76-10.56-7.6-11.21-7.79-1.95-.56-15.56-1.22-18.74-1.26-21.33-.29-40.46,0-61.93-3.07-5.66-.81-11.72-3.36-17.13-3.87-14.01-1.32-33.47.72-48.03.03-5.51-.26-11.69-3.04-16.97-3.12-4.58-.07-10.63,2.1-14.99,2.08-4.64-.02-10.85-2.11-15.49-3-.1,2.56-1.07,10.08-3.68,10.9-2.83.89-13.47-5.4-18.74-4.88-3.83.38-11.23,6.06-16.58,7.49-7.82,2.09-15.21,1.06-23.21,2.79-8.32,1.8-17.92,7.39-26.41,7.6-26.97.67-53.93,1.67-80.85,2.15-6.04.11-13.25-.68-19.05-.05-4.32.47-8.2,2.73-12.95,3.04-6.81.44-12.15-2.21-18.03-2.11-3.63.06-7.44,1.85-11.02,2.06-11.62.69-22.6-.56-33.81-.6-3.71-.01-8.43,1.67-12.02,1.55-5.94-.21-13.2-4.33-19.14-4.94-7.44-.76-15.07,1.97-22.93.92-3.96-.53-8.2-3.3-12.17-3.83-16.9-2.28-34.84-2.5-51.79-4.21-17.4-1.75-30.82-8.27-49.08-7.92-8.64.16-22.22,6.27-31.66,3.61-1.8-.51-1.79-2.1-2.16-2.27Z"/>
  <path class="cls-1" d="M1015.69,902.88l-.77-5.41c-13.68-2.64-26.89-.66-40.61-.39-8.16.17-13.78.43-21.97.94-12.44.78-20.6-4.45-32-4.97-6.74-.31-13.25,1.74-20,.99-4.17-.47-7.45-2.67-11.95-3.04-5-.41-16.74.49-21.96,1.12-2.8.33-5.47,2.4-8.58,1.92-2.71,2.5,7.6,3.77,8.62,3.86,11.24,1.06,23.95.07,34.86,1.14,6.97.68,14.92,4.18,22.13,4.87,7.12.68,14.87-.55,21.87.13,5.56.54,11.47,3.46,17.02,3.98,8.26.77,29.26-.24,37.98-1.01,2.33-.21,14.54-2.82,15.35-4.14Z"/>
  <path d="M608.86,520.06c2.01,2.14-5,2.8-5.62,2.87-7.59.86-20.42,1.04-27.2,2.8-4.37,1.13-10.29,5.61-15.65,7.35-5.65,1.84-12.21,2.16-17.54,4.46-12.22,5.29-45.14,25.75-53.51,35.49-6.76,7.86-12.43,19.28-18.77,27.71-6.65,3.59-7.44-2.34-5.2-7.69,5.73-13.72,14.5-17.82,24.02-26.98,4.92-4.73,8.67-10.68,14-15,14.15-11.48,31.42-16.35,47.8-23.2,9.74-4.07,15.23-4.01,24.72-6.28,3.89-.93,8.06-3.68,11.69-4.31,6.36-1.1,15.27.78,21.26,2.78Z"/>
  <path d="M606.86,922.05c8.85.74,17.63,1.05,26.54,1.04,16.23,0,31.6-3.05,47.94-3.04,14.8,0,29.78-4.05,44.01-4.1,3.73-.01,6.83,1.31,10.97,1.08,6.98-.38,15.57-4.01,23.07-4.03,2.57,0,11.51.75,11.49,3.54-.21,1.53-1.28,2.85-2.76,3.28-2.95.87-13.53,1.99-16.89,2.12-12.7.46-23.01.68-35.88,2.11-20.63,2.3-41.92.8-62.02,2.98-10.1,1.1-16.96,4.76-28.76,2.77-3.12-.53-6.22-2.79-9.47-3.53-3.7-.85-9.01,1.51-8.27-4.23Z"/>
  <path d="M1015.69,902.88c-.8,1.31-13.01,3.93-15.35,4.14-8.72.77-29.71,1.78-37.98,1.01-5.55-.52-11.45-3.44-17.02-3.98-7-.68-14.75.55-21.87-.13-7.21-.69-15.16-4.19-22.13-4.87-10.92-1.07-23.62-.08-34.86-1.14-1.02-.1-11.34-1.37-8.62-3.86,3.11.47,5.78-1.59,8.58-1.92,5.22-.62,16.97-1.53,21.96-1.12,4.5.37,7.78,2.58,11.95,3.04,6.74.75,13.26-1.3,20-.99,11.4.52,19.56,5.75,32,4.97,8.19-.51,13.81-.77,21.97-.94,13.72-.28,26.93-2.25,40.61.39l.77,5.41Z"/>
</svg>