<?xml version="1.0" encoding="UTF-8"?>
<svg id="Calque_1" data-name="Calque 1" xmlns="http://www.w3.org/2000/svg" viewBox="0 0 841.89 396.42">
  <path d="M106.81,160.08h32.5l4.11-11.6h-65.36v101.01h28.71v-46.69h16.99l3.73-10.25h-20.68v-32.47Z"/>
  <path d="M356.45,154.83c.09,10.19.12,13.16.17,23.34,0,.39,0,.78,0,1.07-2.33-.92-4.53-2.03-6.86-2.66-6.23-1.67-12.5-1.25-18.66.43-10.98,2.99-18.83,9.61-22.66,20.48-2.89,8.19-3.17,18.03-1.33,26.47,2.59,11.83,9.41,20.25,20.9,24.55,4.46,1.67,9.11,2.37,13.86,1.78,5.48-.68,9.81-3.54,13.47-7.53.45-.49.9-.99,1.35-1.49.08.04.16.08.25.12v8.07h23.67v-105.1l-22.81,8.65c-1.01.32-1.36.73-1.35,1.82ZM345.62,241.53c-7.37.57-14.23-11.15-15.32-26.19-1.09-15.04,4-27.69,11.37-28.26,7.37-.57,14.23,11.15,15.31,26.19,1.09,15.04-4,27.69-11.37,28.26Z"/>
  <path d="M547.53,189.21c-1.69-4.59-4.33-8.47-8.7-10.85-6.13-3.33-12.62-3.77-19.24-1.67-5.15,1.63-9.6,4.42-12.98,8.72-.47.6-.82,1.29-1.39,2.18v-43.24s-15.78,6.34-23.21,8.94c-.91.29-1.15.7-1.15,1.62.02,33.15.02,60.12.02,93.27v1.25h24.36v-1.29c0-5.22,0-10.45,0-15.67,0-9.48,0-18.97.05-28.45,0-2.37.59-4.63,1.79-6.69,2.14-3.68,5.34-5.66,9.62-5.36,4.17.3,7.07,2.64,8.44,6.53.67,1.91.96,4.05.97,6.09.08,14.48.04,28.97.04,43.45v1.36h23.75v-1.06c0-14.6.04-29.19-.02-43.79-.02-4.83-.68-10.77-2.36-15.35Z"/>
  <path d="M420.68,170.81c1.83-4.03,4.27-7.56,8.26-9.72,5.36-2.9,13.77-3.33,18.85,3.82,2.08,2.92,3.35,6.17,4,9.66.37,1.97.55,3.97.82,6.03l21.36-8.11c-1.01-4.65-3.06-8.67-6.23-12.12-7.06-7.68-16.13-11.06-26.28-11.76-8.16-.57-16.11.71-23.71,3.76-12.49,5.01-21.67,13.52-26.6,26.15-5.02,12.88-5.07,26.05-1.19,39.21,3.06,10.38,9.12,18.69,18.25,24.62,6.35,4.12,13.37,6.42,20.85,7.35,6.18.77,12.35.81,18.4-.91,10.29-2.93,18.12-9,23.21-18.48.63-1.17,1.16-2.39,1.49-3.7l-7.32-2.85c-1.11,2.03-1.96,4.03-3.2,5.75-4.18,5.84-10.06,8.53-17.15,8.68-10.52.22-18.43-4.13-23.38-13.54-2.78-5.29-4.03-11.02-4.64-16.91-.8-7.66-.5-15.32.5-22.94.63-4.82,1.68-9.54,3.7-14Z"/>
  <path d="M603.17,177.58c-8.45-1.84-16.81-1.16-24.86,2.06-9.01,3.59-15.29,9.98-18.77,19.03-2.59,6.73-3.3,13.72-2.36,20.86,1.57,11.81,7.32,21.01,17.63,27.09,8.02,4.73,16.76,6.52,25.96,4.84,8.13-1.48,14.75-5.77,20.08-12.02,1.8-2.11,3.28-4.45,4.21-7.17-2.8-1.61-5.55-3.2-8.34-4.8-.25.42-.45.77-.65,1.12-1.57,2.71-3.44,5.17-5.68,7.36-6.87,6.69-15.63,4.7-20.73,0-3.51-3.23-5.4-7.37-6.42-11.93-.48-2.15-.72-4.35-1.09-6.68h44.73c.47-6.46.22-13.17-1.9-19.63-3.52-10.74-10.67-17.7-21.81-20.13ZM582.41,208.03c.59-6.8,1.37-13.4,5.12-19.19,1.41-2.18,3.3-3.84,6.05-4.04,3.47-.25,5.84,1.45,7.44,4.4,1.67,3.09,2.27,6.48,2.6,9.91.28,2.93.34,5.89.5,8.92h-21.71Z"/>
  <path d="M678.82,175.13c-9.74-1.03-16.58,3.27-20.72,12.14v-14.77l-23.09,8.85c-.97.31-1.28.71-1.27,1.76.18,21.78-.02,65.98,0,66.35h24.38v-36.88c0-3.22.02-6.45,0-9.67-.02-2.19.59-4.15,1.92-5.9,4.14-5.43,12.04-6.27,17.13-1.74,1.48,1.32,2.74,2.88,4.16,4.4,4.47-4.56,9.03-9.21,13.65-13.93-3.81-6.01-9.08-9.86-16.15-10.6Z"/>
  <path d="M701.65,182.94c.03,21.3.02,44.02.02,65.32,0,.39,0,.78,0,1.15h24.2v-76.92l-23.12,8.89c-.86.28-1.1.67-1.1,1.56Z"/>
  <path d="M591.59,167.26l30.79-18.78,1.46-4.02-27.92.02c-.3-.04-.83.28-.97.57l-7.78,21.42c2.23.86.61.21,2.72,1.08.68.28,1.13.17,1.69-.28Z"/>
  <path d="M192.36,178.54c-8.7-3.68-17.75-3.97-26.84-1.55-12.46,3.31-21.55,10.52-26.57,22.03-2.95,6.77-3.39,13.85-2.09,21.02,1.61,8.91,5.91,16.37,13.54,21.89,7.12,5.15,15.36,7.46,24.17,7.57,3.5-.51,7.08-.73,10.5-1.57,12.43-3.08,21.59-10.02,26.5-21.52,3.66-8.57,3.37-17.36.56-26.06-3.22-9.98-9.64-17.51-19.77-21.8ZM185.05,241.1c-7.57,2.75-17.09-7.33-22.52-22.25-5.43-14.91-4.7-29,2.87-31.75,7.57-2.75,17.15,7.8,22.58,22.71,5.43,14.91,4.64,28.53-2.92,31.29Z"/>
  <path d="M277.3,178.54c-8.7-3.68-17.75-3.97-26.84-1.55-12.46,3.31-21.55,10.52-26.57,22.03-2.95,6.77-3.39,13.85-2.09,21.02,1.61,8.91,5.91,16.37,13.54,21.89,7.12,5.15,15.36,7.46,24.17,7.57,3.5-.51,7.08-.73,10.5-1.57,12.43-3.08,21.59-10.02,26.5-21.52,3.66-8.57,3.37-17.36.56-26.06-3.22-9.98-9.64-17.51-19.77-21.8ZM269.99,241.1c-7.57,2.75-17.09-7.33-22.52-22.25-5.43-14.91-4.7-29,2.87-31.75,7.57-2.75,17.15,7.8,22.58,22.71,5.43,14.91,4.64,28.53-2.92,31.29Z"/>
  <path d="M713.79,144.45c-6.67,0-12.08,5.41-12.08,12.08s5.41,12.08,12.08,12.08,12.08-5.41,12.08-12.08-5.41-12.08-12.08-12.08Z"/>
  <path d="M763.16,234.16c-1-3.12-3.01-5.47-6.18-6.81-2.72-1.15-5.55-1.24-8.38-.49-3.89,1.04-6.73,3.29-8.3,6.88-.92,2.12-1.06,4.33-.65,6.57.5,2.78,1.84,5.11,4.23,6.84,2.23,1.61,4.8,2.33,7.55,2.36,1.09-.16,2.21-.23,3.28-.49,3.88-.96,6.75-3.13,8.28-6.72,1.14-2.68,1.05-5.42.18-8.14Z"/>
</svg>